<?xml version="1.0" encoding="UTF-8"?>
<svg id="Capa_2" data-name="Capa 2" xmlns="http://www.w3.org/2000/svg" viewBox="0 0 731.41 65.4">
  <defs>
    <style>
      .cls-1 {
        fill: #b07a3a;
      }
    </style>
  </defs>
  <g id="Elementos">
    <g>
      <path class="cls-1" d="M29.63,40.9h-5.2v-5.13c0-3.53-2.88-6.41-6.41-6.41s-6.41,2.88-6.41,6.41v5.13h-5.2c-3.53,0-6.41,2.88-6.41,6.41s2.88,6.41,6.41,6.41h5.2v5.27c0,3.53,2.88,6.41,6.41,6.41s6.41-2.88,6.41-6.41v-5.27h5.2c3.53,0,6.41-2.88,6.41-6.41s-2.88-6.41-6.41-6.41Z"/>
      <path class="cls-1" d="M65.49,40.9h-5.2v-5.13c0-3.53-2.88-6.41-6.41-6.41s-6.41,2.88-6.41,6.41v5.13h-5.2c-3.53,0-6.41,2.88-6.41,6.41s2.88,6.41,6.41,6.41h5.2v5.27c0,3.53,2.88,6.41,6.41,6.41s6.41-2.88,6.41-6.41v-5.27h5.2c3.53,0,6.41-2.88,6.41-6.41s-2.88-6.41-6.41-6.41Z"/>
      <path class="cls-1" d="M46.22,11.54h-5.2v-5.13c0-3.53-2.88-6.41-6.41-6.41s-6.41,2.88-6.41,6.41v5.13h-5.2c-3.53,0-6.41,2.88-6.41,6.41s2.88,6.41,6.41,6.41h5.2v5.27c0,3.53,2.88,6.41,6.41,6.41s6.41-2.88,6.41-6.41v-5.27h5.2c3.53,0,6.41-2.88,6.41-6.41s-2.88-6.41-6.41-6.41Z"/>
      <path class="cls-1" d="M81.7,11.54h-5.2v-5.13c0-3.53-2.88-6.41-6.41-6.41s-6.41,2.88-6.41,6.41v5.13h-5.2c-3.53,0-6.41,2.88-6.41,6.41s2.88,6.41,6.41,6.41h5.2v5.27c0,3.53,2.88,6.41,6.41,6.41s6.41-2.88,6.41-6.41v-5.27h5.2c3.53,0,6.41-2.88,6.41-6.41s-2.88-6.41-6.41-6.41Z"/>
      <path class="cls-1" d="M101.1,40.9h-5.2v-5.13c0-3.53-2.88-6.41-6.41-6.41s-6.41,2.88-6.41,6.41v5.13h-5.2c-3.53,0-6.41,2.88-6.41,6.41s2.88,6.41,6.41,6.41h5.2v5.27c0,3.53,2.88,6.41,6.41,6.41s6.41-2.88,6.41-6.41v-5.27h5.2c3.53,0,6.41-2.88,6.41-6.41s-2.88-6.41-6.41-6.41Z"/>
      <path class="cls-1" d="M136.97,40.9h-5.2v-5.13c0-3.53-2.88-6.41-6.41-6.41s-6.41,2.88-6.41,6.41v5.13h-5.2c-3.53,0-6.41,2.88-6.41,6.41s2.88,6.41,6.41,6.41h5.2v5.27c0,3.53,2.88,6.41,6.41,6.41s6.41-2.88,6.41-6.41v-5.27h5.2c3.53,0,6.41-2.88,6.41-6.41s-2.88-6.41-6.41-6.41Z"/>
      <path class="cls-1" d="M117.7,11.54h-5.2v-5.13c0-3.53-2.88-6.41-6.41-6.41s-6.41,2.88-6.41,6.41v5.13h-5.2c-3.53,0-6.41,2.88-6.41,6.41s2.88,6.41,6.41,6.41h5.2v5.27c0,3.53,2.88,6.41,6.41,6.41s6.41-2.88,6.41-6.41v-5.27h5.2c3.53,0,6.41-2.88,6.41-6.41s-2.88-6.41-6.41-6.41Z"/>
      <path class="cls-1" d="M153.18,11.54h-5.2v-5.13c0-3.53-2.88-6.41-6.41-6.41s-6.41,2.88-6.41,6.41v5.13h-5.2c-3.53,0-6.41,2.88-6.41,6.41s2.88,6.41,6.41,6.41h5.2v5.27c0,3.53,2.88,6.41,6.41,6.41s6.41-2.88,6.41-6.41v-5.27h5.2c3.53,0,6.41-2.88,6.41-6.41s-2.88-6.41-6.41-6.41Z"/>
      <path class="cls-1" d="M172.58,40.9h-5.2v-5.13c0-3.53-2.88-6.41-6.41-6.41s-6.41,2.88-6.41,6.41v5.13h-5.2c-3.53,0-6.41,2.88-6.41,6.41s2.88,6.41,6.41,6.41h5.2v5.27c0,3.53,2.88,6.41,6.41,6.41s6.41-2.88,6.41-6.41v-5.27h5.2c3.53,0,6.41-2.88,6.41-6.41s-2.88-6.41-6.41-6.41Z"/>
      <path class="cls-1" d="M208.45,40.9h-5.2v-5.13c0-3.53-2.88-6.41-6.41-6.41s-6.41,2.88-6.41,6.41v5.13h-5.2c-3.53,0-6.41,2.88-6.41,6.41s2.88,6.41,6.41,6.41h5.2v5.27c0,3.53,2.88,6.41,6.41,6.41s6.41-2.88,6.41-6.41v-5.27h5.2c3.53,0,6.41-2.88,6.41-6.41s-2.88-6.41-6.41-6.41Z"/>
      <path class="cls-1" d="M189.18,11.54h-5.2v-5.13c0-3.53-2.88-6.41-6.41-6.41s-6.41,2.88-6.41,6.41v5.13h-5.2c-3.53,0-6.41,2.88-6.41,6.41s2.88,6.41,6.41,6.41h5.2v5.27c0,3.53,2.88,6.41,6.41,6.41s6.41-2.88,6.41-6.41v-5.27h5.2c3.53,0,6.41-2.88,6.41-6.41s-2.88-6.41-6.41-6.41Z"/>
      <path class="cls-1" d="M224.66,11.54h-5.2v-5.13c0-3.53-2.88-6.41-6.41-6.41s-6.41,2.88-6.41,6.41v5.13h-5.2c-3.53,0-6.41,2.88-6.41,6.41s2.88,6.41,6.41,6.41h5.2v5.27c0,3.53,2.88,6.41,6.41,6.41s6.41-2.88,6.41-6.41v-5.27h5.2c3.53,0,6.41-2.88,6.41-6.41s-2.88-6.41-6.41-6.41Z"/>
      <path class="cls-1" d="M244.06,40.9h-5.2v-5.13c0-3.53-2.88-6.41-6.41-6.41s-6.41,2.88-6.41,6.41v5.13h-5.2c-3.53,0-6.41,2.88-6.41,6.41s2.88,6.41,6.41,6.41h5.2v5.27c0,3.53,2.88,6.41,6.41,6.41s6.41-2.88,6.41-6.41v-5.27h5.2c3.53,0,6.41-2.88,6.41-6.41s-2.88-6.41-6.41-6.41Z"/>
      <path class="cls-1" d="M279.93,40.9h-5.2v-5.13c0-3.53-2.88-6.41-6.41-6.41s-6.41,2.88-6.41,6.41v5.13h-5.2c-3.53,0-6.41,2.88-6.41,6.41s2.88,6.41,6.41,6.41h5.2v5.27c0,3.53,2.88,6.41,6.41,6.41s6.41-2.88,6.41-6.41v-5.27h5.2c3.53,0,6.41-2.88,6.41-6.41s-2.88-6.41-6.41-6.41Z"/>
      <path class="cls-1" d="M260.66,11.54h-5.2v-5.13c0-3.53-2.88-6.41-6.41-6.41s-6.41,2.88-6.41,6.41v5.13h-5.2c-3.53,0-6.41,2.88-6.41,6.41s2.88,6.41,6.41,6.41h5.2v5.27c0,3.53,2.88,6.41,6.41,6.41s6.41-2.88,6.41-6.41v-5.27h5.2c3.53,0,6.41-2.88,6.41-6.41s-2.88-6.41-6.41-6.41Z"/>
      <path class="cls-1" d="M296.13,11.54h-5.2v-5.13c0-3.53-2.88-6.41-6.41-6.41s-6.41,2.88-6.41,6.41v5.13h-5.2c-3.53,0-6.41,2.88-6.41,6.41s2.88,6.41,6.41,6.41h5.2v5.27c0,3.53,2.88,6.41,6.41,6.41s6.41-2.88,6.41-6.41v-5.27h5.2c3.53,0,6.41-2.88,6.41-6.41s-2.88-6.41-6.41-6.41Z"/>
      <path class="cls-1" d="M315.54,40.9h-5.2v-5.13c0-3.53-2.88-6.41-6.41-6.41s-6.41,2.88-6.41,6.41v5.13h-5.2c-3.53,0-6.41,2.88-6.41,6.41s2.88,6.41,6.41,6.41h5.2v5.27c0,3.53,2.88,6.41,6.41,6.41s6.41-2.88,6.41-6.41v-5.27h5.2c3.53,0,6.41-2.88,6.41-6.41s-2.88-6.41-6.41-6.41Z"/>
      <path class="cls-1" d="M351.4,40.9h-5.2v-5.13c0-3.53-2.88-6.41-6.41-6.41s-6.41,2.88-6.41,6.41v5.13h-5.2c-3.53,0-6.41,2.88-6.41,6.41s2.88,6.41,6.41,6.41h5.2v5.27c0,3.53,2.88,6.41,6.41,6.41s6.41-2.88,6.41-6.41v-5.27h5.2c3.53,0,6.41-2.88,6.41-6.41s-2.88-6.41-6.41-6.41Z"/>
      <path class="cls-1" d="M332.13,11.54h-5.2v-5.13c0-3.53-2.88-6.41-6.41-6.41s-6.41,2.88-6.41,6.41v5.13h-5.2c-3.53,0-6.41,2.88-6.41,6.41s2.88,6.41,6.41,6.41h5.2v5.27c0,3.53,2.88,6.41,6.41,6.41s6.41-2.88,6.41-6.41v-5.27h5.2c3.53,0,6.41-2.88,6.41-6.41s-2.88-6.41-6.41-6.41Z"/>
      <path class="cls-1" d="M367.61,11.54h-5.2v-5.13c0-3.53-2.88-6.41-6.41-6.41s-6.41,2.88-6.41,6.41v5.13h-5.2c-3.53,0-6.41,2.88-6.41,6.41s2.88,6.41,6.41,6.41h5.2v5.27c0,3.53,2.88,6.41,6.41,6.41s6.41-2.88,6.41-6.41v-5.27h5.2c3.53,0,6.41-2.88,6.41-6.41s-2.88-6.41-6.41-6.41Z"/>
      <path class="cls-1" d="M387.02,40.9h-5.2v-5.13c0-3.53-2.88-6.41-6.41-6.41s-6.41,2.88-6.41,6.41v5.13h-5.2c-3.53,0-6.41,2.88-6.41,6.41s2.88,6.41,6.41,6.41h5.2v5.27c0,3.53,2.88,6.41,6.41,6.41s6.41-2.88,6.41-6.41v-5.27h5.2c3.53,0,6.41-2.88,6.41-6.41s-2.88-6.41-6.41-6.41Z"/>
      <path class="cls-1" d="M422.88,40.9h-5.2v-5.13c0-3.53-2.88-6.41-6.41-6.41s-6.41,2.88-6.41,6.41v5.13h-5.2c-3.53,0-6.41,2.88-6.41,6.41s2.88,6.41,6.41,6.41h5.2v5.27c0,3.53,2.88,6.41,6.41,6.41s6.41-2.88,6.41-6.41v-5.27h5.2c3.53,0,6.41-2.88,6.41-6.41s-2.88-6.41-6.41-6.41Z"/>
      <path class="cls-1" d="M403.61,11.54h-5.2v-5.13c0-3.53-2.88-6.41-6.41-6.41s-6.41,2.88-6.41,6.41v5.13h-5.2c-3.53,0-6.41,2.88-6.41,6.41s2.88,6.41,6.41,6.41h5.2v5.27c0,3.53,2.88,6.41,6.41,6.41s6.41-2.88,6.41-6.41v-5.27h5.2c3.53,0,6.41-2.88,6.41-6.41s-2.88-6.41-6.41-6.41Z"/>
      <path class="cls-1" d="M439.09,11.54h-5.2v-5.13c0-3.53-2.88-6.41-6.41-6.41s-6.41,2.88-6.41,6.41v5.13h-5.2c-3.53,0-6.41,2.88-6.41,6.41s2.88,6.41,6.41,6.41h5.2v5.27c0,3.53,2.88,6.41,6.41,6.41s6.41-2.88,6.41-6.41v-5.27h5.2c3.53,0,6.41-2.88,6.41-6.41s-2.88-6.41-6.41-6.41Z"/>
      <path class="cls-1" d="M458.49,40.9h-5.2v-5.13c0-3.53-2.88-6.41-6.41-6.41s-6.41,2.88-6.41,6.41v5.13h-5.2c-3.53,0-6.41,2.88-6.41,6.41s2.88,6.41,6.41,6.41h5.2v5.27c0,3.53,2.88,6.41,6.41,6.41s6.41-2.88,6.41-6.41v-5.27h5.2c3.53,0,6.41-2.88,6.41-6.41s-2.88-6.41-6.41-6.41Z"/>
      <path class="cls-1" d="M494.36,40.9h-5.2v-5.13c0-3.53-2.88-6.41-6.41-6.41s-6.41,2.88-6.41,6.41v5.13h-5.2c-3.53,0-6.41,2.88-6.41,6.41s2.88,6.41,6.41,6.41h5.2v5.27c0,3.53,2.88,6.41,6.41,6.41s6.41-2.88,6.41-6.41v-5.27h5.2c3.53,0,6.41-2.88,6.41-6.41s-2.88-6.41-6.41-6.41Z"/>
      <path class="cls-1" d="M475.09,11.54h-5.2v-5.13c0-3.53-2.88-6.41-6.41-6.41s-6.41,2.88-6.41,6.41v5.13h-5.2c-3.53,0-6.41,2.88-6.41,6.41s2.88,6.41,6.41,6.41h5.2v5.27c0,3.53,2.88,6.41,6.41,6.41s6.41-2.88,6.41-6.41v-5.27h5.2c3.53,0,6.41-2.88,6.41-6.41s-2.88-6.41-6.41-6.41Z"/>
      <path class="cls-1" d="M510.57,11.54h-5.2v-5.13c0-3.53-2.88-6.41-6.41-6.41s-6.41,2.88-6.41,6.41v5.13h-5.2c-3.53,0-6.41,2.88-6.41,6.41s2.88,6.41,6.41,6.41h5.2v5.27c0,3.53,2.88,6.41,6.41,6.41s6.41-2.88,6.41-6.41v-5.27h5.2c3.53,0,6.41-2.88,6.41-6.41s-2.88-6.41-6.41-6.41Z"/>
      <path class="cls-1" d="M529.97,40.9h-5.2v-5.13c0-3.53-2.88-6.41-6.41-6.41s-6.41,2.88-6.41,6.41v5.13h-5.2c-3.53,0-6.41,2.88-6.41,6.41s2.88,6.41,6.41,6.41h5.2v5.27c0,3.53,2.88,6.41,6.41,6.41s6.41-2.88,6.41-6.41v-5.27h5.2c3.53,0,6.41-2.88,6.41-6.41s-2.88-6.41-6.41-6.41Z"/>
      <path class="cls-1" d="M565.84,40.9h-5.2v-5.13c0-3.53-2.88-6.41-6.41-6.41s-6.41,2.88-6.41,6.41v5.13h-5.2c-3.53,0-6.41,2.88-6.41,6.41s2.88,6.41,6.41,6.41h5.2v5.27c0,3.53,2.88,6.41,6.41,6.41s6.41-2.88,6.41-6.41v-5.27h5.2c3.53,0,6.41-2.88,6.41-6.41s-2.88-6.41-6.41-6.41Z"/>
      <path class="cls-1" d="M546.57,11.54h-5.2v-5.13c0-3.53-2.88-6.41-6.41-6.41s-6.41,2.88-6.41,6.41v5.13h-5.2c-3.53,0-6.41,2.88-6.41,6.41s2.88,6.41,6.41,6.41h5.2v5.27c0,3.53,2.88,6.41,6.41,6.41s6.41-2.88,6.41-6.41v-5.27h5.2c3.53,0,6.41-2.88,6.41-6.41s-2.88-6.41-6.41-6.41Z"/>
      <path class="cls-1" d="M582.05,11.54h-5.2v-5.13c0-3.53-2.88-6.41-6.41-6.41s-6.41,2.88-6.41,6.41v5.13h-5.2c-3.53,0-6.41,2.88-6.41,6.41s2.88,6.41,6.41,6.41h5.2v5.27c0,3.53,2.88,6.41,6.41,6.41s6.41-2.88,6.41-6.41v-5.27h5.2c3.53,0,6.41-2.88,6.41-6.41s-2.88-6.41-6.41-6.41Z"/>
      <path class="cls-1" d="M601.45,40.9h-5.2v-5.13c0-3.53-2.88-6.41-6.41-6.41s-6.41,2.88-6.41,6.41v5.13h-5.2c-3.53,0-6.41,2.88-6.41,6.41s2.88,6.41,6.41,6.41h5.2v5.27c0,3.53,2.88,6.41,6.41,6.41s6.41-2.88,6.41-6.41v-5.27h5.2c3.53,0,6.41-2.88,6.41-6.41s-2.88-6.41-6.41-6.41Z"/>
      <path class="cls-1" d="M637.32,40.9h-5.2v-5.13c0-3.53-2.88-6.41-6.41-6.41s-6.41,2.88-6.41,6.41v5.13h-5.2c-3.53,0-6.41,2.88-6.41,6.41s2.88,6.41,6.41,6.41h5.2v5.27c0,3.53,2.88,6.41,6.41,6.41s6.41-2.88,6.41-6.41v-5.27h5.2c3.53,0,6.41-2.88,6.41-6.41s-2.88-6.41-6.41-6.41Z"/>
      <path class="cls-1" d="M618.05,11.54h-5.2v-5.13c0-3.53-2.88-6.41-6.41-6.41s-6.41,2.88-6.41,6.41v5.13h-5.2c-3.53,0-6.41,2.88-6.41,6.41s2.88,6.41,6.41,6.41h5.2v5.27c0,3.53,2.88,6.41,6.41,6.41s6.41-2.88,6.41-6.41v-5.27h5.2c3.53,0,6.41-2.88,6.41-6.41s-2.88-6.41-6.41-6.41Z"/>
      <path class="cls-1" d="M653.53,11.54h-5.2v-5.13c0-3.53-2.88-6.41-6.41-6.41s-6.41,2.88-6.41,6.41v5.13h-5.2c-3.53,0-6.41,2.88-6.41,6.41s2.88,6.41,6.41,6.41h5.2v5.27c0,3.53,2.88,6.41,6.41,6.41s6.41-2.88,6.41-6.41v-5.27h5.2c3.53,0,6.41-2.88,6.41-6.41s-2.88-6.41-6.41-6.41Z"/>
      <path class="cls-1" d="M672.93,40.9h-5.2v-5.13c0-3.53-2.88-6.41-6.41-6.41s-6.41,2.88-6.41,6.41v5.13h-5.2c-3.53,0-6.41,2.88-6.41,6.41s2.88,6.41,6.41,6.41h5.2v5.27c0,3.53,2.88,6.41,6.41,6.41s6.41-2.88,6.41-6.41v-5.27h5.2c3.53,0,6.41-2.88,6.41-6.41s-2.88-6.41-6.41-6.41Z"/>
      <path class="cls-1" d="M708.79,40.9h-5.2v-5.13c0-3.53-2.88-6.41-6.41-6.41s-6.41,2.88-6.41,6.41v5.13h-5.2c-3.53,0-6.41,2.88-6.41,6.41s2.88,6.41,6.41,6.41h5.2v5.27c0,3.53,2.88,6.41,6.41,6.41s6.41-2.88,6.41-6.41v-5.27h5.2c3.53,0,6.41-2.88,6.41-6.41s-2.88-6.41-6.41-6.41Z"/>
      <path class="cls-1" d="M689.53,11.54h-5.2v-5.13c0-3.53-2.88-6.41-6.41-6.41s-6.41,2.88-6.41,6.41v5.13h-5.2c-3.53,0-6.41,2.88-6.41,6.41s2.88,6.41,6.41,6.41h5.2v5.27c0,3.53,2.88,6.41,6.41,6.41s6.41-2.88,6.41-6.41v-5.27h5.2c3.53,0,6.41-2.88,6.41-6.41s-2.88-6.41-6.41-6.41Z"/>
      <path class="cls-1" d="M725,11.54h-5.2v-5.13c0-3.53-2.88-6.41-6.41-6.41s-6.41,2.88-6.41,6.41v5.13h-5.2c-3.53,0-6.41,2.88-6.41,6.41s2.88,6.41,6.41,6.41h5.2v5.27c0,3.53,2.88,6.41,6.41,6.41s6.41-2.88,6.41-6.41v-5.27h5.2c3.53,0,6.41-2.88,6.41-6.41s-2.88-6.41-6.41-6.41Z"/>
    </g>
  </g>
</svg>