<?xml version="1.0" encoding="UTF-8"?>
<svg id="Capa_2" data-name="Capa 2" xmlns="http://www.w3.org/2000/svg" viewBox="0 0 145.88 124.46">
  <defs>
    <style>
      .cls-1 {
        fill: #4c4b2d;
      }

      .cls-2 {
        fill: #3b3923;
      }

      .cls-3 {
        fill: #f0d09f;
      }

      .cls-4 {
        fill: #e3ba87;
      }

      .cls-5 {
        fill: #d28a38;
      }

      .cls-6 {
        fill: #6f6536;
      }

      .cls-7 {
        fill: #c47930;
      }

      .cls-8 {
        fill: #bca16f;
      }

      .cls-9 {
        fill: #e2a966;
      }
    </style>
  </defs>
  <g id="Elementos">
    <g>
      <path class="cls-3" d="M43.14,107.54c1.38,4.29,6.24,4.46,9.91,4.22,4.61-.31,9.21,2.62,13.83,1.27,3.06,1.61,4.48,5.13,7.38,7.07-4.95,3.03-39.12-1.2-32.23-14.14.25.57.92,1,1.12,1.59Z"/>
      <g>
        <path class="cls-8" d="M100.7,71.94c-.84.07-1.66-.13-2.48-.21-.46-7.98,3.03-26.57,2.27-33.03-.06-.46-.01-1.08.11-1.53l.7-2.49c1.26-4.51,1.71-9.57,1.22-14.7-5.27,2.37-10.06,5.31-15.24,6.1-12.55,1.92-25.1,2.67-37.51-.05-5.65-1.24-11.69-2.37-17.27-6.32-1.56,6.7,1.7,12.34,2.03,18.32l.8,14.34,4.83,43.42c.41,3.68.41,7.11,1.87,10.17-6.89,12.94,27.28,17.17,32.23,14.14.37.25.56.91.95,1.08-1.99,2-4.68,1.53-7.62,1.45-9.21-.28-18.31-1.57-25.51-6.64-1.04-1.35-1.99-3.24-3.25-4.38-.05-3.85-1.22-7.57-1.65-11.97L28.99,16.85c-.38-3.81.55-6.64,3.69-8.73C54.35-6.33,107.42.07,106.02,15.07l-5.32,56.87ZM54.81,24.17c8.93,1.87,18.56,2.42,27.87.24,4.72-.56,19.01-4.3,20.01-9.78.81-4.44-5.39-7.36-9.45-8.56-17.43-5.14-35.8-4.86-53.11.72-3.26,1.05-6.42,3.18-7.99,6.05-3.2,5.86,17.85,12.29,22.67,11.33Z"/>
        <path class="cls-5" d="M44.66,43.81c-.63,7.25.82,14.45,1.63,22.09l4.2,39.67c.11,1.03,1.8,1.54,2.4,1.75.74.27,1.55-1.08,1.46-2.39l-3.99-58.38.34-1.71c15.5,2.94,36.01,2.62,49.78-6.13.77,6.46-2.73,25.05-2.27,33.03-6.68-.65-13.87.68-19.92,4.1-9.47,5.36-14.38,15.07-13.52,25.73.37,4.6-1.76,1.28,2.1,11.47-4.62,1.35-9.23-1.58-13.83-1.27-2.91-2.11-6.6-2.81-9.91-4.22-.19-.59-.87-1.02-1.12-1.59-1.46-3.05-1.46-6.49-1.87-10.17l-4.83-43.42-.8-14.34,10.14,5.78Z"/>
        <path class="cls-3" d="M82.69,24.41c-8.93-2.49-18.87-2.38-27.87-.24-4.82.96-25.87-5.47-22.67-11.33,1.57-2.87,4.73-5,7.99-6.05,17.32-5.58,35.69-5.86,53.11-.72,4.06,1.2,10.26,4.12,9.45,8.56-1,5.48-15.29,9.22-20.01,9.78Z"/>
        <path class="cls-5" d="M49.76,27c2.16-.09,4.32,1.59,6.83,1.59l21.95-.03c3.11,0,6.04-1.97,8.81-1.64,4.07.49,9.16,1.54,11.7,4.85l2.24,2.92-.7,2.49c-15.71,10.16-47.13,10.52-63.46.85-1.05-.62-2.04-1.62-2.43-2.48-1.64-3.63,7.34-8.21,15.05-8.55Z"/>
        <path class="cls-3" d="M49.76,26.03v.97c-7.71.34-16.69,4.91-15.05,8.55.39.85,1.38,1.86,2.43,2.48,16.33,9.67,47.75,9.31,63.46-.85-.13.45-.17,1.07-.11,1.53-13.77,8.75-34.28,9.07-49.78,6.13-1.89-.36-4.11-1.45-6.05-1.03l-10.14-5.78c-.33-5.97-3.6-11.62-2.03-18.32,5.58,3.95,11.62,5.08,17.27,6.32Z"/>
        <path class="cls-3" d="M101.3,34.68l-2.24-2.92c-2.54-3.31-7.63-4.36-11.7-4.85l-.08-.83c5.18-.79,9.97-3.73,15.24-6.1.49,5.14.05,10.2-1.22,14.7Z"/>
        <path class="cls-5" d="M82.69,24.41c-9.32,2.17-18.95,1.63-27.87-.24,9.01-2.13,18.94-2.24,27.87.24Z"/>
        <path class="cls-4" d="M87.27,26.08l.08.83c-2.77-.33-5.71,1.64-8.81,1.64l-21.95.03c-2.51,0-4.67-1.68-6.83-1.59v-.97c12.41,2.72,24.96,1.97,37.51.05Z"/>
        <path class="cls-9" d="M50.71,44.84l-.34,1.71,3.99,58.38c.09,1.31-.71,2.66-1.46,2.39-.6-.22-2.29-.73-2.4-1.75l-4.2-39.67c-.81-7.64-2.27-14.84-1.63-22.09,1.93-.42,4.15.67,6.05,1.03Z"/>
        <path class="cls-8" d="M53.05,111.76c-3.67.25-8.53.07-9.91-4.22,3.31,1.41,6.99,2.1,9.91,4.22Z"/>
      </g>
      <g>
        <path class="cls-7" d="M98.22,71.73c.83.08,1.64.28,2.48.21l1.61,2.31c-1.45.18-4.21.43-4.03,2.54,1.82,1.24,2.87,3,2.27,5.2-.13.17-.49.38-.75.92-.35.07-.72.13-1.12.24-.67.18-.31,1.12-.58,1.46-1.68.81-4.92,4.34-5.91,6.09-2.88,1.78-6.02,3.34-8.55,5.67-6.14,1.05-11.86,3.88-17.79,7.02,4.05,11.13,14.91,17.72,26.18,14.97,9.71-2.37,16.79-9.55,19.16-17.98,2.85-10.15-3.63-18.62-8.87-26.14,2.91-.37,5.39,1.23,7.24,3.95l3.86,5.67c.2,1.66.99,3.49,1.53,5.05.7,2.01.03,4.62.97,6.65,0,.91-.55,1.71-.71,2.58-.14.73.49,1.64.29,2.39l-1.16,4.31c-2.1,7.84-7.77,14.35-14.17,17.23-8.92,4.01-17.03,2.42-24.97-.9-.39-.17-.58-.83-.95-1.08-2.9-1.93-4.32-5.45-7.38-7.07-3.85-10.19-1.73-6.86-2.1-11.47-.86-10.66,4.05-20.37,13.52-25.73,6.04-3.42,13.24-4.75,19.92-4.1Z"/>
        <path class="cls-7" d="M92.19,90.69c2.37-1.47,4.2-3.98,5.91-6.09,1.57.04,1.68-.93,1.7-1.7.5-.09.64-.51.75-.92,1.19-.81,2.08-1.71,3.08-1.58,1.49.19,6.98,8.66,4.06,11.01-4.67,1.85-10.21,1.85-15.29,2.62-.84-.5-.58-2.69-.22-3.34Z"/>
        <path class="cls-3" d="M92.19,90.69c.99-1.75,4.24-5.29,5.91-6.09-1.72,2.11-3.54,4.62-5.91,6.09Z"/>
        <path class="cls-3" d="M99.8,82.91c-.01.77-.13,1.74-1.7,1.7.27-.34-.09-1.28.58-1.46.39-.1.76-.17,1.12-.24Z"/>
        <path class="cls-3" d="M102.31,74.25c5.25,7.52,11.72,15.99,8.87,26.14-2.37,8.43-9.44,15.6-19.16,17.98-11.27,2.75-22.13-3.84-26.18-14.97,5.93-3.14,11.65-5.97,17.79-7.02-4.66,4.29-9.43,2.66-12.44,6.26-1.34,1.6-.31,3.93,1.13,4.78,1.51.9,2.88-.53,4.43-1.56-.17,1.95-2.21,2.4-2.23,3.92-.04,4.24,10.12,5.4,13.81,5.08.77-2.88-.22-5.12.88-7.45,1.04,2.64-.13,4.83.47,7.4,4.09.17,8.26-1.6,10.68-4.94-.51-2.35-2.76-3.37-3.02-5.81,1.95,1.08,2.82,3.79,5.22,3.68,2.01-.1,8.32-11.65,5.88-14.6-3.59-.34-6.45.92-9.69,1.39-2.18.31-5.55-.7-6.81,1.42-.74,1.59,2.16,3.12,2.63,4.63-2.03-.29-2.69-3.49-5.01-3.33-2.15.14-.88,3.43-2.58,4.75-1.34-1.71.79-3.52-.1-5.24-.75-1.43-2.38-.55-3.25-.4,2.53-2.33,5.67-3.89,8.55-5.67-.36.64-.62,2.84.22,3.34,5.08-.76,10.62-.77,15.29-2.62,2.92-2.35-2.57-10.82-4.06-11.01-1.01-.13-1.9.77-3.08,1.58.6-2.2-.45-3.97-2.27-5.2-.18-2.11,2.58-2.35,4.03-2.54Z"/>
        <path class="cls-3" d="M99.8,82.91c.27-.54.62-.75.75-.92-.11.41-.26.83-.75.92Z"/>
        <path class="cls-5" d="M83.64,96.37c.87-.15,2.5-1.03,3.25.4.9,1.72-1.23,3.53.1,5.24,1.71-1.32.43-4.61,2.58-4.75,2.32-.15,2.98,3.04,5.01,3.33-.47-1.52-3.37-3.04-2.63-4.63,1.26-2.12,4.63-1.11,6.81-1.42,3.24-.47,6.11-1.72,9.69-1.39,2.45,2.96-3.86,14.51-5.88,14.6-2.4.12-3.27-2.59-5.22-3.68.26,2.44,2.51,3.45,3.02,5.81-2.42,3.33-6.59,5.11-10.68,4.94-.6-2.57.57-4.76-.47-7.4-1.09,2.32-.1,4.56-.88,7.45-3.7.32-13.85-.84-13.81-5.08.01-1.52,2.05-1.97,2.23-3.92-1.55,1.03-2.92,2.46-4.43,1.56s-2.47-3.19-1.13-4.78c3.02-3.6,7.79-1.98,12.44-6.26ZM96.29,102.41c0-.4-.33-.73-.73-.73s-.73.33-.73.73.33.73.73.73.73-.33.73-.73Z"/>
        <circle class="cls-3" cx="95.56" cy="102.41" r=".73"/>
      </g>
      <g>
        <path class="cls-1" d="M114.95,88.92c-.54-1.55-1.33-3.39-1.53-5.05.71-1.8.16-3.63,0-5.45-.1-1.08.58-2.29-.05-3.79-.77-1.82-1.37-3.83-.42-5.41,1.91,2.89.42,5.76,2.26,7.91.56.83-.55,2.5.94,3.65,2.12-3.8,3.5-7.67,4.83-11.78-4.3-12.37.78-25.32,12.96-30.01,3.7,17.41.53,22.11-10.72,31.82-3.89,3.36-4.09,9.94-6.85,14.44,3.29-.91,3.79-3.77,5.21-6.02,5.21-8.23,14.55-12.23,24.3-8.97-5.42,11.92-13.59,18-26.56,16l-4.37,2.65Z"/>
        <path class="cls-1" d="M35.46,99.31c2.59,3.04-3.35,8.71,3.37,12.28,1.26,1.15,2.2,3.04,3.25,4.38-1.77-1.25-4.25-1.86-6.69-2.82-12.85,9.79-24.44,6.25-35.38-3.92,6.17-5.99,13.95-7.29,21.92-7.01,1.47.05,2.58.54,3.42,1.39,1.32,1.34.11,3.13.8,4.79.75,1.81,4.43,2.16,5.95,1.39l4.1,1.85c-1.04-1.94-2.62-2.81-4.48-4.36.23-4.13-8.3-14.85-9.49-19.97l11.74,18.16c1.34-2.61-.4-5.05,1.49-6.18Z"/>
        <path class="cls-6" d="M35.46,99.31c-1.89,1.13-.15,3.57-1.49,6.18l-11.74-18.16c1.19,5.12,9.72,15.84,9.49,19.97-.83-.06-1.64-1.23-3.15-.21,1.41.7,2.98,1.17,3.54,2.72-1.52.77-5.19.42-5.95-1.39-.69-1.66.52-3.45-.8-4.79-.84-.85-1.95-1.34-3.42-1.39-4.92-5.72-7.24-12.61-7.06-20.55.02-1.06-.68-2.28.45-3.15.69-.53,1.64.28,2.77.66,9.26,3.09,16.57,10.62,17.37,20.11Z"/>
        <path class="cls-6" d="M114.34,104.85l1.16-4.31,10.7-2.82c-3.95-1.49-7.7,1.87-10.99.43.16-.86.71-1.67.71-2.58,7.01-6.01,17.09-6.55,25.81-1.52-7.84,10.77-15.32,12.98-27.39,10.8Z"/>
        <path class="cls-6" d="M115.19,77.14c-1.84-2.15-.35-5.02-2.26-7.91-.95,1.58-.35,3.59.42,5.41.64,1.5-.05,2.71.05,3.79-9.28-5.37-10.95-19.82-5.19-29.5,9.84,8.71,9.35,15.57,8.26,27.12-.08.87-.88,1.28-1.28,1.09ZM111.02,66.12c-.74.82.13,1.39.61,1.96.45.53.86.34.87-.07.02-.91.13-1.37,0-1.66-.16-.37-.97-.8-1.48-.23Z"/>
        <path class="cls-2" d="M115.5,100.54c.2-.76-.42-1.66-.29-2.39,3.29,1.44,7.04-1.91,10.99-.43l-10.7,2.82Z"/>
        <path class="cls-3" d="M31.71,107.3c1.87,1.55,3.44,2.42,4.48,4.36l-4.1-1.85c-.55-1.55-2.12-2.02-3.54-2.72,1.51-1.02,2.32.15,3.15.21Z"/>
        <path class="cls-1" d="M111.02,66.12c.52-.57,1.32-.14,1.48.23.13.29.02.75,0,1.66,0,.41-.43.6-.87.07-.48-.57-1.35-1.14-.61-1.96Z"/>
      </g>
    </g>
  </g>
</svg>