<?xml version="1.0" encoding="UTF-8"?>
<svg id="Capa_2" data-name="Capa 2" xmlns="http://www.w3.org/2000/svg" viewBox="0 0 139.66 155.95">
  <defs>
    <style>
      .cls-1 {
        fill: #4c4b2d;
      }

      .cls-2 {
        fill: #3b3923;
      }

      .cls-3 {
        fill: #f0d09f;
      }

      .cls-4 {
        fill: #e3ba87;
      }

      .cls-5 {
        fill: #6a3e1f;
      }

      .cls-6 {
        fill: #6f6536;
      }

      .cls-7 {
        fill: #c47930;
      }

      .cls-8 {
        fill: #bca16f;
      }

      .cls-9 {
        fill: #e2a966;
      }

      .cls-10 {
        fill: #96804b;
      }

      .cls-11 {
        fill: #944f1d;
      }
    </style>
  </defs>
  <g id="Elementos">
    <g>
      <path class="cls-4" d="M83.06,37.68c-1.96,4.13.45,8.17-4.17,9.48-.47-2.35-.62-10.56,4.17-9.48Z"/>
      <path class="cls-9" d="M55.86,20.46c-1.94,4.23-3.07,6.51-3.86,10.06-2.81-3.94.19-9.29,3.86-10.06Z"/>
      <g>
        <path class="cls-2" d="M110.42,124.33c-5.48,2.9-10.02,7.6-11.67,13.56-2.75.66-4.29,3.6-6.95,4.92-12.16,6.07-25.53,5.75-38.27,2.9.21-21.67-5.16-28.12-22.35-40.48-1.53,6.5-1.41,12.79-1.58,19.08-6.37-9.29-8.28-35.27-8.26-46.56,0-1.12-.18-2.32.56-3.24,4.9,5.65,11.64,8.92,19.02,10.78,19.45,4.91,46.79,4.91,65.25-3.52,3.79-1.73,7.74-3.63,9.39-7.25.18-.39.48-.8.91-.88,1.53,3.81,7.23-3.64,16.7,2.84,10.86,7.44,7.12,25.46-4.14,35.94-4.96,4.62-10.73,7.69-16.96,10.3-.92.39-1.47.89-1.65,1.61ZM113.75,110.85c8.73-3.22,14.39-9.42,16.93-17.14.83-4.16.18-8.41-3.64-10.5-4.91-1.12-9.52,2.38-10.85,7.12-.28,7.16-1.76,13.63-2.44,20.52ZM70.86,117.53c4.33-6.47,3.43-15.09-2.34-19.65-4.95,6.21-4.29,15.14,2.34,19.65ZM83.51,130.66c2.66-2.81-.26-3.03-.17-14.01.02-2.21-1.64-4.7-3.99-3.73-4.39,1.83-5.6,8.95-1.71,11.82,2.17,1.6,5.85,1.54,5.39,5.98-5.41-4.17-11.66-6.99-15.82-12.47-3.3-4.35-6.79-8.49-13.17-9.26-1.32,2.67-.28,5.83,1.21,8.52,2.37,4.28,7.43,5.54,11.43,2.78l8.82,7.13-10.75-.09c-1.23,0-2.46.63-2.54,1.67-.3,3.74,9.9,4.51,15.03,3.38,4.62-1.02,7.42,0,11.72,3.13l-5.45-4.86Z"/>
        <path class="cls-3" d="M83.41,21.68c-1.25-.83-1.02-2.38-2.04-4.07-2.52,7.52-9.46,10.7-10.9,17.09-.92.72-.76,2.01-1.82,3.2-.62-6.44-3.56-6.78-3.41-10.31.1-2.28-.88-4.38-.97-6.64,2.28-4.27,5.54-4.4,4.38-10.36-.33-1.7-2.34-3.19-3.99-4.84-.14-1.88-.35-3.76-.2-5.64,7.23-1.33,24.18,9.32,18.95,21.57Z"/>
        <path class="cls-4" d="M116.48,73.63c-.43.08-.73.5-.91.88-1.29.85-2.86.3-3.66-.97,2.35-12.08-27.03-15.02-35.4-15.67-3.07-.24-5.26.16-6.24,3.92-.94-1.19.04-2.16-.62-3.95-7.72-.88-46.72,2.81-43.28,14.94.48,1.71,2.33,3.52,4.42,4.06.6.44.99,1.53,1.72,1.8.08.6.15,1.17.04,2.4-7.57-2.73-6.93-5.83-10.97-8.44-2.34-8.93,16.29-14.14,23.09-15.47,17.18-3.35,34.71-3.24,51.75.68,7.31,1.68,22.28,6.66,20.05,15.84Z"/>
        <path class="cls-8" d="M65.25,27.6c-.16,3.54,2.78,3.87,3.41,10.31,1.07-1.2.91-2.48,1.82-3.2.69.69,1.4,1.42,2.4,1.58-3.15,4.26,4.64,13.88-2.07,16.76l-4.45-6c-.96-1.29-.54-3.51-1.63-5.31-2.56-4.25-3.25-13.16.52-14.14Z"/>
        <path class="cls-9" d="M64.27,20.96c.09,2.26,1.08,4.36.97,6.64-3.77.98-3.08,9.89-.52,14.14,1.08,1.8.67,4.02,1.63,5.31-2.58-1.44-5.63-3.11-7.47-5.97-4.53-7.04-1.51-16.31,5.39-20.12Z"/>
        <path class="cls-9" d="M83.41,21.68c-.95,2.24-.57,4.41-3,6.67-2.6,2.41-5.49,5.17-7.54,7.93-.99-.16-1.71-.89-2.4-1.58,1.44-6.39,8.39-9.57,10.9-17.09,1.02,1.68.78,3.24,2.04,4.07Z"/>
        <path class="cls-9" d="M64.46.11c-.16,1.88.06,3.76.2,5.64-.79-.79-2.79-.3-3.17-1.83-.24-.97-1.02-2.11.24-3.31.57-.55,1.74-.32,2.73-.5Z"/>
        <path class="cls-3" d="M32.51,78.63c18.48,6.71,39.2,8.4,58.41,4.32.6.74,1.04,1.42.35,1.51-1.16.15-1.8-.48-2.92.47,2.25,1.03,4.69.26,6.87-.94-1.35-.59-2.16-.57-2.69-1.33,2.27-1.66,5.32-.99,7.83-1.67,1.09.32-.25.36-.94,1.62,3.32-.24,6.73-1.02,9.49-3.74l-3.37-.09,2.13-2.41c1.64-.58,2.85-1.77,4.23-2.83.8,1.26,2.37,1.82,3.66.97-1.65,3.62-5.6,5.53-9.39,7.25-18.46,8.43-45.81,8.42-65.25,3.52-7.38-1.86-14.12-5.13-19.02-10.78-.74.91-.56,2.12-.56,3.24-2.06-1.16-.37-3.8.24-5.16,4.03,2.61,3.4,5.71,10.97,8.44.11-1.22.04-1.79-.04-2.4ZM98.24,83.2c0-.3-.24-.54-.54-.54s-.54.24-.54.54.24.54.54.54.54-.24.54-.54Z"/>
        <path class="cls-7" d="M70.86,117.53c-6.63-4.51-7.29-13.44-2.34-19.65,5.78,4.56,6.67,13.18,2.34,19.65Z"/>
        <path class="cls-10" d="M111.9,73.55c-1.38,1.05-2.59,2.25-4.23,2.83l-5.64-3.05c-12.2-6.6-58.4-7.56-71.24,3.51-2.09-.54-3.94-2.35-4.42-4.06-3.44-12.13,35.56-15.82,43.28-14.94.66,1.8-.32,2.77.62,3.95.99-3.76,3.17-4.16,6.24-3.92,8.36.66,37.75,3.59,35.4,15.67Z"/>
        <path class="cls-5" d="M107.68,76.38l-2.13,2.41c-2.08-.06-3.64,1.8-5.18,2.21-2.51.68-5.56.01-7.83,1.67-.37.27-1.16.19-1.61.28-19.21,4.07-39.93,2.39-58.41-4.32-.73-.26-1.12-1.36-1.72-1.8,12.84-11.07,59.04-10.11,71.24-3.51l5.64,3.05ZM98.47,79.71c.68-5.72-17.2-8.29-19.41-4.58,9.94,6.4,6.57,8.22,19.41,4.58Z"/>
        <g>
          <path class="cls-6" d="M31.21,129.36c.35,1.95,2.73,2.95,3.69,4.37,2.1,3.09,4.59,6,6.07,9.43-1.86,2.91-17.9-8.56-22.88-8.23,8.6,5.21,17.7,8.9,26.87,13.26,1.76.84,3.66,2.78,5.22,1.5.15-.12.49.02.68-.05-.44.25.24.65.62.91.29.21.74-.8.45-1.21-.19-.27-.77-.46-1.13-.58-.11-.4-.26-.8-.42-1.18.71.01,1.42-.04,2.12-.16.7,5.78,14.15,6.46,12.31,8.1-.61-.03-1.24.24-1.86.18-.16-.31-.53-.8-.94-.78-6.09.35-9.62-4.2-15.55-2.38-14.99,4.59-30.25-1.19-39.26-14.02-2.71-3.86-4.94-7.86-7.18-12.61,10.73-4.24,22.06-2.22,31.21,3.45ZM8.66,129.84c0-.23-.19-.42-.42-.42s-.42.19-.42.42.19.42.42.42.42-.19.42-.42ZM9.94,129.84l-.85,1.7,6.95,3.48.85-1.7-6.95-3.48Z"/>
          <path class="cls-10" d="M53.54,145.71c-.4.54-.74,1.12-1.05,1.71-.7.12-1.41.17-2.12.16-1.38-.84-2.46-2.21-2.78-3.83-1.5-7.47-3.69-15.02-7.85-22.59-1.57,3.47,8.42,19.92,6.42,21.97-8.27-3.56-10.24-12.37-11.26-9.41-.96-1.42-3.34-2.42-3.69-4.37-.84-1.65-1.65-3.19-1.6-5.05.17-6.29.05-12.58,1.58-19.08,17.19,12.36,22.56,18.81,22.35,40.48Z"/>
          <path class="cls-4" d="M98.8,139.69c-.56,2.33-.41,4.72.85,6.76.58.94.34,2.35.71,3.36-11.17,4.8-23.44,6.29-35.56,5.71,1.84-1.64-11.61-2.32-12.31-8.1.31-.59.65-1.17,1.05-1.71,12.74,2.85,26.11,3.18,38.27-2.9,2.66-1.33,4.2-4.26,6.95-4.92-.07.57.18,1.23.04,1.8Z"/>
          <path class="cls-11" d="M136.81,139.59c-2.97-.47-.86,2.05-3.03,5.87-.73,1.27-2.9.56-4.03,1.45-7.31,5.8-16.32,7.19-24.45,3.38-7.13-6.18,28.18-15.79,29.64-19.98,2.62,2.4,2.32,6.08,1.87,9.28Z"/>
          <path class="cls-11" d="M133.26,128.61c-9.08,3.32-18.06,6.87-26.33,11.91-2.85.06-5.75,1.01-8.14-.83.14-.57-.12-1.22-.04-1.8,1.65-5.97,6.19-10.66,11.67-13.56,6.07-3.21,19.24-2.59,22.84,4.28Z"/>
          <path class="cls-2" d="M134.94,130.31c-1.46,4.19-36.77,13.8-29.64,19.98l-2.33,1.37-2.62-1.85c-.36-1.01-.13-2.42-.71-3.36,3.74.36,4.81-3.05,7.29-5.93,8.27-5.04,17.25-8.59,26.33-11.91.67.29,1.17,1.23,1.68,1.7Z"/>
          <path class="cls-5" d="M136.81,139.59c-1.02,7.17-6.92,12.96-13.35,15.15-7.24,2.47-14.67,1.01-20.49-3.08l2.33-1.37c8.12,3.81,17.14,2.42,24.45-3.38,1.12-.89,3.3-.18,4.03-1.45,2.18-3.81.07-6.34,3.03-5.87Z"/>
          <path class="cls-4" d="M62.94,155.7c-.4-.04-1.24-.22-.94-.78.41-.02.78.47.94.78Z"/>
          <path class="cls-7" d="M83.51,130.66l5.45,4.86c-4.3-3.13-7.1-4.14-11.72-3.13-5.14,1.13-15.34.36-15.03-3.38.08-1.04,1.31-1.68,2.54-1.67l10.75.09-8.82-7.13c-4,2.76-9.06,1.5-11.43-2.78-1.49-2.69-2.53-5.85-1.21-8.52,6.38.77,9.86,4.9,13.17,9.26,4.16,5.48,10.41,8.3,15.82,12.47.46-4.44-3.22-4.37-5.39-5.98-3.89-2.87-2.68-9.99,1.71-11.82,2.35-.98,4.01,1.52,3.99,3.73-.09,10.97,2.83,11.2.17,14.01Z"/>
          <path class="cls-1" d="M40.96,143.15c2.09,4.83,7.73,4.47,9.21,6.53-1.56,1.28-3.46-.66-5.22-1.5-9.17-4.36-18.27-8.04-26.87-13.26,4.98-.33,21.03,11.14,22.88,8.23Z"/>
          <path class="cls-3" d="M46.15,143.14l1.43.61c.32,1.61,1.41,2.99,2.78,3.83.17.38.31.78.42,1.18l.06.87c-.19.07-.53-.07-.68.05-1.48-2.06-7.12-1.7-9.21-6.53-1.48-3.42-3.96-6.34-6.07-9.43,1.02-2.96,2.98,5.85,11.26,9.41Z"/>
          <rect class="cls-1" x="12.04" y="128.54" width="1.9" height="7.77" transform="translate(-111.26 84.82) rotate(-63.43)"/>
          <path class="cls-1" d="M50.85,149.63l-.06-.87c.36.12.94.31,1.13.58.29.41-.16,1.41-.45,1.21-.38-.27-1.06-.66-.62-.91Z"/>
          <circle class="cls-1" cx="8.24" cy="129.84" r=".42"/>
          <path class="cls-1" d="M47.58,143.75l-1.43-.61c2-2.06-7.99-18.5-6.42-21.97,4.16,7.57,6.35,15.12,7.85,22.59Z"/>
          <path class="cls-5" d="M106.93,140.52c-2.48,2.88-3.54,6.28-7.29,5.93-1.26-2.04-1.41-4.43-.85-6.76,2.38,1.85,5.29.89,8.14.83Z"/>
        </g>
        <path class="cls-4" d="M105.54,78.79l3.37.09c-2.76,2.72-6.17,3.51-9.49,3.74.69-1.26,2.03-1.3.94-1.62,1.54-.41,3.1-2.27,5.18-2.21Z"/>
        <path class="cls-4" d="M92.53,82.67c.53.75,1.34.74,2.69,1.33-2.19,1.2-4.62,1.97-6.87.94,1.12-.94,1.76-.32,2.92-.47.69-.09.25-.77-.35-1.51.45-.1,1.25-.02,1.61-.28Z"/>
        <circle class="cls-4" cx="97.7" cy="83.2" r=".54"/>
        <path class="cls-11" d="M98.47,79.71c-12.84,3.64-9.47,1.82-19.41-4.58,2.21-3.71,20.09-1.14,19.41,4.58Z"/>
      </g>
    </g>
  </g>
</svg>