<?xml version="1.0" encoding="UTF-8"?>
<svg id="Capa_2" data-name="Capa 2" xmlns="http://www.w3.org/2000/svg" viewBox="0 0 583.61 77.55">
  <defs>
    <style>
      .cls-1 {
        fill: #8a4a24;
      }
    </style>
  </defs>
  <g id="Elementos">
    <g>
      <path class="cls-1" d="M29.63,32.79h-5.2v-5.13c0-3.53-2.88-6.41-6.41-6.41s-6.41,2.88-6.41,6.41v5.13h-5.2c-3.53,0-6.41,2.88-6.41,6.41s2.88,6.41,6.41,6.41h5.2v5.27c0,3.53,2.88,6.41,6.41,6.41s6.41-2.88,6.41-6.41v-5.27h5.2c3.53,0,6.41-2.88,6.41-6.41s-2.88-6.41-6.41-6.41Z"/>
      <path class="cls-1" d="M95.65,32.79h-5.2v-5.13c0-3.53-2.88-6.41-6.41-6.41s-6.41,2.88-6.41,6.41v5.13h-5.2c-3.53,0-6.41,2.88-6.41,6.41s2.88,6.41,6.41,6.41h5.2v5.27c0,3.53,2.88,6.41,6.41,6.41s6.41-2.88,6.41-6.41v-5.27h5.2c3.53,0,6.41-2.88,6.41-6.41s-2.88-6.41-6.41-6.41Z"/>
      <path class="cls-1" d="M62.17,11.54h-5.2v-5.13c0-3.53-2.88-6.41-6.41-6.41s-6.41,2.88-6.41,6.41v5.13h-5.2c-3.53,0-6.41,2.88-6.41,6.41s2.88,6.41,6.41,6.41h5.2v5.27c0,3.53,2.88,6.41,6.41,6.41s6.41-2.88,6.41-6.41v-5.27h5.2c3.53,0,6.41-2.88,6.41-6.41s-2.88-6.41-6.41-6.41Z"/>
      <path class="cls-1" d="M62.17,53.05h-5.2v-5.13c0-3.53-2.88-6.41-6.41-6.41s-6.41,2.88-6.41,6.41v5.13h-5.2c-3.53,0-6.41,2.88-6.41,6.41s2.88,6.41,6.41,6.41h5.2v5.27c0,3.53,2.88,6.41,6.41,6.41s6.41-2.88,6.41-6.41v-5.27h5.2c3.53,0,6.41-2.88,6.41-6.41s-2.88-6.41-6.41-6.41Z"/>
      <path class="cls-1" d="M162.95,32.79h-5.2v-5.13c0-3.53-2.88-6.41-6.41-6.41s-6.41,2.88-6.41,6.41v5.13h-5.2c-3.53,0-6.41,2.88-6.41,6.41s2.88,6.41,6.41,6.41h5.2v5.27c0,3.53,2.88,6.41,6.41,6.41s6.41-2.88,6.41-6.41v-5.27h5.2c3.53,0,6.41-2.88,6.41-6.41s-2.88-6.41-6.41-6.41Z"/>
      <path class="cls-1" d="M129.47,11.54h-5.2v-5.13c0-3.53-2.88-6.41-6.41-6.41s-6.41,2.88-6.41,6.41v5.13h-5.2c-3.53,0-6.41,2.88-6.41,6.41s2.88,6.41,6.41,6.41h5.2v5.27c0,3.53,2.88,6.41,6.41,6.41s6.41-2.88,6.41-6.41v-5.27h5.2c3.53,0,6.41-2.88,6.41-6.41s-2.88-6.41-6.41-6.41Z"/>
      <path class="cls-1" d="M129.47,53.05h-5.2v-5.13c0-3.53-2.88-6.41-6.41-6.41s-6.41,2.88-6.41,6.41v5.13h-5.2c-3.53,0-6.41,2.88-6.41,6.41s2.88,6.41,6.41,6.41h5.2v5.27c0,3.53,2.88,6.41,6.41,6.41s6.41-2.88,6.41-6.41v-5.27h5.2c3.53,0,6.41-2.88,6.41-6.41s-2.88-6.41-6.41-6.41Z"/>
      <path class="cls-1" d="M231.99,32.79h-5.2v-5.13c0-3.53-2.88-6.41-6.41-6.41s-6.41,2.88-6.41,6.41v5.13h-5.2c-3.53,0-6.41,2.88-6.41,6.41s2.88,6.41,6.41,6.41h5.2v5.27c0,3.53,2.88,6.41,6.41,6.41s6.41-2.88,6.41-6.41v-5.27h5.2c3.53,0,6.41-2.88,6.41-6.41s-2.88-6.41-6.41-6.41Z"/>
      <path class="cls-1" d="M198.51,11.54h-5.2v-5.13c0-3.53-2.88-6.41-6.41-6.41s-6.41,2.88-6.41,6.41v5.13h-5.2c-3.53,0-6.41,2.88-6.41,6.41s2.88,6.41,6.41,6.41h5.2v5.27c0,3.53,2.88,6.41,6.41,6.41s6.41-2.88,6.41-6.41v-5.27h5.2c3.53,0,6.41-2.88,6.41-6.41s-2.88-6.41-6.41-6.41Z"/>
      <path class="cls-1" d="M198.51,53.05h-5.2v-5.13c0-3.53-2.88-6.41-6.41-6.41s-6.41,2.88-6.41,6.41v5.13h-5.2c-3.53,0-6.41,2.88-6.41,6.41s2.88,6.41,6.41,6.41h5.2v5.27c0,3.53,2.88,6.41,6.41,6.41s6.41-2.88,6.41-6.41v-5.27h5.2c3.53,0,6.41-2.88,6.41-6.41s-2.88-6.41-6.41-6.41Z"/>
      <path class="cls-1" d="M301.03,32.79h-5.2v-5.13c0-3.53-2.88-6.41-6.41-6.41s-6.41,2.88-6.41,6.41v5.13h-5.2c-3.53,0-6.41,2.88-6.41,6.41s2.88,6.41,6.41,6.41h5.2v5.27c0,3.53,2.88,6.41,6.41,6.41s6.41-2.88,6.41-6.41v-5.27h5.2c3.53,0,6.41-2.88,6.41-6.41s-2.88-6.41-6.41-6.41Z"/>
      <path class="cls-1" d="M267.55,11.54h-5.2v-5.13c0-3.53-2.88-6.41-6.41-6.41s-6.41,2.88-6.41,6.41v5.13h-5.2c-3.53,0-6.41,2.88-6.41,6.41s2.88,6.41,6.41,6.41h5.2v5.27c0,3.53,2.88,6.41,6.41,6.41s6.41-2.88,6.41-6.41v-5.27h5.2c3.53,0,6.41-2.88,6.41-6.41s-2.88-6.41-6.41-6.41Z"/>
      <path class="cls-1" d="M267.55,53.05h-5.2v-5.13c0-3.53-2.88-6.41-6.41-6.41s-6.41,2.88-6.41,6.41v5.13h-5.2c-3.53,0-6.41,2.88-6.41,6.41s2.88,6.41,6.41,6.41h5.2v5.27c0,3.53,2.88,6.41,6.41,6.41s6.41-2.88,6.41-6.41v-5.27h5.2c3.53,0,6.41-2.88,6.41-6.41s-2.88-6.41-6.41-6.41Z"/>
      <path class="cls-1" d="M370.07,32.79h-5.2v-5.13c0-3.53-2.88-6.41-6.41-6.41s-6.41,2.88-6.41,6.41v5.13h-5.2c-3.53,0-6.41,2.88-6.41,6.41s2.88,6.41,6.41,6.41h5.2v5.27c0,3.53,2.88,6.41,6.41,6.41s6.41-2.88,6.41-6.41v-5.27h5.2c3.53,0,6.41-2.88,6.41-6.41s-2.88-6.41-6.41-6.41Z"/>
      <path class="cls-1" d="M336.59,11.54h-5.2v-5.13c0-3.53-2.88-6.41-6.41-6.41s-6.41,2.88-6.41,6.41v5.13h-5.2c-3.53,0-6.41,2.88-6.41,6.41s2.88,6.41,6.41,6.41h5.2v5.27c0,3.53,2.88,6.41,6.41,6.41s6.41-2.88,6.41-6.41v-5.27h5.2c3.53,0,6.41-2.88,6.41-6.41s-2.88-6.41-6.41-6.41Z"/>
      <path class="cls-1" d="M336.59,53.05h-5.2v-5.13c0-3.53-2.88-6.41-6.41-6.41s-6.41,2.88-6.41,6.41v5.13h-5.2c-3.53,0-6.41,2.88-6.41,6.41s2.88,6.41,6.41,6.41h5.2v5.27c0,3.53,2.88,6.41,6.41,6.41s6.41-2.88,6.41-6.41v-5.27h5.2c3.53,0,6.41-2.88,6.41-6.41s-2.88-6.41-6.41-6.41Z"/>
      <path class="cls-1" d="M439.11,32.79h-5.2v-5.13c0-3.53-2.88-6.41-6.41-6.41s-6.41,2.88-6.41,6.41v5.13h-5.2c-3.53,0-6.41,2.88-6.41,6.41s2.88,6.41,6.41,6.41h5.2v5.27c0,3.53,2.88,6.41,6.41,6.41s6.41-2.88,6.41-6.41v-5.27h5.2c3.53,0,6.41-2.88,6.41-6.41s-2.88-6.41-6.41-6.41Z"/>
      <path class="cls-1" d="M405.63,11.54h-5.2v-5.13c0-3.53-2.88-6.41-6.41-6.41s-6.41,2.88-6.41,6.41v5.13h-5.2c-3.53,0-6.41,2.88-6.41,6.41s2.88,6.41,6.41,6.41h5.2v5.27c0,3.53,2.88,6.41,6.41,6.41s6.41-2.88,6.41-6.41v-5.27h5.2c3.53,0,6.41-2.88,6.41-6.41s-2.88-6.41-6.41-6.41Z"/>
      <path class="cls-1" d="M405.63,53.05h-5.2v-5.13c0-3.53-2.88-6.41-6.41-6.41s-6.41,2.88-6.41,6.41v5.13h-5.2c-3.53,0-6.41,2.88-6.41,6.41s2.88,6.41,6.41,6.41h5.2v5.27c0,3.53,2.88,6.41,6.41,6.41s6.41-2.88,6.41-6.41v-5.27h5.2c3.53,0,6.41-2.88,6.41-6.41s-2.88-6.41-6.41-6.41Z"/>
      <path class="cls-1" d="M508.15,32.79h-5.2v-5.13c0-3.53-2.88-6.41-6.41-6.41s-6.41,2.88-6.41,6.41v5.13h-5.2c-3.53,0-6.41,2.88-6.41,6.41s2.88,6.41,6.41,6.41h5.2v5.27c0,3.53,2.88,6.41,6.41,6.41s6.41-2.88,6.41-6.41v-5.27h5.2c3.53,0,6.41-2.88,6.41-6.41s-2.88-6.41-6.41-6.41Z"/>
      <path class="cls-1" d="M474.67,11.54h-5.2v-5.13c0-3.53-2.88-6.41-6.41-6.41s-6.41,2.88-6.41,6.41v5.13h-5.2c-3.53,0-6.41,2.88-6.41,6.41s2.88,6.41,6.41,6.41h5.2v5.27c0,3.53,2.88,6.41,6.41,6.41s6.41-2.88,6.41-6.41v-5.27h5.2c3.53,0,6.41-2.88,6.41-6.41s-2.88-6.41-6.41-6.41Z"/>
      <path class="cls-1" d="M474.67,53.05h-5.2v-5.13c0-3.53-2.88-6.41-6.41-6.41s-6.41,2.88-6.41,6.41v5.13h-5.2c-3.53,0-6.41,2.88-6.41,6.41s2.88,6.41,6.41,6.41h5.2v5.27c0,3.53,2.88,6.41,6.41,6.41s6.41-2.88,6.41-6.41v-5.27h5.2c3.53,0,6.41-2.88,6.41-6.41s-2.88-6.41-6.41-6.41Z"/>
      <path class="cls-1" d="M577.19,32.79h-5.2v-5.13c0-3.53-2.88-6.41-6.41-6.41s-6.41,2.88-6.41,6.41v5.13h-5.2c-3.53,0-6.41,2.88-6.41,6.41s2.88,6.41,6.41,6.41h5.2v5.27c0,3.53,2.88,6.41,6.41,6.41s6.41-2.88,6.41-6.41v-5.27h5.2c3.53,0,6.41-2.88,6.41-6.41s-2.88-6.41-6.41-6.41Z"/>
      <path class="cls-1" d="M543.71,11.54h-5.2v-5.13c0-3.53-2.88-6.41-6.41-6.41s-6.41,2.88-6.41,6.41v5.13h-5.2c-3.53,0-6.41,2.88-6.41,6.41s2.88,6.41,6.41,6.41h5.2v5.27c0,3.53,2.88,6.41,6.41,6.41s6.41-2.88,6.41-6.41v-5.27h5.2c3.53,0,6.41-2.88,6.41-6.41s-2.88-6.41-6.41-6.41Z"/>
      <path class="cls-1" d="M543.71,53.05h-5.2v-5.13c0-3.53-2.88-6.41-6.41-6.41s-6.41,2.88-6.41,6.41v5.13h-5.2c-3.53,0-6.41,2.88-6.41,6.41s2.88,6.41,6.41,6.41h5.2v5.27c0,3.53,2.88,6.41,6.41,6.41s6.41-2.88,6.41-6.41v-5.27h5.2c3.53,0,6.41-2.88,6.41-6.41s-2.88-6.41-6.41-6.41Z"/>
    </g>
  </g>
</svg>