<?xml version="1.0" encoding="UTF-8"?>
<svg id="Capa_2" data-name="Capa 2" xmlns="http://www.w3.org/2000/svg" viewBox="0 0 160.95 119.03">
  <defs>
    <style>
      .cls-1 {
        fill: #b46a27;
      }

      .cls-2 {
        fill: #4c4b2d;
      }

      .cls-3 {
        fill: #3b3923;
      }

      .cls-4 {
        fill: #d28a38;
      }

      .cls-5 {
        fill: #6f6536;
      }

      .cls-6 {
        fill: #c47930;
      }

      .cls-7 {
        fill: #e2a966;
      }

      .cls-8 {
        fill: #944f1d;
      }
    </style>
  </defs>
  <g id="Elementos">
    <g>
      <path class="cls-6" d="M34.95,45.33c3.7-1.24,9.46,2.46,12.22,5.22,12.1,12.07,19.78,34.78,13.31,50.37-5.8,3.49-12.21,7.22-18.97,5.87l1.45-5.34c2.93-10.76-9.15-22.03-19.87-27-5.37-2.49-10.21-1.94-14.9.94.96-12.04,14.7-26.02,26.76-30.06ZM40.16,63.46c-.11-1.35,4.14,11.61,6.22,9.16,2.34-2.28-.05-6.06-2.24-7.52.22-1.15,1.08-2.41.78-3.51-.29-1.04-1.79-2.49-3.12-2.19-1.84.41-1.73,2.77-1.62,4.06ZM30.3,69.61l10.17,4.06c.68-1.67.27-2.81-.48-3.85-1.55-2.12-7.7-1.76-9.69-.21Z"/>
      <path class="cls-4" d="M98.52,48.97c4.17,16.21.48,33.76-7.45,48.5-5.59,5.7-20.87,7.5-27.61,4.82,7.4-12.12,2.98-32.01-1.46-44.59,1.57-.29,3.07-1.12,5.11-1.06,1.2,1.74.43,4.06,2.9,5.41.06-3.8.82-7.45,4.14-8.71.76,1.51,1.06,2.46,2.36,3.44l1.23-3.03c1.36.3,2.54,2.34,4.11,2.44,1.7.11,2.6-2.9,2.96-4.27,3.16,2.13,2.97,6.12,6.21,5.23,4.12-1.13,3.1-8.35,1.6-12,3.34-.39,3.43,3.77,5.91,3.82Z"/>
      <path class="cls-6" d="M95.35,36.66c1.96,3.83,2.13,8.24,3.17,12.3-2.49-.05-2.57-4.21-5.91-3.82,1.5,3.65,2.52,10.87-1.6,12-3.23.89-3.05-3.1-6.21-5.23-.35,1.37-1.26,4.38-2.96,4.27-1.57-.11-2.74-2.15-4.11-2.44l-1.23,3.03c-1.3-.98-1.6-1.92-2.36-3.44-3.32,1.26-4.08,4.91-4.14,8.71-2.47-1.35-1.71-3.67-2.9-5.41-2.03-.06-3.54.77-5.11,1.06-1.61-4.56-12.33-21.5-21-22.09.86-.65,1.58-2.15,2.93-2.92,11.43-6.53,24.38-8.64,37.27-6.15,6.35,1.23,11.34,4.64,14.16,10.13ZM71.09,47.1c1.65-.42,3.32-2.6,3.1-3.71-.45-2.28-3.56-4.98-6.11-4.33-1.41.38-2.49,4.18-1.99,5.53.54,1.24,3.58,2.87,5.01,2.51ZM64.15,55.45c.78-2-.38-4.02-2.08-3.81.07,1.48.3,2.75,2.08,3.81Z"/>
      <path class="cls-4" d="M124,68.62c-2.52,14.3-4.58,16.21-12.58,28.47-5.63,3.35-13.02,3.05-18.91.37,7.11-6.19,10.77-26.7,10.78-34.77,1.16.63.89,2.37,2.86,2.85l2.11-5.61c2.02,1.76,4.61,1.72,7.27,2.03,1.43,8.94,4.68,4.49-.92,14.06,2.49-1.1,3.75-2.66,6.86-2.39,2.01.18-.86-6.12,2.51-5.01Z"/>
      <path class="cls-1" d="M29.02,86.51c.18,2.06-1.41,3.63-3.64,4.97-.7-.86-.66-3.31-1.83-3.5-5.5-.9-9.9,2.91-12.41,7.37,1.17,1.51,2.33,2.15,2.74,3.64-1.79,2.43-3.93,4.12-5.26,6.66,9.86,1.71,6.33-8.62,12.08-4.69,2.53,1.73-9.45,11.27-10.99,13.43,4.54,3.62,11.09-2.79,14.08-.58-4.11,3.66-9.62,5.01-15.04,5.21-4.53.17-7.41-3.3-8.17-7.46-2.16-11.7,1.94-22.25,8.04-31.81,10.45-3.4,16.58,3.87,20.39,6.76Z"/>
      <path class="cls-6" d="M37.51,105.96c-1.07,1.84-12.37,6.66-13.71,7.86-2.99-2.21-9.54,4.2-14.08.58,1.54-2.15,13.51-11.7,10.99-13.43-5.75-3.93-2.22,6.4-12.08,4.69,1.34-2.54,3.47-4.23,5.26-6.66-.41-1.49-1.58-2.13-2.74-3.64,2.51-4.46,6.91-8.27,12.41-7.37,1.16.19,1.12,2.63,1.83,3.5,2.24-1.33,3.82-2.91,3.64-4.97,7.15,5.41,11.02,15.09,8.49,19.45Z"/>
      <path class="cls-8" d="M62,57.7c4.44,12.58,8.86,32.47,1.46,44.59-1.02-.41-2.2-.51-2.98-1.37,6.47-15.6-1.21-38.3-13.31-50.37-2.76-2.75-8.52-6.45-12.22-5.22,1.32-3.71,2.4-7.94,6.04-9.73,8.67.59,19.39,17.53,21,22.09Z"/>
      <path class="cls-6" d="M124.96,58.55c.16,3.31-.38,6.83-.95,10.08-3.37-1.11-.5,5.18-2.51,5.01-3.12-.27-4.37,1.29-6.86,2.39,5.59-9.57,2.34-5.12.92-14.06-2.66-.31-5.25-.27-7.27-2.03l-2.11,5.61c-1.97-.48-1.71-2.22-2.86-2.85.01-8.51-1.92-16.89-4.93-24.74,9.3.84,26.05,9.88,26.58,20.59Z"/>
      <path class="cls-6" d="M130.03,61.76c.46,1.19,1.42,1.89,2.43,2.56.84.56,1.52,1.42,2.58,1.64.38,2.69,2.94,4.17,3.46,6.81,1.45,7.31-1.38,15.1-7.04,20.34l-5.73,5.29c-3.84-.99-8.96,2.44-12-1.08,9.8-9.26,13.61-22.98,14.4-36.17.63.24,1.26.44,1.91.61Z"/>
      <path class="cls-2" d="M140.09,72.83l-1.6-.07c-.52-2.63-3.08-4.11-3.46-6.81,3.75-9.89,14.37-15.09,25.92-12.28-2.19,10.02-10.65,19.6-20.87,19.16Z"/>
      <path class="cls-2" d="M141.75,49.95c-.36.07-1.23.11-.94.67l-1.78-.02c-.66-3.81,7.07-8.78,8.66-12.46-2.49,1.23-3.87,3.34-5.77,5.22-.73,1.65-2.09,2.53-3.59,2.46.98-11,10.12-19.05,21.62-19.94.05,11.62-7.04,22.04-18.21,24.07ZM149.37,37.67c0-.23-.19-.42-.42-.42s-.42.19-.42.42.19.42.42.42.42-.19.42-.42Z"/>
      <path class="cls-1" d="M140.09,72.83c-.54,1.41.31,2.6,1.14,4.02,3.1,5.28,5.88,10.95,5.87,17.12,0,5.13-3.42,7.98-8.06,8.16-5.1.2-9.26-1.9-13.31-3.74l5.73-5.29c5.66-5.23,8.49-13.03,7.04-20.34l1.6.07Z"/>
      <path class="cls-8" d="M41.51,106.79c-1.33-.27-2.72-.31-4-.83,2.53-4.36-1.34-14.04-8.49-19.45-3.81-2.88-9.95-10.15-20.39-6.76-.51-1.41-.55-2.89-.43-4.36,4.69-2.88,9.54-3.43,14.9-.94,10.72,4.96,22.8,16.23,19.87,27l-1.45,5.34Z"/>
      <path class="cls-2" d="M130.66,19.37c-2.65-.04,3.85,11.53-4.18,12.52-9.66-5.25-13.45-16.8-10.29-27.68,7.16,3.27,12.99,8.32,14.47,15.16ZM122.23,14.77c0-.23-.19-.42-.42-.42s-.42.19-.42.42.19.42.42.42.42-.19.42-.42ZM126.29,22.3c-.19-2.9-1.79-5.04-3.99-6.59.48,2.64,1.61,4.83,3.99,6.59ZM127.32,23.25c0-.23-.19-.42-.42-.42s-.42.19-.42.42.19.42.42.42.42-.19.42-.42ZM128.17,24.95c0-.23-.19-.42-.42-.42s-.42.19-.42.42.19.42.42.42.42-.19.42-.42Z"/>
      <path class="cls-5" d="M139.24,29.48c-3.34-1.02,3.81-13.35,2.32-17.86-3.24,3.26-2.71,17.32-6.56,14.48-3.19-10.15.66-21.06,10.58-26.1,4.26,10.61,2.22,22.89-6.35,29.48Z"/>
      <path class="cls-3" d="M139.24,29.48c-3.45,6.71-3.44,14.73-4.15,22.27,2.03-1.94,2.62-4.28,3.25-5.93,1.5.08,2.85-.8,3.59-2.46,1.91-1.89,3.28-3.99,5.77-5.22-1.59,3.68-9.33,8.65-8.66,12.46-3.82,3.42-6.66,8.57-6.58,13.72-1.01-.67-1.96-1.37-2.43-2.56,2.61-2.58,6.13-22.92,1.64-26.5-1.43-1.05-3.74-2.59-5.19-3.38,8.04-.99,1.53-12.56,4.18-12.52l3.75,17.31c2.59-3.4,1.67-7.15.59-10.58,3.85,2.85,3.32-11.22,6.56-14.48,1.48,4.51-5.66,16.84-2.32,17.86Z"/>
      <path class="cls-8" d="M98.37,37.95c3,7.85,4.94,16.23,4.93,24.74-.01,8.07-3.67,28.58-10.78,34.77-.41-.18-1.02.11-1.45,0,7.93-14.74,11.62-32.29,7.45-48.5-1.05-4.06-1.21-8.48-3.17-12.3,1.09-.01,2.02,1.2,3.03,1.29Z"/>
      <path class="cls-8" d="M128.12,61.15c-.78,13.19-4.6,26.91-14.4,36.17-.55-.31-1.66-.06-2.29-.23,8-12.26,10.06-14.17,12.58-28.47.57-3.25,1.12-6.76.95-10.08,1.34.47,2.53,1.32,3.16,2.61Z"/>
      <path class="cls-3" d="M140.82,50.62c-.29-.56.58-.61.94-.67.42.54-.59.68-.94.67Z"/>
      <path class="cls-7" d="M44.13,65.09c2.19,1.46,4.58,5.24,2.24,7.52-2.07,2.45-6.32-10.51-6.22-9.16,1.29.48,2.8.85,3.97,1.63Z"/>
      <path class="cls-4" d="M30.3,69.61c1.99-1.55,8.14-1.91,9.69.21.76,1.04,1.17,2.18.48,3.85l-10.17-4.06Z"/>
      <path class="cls-4" d="M44.13,65.09c-1.17-.78-2.68-1.16-3.97-1.63-.1-1.29-.22-3.65,1.62-4.06,1.33-.3,2.84,1.15,3.12,2.19.3,1.1-.55,2.36-.78,3.51Z"/>
      <path class="cls-4" d="M71.09,47.1c-1.43.37-4.46-1.26-5.01-2.51-.5-1.36.59-5.15,1.99-5.53,2.55-.65,5.66,2.05,6.11,4.33.22,1.11-1.45,3.29-3.1,3.71Z"/>
      <path class="cls-4" d="M64.15,55.45c-1.78-1.06-2.02-2.33-2.08-3.81,1.7-.21,2.87,1.81,2.08,3.81Z"/>
      <circle class="cls-3" cx="148.94" cy="37.67" r=".42"/>
      <path class="cls-3" d="M126.29,22.3c-2.39-1.76-3.51-3.95-3.99-6.59,2.2,1.55,3.81,3.7,3.99,6.59Z"/>
      <circle class="cls-3" cx="127.74" cy="24.95" r=".42"/>
      <circle class="cls-3" cx="126.9" cy="23.25" r=".42"/>
      <circle class="cls-3" cx="121.81" cy="14.77" r=".42"/>
    </g>
  </g>
</svg>