<?xml version="1.0" encoding="UTF-8"?>
<svg id="Capa_2" data-name="Capa 2" xmlns="http://www.w3.org/2000/svg" viewBox="0 0 112.64 146.1">
  <defs>
    <style>
      .cls-1 {
        fill: #b46a27;
      }

      .cls-2 {
        fill: #4c4b2d;
      }

      .cls-3 {
        fill: #3b3923;
      }

      .cls-4 {
        fill: #f0d09f;
      }

      .cls-5 {
        fill: #e3ba87;
      }

      .cls-6 {
        fill: #a4451f;
      }

      .cls-7 {
        fill: #6a3e1f;
      }

      .cls-8 {
        fill: #d28a38;
      }

      .cls-9 {
        fill: #6f6536;
      }

      .cls-10 {
        fill: #c47930;
      }

      .cls-11 {
        fill: #bca16f;
      }

      .cls-12 {
        fill: #e2a966;
      }

      .cls-13 {
        fill: #944f1d;
      }
    </style>
  </defs>
  <g id="Elementos">
    <g>
      <path class="cls-11" d="M73,98.14c-2.56,4.38-2.81,10.13-1.74,15.21-2.05-1-3.09,17.97-3.11,19.46.48,1.72-2.29,2.87-1.2,4.4-1.55,2.08-3.14,3.63-6.17,4.79-14.93,5.67-32,5.53-46.76-.83-3.02-1.3-5.38-4.04-5.64-7.25L.03,30.28c1.49.38,2.57,2.02,2.67,3.58.45,6.68.5,13.47,1.75,20.04.17.87.53,1.99.55,2.85.79,24.03,3.84,48.03,6.14,72,.31,3.28-.7,8.79,3.42,10.77,11.07,5.3,30.78,6.79,42.78,1.54-.67-2.72-2.55-2.66-4.16-3.81.84-1.05,1.79-1.57,2.08-2.53,3.35-.96,7.74-3.01,9.98-6.38,2.67-24.08,5.57-47.93,6.16-71.8.03-1.07.37-2.31.56-3.37,1.05-5.95,1.36-12.05,1.77-18.51-2.02-.06-2.81,1.45-4.2,1.72-1.13.22-2.3.27-3.41.65-.27-.78-.85-1.43-1.58-1.82,7.68-3.71,6.97-2.23,9.23-10.14,1.5.08,3.12,1.71,2.96,3.74l-5.13,65.91c-.13,1.63.18,3.15,1.4,3.43Z"/>
      <path class="cls-5" d="M67.19,20.89c-.31.54-.34,1.66-.8,2.14-4.73-.77-9.25-2.8-14.59-2.92.57,7.55-.27,10.23.07,16.92-11.94,2.04-24.74,1.58-36.41-1.61-.05-4.58-.49-9.15-.14-13.72,1.45-1.9,4.34-.84,4.18-3.38,15.56-3.57,32.35-2.05,47.69,2.57Z"/>
      <path class="cls-9" d="M84.75,116.82c-.12-.55-.23-1.11-.51-1.75s-1.1-.87-1.89-.78c-1.16-14.46,6.5-27.86,21.35-32.31,1.61,15.09-4.25,30.35-18.94,34.84ZM95.87,95.17c0-.23-.19-.42-.42-.42s-.42.19-.42.42.19.42.42.42.42-.19.42-.42ZM84.9,113.44c3.99-5.34,7.53-10.67,9.62-16.84-3.94,5.42-6.96,10.76-9.62,16.84Z"/>
      <path class="cls-9" d="M76.23,132.7c.08-1.84,1.92-1.5,3.45-1.8l21.1-4.02c-2.35-2.3-23.1,3.3-24.42,2.93,9.58-11.43,22.72-12.98,36.27-4.73-10.07,11.85-24.54,17.24-36.4,7.62Z"/>
      <path class="cls-3" d="M73.77,25.07c-2.26,7.92-1.55,6.44-9.23,10.14-.26-.14-.69.06-.98,0-.17-.04-.35-.05-.53-.08,1.29-3.83,3.17-8.09,3.35-12.09.47-.49.49-1.61.8-2.14,3.62-6.18,4.17-13.63,7.61-20.28.75-1.44,5.99-.11,5.47,1.7l-6.5,22.76Z"/>
      <path class="cls-12" d="M19.49,18.32c.16,2.53-2.73,1.48-4.18,3.38-2.77.18-12.21,3.03-12.41,6.5-.31,5.38,11.38,6.9,12.55,7.23,11.67,3.19,24.47,3.66,36.41,1.61,3.7-.63,7.78.04,11.16-1.9.18.03.36.03.53.08-.12.98-.33,1.96-.69,2.88-.33.15-.56.52-.87.71-3.51-.56-6.95,1.42-10.26,1.68-2.83.22-5.92-.53-9.29-.03-8.7,1.31-17.07-.54-25.35-.84-3.26-1.01-6.83-2.81-10.31-3.39-1.15-.58-2.32-2.72-4.09-2.36-.1-1.56-1.18-3.2-2.67-3.58-.75-9.33,13.57-10.6,19.46-11.95Z"/>
      <path class="cls-9" d="M76.63,123.66c-.53.95-1.65,1.43-2.55,1.79.79-4.37-1.94-7.99-2.81-12.1-1.07-5.08-.82-10.82,1.74-15.21.94-1.61.39-4.23,2.65-5.61,8.71,11.02,4.24,19.49-.23,30.74.63.44,1.01.47,1.2.39Z"/>
      <path class="cls-2" d="M84.75,116.82c-3.65,2.22-8.53,12.41-11.21,12.71.89,1.81,1.97.04,2.82.28,1.32.37,22.07-5.23,24.42-2.93l-21.1,4.02c-1.53.29-3.37-.04-3.45,1.8-3.54-.09-7.09,1.58-9.28,4.51-1.09-1.54,1.68-2.69,1.2-4.4,2.68-1.62,4.46-4.68,5.92-7.36.91-.36,2.03-.84,2.55-1.79,1.65-2.98,5.88-5.67,5.72-9.36.79-.09,1.61.13,1.89.78s.4,1.21.51,1.75Z"/>
      <path class="cls-13" d="M22.86,49.91c3.29,3.93,7.59,6.93,12.56,4.28-.3,1.77.31,3.61,2.03,4.34.03.47.03.95-.01,1.42-1.54.91-2.64,2.16-3.94,3.97,7.42.36,13.62-.03,20.01-.48l-.39,4.72c.69,1.09,4.26,2.19,5.21,1.18l2.6-5.29c1.86.42,1.82-2.11,2.93-2.92,2.48-1.81,5.17-3.14,7.55-4.61-.58,23.87-3.49,47.72-6.16,71.8-2.24,3.37-6.64,5.41-9.98,6.38-12.98,3.74-33.92,3.75-44.12-5.96-2.3-23.97-5.34-47.97-6.14-72,3.85,2.09,8.23,4.14,12.3,5.63l-1.08,1.12c-1.22-.09-2.52-.35-3.96-.02-.29,2.6-.17,12.14,3.12,11.75.19.92.86,1.6,1.74,1.9-.42,2.86-6.01,6.42-1.71,11.49,4.35,5.13,10.5,5.87,16.43,4.39,6.31-1.57,8.64-5.66,8.66-11.92.02-6.59-3.11-12.87-9.8-14.22.5-.94.54-1.85-.06-2.86,8.68-1.16-10.18-1.36-11.87-3.31-1.64-2.52-1.72-6.79-2.36-9.91-.67-3.28-6.9,3.2-6.31-.85l7.77-2.59c.4,2.28,3.4,2.75,5,2.56ZM50.74,69.28c-.53-1.54-5.2-2.55-5.62-.94-.87,3.32,2.8,4.98,5.21,6.73.65-1.68,1.15-3.65.41-5.79ZM55.21,77.05l-4.45-1.19c-1.9,2.53-2.11,5.67-3.37,8.52-2.12,4.79-4.36,9.47-4.74,14.42-5.77-1.04-15.4,14.83-9.51,19.77,1.38,4.44,5.18,6.16,9.55,6.6,6.47.64,11.04-2.05,12.83-8.34,1.44-5.08.75-10.96-4.8-13.61-.96-.46-1.69-1.99-3.25-2.6,1.87-6.3,5.33-12.3,6.69-18.63,2.37,1.88,6.48-.41,7.52-2.61,1.38-2.91.1-6.92-3.26-8.85-1.33,2.49-2.73,4.34-3.2,6.51Z"/>
      <path class="cls-6" d="M52.46,45.67c1.75,1.28,4,1.36,6.08,1.74-1.07,2.63-.99,6.17-2.49,9.24-.02,1.25,3.17,1.49,4.52,1.09,2.86-.85,5.18-10.61,4.79-8.06,2.58.25,4.39,2.29,6.61,3.49-.19,1.06-.53,2.31-.56,3.37-2.38,1.47-5.07,2.79-7.55,4.61-1.11.81-1.07,3.34-2.93,2.92.05-.6.18-1.42-.05-2.07-2.81-.93-5.07,1.29-7.37,1.45-6.39.45-12.59.84-20.01.48,1.29-1.81,2.39-3.07,3.94-3.97,5.47,1.53,11.32-.81,15.64-4.65-1.72-2.3-3.36-3.42-4.97-4.23-3.76,2.83-6.96,5.57-10.66,7.46-1.71-.74-2.33-2.57-2.03-4.34,1.15-1.23.98-3.19,3.34-4.82-2.78.19-5.13-.32-7.9-.68-.79-.1-.83-1.2-1.13-1.44,3.06-.34,6.37.15,9.74-.57,2.37-.51,4.36-2.62,7.02-1.8,2.1.65,4.09,1.35,5.97.78Z"/>
      <path class="cls-5" d="M55.27,134.72c-.29.96-1.25,1.48-2.08,2.53,1.61,1.15,3.49,1.09,4.16,3.81-12,5.25-31.71,3.77-42.78-1.54-4.12-1.97-3.1-7.48-3.42-10.77,10.2,9.71,31.15,9.71,44.12,5.96Z"/>
      <path class="cls-6" d="M10.09,49.94c-.59,4.05,5.64-2.43,6.31.85s.72,7.39,2.36,9.91c1.69,1.95,20.55,2.15,11.87,3.31-4.11-1.14-9.39-.19-13.33-1.63s-8.45-3.53-12.3-5.63c-.03-.86-.39-1.98-.55-2.85,1.45-1.59,3.32-2.7,5.04-3.97l.6.02Z"/>
      <path class="cls-3" d="M69.53,36.38c-1.15,4.53-3.47,8.69-4.18,13.3.39-2.55-1.93,7.22-4.79,8.06-1.35.4-4.54.16-4.52-1.09,1.5-3.08,1.43-6.62,2.49-9.24s3.1-5.38,3.47-8.61c.31-.19.54-.56.87-.71,1.04-.49,2.17-.69,3.25-1.06s2.28-.43,3.41-.65Z"/>
      <path class="cls-4" d="M6.79,36.22c1.58,4.39,3.51,8.96,2.71,13.71-1.72,1.27-3.59,2.39-5.04,3.97-1.25-6.58-1.3-13.36-1.75-20.04,1.77-.35,2.94,1.78,4.09,2.36Z"/>
      <path class="cls-5" d="M66.12,37.03c-1.07.37-2.21.57-3.25,1.06.36-.93.57-1.9.69-2.88.29.07.72-.13.98,0,.74.38,1.31,1.04,1.58,1.82Z"/>
      <path class="cls-2" d="M84.9,113.44c2.67-6.09,5.68-11.42,9.62-16.84-2.09,6.17-5.64,11.5-9.62,16.84Z"/>
      <circle class="cls-2" cx="95.44" cy="95.17" r=".42"/>
      <path class="cls-5" d="M51.74,40.48c.28,1.72.64,3.44.71,5.19-1.88.57-3.87-.13-5.97-.78-2.66-.83-4.66,1.29-7.02,1.8-3.37.72-6.68.23-9.74.57-.7-.54-1.65-.94-2.54-.95-.23,0-.62-.03-.81.08-1.47.82-2.71,2.04-3.5,3.52-1.6.19-4.6-.28-5-2.56-.44-2.52-.16-5.22-.77-7.74,8.28.3,16.65,2.15,25.35.84,3.38-.51,6.46.25,9.29.03Z"/>
      <path class="cls-8" d="M17.12,77.12l7.41-6.06c2.05-1.67,4.86-1.8,6.16-4.2,6.69,1.35,9.81,7.63,9.8,14.22s-2.34,10.35-8.66,11.92c-5.93,1.48-12.08.74-16.43-4.39-4.3-5.07,1.29-8.63,1.71-11.49Z"/>
      <path class="cls-8" d="M50.7,103.22c5.55,2.65,6.24,8.53,4.8,13.61-1.78,6.29-6.36,8.98-12.83,8.34-4.38-.43-8.17-2.16-9.55-6.6,4.13.7,6.63-2.32,8.66-5.83,1.65-2.85,3.84-4.93,3.67-8.83-.02-.5,1.31-.99,1.68-1.03.62-.07.97,1.04,1.78,1.66s1.4-.86,1.79-1.32Z"/>
      <path class="cls-10" d="M42.64,98.8c1.78,1.07,3.4,1.25,4.81,1.81,1.56.62,2.29,2.15,3.25,2.6-.39.46-.98,1.94-1.79,1.32s-1.17-1.73-1.78-1.66c-.36.04-1.7.52-1.68,1.03.17,3.9-2.02,5.99-3.67,8.83-2.03,3.51-4.53,6.53-8.66,5.83-5.89-4.95,3.75-20.81,9.51-19.77Z"/>
      <path class="cls-3" d="M55.21,77.05l-1.06,4.94c-1.36,6.32-4.82,12.33-6.69,18.63-1.42-.56-3.04-.75-4.81-1.81.38-4.95,2.62-9.63,4.74-14.42,1.26-2.85,1.48-6,3.37-8.52l4.45,1.19Z"/>
      <path class="cls-7" d="M30.63,64.01c.6,1.01.56,1.92.06,2.86-1.29,2.4-4.11,2.53-6.16,4.2l-7.41,6.06c-.88-.29-1.55-.98-1.74-1.9,3.95.26,3.24-11.72.84-11.73l1.08-1.12c3.94,1.44,9.22.49,13.33,1.63Z"/>
      <path class="cls-10" d="M27.18,46.31c.89.01,1.84.41,2.54.95.3.24.34,1.33,1.13,1.44,2.77.36,5.12.87,7.9.68-2.36,1.64-2.18,3.59-3.34,4.82-4.96,2.64-9.26-.36-12.56-4.28.8-1.48,2.03-2.7,3.5-3.52-.06,1.11.92.94.81-.08Z"/>
      <path class="cls-8" d="M37.43,59.96c.04-.47.04-.95.01-1.42,3.7-1.89,6.9-4.63,10.66-7.46,1.62.81,3.25,1.93,4.97,4.23-4.32,3.84-10.17,6.18-15.64,4.65Z"/>
      <path class="cls-1" d="M54.14,81.99l1.06-4.94c.47-2.17,1.86-4.02,3.2-6.51,3.35,1.93,4.63,5.93,3.26,8.85-1.04,2.2-5.15,4.48-7.52,2.61Z"/>
      <path class="cls-8" d="M16.22,63.49c2.4.01,3.11,12-.84,11.73-3.29.39-3.41-9.15-3.12-11.75,1.44-.33,2.74-.07,3.96.02Z"/>
      <path class="cls-3" d="M60.92,64.07l-2.6,5.29c-.94,1.01-4.51-.09-5.21-1.18l.39-4.72c2.3-.16,4.57-2.38,7.37-1.45.23.65.09,1.47.05,2.07Z"/>
      <path class="cls-1" d="M50.74,69.28c.73,2.15.23,4.11-.41,5.79-2.41-1.75-6.08-3.41-5.21-6.73.42-1.61,5.1-.6,5.62.94Z"/>
      <path class="cls-6" d="M26.37,46.39c.19-.11.59-.08.81-.08.11,1.02-.87,1.19-.81.08Z"/>
    </g>
  </g>
</svg>