<?xml version="1.0" encoding="UTF-8"?>
<svg id="Capa_2" data-name="Capa 2" xmlns="http://www.w3.org/2000/svg" viewBox="0 0 119.99 124.87">
  <defs>
    <style>
      .cls-1 {
        fill: #b46a27;
      }

      .cls-2 {
        fill: #4c4b2d;
      }

      .cls-3 {
        fill: #4a4c3e;
      }

      .cls-4 {
        fill: #3b3923;
      }

      .cls-5 {
        fill: #f0d09f;
      }

      .cls-6 {
        fill: #e3ba87;
      }

      .cls-7 {
        fill: #a4451f;
      }

      .cls-8 {
        fill: #6a3e1f;
      }

      .cls-9 {
        fill: #d28a38;
      }

      .cls-10 {
        fill: #6f6536;
      }

      .cls-11 {
        fill: #c47930;
      }

      .cls-12 {
        fill: #bca16f;
      }

      .cls-13 {
        fill: #e2a966;
      }

      .cls-14 {
        fill: #96804b;
      }
    </style>
  </defs>
  <g id="Elementos">
    <g>
      <g>
        <path class="cls-7" d="M89.86,85.08c.34-.08.73,0,1.08.02.71.04,1.41.15,2.12.23-.66,2.47,1.55,3.77,3.11,5.68.96,1.17.87,3.17,1.78,3.84,1.5,1.12,3.17,1.19,4.74.72,3.18,1.07,2.89,8.46,2.64,9.9-1.6,9.44-12.66,14.79-21.4,11.16.41-2.32,1.81-5.97.64-8.13l-2.53-4.69c1.34-.7,2.7-1.25,2.9-2.09.3-1.26-.23-2.67-1.04-3.24-2.77-1.99-5.35,2.61-7.34,1.13-1.35-1.01-.73-3.04-1.06-4.9l6.19-7.39c1.8-.24,4.48-.07,5.73-1.89.28-.03.58.07.85.01l1.6-.36Z"/>
        <path class="cls-4" d="M74.43,93.69c.54.61.77.91,1.07,1.01.33,1.86-.29,3.89,1.06,4.9,1.98,1.48,4.56-3.13,7.34-1.13.8.58,1.34,1.99,1.04,3.24-.2.83-1.56,1.39-2.9,2.09l2.53,4.69c1.17,2.16-.23,5.82-.64,8.13-3.02,4.4-6.69,7.29-10.96,7.98-5.11.82-9.51-.15-12.69-3.74-.32-1.25-1.32-1.87-1.61-2.5-.18-2.29-1.22-4.22-.92-6,.51-3.06,1.01-6.31,2.53-8.36,1.67-2.26,4.4-3.25,5.94-4.93l.81-.17c1.01-.04,2.75.35,3.26-.59.65-1.2.12-2.64.25-3.79.06-.56.85-1.53,1.48-1.43,1.21.18,1.9.41,2.41.6ZM70.64,102.51c-.16-.84-1.22-.85-1.47-.97-1.55-.74-.38,3.96-.05,5.87.4-1.56,1.85-3.15,1.53-4.9Z"/>
        <path class="cls-10" d="M106.04,91.14c-1,.7-2.16,1.11-3.26,1.64-2.42-3.24,4.01-7.11.83-9.07-2.25.52-2.91,3.15-3.82,4.91-1.19-2.19-3.03-3.28-1.35-5.65-1.85.49-4.13.66-5.39,2.34-.7-.08-1.41-.19-2.12-.23.61-1.2,1.18-2.48,2.32-3.25.59.25.89-.27,1.04-.75.07-.24-.08-.54-.05-.78l6.85-6.99c5.99-1.85,11.57-4.79,18.89-3.04-1.33,6.75-4.65,13.53-10.33,17.65-1.48,1.07-3.56,1.35-3.62,3.22ZM99.43,82.89c4.18-1.51,7.38-2.62,10.42-5.62.2-.31-13.2,4.76-10.42,5.62Z"/>
        <path class="cls-2" d="M101.26,71.95c-7.81-.42,2.05-13.06,1.18-16.76-4.46,2.85-3.74,13.54-8.03,16.51-.69-1.78-1.1-3.54-2.73-3.36-.14-.79.06-1.64,0-2.43-.04-.25.25-.67.14-.87,1.11-.74.6-2.38.6-3.54,1.51-7.64,6.61-14.22,14.81-17.3,3.14,9.8,1.9,21.48-5.96,27.75Z"/>
        <path class="cls-10" d="M88.4,60.68c-2.23-.14-2.12,2.76-2.59,4.3-.37.38-1.39,1.19-.77,2.18,1.76,2.83,2.51,15.04,2.39,18.26-1.25,1.82-3.93,1.65-5.73,1.89-6.1-6.72-2.97-25.33,1.2-32.77,3.19,1.24,4.15,4,5.51,6.15Z"/>
        <path class="cls-2" d="M107.77,91.33c-.07.98,1.08.97.92-.03,3.52.53,6.74,2.04,10.15,4.46-2.92,5.3-7.71,9.53-13.51,9.69.24-1.43.54-8.83-2.64-9.9-.02-.93.03-1.86.1-2.78,1.09-.54,2.25-.94,3.26-1.64l1.73.19Z"/>
        <path class="cls-4" d="M101.26,71.95c.53.46-.08.83-.16,1.36-6.95,2.14-6.4,3.63-6.85,6.99-.03.25.13.55.05.78-.38.2-.68.52-1.04.75-1.15.77-1.71,2.05-2.32,3.25-.35-.02-.74-.09-1.08-.02.42-4.54,5.11-8.38,2-13.22.23-1.18.02-2.35-.18-3.51,1.63-.18,2.04,1.58,2.73,3.36,4.29-2.97,3.57-13.66,8.03-16.51.88,3.7-8.99,16.34-1.18,16.76Z"/>
        <path class="cls-14" d="M88.4,60.68c1.1,1.75,1.88,3.69,3.29,5.23.06.8-.14,1.64,0,2.43.2,1.16.41,2.33.18,3.51-1.16.19-2.3.47-3.4.86l-2.66-7.74c.48-1.53.37-4.43,2.59-4.3Z"/>
        <path class="cls-14" d="M91.82,65.05c-.79-1.35.38-2.45.6-3.54,0,1.16.51,2.8-.6,3.54Z"/>
        <path class="cls-10" d="M107.77,91.33c.3.03.62-.07.92-.03.16.99-.98,1.01-.92.03Z"/>
        <path class="cls-4" d="M102.78,92.78c-.07.92-.12,1.85-.1,2.78-1.57.46-3.24.4-4.74-.72-.9-.68-.82-2.67-1.78-3.84-1.56-1.91-3.77-3.21-3.11-5.68,1.26-1.69,3.53-1.85,5.39-2.34-1.68,2.37.16,3.46,1.35,5.65.91-1.76,1.57-4.39,3.82-4.91,3.18,1.96-3.25,5.82-.83,9.07Z"/>
        <path class="cls-12" d="M91.87,71.85c3.11,4.84-1.58,8.69-2,13.22l-1.6.36.2-12.72c1.11-.39,2.25-.67,3.4-.86Z"/>
        <path class="cls-4" d="M88.47,72.71l-.2,12.72c-.27.06-.57-.04-.85-.01.12-3.22-.62-15.43-2.39-18.26-.62-.99.4-1.8.77-2.18l2.66,7.74Z"/>
        <path class="cls-8" d="M70.54,94.52c-.13,1.16.4,2.59-.25,3.79-.51.94-2.25.55-3.26.59-.13-.33-.32-.62-.59-.85.06-.27-.05-.58-.04-.86.04-1.21-.14-2.9,1.35-3.73.8-.44,1.96.4,2.79,1.05Z"/>
        <path class="cls-3" d="M70.64,102.51c.32,1.75-1.12,3.34-1.53,4.9-.33-1.9-1.5-6.61.05-5.87.25.12,1.32.13,1.47.97Z"/>
        <path class="cls-7" d="M67.03,98.9l-.81.17.22-1.02c.26.23.46.52.59.85Z"/>
        <path class="cls-5" d="M101.1,73.31l-6.85,6.99c.46-3.36-.1-4.85,6.85-6.99Z"/>
        <path class="cls-4" d="M99.43,82.89c-2.79-.86,10.62-5.93,10.42-5.62-3.03,3-6.24,4.11-10.42,5.62Z"/>
        <path class="cls-5" d="M93.26,81.84c.35-.24.66-.55,1.04-.75-.15.49-.45,1.01-1.04.75Z"/>
      </g>
      <g>
        <path class="cls-12" d="M74.43,93.69c-.51-.19-1.2-.42-2.41-.6-.38-4.72.41-9.45.94-14.58l3.96-38.44c.36-3.45.88-6.68.36-9.76,1.55-1.72,1.23-8.33-1.71-7.41l-15.27,4.76c-8.38,2.61-44.88,2.21-54.92-5.51-2.21,2.59-1.3,4.93-1.06,7.23l6.95,67.41c.34,3.28.91,6.1,1.69,8.84,2.16,7.54-.66,4.46.84,7.74.57,1.25,2.21,1.51,3.51,2.41,11.2,7.7,25.11,7.14,38.04,4.28,1.47-.33,3.16-.07,3.31-1.68.29.62,1.29,1.25,1.61,2.5-12.87,4.57-41.61,5.2-50.03-8.45C6.11,79.57,2.4,47.26.01,14.09-.88,1.7,50.39-6.62,75.97,7.05c2.54,1.36,6.09,3.93,5.82,7.13l-4.64,55.02-2.72,24.49ZM7.54,18.44c.54,1.79,2.36,2.74,4.51,3.5,17.88,6.34,37.66,6.49,55.76.8,2.77-.87,4.91-2.39,6.81-4.4,1.48-.52,3.46-.32,3.79-2.71.7-5.04-4.58-7.84-9.56-9.34C51.5,1.05,33.14.76,15.68,5.58,10.92,6.89.85,10.9,3.77,16.6c.57,1.12,2.16,1.95,3.76,1.83Z"/>
        <path class="cls-7" d="M10.25,32.88c3.99,2.55,8.37,2.92,12.74,4.04,15.66,4.01,32.3,2.86,47.78-3,2.51-.95,4.18-3.06,6.52-3.62.52,3.08,0,6.31-.36,9.76l-3.96,38.44c-.53,5.13-1.32,9.86-.94,14.58-.63-.1-1.42.87-1.48,1.43-.83-.65-1.99-1.5-2.79-1.05-1.49.83-1.31,2.51-1.35,3.73-3.03.8-4.08-6.04-3.94-7.04.13-.92,1.28-1.73,2.44-2.53,1.54-1.06,1.07-2.67.5-3.71-.58-1.05-2.87-2.2-3.88-.76-1.3,1.86-4.43,3.75-5.03,5.87-.73,2.57.67,5.33-2.65,6.91-4.66,2.21-1.01,9.06-1.55,8.85,2.45.95,5.86-3.33,7.99-.79-1.52,2.06-2.03,5.3-2.53,8.36-9.02,2-18.1,3.47-26.98.91,8.03-2.25-15.69-8.16-12.87-4.27-1.37-1.22-3.74-1.72-4.93-3.4-.78-2.73-1.35-5.55-1.69-8.84L4.31,29.37c1.79,1.49,4.04,2.3,5.93,3.51ZM35.52,78.81c2.8-3.93-4.6-7.62-5.19-7.44-1.76.52-5.66,5.34-6.18,2.22-.55-3.28-.37-6.1-1.11-9.1.99.06,2.3.77,2.76.08.31-2.03.14-5.55-1.73-6.74-.78-.49-2.99.17-3.27-1.02-.15-.62-1.11-1.83-.15-2.35.9-.49,2.08-.34,2.36-.93,1.49-3.23-4.07-3.36-2.25-11.56l-3.22-5.04c-.91,1.05-.3,2.05-1.01,2.8-.36.38-1.83-.22-2,.42,1.23,5.33-4.76,15.83,4.12,18.41-5.09,14.35-1.28,13.63-.15,22.57.67,5.33,1.42,10.2,3.69,15.26,7.91-4.87,1.54-7.96,3.51-17.72,4.12,3.31,1.08-.47,9.84.16ZM49.61,109.54c2.3-5.61-4.48-8.58-4.27-13.86.29-1.89,3.48-3.79,2.82-6.03-1.85-2.57-5.69-5.33-8.74-6.07-1.17,1.02-.95,3.55-1.88,4.06-1.06.59-3.28-.1-4.08.68-4.88,4.77,4.13,9.75,3.9,10.9-.62,3.21-7.12,1.19-8.74,2.84,1.19,4.71,4.69,6.51,8.11,8.54,1.45.86,2.02,2.53,3.68,2.63.88.06,9.26-3.86,9.19-3.68Z"/>
        <path class="cls-11" d="M74.62,18.33c-1.9,2.01-4.04,3.54-6.81,4.4-18.1,5.69-37.88,5.54-55.76-.8-2.15-.76-3.97-1.71-4.51-3.5,1.39-1.88,3.81-3.06,6.52-4.02,17.03-6.06,35.97-6.19,53.16-.62,3.02.98,5.72,2.53,7.4,4.54ZM47.69,16.83c-1.58-1.83-7.09-.3-6.51,1.53.59,1.86,3.56,2.27,4.65,1.89.96-.33,3.18-1.88,1.86-3.42Z"/>
        <path class="cls-9" d="M77.28,30.31c-2.33.57-4,2.67-6.52,3.62-15.48,5.85-32.12,7.01-47.78,3,0-2.19-.3-4.47-1.79-6.57-2.32.02-3.92-.79-5.82-2.16l-5.13,4.69c-1.9-1.21-4.14-2.02-5.93-3.51-.24-2.3-1.15-4.64,1.06-7.23,10.04,7.72,46.53,8.12,54.92,5.51l15.27-4.76c2.94-.92,3.26,5.7,1.71,7.41Z"/>
        <path class="cls-5" d="M74.62,18.33c-1.67-2.02-4.37-3.57-7.4-4.54-17.19-5.57-36.13-5.44-53.16.62-2.72.97-5.14,2.14-6.52,4.02-1.61.12-3.19-.71-3.76-1.83C.85,10.9,10.92,6.89,15.68,5.58c17.46-4.82,35.82-4.53,53.17.7,4.98,1.5,10.27,4.3,9.56,9.34-.33,2.39-2.32,2.19-3.79,2.71Z"/>
        <path class="cls-6" d="M17.89,109.01c3.62,3.21,8.52,3.02,12.87,4.27,8.87,2.55,17.96,1.09,26.98-.91-.29,1.78.75,3.7.92,6-.15,1.62-1.84,1.36-3.31,1.68-12.92,2.86-26.83,3.42-38.04-4.28-1.31-.9-2.94-1.16-3.51-2.41-1.5-3.28,1.32-.2-.84-7.74,1.19,1.68,3.56,2.18,4.93,3.4Z"/>
        <path class="cls-1" d="M66.4,97.19c0,.28.1.58.04.86l-.22,1.02c-1.54,1.68-4.27,2.67-5.94,4.93-2.13-2.54-5.54,1.74-7.99.79.54.21-3.11-6.64,1.55-8.85,3.33-1.58,1.93-4.35,2.65-6.91.6-2.12,3.73-4.01,5.03-5.87,1.01-1.44,3.3-.29,3.88.76.58,1.04,1.04,2.66-.5,3.71-1.16.8-2.31,1.61-2.44,2.53-.14.99.91,7.84,3.94,7.04Z"/>
        <path class="cls-11" d="M35.52,78.81c-8.77-.62-5.72,3.15-9.84-.16-1.97,9.76,4.4,12.85-3.51,17.72-2.27-5.06-3.02-9.92-3.69-15.26-1.13-8.94-4.95-8.21.15-22.57-8.88-2.58-2.89-13.07-4.12-18.41.17-.65,1.64-.05,2-.42.72-.75.11-1.75,1.01-2.8l3.22,5.04c-1.81,8.2,3.74,8.33,2.25,11.56-.27.59-1.46.45-2.36.93-.96.52,0,1.73.15,2.35.29,1.19,2.49.53,3.27,1.02,1.87,1.19,2.05,4.7,1.73,6.74-.46.69-1.77-.02-2.76-.08.74,3,.56,5.83,1.11,9.1.53,3.12,4.42-1.7,6.18-2.22.59-.17,7.99,3.51,5.19,7.44Z"/>
        <path class="cls-1" d="M49.61,109.54c.07-.17-8.31,3.74-9.19,3.68-1.66-.1-2.23-1.77-3.68-2.63-3.42-2.03-6.92-3.82-8.11-8.54,1.62-1.65,8.11.37,8.74-2.84.22-1.14-8.79-6.13-3.9-10.9.8-.78,3.02-.09,4.08-.68.92-.51.71-3.04,1.88-4.06,3.05.74,6.9,3.5,8.74,6.07.65,2.24-2.53,4.14-2.82,6.03-.21,5.28,6.57,8.25,4.27,13.86Z"/>
        <path class="cls-13" d="M22.98,36.93c-4.37-1.12-8.75-1.5-12.74-4.04l5.13-4.69c1.9,1.37,3.51,2.18,5.82,2.16,1.49,2.1,1.79,4.39,1.79,6.57Z"/>
        <path class="cls-1" d="M30.76,113.28c-4.34-1.25-9.25-1.05-12.87-4.27-2.83-3.89,20.9,2.02,12.87,4.27Z"/>
        <path class="cls-7" d="M47.69,16.83c1.33,1.54-.9,3.08-1.86,3.42-1.09.38-4.06-.03-4.65-1.89-.58-1.83,4.93-3.36,6.51-1.53Z"/>
      </g>
    </g>
  </g>
</svg>