<?xml version="1.0" encoding="UTF-8"?>
<svg id="Capa_2" data-name="Capa 2" xmlns="http://www.w3.org/2000/svg" viewBox="0 0 110.86 100.8">
  <defs>
    <style>
      .cls-1 {
        fill: #b46a27;
      }

      .cls-2 {
        fill: #3b3923;
      }

      .cls-3 {
        fill: #6a3e1f;
      }

      .cls-4 {
        fill: #d28a38;
      }

      .cls-5 {
        fill: #6f6536;
      }

      .cls-6 {
        fill: #c47930;
      }

      .cls-7 {
        fill: #e2a966;
      }

      .cls-8 {
        fill: #944f1d;
      }
    </style>
  </defs>
  <g id="Elementos">
    <g>
      <path class="cls-7" d="M98.69,42.59c3.21,1.08,1.83,6.74,1.86,6.63-2.42,7.93-2.46,16.43-4.42,24.55-.83.09-1.47,1.32-1.78,1.97-5.43,2.57-14.2,2.64-18.48,5.08l-56.04,10.27c-6.7,1.23-12.77,3.54-19.19,3.36-.4-2.78.16-7.88-.02-11.27-.37-7.08-.96-13.56-.35-20.19l21.1-3.8,45.99-8.61,12.58-3.5c5.58-1.55,12.06-.7,17.01-4.32.46.07,1.33-.32,1.74-.18ZM76.51,59.05c-3.19.5-5.14,2.32-7.98,4.39-2.02,1.47-4.96,2.6-7.1,3.72-8.77,4.59-9.23-8.23-22.14-2.15,2.2,5.86,9.37,4.2,12.56,8.8-1.92-.48-3.18.97-3.92,2.75-.66,1.59.11,3.7,2.47,3.94,2.49.26,3.58-2.81,4.87-3.92,9.74-2.96,6.02-11.35,18.06-9.54-.15,1.16-.63,3.12.12,4.35,2.31,3.79,6.77,1.69,11.15,2.9.61-3.01,1.24-6.54-.53-8.93,1.98-1.41,4.19-5.48,6.12-7.09-.92-1.33-1.73-1.03-2.42-1.18-.03-3.58-3.32-4.96-7.12-4.22-2.16.43-4.1,3.55-4.15,6.18ZM26.24,69c-14.44-1.77-8.04,8.63-18.46,11.68,2.29,4.93,9.52-4.43,17.04-2.55,1.04,1.48,1.02,4.83,3.58,5.17,1.67.22,5.29-1.5,6.11-2.93,1.57-2.74-2.55-5.28-4.52-5.47-.51-.05-1.39-.89-1.52-1.38-.19-.69.48-1.87.64-2.62,1.22,1.46,4.98-8.56,2.19-9.16-1.88-.26-7.33,4.41-5.07,7.26Z"/>
      <path class="cls-1" d="M46.72,11.92c11.41,1.09,29.35,7.26,38.19,15.55,7.98,4.16,8.93,9.28,13.82,13.39l-.03,1.73c-.42-.14-1.28.25-1.74.18-6.18-1.84-12.13.26-17.01,4.32l-12.58,3.5-45.99,8.61L.26,63c.13-1.42-.9-2.43.95-4.33L46.72,11.92ZM34.36,41.74c.22-.97-.31-1.88-.98-2.14-1.5-.59-4.58-.06-5.95.8-.69.43-.63,1.5.08,2.28-.65,3.24-4.67,3.91-6.92,7.03-.44,2.98,13.94-2.17,14.58-2.66,1.13-.85,1.55-2.61,2.5-3.02,2.9-1.26,10.94,3.64,11.02-2.02,0-.67-1.7-1.16-1.67-1.56.03-.47,1.51-.73,1.82-1.06,8.14-8.65,13.55,5.64,24.33-.08,1.59-.85,3.15-2.92,1.69-4.33-4.53-4.36-10.12-2.5-16.29-1.83l13.4-6.8c-3.52-2.1-6.41.17-9.6,2.12-.64-2.86.38-6.49-2.23-7.48-3.26-1.24-5.8,2.52-6.32,5.42-.5,2.8.5,9.65-2.36,8.65-1.35-.47,1.09-10.09-2.71-13.74-1.8.09-2.47,2.64-3.42,3.57-1.26,1.24-2.98,1.67-3.1,3.1-.5,5.56,4.16,5.36,8.85,7.81-5.31,3.89-10.98,6.09-16.74,5.96Z"/>
      <path class="cls-1" d="M97.68,17.18c3.26,2.31,5.31,7.33,9.24,8.73.35,1.35,1.69,2.43,2.82,3.12.92,1.44.6,3.67.91,5.24-2.55-.81-5.23-1.47-7.71-.16.68-.75,1.65-1.48,1.85-2.26.63-2.48-8.93-8.23-11.85-10.01-.7-.42-.88-2.07-1.68-2.11-2.62-.14-1.44,5.27-3.52,5.93-1.86-1.8-5.29-1.86-6.78-4.18,1.08-.09,1.21-1.58,1.36-2.38.22-1.22-1.11-1.67-2-2.45-5.67-4.91-5.77,1.22-11.3-7.19-2.15-3.27-6.3-5.3-9.46-2.44-1.27,1.16-.39,3.72-.76,5.13l-11.95-1.79C47.3,5.66,49.59-.48,55.34.03c15.94,1.41,29.83,8.29,42.35,17.15Z"/>
      <path class="cls-6" d="M18.01,98.55c-5.04.72-10.5,2.56-15.99,2.21-2.98-.19-1.14-4.61-1.39-6.31,6.42.18,12.49-2.13,19.19-3.36l56.04-10.27c2.97-.54,16.13-.07,18.48-5.08.31-.66.95-1.88,1.78-1.97.94-.11,2.23-1.09,3.36-1.32,1.91,1.6.94,4.79-.97,6.52-3.07,2.78-7.09,3.42-11.11,4.2l-23.57,4.61-45.48,9.22c-.47.5-.8,1.31-.36,1.54Z"/>
      <path class="cls-1" d="M107.99,43.54c-.1,1.1-.11,2.21-.04,3.32-.71-.11-2.61,10.07-.64,8.49-2.49,2.88-2.74,9.77-2.84,13.34-.06,2.26-1.3,4.7-1.56,7.3-.39,3.77-3.46,6.27-7.14,6.66-3.22.34-5.93,1.59-9.07,2.22l-51.44,10.28c-6.02,1.2-11.59,2.59-17.24,3.39-.45-.24-.11-1.05.36-1.54l45.48-9.22,23.57-4.61c4.02-.79,8.04-1.43,11.11-4.2,1.91-1.73,2.88-4.92.97-6.52-1.13.23-2.42,1.21-3.36,1.32,1.96-8.12,2-16.62,4.42-24.55,4.25.88,2.04-4.97,7.44-5.67Z"/>
      <path class="cls-3" d="M58.81,12.16c6.72,3.95,14.21,5.02,22.16,9.32,1.5,2.32,4.92,2.38,6.78,4.18,3.46,3.34,6.97,6.61,10.02,10.34,1.01,1.24.97,3.41.95,4.86-4.89-4.11-5.84-9.23-13.82-13.39-8.84-8.29-26.78-14.46-38.19-15.55l.14-1.55,11.95,1.79Z"/>
      <path class="cls-5" d="M84.08,65.35c-1.03.74-3.04,2.41-4.2,2.83-1.92-.06-4.67-.88-6.54-1.16-12.04-1.81-8.31,6.59-18.06,9.54-.92-1.02-2.65-1.65-3.43-2.77-3.19-4.6-10.36-2.94-12.56-8.8,12.91-6.08,13.37,6.75,22.14,2.15,2.14-1.12,5.08-2.25,7.1-3.72,2.84-2.06,4.79-3.89,7.98-4.39,2.43-.38,3.12.76,5.46,2.04s4.49-2.66,5.8-4c.69.15,1.5-.15,2.42,1.18-1.93,1.61-4.14,5.67-6.12,7.09Z"/>
      <path class="cls-5" d="M26.24,69c.77.67,1.69,1.81,2.88,1.9-.16.76-.83,1.93-.64,2.62.14.49,1.01,1.33,1.52,1.38.34,1.93-3.96,1.71-5.18,3.23-7.53-1.88-14.75,7.48-17.04,2.55,10.42-3.05,4.02-13.45,18.46-11.68Z"/>
      <path class="cls-4" d="M110.66,34.27c.64,3.2-.25,6.85-2.67,9.27-5.4.7-3.19,6.56-7.44,5.67-.03.11,1.35-5.55-1.86-6.63l.03-1.73c.02-1.45.06-3.62-.95-4.86,1.1.48,2.19.7,3.33.26.9-.34,1.14-1.77,1.85-2.15,2.48-1.31,5.16-.65,7.71.16Z"/>
      <path class="cls-4" d="M84.08,65.35c1.77,2.38,1.14,5.92.53,8.93-4.38-1.21-8.84.89-11.15-2.9-.75-1.23-.27-3.19-.12-4.35,1.87.28,4.62,1.1,6.54,1.16,1.16-.42,3.17-2.09,4.2-2.83Z"/>
      <path class="cls-6" d="M87.78,57.09c-1.32,1.35-3.52,5.25-5.8,4s-3.03-2.42-5.46-2.04c.05-2.63,1.98-5.75,4.15-6.18,3.8-.75,7.09.64,7.12,4.22Z"/>
      <path class="cls-4" d="M24.83,78.13c1.22-1.52,5.52-1.3,5.18-3.23,1.97.19,6.09,2.74,4.52,5.47-.82,1.43-4.44,3.15-6.11,2.93-2.56-.33-2.54-3.68-3.58-5.17Z"/>
      <path class="cls-8" d="M96.95,42.77c-4.95,3.63-11.43,2.77-17.01,4.32,4.88-4.06,10.83-6.16,17.01-4.32Z"/>
      <path class="cls-4" d="M29.12,70.9c-1.19-.08-2.11-1.23-2.88-1.9-2.26-2.85,3.19-7.53,5.07-7.26,2.79.6-.97,10.62-2.19,9.16Z"/>
      <path class="cls-1" d="M94.35,75.74c-2.36,5-15.51,4.53-18.48,5.08,4.29-2.44,13.05-2.51,18.48-5.08Z"/>
      <path class="cls-6" d="M51.87,73.8c.78,1.12,2.51,1.75,3.43,2.77-1.3,1.11-2.38,4.19-4.87,3.92-2.36-.25-3.13-2.35-2.47-3.94.74-1.78,1.99-3.23,3.92-2.75Z"/>
      <path class="cls-2" d="M27.52,42.68c2.31.99,4.83-.99,6.84-.94,5.76.14,11.43-2.06,16.74-5.96-4.69-2.45-9.36-2.25-8.85-7.81.13-1.43,1.84-1.87,3.1-3.1.95-.93,1.62-3.48,3.42-3.57,3.79,3.65,1.36,13.26,2.71,13.74,2.86,1.01,1.86-5.85,2.36-8.65.52-2.9,3.06-6.66,6.32-5.42,2.6.99,1.59,4.63,2.23,7.48,3.2-1.95,6.08-4.22,9.6-2.12l-13.4,6.8c6.17-.66,11.76-2.52,16.29,1.83,1.46,1.41-.1,3.48-1.69,4.33-10.78,5.73-16.19-8.57-24.33.08-.31.33-1.79.59-1.82,1.06-.03.4,1.68.9,1.67,1.56-.08,5.66-8.12.75-11.02,2.02-.94.41-1.37,2.17-2.5,3.02-.64.48-15.02,5.64-14.58,2.66,2.25-3.12,6.27-3.79,6.92-7.03Z"/>
      <path class="cls-3" d="M34.36,41.74c-2.01-.05-4.53,1.93-6.84.94-.71-.78-.77-1.85-.08-2.28,1.37-.86,4.44-1.4,5.95-.8.66.26,1.19,1.17.98,2.14Z"/>
      <path class="cls-6" d="M80.97,21.48c-7.95-4.3-15.44-5.37-22.16-9.32.38-1.41-.51-3.98.76-5.13,3.15-2.86,7.31-.83,9.46,2.44,5.53,8.41,5.63,2.29,11.3,7.19.89.77,2.22,1.23,2,2.45-.14.79-.27,2.29-1.36,2.38Z"/>
      <path class="cls-6" d="M102.95,34.11c-.71.38-.95,1.81-1.85,2.15-1.14.44-2.23.21-3.33-.26-3.05-3.73-6.56-7-10.02-10.34,2.08-.67.9-6.07,3.52-5.93.8.04.98,1.69,1.68,2.11,2.92,1.78,12.48,7.53,11.85,10.01-.2.78-1.17,1.52-1.85,2.26Z"/>
    </g>
  </g>
</svg>