<?xml version="1.0" encoding="UTF-8"?>
<svg id="Capa_2" data-name="Capa 2" xmlns="http://www.w3.org/2000/svg" viewBox="0 0 162.3 123.82">
  <defs>
    <style>
      .cls-1 {
        fill: #4c4b2d;
      }

      .cls-2 {
        fill: #3b3923;
      }

      .cls-3 {
        fill: #f0d09f;
      }

      .cls-4 {
        fill: #e3ba87;
      }

      .cls-5 {
        fill: #a4451f;
      }

      .cls-6 {
        fill: #6a3e1f;
      }

      .cls-7 {
        fill: #d28a38;
      }

      .cls-8 {
        fill: #6f6536;
      }

      .cls-9 {
        fill: #c47930;
      }

      .cls-10 {
        fill: #f6eddf;
      }

      .cls-11 {
        fill: #bca16f;
      }

      .cls-12 {
        fill: #e2a966;
      }

      .cls-13 {
        fill: #96804b;
      }
    </style>
  </defs>
  <g id="Elementos">
    <g>
      <path class="cls-13" d="M21.3,32.25c-.06,1.12,1.46,2.61,1.16,3.9-.21.91-1.65,2.02-2.68,2.33-2.64.79-5.05,2.91-6.3,5.88-.7,1.67.51,3.43,1.22,4.39,1.11,1.49,3.04-.15,4.93,1.1-2.42.94-5.88.77-7.59,2.76-4.19,4.88,2.76,8.82,3.58,12.08-.06,5.17-.89,10.83-.14,15.88,2.89,19.31,25.34,27.81,42.29,23.96,4.48-1.02,7.91-4.21,11.79-5.99.31,1.75.95,4.52,1.85,6.03-8.23,1.6-7.87,7.74-19.08,3.54-3.24,5.82-6.73,2.19-9.14,5-8.13-3.25-16.79-5.62-24.03-11.35,1.18.43-12.43-13.71-11.29-9.91-12.11-16.46-10.15-38.97,5.03-53.65,2.51-2.42,4.95-5.47,8.39-5.94Z"/>
      <path class="cls-4" d="M43.21,113.11c17.11,6.84,37.13,9.28,55.33,4.86,4-.97,8.71-.82,12.56-2.39l.27,3.13c-25.45,8.11-53.22,6.68-78.01-5.11-5.81-2.76-9.87-6.57-14.54-9.97l.36-1.87c7.24,5.74,15.9,8.1,24.03,11.35Z"/>
      <path class="cls-11" d="M128.25,24.5c2.18,4.03,8.67,7.93,12.7,10.55-.15.38.2,1.05.12,1.48-1.77,2.14-2.46,5.56-5.3,6.22-5.68-2.84-1.72-10.9-13.82-14.21-7.55-9.5-22.51-6.72-31.94-3.68.25-2.63-1.05-4.7-4.05-5.29-.63-2.08.63-4.17-.01-5.69,13.95.25,27.52,4.94,40.38,11.16.56.27,1.13.65,1.42.56.48-.15.59-.74.51-1.1Z"/>
      <path class="cls-2" d="M140.95,35.04c-4.03-2.62-10.52-6.52-12.7-10.55-3.46-6.38-3.15-14.04-.41-21.4,6.84,4.54,12,10.73,11.75,18.35l-.39,11.92c2.27-2,3.12-5.29,2.6-8.56-1.74-10.98,4.07-20.64,14.36-24.8,3.48,11.91-1.28,23.44-12.11,28.77-1.9,1.33-2.04,4.69-3.11,6.27Z"/>
      <path class="cls-2" d="M150.88,46.82c-2.82-2.6-5.69-5.89-7.55-9.39,3.13-6.98,11.68-9.45,18.97-7.04-2.09,7.32-6.25,12.28-11.41,16.43Z"/>
      <path class="cls-11" d="M145.89,96.83c-9.27,11.23-20.57,17.43-34.53,21.88l-.27-3.13,13.39-5.43c4.59-1.86,9.16-4.39,13.17-7.19,2.99-2.08,4.57-5.97,8.24-6.13Z"/>
      <path class="cls-11" d="M19.18,101.75l-.36,1.87c-4.78-3.49-7.5-7.12-10.93-11.78-1.14-3.8,12.47,10.34,11.29,9.91Z"/>
      <path class="cls-10" d="M135.77,42.74c.25,1.64.69,3.57,1.71,5-.02,1.23-.61,2.87-.18,4.17-.58-.14-.44.48-.41.85.08.85.05,1.7-.06,2.54,0,.31-.2.63-.19.94.29,5.07-4.81,10.32-6.83,14.22-1.01-1.37-4.32-2.09-5.89-2.4-.23-.43-.98-.51-1.6-.97-.41-.31,1.41-1.19,1.42-1.81.02-3-2.72-4.86-4.04-7.5.45-1.63,2.11-2.37,2.94-4.19-1.53-2.17-3.79-1.86-5.58-1.03,3.03-7.53-1.52-15.66-8.89-18.62-6.18-2.48-12.93-1.69-17.62,2.81-4.45,4.27-6.31,11.75-3.02,17.69,3.05,5.52,9.54,8.31,15.32,7.63-.13.69-.38,1.24-.86,1.36-9.18,2.36-15.84-12.24-18.83-3.37-.64,1.89.43,3.55,2.75,4.49-1.38,1.26-2.46.65-3.5.91-4.05-5.96-2.34-15.1-10.02-19.71-1.29-.77-1.81-2.2-1.94-3.35.67-3.81,8.56-5.93,9.56-7.35.69.39,1.75.59,2.86.32l7.42-1.76c1-.69,0-3.33-.32-4.27-.4-1.18-2.35-1.17-3.63-1.09l.04-.87c1.73.1,2.9-1.38,3.62-2.53,9.43-3.04,24.39-5.82,31.94,3.68,12.1,3.31,8.14,11.37,13.82,14.21ZM121.11,32.72c0-1.03-.84-1.87-1.87-1.87s-1.87.84-1.87,1.87.84,1.87,1.87,1.87,1.87-.84,1.87-1.87Z"/>
      <path class="cls-5" d="M123.93,68.06c1.57.31,4.88,1.03,5.89,2.4,2.28,4.51,7.13,3.75,7.01,13.81-.07,5.28-4.55,9.53-9.5,10.61-2-.26-2.82-2.81-4.76-3.68-1.74-.78-2.33,2.6-2.43,3.85-.44,5.45-8.35,14.53-15.83,11.17-2.4-.68-4.75-1.58-6.66-3.25-.54-.47-.5-1.53-.99-2.03l.69-6.73c.18-1.74.08-2.93-1.24-3.79-1.05-.68-1.96-1.81-3.67-.4,2.57,3.23,2.58,6.83,2.27,10.2-.43,4.75-3.89,7.89-7.9,10.21-5.95,1.08-11.51-1.2-15.37-5.87-.9-1.51-1.54-4.28-1.85-6.03-.53-2.97,4.49-10.28,4.22-10.17l6.63-2.62c.77.88,3.87,1.61,4.1-.03l1.19-8.41c4.91-3.36,7.93-6.85,15-4.55,2.96.96,6.65,3.91,7.26,7.75-1.05,1.55-2.67.67-4.47.72-1.41.04-2.49,2.16-2.27,3.61,4.19-1.19,9.45-.9,8.85-4.38-1.25-7.19,8.5-13.45,13.84-12.4ZM125.41,84.16c1.56-.84,2.01-1.4,1.66-1.98.62,1.05-2.41-2.54-3.46-1.98-.7.37-1.68.34-2.29,1.14,2.19.18,3.15,1.28,4.09,2.82ZM87.62,91.48c.96-.78-2.58-3.15-3.1-2.01-.7,1.53.12,3.38-1.26,4.81,1.47-1.07,2.86-1.58,4.36-2.8ZM80.13,97.67c2.04-.45,2.26-1.21,3.04-2.26-1.13.2-3.43.9-3.04,2.26Z"/>
      <path class="cls-11" d="M104.31,106.21c3.69,1.04,4.12,2.68,9.63,2.75-4.48,3.25-9.42,4.39-15.02,4.37-.72,1.75-.39,3.24-.37,4.63-18.2,4.43-38.22,1.98-55.33-4.86,2.42-2.82,5.91.82,9.14-5,11.2,4.2,10.85-1.94,19.08-3.54,3.86,4.67,9.43,6.95,15.37,5.87,3.32,1.96,7.85-.23,9.1-4.11.46-1.45,1.05-2.48,1.74-3.36,1.91,1.66,4.27,2.57,6.66,3.25Z"/>
      <path class="cls-1" d="M136.82,84.27c.13-10.06-4.72-9.3-7.01-13.81,2.02-3.9,7.12-9.15,6.83-14.22.72.21.52-.61.19-.94.11-.84.13-1.7.06-2.54.59.11.52-.51.41-.85-.43-1.3.16-2.94.18-4.17,1.13.46,2.78.65,3.2,1.53.86,1.81-.3,3.26-.57,5.22,1.63-1.23,3-2.2,4.66-2.24,1.99-.05,3.91,1.42,3.78,3.89-.2,3.87-2.94,6.56-4.49,9.87,2.46.89,4.53,2.01,4.06,4.25-.73,3.54-4.38,4.71-6.11,7.37-.9,1.39.7,3.82-.75,4.75-1.47.95-2.73,2.06-4.44,1.89Z"/>
      <path class="cls-6" d="M127.32,94.88c-2.39.52-4.74.51-7.19.16.1-1.25.69-4.63,2.43-3.85,1.94.87,2.76,3.43,4.76,3.68Z"/>
      <path class="cls-7" d="M117.07,52.56c-2.31,5.75-8.38,9.41-14.21,9.52-5.78.67-12.27-2.12-15.32-7.63-3.29-5.94-1.43-13.42,3.02-17.69,4.69-4.5,11.44-5.29,17.62-2.81,7.37,2.96,11.92,11.09,8.89,18.62ZM94.67,37.99l-.98.67c-3.08,2.1-5.03,5.48-3.11,8.96,0-.71,8.11-12.36,4.09-9.62Z"/>
      <path class="cls-3" d="M123.93,68.06c-5.34-1.05-15.1,5.21-13.84,12.4-.57-.05-1.61-.28-2.1.04-.61-3.84-4.3-6.78-7.26-7.75-7.08-2.3-10.1,1.19-15,4.55-4.01-2.39-1.44-3.22-3.16-6.74-.23-.47-.22-1.31-.25-1.84-.08-1.08.11-2.18.1-3.26,1.04-.26,2.12.36,3.5-.91-2.32-.94-3.39-2.59-2.75-4.49,2.98-8.87,9.64,5.73,18.83,3.37.48-.12.74-.67.86-1.36,5.84-.11,11.9-3.77,14.21-9.52,1.8-.83,4.05-1.14,5.58,1.03-.84,1.82-2.49,2.56-2.94,4.19,1.31,2.64,4.06,4.5,4.04,7.5,0,.62-1.83,1.5-1.42,1.81.62.46,1.37.54,1.6.97Z"/>
      <circle class="cls-3" cx="119.24" cy="32.72" r="1.87"/>
      <path class="cls-13" d="M136.65,56.24c-.02-.31.18-.63.19-.94.34.33.53,1.15-.19.94Z"/>
      <path class="cls-13" d="M136.89,52.76c-.03-.37-.17-.98.41-.85.11.34.18.96-.41.85Z"/>
      <path class="cls-13" d="M96.65,100.94c.5.5.45,1.56.99,2.03-.7.88-1.28,1.91-1.74,3.36-1.25,3.88-5.78,6.07-9.1,4.11,4.01-2.32,7.47-5.46,7.9-10.21.64.1,1.46.22,1.95.71Z"/>
      <path class="cls-13" d="M85.72,77.3l-1.19,8.41c-.23,1.64-3.33.91-4.1.03.96-5.09,2.56-9.95,2.13-15.18,1.72,3.51-.84,4.35,3.16,6.74Z"/>
      <path class="cls-6" d="M96.65,100.94c-.49-.49-1.31-.61-1.95-.71.31-3.38.29-6.98-2.27-10.2,1.71-1.41,2.62-.28,3.67.4,1.33.85,1.42,2.05,1.24,3.79l-.69,6.73Z"/>
      <path class="cls-6" d="M107.99,80.5c.49-.32,1.53-.09,2.1-.04.61,3.48-4.66,3.19-8.85,4.38-.22-1.46.87-3.58,2.27-3.61,1.8-.05,3.42.83,4.47-.72Z"/>
      <path class="cls-9" d="M87.62,91.48c-1.5,1.22-2.89,1.73-4.36,2.8,1.37-1.43.56-3.27,1.26-4.81.52-1.14,4.07,1.23,3.1,2.01Z"/>
      <path class="cls-7" d="M125.41,84.16c-.93-1.54-1.9-2.64-4.09-2.82.61-.8,1.59-.77,2.29-1.14,1.05-.56,4.08,3.03,3.46,1.98.35.58-.1,1.14-1.66,1.98Z"/>
      <path class="cls-9" d="M80.13,97.67c-.39-1.36,1.91-2.05,3.04-2.26-.78,1.05-1,1.8-3.04,2.26Z"/>
      <path class="cls-13" d="M143.33,37.43c1.86,3.51,4.73,6.79,7.55,9.39,9.52,17.2,6.91,35.59-4.99,50.01-3.68.16-5.26,4.05-8.24,6.13-4,2.79-8.58,5.33-13.17,7.19l-13.39,5.43c-3.85,1.56-8.56,1.41-12.56,2.39-.01-1.39-.35-2.88.37-4.63,5.6.02,10.54-1.12,15.02-4.37-5.5-.07-5.94-1.7-9.63-2.75,7.47,3.36,15.39-5.72,15.83-11.17,2.45.35,4.8.36,7.19-.16,4.95-1.08,9.44-5.33,9.5-10.61,1.71.17,2.96-.94,4.44-1.89,1.45-.93-.16-3.36.75-4.75,1.73-2.66,5.38-3.83,6.11-7.37.46-2.24-1.6-3.36-4.06-4.25,1.55-3.31,4.28-6,4.49-9.87.13-2.48-1.79-3.94-3.78-3.89-1.66.04-3.03,1.02-4.66,2.24.26-1.96,1.43-3.41.57-5.22-.42-.88-2.07-1.07-3.2-1.53-1.02-1.43-1.46-3.36-1.71-5,2.84-.66,3.53-4.08,5.3-6.22.72.38,1.48.67,2.26.91Z"/>
      <path class="cls-12" d="M94.67,37.99c4.02-2.73-4.09,8.92-4.09,9.62-1.92-3.47.02-6.86,3.11-8.96l.98-.67Z"/>
      <g>
        <path class="cls-8" d="M85.94,13.87c.64,1.52-.62,3.61.01,5.69,3,.58,4.3,2.66,4.05,5.29-.71,1.15-1.89,2.63-3.62,2.53-.71-1.03-1.4-3.23-3.15-2.78l-7.37,1.93,2.49-9.37-4.48,6.58c-.72.32-2.01-.16-2.54.58s.75,1.23,1.35,1.78c-.16,1.93-1.42,3.53-2.4,5.47-2.4-.51-4.38-.27-6.37.18-1.45-3.08,0-9.65-3.59-9.6-1.49-2.05-1.22-5.83-3.88-7.99-.02,4.07,2.65,7.16,3.33,11.15,1.24,7.34,4.86,10.64,1.47,11.85-1.18-.46-3.05.7-4.33.39.76-1.04,1.81-.74,3.65-1.22-4.72-.77-5.35-6.49-7-5.28.39,1,.8,1.27,1.1,1.44.66.36.46,1.24-.35,1.79-2.08-2.51-5.43-2.25-8.4-.74-2.32-1.07-2.13-3.43-4.82-5.02-.54,3.71,1.64,6.6,4.91,7.25-2.74-.09-5.21,1.01-7.77,1.87-3-1.61-4.79-7.6-7.2-9.05.32,4.57,3.43,7.12,4.64,10.59.28.79.3,1.78.1,2.59-1.75-.22-3.57,1.2-5.41.37-.52-.43-.58-1.82-1.01-2.11-.91-.61-1.5,1.87-2.12,1.76-2.81-.49-5.23-2.13-7.44-3.31,1.03-.31,2.46-1.42,2.68-2.33.3-1.3-1.22-2.79-1.16-3.9.17-2.97-.3-6.47,1.79-9.23,2.66-3.51,7.46-4.24,11.67-3,9.75,2.87,4.21-3.33,12.51-3.27,1.17-2.6.59-6.42,3.1-8.34s4.76-2.86,7.96-1.97c3.47.97,5.13,3.98,7.02,5.92,1.29.41,4.16-.07,4.91,2.31,3.35-2.74,5.93-6.5,10.41-6.45,2.74.03,4.22,3.66,5.27,5.66ZM40.94,27.32c0-.3-.24-.54-.54-.54s-.54.24-.54.54.24.54.54.54.54-.24.54-.54Z"/>
        <path class="cls-11" d="M45.99,35.77c1.65.32,2.8,1.09,4.15,2.04-1,.77-2.5.87-3.52,1.98-.77.83-.61,1.96-.26,2.77,1.14,2.69,6.88-3.49,9.02-2.59.89.81,1.84,1.59,2.5,2.61.15,1.8.46,3.67,1.67,5.07-.13,2.33-.39,4.72-2.65,6.94-2.28-2.66-3.14-5.28-4.29-8.8-3.7,5.71-4.61,2.21-4.95,6.24-5.69,4.76-2.03,9.33,1.02,15.45-9.06-2.61-8.31-8.17-12.23-11.37-.07-.19.03-.47.05-.67.13-1.31-.81-2.46-.97-3.69-.43-3.33-.56-6.7.23-9.97.2-.81.17-1.8-.1-2.59,1.13.1,2.2-.44,2.55-1.55,2.56-.86,5.04-1.96,7.77-1.87Z"/>
        <path class="cls-1" d="M19.79,38.49c2.21,1.18,4.63,2.83,7.44,3.31.62.11,1.2-2.37,2.12-1.76.43.29.49,1.69,1.01,2.11,1.85.84,3.67-.59,5.41-.37-.79,3.26-.66,6.64-.23,9.97-1.55-.34-1.78.97-1.16,1.94s.98,1.91,2.12,1.75c-.02.2-.12.48-.05.67.43,1.21.27,2.28.1,3.38-5.47-4.59-3.44-12.11-5.88-13.37-1-.52-1.72.49-2.62.78-6.03,1.91-7.44,9.47-6.21,15.51-6.99.06-3.5,15.46-2.75,17.49-1.2.25-2.5.04-3.59.68-.76-5.05.07-10.71.14-15.88-.81-3.26-7.76-7.2-3.58-12.08,1.71-1.99,5.17-1.82,7.59-2.76-1.89-1.25-3.83.38-4.93-1.1-.72-.96-1.92-2.73-1.22-4.39,1.25-2.97,3.65-5.08,6.3-5.88Z"/>
        <path class="cls-1" d="M86.39,27.38l-.04.87c-2.19,2.27-4.52,4.22-6.33,6.8-1,1.42-8.89,3.55-9.56,7.35-.49-.14-1.01-.1-1.5.02-.93-1.67-2.6-3.06-4.28-4.07.72-1.02-.47-2.21-.3-3.33.07-.44-.36-.85-.77-.91-.07-.25.02-.52-.01-.77l.33-1.58c1.99-.46,3.97-.69,6.37-.18.98-1.94,2.24-3.54,2.4-5.47-.6-.55-1.87-1.05-1.35-1.78s1.82-.26,2.54-.58l4.48-6.58-2.49,9.37,7.37-1.93c1.75-.46,2.45,1.75,3.15,2.78ZM74.75,27.74c0-.23-.19-.42-.42-.42s-.42.19-.42.42.19.42.42.42.42-.19.42-.42Z"/>
        <path class="cls-2" d="M56.91,37.56c-.42.57-1.62.62-1.68,1.56-1.69.04-3.65-.3-5.09-1.3-1.35-.94-2.5-1.71-4.15-2.04-3.27-.64-5.45-3.54-4.91-7.25,2.7,1.59,2.5,3.95,4.82,5.02,2.97-1.51,6.32-1.77,8.4.74.81-.55,1.02-1.43.35-1.79-.3-.16-.71-.44-1.1-1.44,1.65-1.21,2.28,4.51,7,5.28-1.84.48-2.89.18-3.65,1.22Z"/>
        <path class="cls-12" d="M61.24,37.16c.94.65,2.55.66,3.43,1.19,1.68,1.01,3.35,2.4,4.28,4.07.04.28-.25.68-.14.94-1.91-.12-3.99.54-5.8,1.14-1.62-.88-3.3-1.67-5.14-1.91-.66-1.02-1.61-1.79-2.5-2.61-.04-.28-.16-.58-.14-.87.06-.94,1.26-.98,1.68-1.56,1.27.31,3.14-.86,4.33-.39Z"/>
        <path class="cls-2" d="M38.22,37.64c-.36,1.11-1.42,1.64-2.55,1.55-1.21-3.47-4.32-6.03-4.64-10.59,2.41,1.44,4.2,7.43,7.2,9.05Z"/>
        <path class="cls-13" d="M63.92,31.76l-.33,1.58c-1.73-.94-1.46-3.2-1.86-4.96l-1.4-6.22c3.59-.05,2.14,6.53,3.59,9.6Z"/>
        <path class="cls-2" d="M60.33,22.15l1.4,6.22c.4,1.76.12,4.02,1.86,4.96.03.25-.05.53.01.77.1.38.22,1.17.77.91-.17,1.12,1.02,2.32.3,3.33-.88-.53-2.49-.54-3.43-1.19,3.39-1.21-.22-4.51-1.47-11.85-.67-3.99-3.34-7.08-3.33-11.15,2.67,2.16,2.39,5.94,3.88,7.99Z"/>
        <circle class="cls-2" cx="40.4" cy="27.32" r=".54"/>
        <path class="cls-2" d="M82.31,68.73c.04.53.02,1.36.25,1.84.43,5.23-1.18,10.09-2.13,15.18l-6.63,2.62c.27-.11-4.75,7.2-4.22,10.17-3.88,1.78-7.3,4.98-11.79,5.99-16.96,3.85-39.41-4.65-42.29-23.96,1.08-.64,2.39-.43,3.59-.68.95,2.55,2.12,6.07,4.23,8.24,13.03,13.37,37.51,15.08,49.7-.54,1.74-2.23,1.79-5.03,4.7-6.51,1.79-.91,2.16-3.24,2.23-4.76l.35-7.26c.03-.59,1.77-.37,2.02-.33Z"/>
        <path class="cls-13" d="M70.46,42.4c.13,1.15.65,2.58,1.94,3.35,7.68,4.61,5.97,13.76,10.02,19.71,0,1.08-.18,2.18-.1,3.26-.26-.04-1.99-.25-2.02.33l-.35,7.26c-3.36-1.66-8.9.07-11.16-2.54-.56-.65-.47-1.77-.1-2.84,7.62-5.59,9.77-18.17,5.12-21.9-1.58-1.27-3.84-1.34-5.76-1.4.63-1.18,1.31-2.98.78-4.28-.1-.25.19-.66.14-.94.49-.12,1.01-.17,1.5-.02Z"/>
        <path class="cls-4" d="M80.02,35.05c1.81-2.57,4.14-4.52,6.33-6.8,1.28-.08,3.22-.09,3.63,1.09.32.95,1.32,3.58.32,4.27l-7.42,1.76c-1.12.26-2.17.07-2.86-.32Z"/>
        <path class="cls-8" d="M28.04,46.9c-.47,3.76-4.81,8.21-3.54,13.6,2.37-.42,4.31-1.56,6,.19-.77.94-2.08,1.24-3.15,1.31-3.35.23-5.98,2.76-6.83,6.32-3.17,13.34,12.85,29.84,29.85,28.73,12.79-.84,22.83-11.22,21.68-14.86-.13-.4-.85-.6-1.31-.75.03-1.14.18-2.51-.44-3.58-.78-1.36-2.66-.41-3.95-.5-.76-.1-1.59-1.18-2.52-1.34s-1.4,1.43-2.63,1.5c-13.07.67-12.17-4.12-18.9-3.53-1.36-.17-.58-3.38-1.13-4.21-1.84-2.13-5.11-4.21-6.33-6.93.94-1.12,1.47-1.9,1.7-3.37.18-1.1.33-2.17-.1-3.38,3.93,3.2,3.18,8.76,12.23,11.37-3.05-6.12-6.71-10.69-1.02-15.45,1.4,2.84,1.63,6.18,3.42,9.22.54.91,1.64,1.73,1.59,2.86-.03.7-.87,1.51-1.42,2.22s-1.92,0-3.07,1.13c6.39,3.98,5.02,8.14,8.4,8.35,2.09.13,4.46.44,4.7-1.92,1.14-.15,2.53.74,3.45-.59-2.56-.64-4.23-1.03-5.59-2.97,2.08.55,4.22.57,6.39.26.85-.12,2.29.99,3.15.36-.37,1.07-.46,2.19.1,2.84,2.27,2.61,7.81.88,11.16,2.54-.07,1.52-.44,3.84-2.23,4.76-2.91,1.48-2.95,4.28-4.7,6.51-12.19,15.62-36.67,13.91-49.7.54-2.11-2.16-3.28-5.68-4.23-8.24-.75-2.03-4.24-17.43,2.75-17.49-1.23-6.04.18-13.6,6.21-15.51Z"/>
        <path class="cls-1" d="M68.81,43.36c.53,1.3-.15,3.1-.78,4.28-7.62,14.17,5.32,7.73-2.51,22.94-2.17.31-4.32.29-6.39-.26,1.36,1.94,3.03,2.32,5.59,2.97-.92,1.33-2.31.44-3.45.59-4.38-.59-8.03-3.66-10.02-7.56.56-.7,1.39-1.52,1.42-2.22.05-1.12-1.05-1.94-1.59-2.86-1.79-3.03-2.02-6.37-3.42-9.22.34-4.03,1.25-.53,4.95-6.24,1.15,3.52,2,6.14,4.29,8.8,2.26-2.21,2.52-4.6,2.65-6.94,1.9.08,2.93-1.68,3.47-3.15,1.81-.6,3.89-1.26,5.8-1.14Z"/>
        <path class="cls-13" d="M55.23,39.11c-.02.28.1.59.14.87-2.14-.91-7.88,5.28-9.02,2.59-.35-.82-.51-1.94.26-2.77,1.03-1.11,2.53-1.21,3.52-1.98,1.45,1,3.41,1.34,5.09,1.3Z"/>
        <path class="cls-8" d="M63.01,44.5c-.54,1.47-1.56,3.23-3.47,3.15-1.22-1.39-1.53-3.27-1.67-5.07,1.84.25,3.52,1.03,5.14,1.91Z"/>
        <path class="cls-8" d="M35.54,51.75c.16,1.23,1.09,2.38.97,3.69-1.14.16-1.53-.83-2.12-1.75s-.39-2.27,1.16-1.94Z"/>
        <path class="cls-11" d="M36.55,59.49c-.24,1.47-.76,2.25-1.7,3.37-5.14,6.1-3.76,15.32,2.9,20.12,5.31,3.83,11.55,4.62,17.52,2.09,6.35-2.69.57-4.54,11.09-7.7,1.28.08,3.17-.86,3.95.5.62,1.07.47,2.44.44,3.58-2.23,2.61-3.67,6.5-7.62,7.17l-17.68,2.97c-3.34-3.11-7.69-2.81-11.73-2.72-2.71-1.46-2.97-5.1-5.1-6.87-7.69-6.38-4.99-13.35-1.27-19.99,1.07-.07,2.39-.38,3.15-1.31-1.68-1.75-3.62-.61-6-.19-1.27-5.4,3.07-9.85,3.54-13.6.91-.29,1.62-1.29,2.62-.78,2.45,1.26.41,8.78,5.88,13.37Z"/>
        <circle class="cls-8" cx="74.32" cy="27.74" r=".42"/>
        <path class="cls-8" d="M64.38,35.02c-.55.26-.67-.53-.77-.91.41.06.84.47.77.91Z"/>
        <path class="cls-11" d="M68.68,70.95c-.85.63-2.3-.49-3.15-.36,7.82-15.21-5.11-8.77,2.51-22.94,1.92.07,4.18.13,5.76,1.4,4.65,3.74,2.49,16.31-5.12,21.9Z"/>
        <path class="cls-1" d="M66.35,77.37c-10.53,3.16-4.74,5-11.09,7.7-5.97,2.53-12.21,1.73-17.52-2.09-6.65-4.8-8.03-14.02-2.9-20.12,1.23,2.72,4.5,4.8,6.33,6.93.55.83-.23,4.04,1.13,4.21,6.72-.59,5.83,4.21,18.9,3.53,1.23-.06,1.73-1.66,2.63-1.5s1.75,1.25,2.52,1.34Z"/>
        <path class="cls-13" d="M27.35,62.01c-3.72,6.64-6.42,13.62,1.27,19.99,2.13,1.77,2.39,5.41,5.1,6.87,4.03-.09,8.39-.39,11.73,2.72l17.68-2.97c3.96-.66,5.39-4.56,7.62-7.17.46.15,1.18.34,1.31.75,1.14,3.64-8.9,14.03-21.68,14.86-17,1.11-33.02-15.39-29.85-28.73.84-3.55,3.48-6.08,6.83-6.32Z"/>
        <path class="cls-13" d="M61.28,73.88c-.24,2.36-2.61,2.05-4.7,1.92-3.38-.2-2.01-4.37-8.4-8.35,1.16-1.14,2.54-.45,3.07-1.13,1.99,3.9,5.65,6.97,10.02,7.56Z"/>
      </g>
    </g>
  </g>
</svg>