<?xml version="1.0" encoding="UTF-8"?>
<svg id="Capa_2" data-name="Capa 2" xmlns="http://www.w3.org/2000/svg" viewBox="0 0 139.92 122.81">
  <defs>
    <style>
      .cls-1 {
        fill: #b46a27;
      }

      .cls-2 {
        fill: #4c4b2d;
      }

      .cls-3 {
        fill: #3b3923;
      }

      .cls-4 {
        fill: #f0d09f;
      }

      .cls-5 {
        fill: #e3ba87;
      }

      .cls-6 {
        fill: #d28a38;
      }

      .cls-7 {
        fill: #6f6536;
      }

      .cls-8 {
        fill: #c47930;
      }

      .cls-9 {
        fill: #e2a966;
      }

      .cls-10 {
        fill: #944f1d;
      }
    </style>
  </defs>
  <g id="Elementos">
    <g>
      <path class="cls-8" d="M23.15,85.61c3.14,3.13,3.07,4.45,8.25,2.69,1.05-.36,2.43.5,4.11-.64-.27,2.01-.36,9.3,3.14,9.46,3.08.14,1.6-5.02,4.98-4.28,5.43,1.2,1.4,7.05,9.65,5.91.23,1.24.71,2.73,1.98,3.58,1.22.81,3.1-.34,3.42-1.88,3.38.16,5.9,2.77,9.26,3.29,1.19,2.46,3.8,3.77,6.52,3.52.56,2.97-.54,6.4.88,9.35.46.95,2.2,1.12,2.03,1.95-.17.85.33,2.12-.45,2.51-1.39.7-2.73.64-3.75,1.35-1.61-.39-3.45.07-5.44-.76-18.01-7.54-35.92-14.56-53.2-22.89-.26-.27-.51-.62-.85-.79-.24-.12-.59.01-.85-.07-.12-1.43-1.97-2.08-2.5-3.54-.41-1.13,4.95-6.54,8-4.66.84-1.71,1.21-3.14,1.36-4.63l3.47.55Z"/>
      <path class="cls-10" d="M130.01,82.4c1.09,4.62,2.31,17.36-3.87,20.17-14.34,6.54-28.3,13.06-42.95,18.87-3.48,1.38-6.88,1.72-10.04.96,1.02-.71,2.36-.65,3.75-1.35.78-.39.28-1.66.45-2.51.17-.83-1.57-1.01-2.03-1.95-1.42-2.94-.32-6.38-.88-9.35,1.37-.13,2.81.39,4.46.39,2.05,0,2.74-2.25,3.78-3.3,5.11-1.37,9.89-3.81,14.73-5.93,1.59.44,4.68.03,6.26-.6,1.39-.56,1.79-2.44,2.39-3.34,2.92-.51,6.94-1.39,8.3-4.14,1.47.31,2.71,1.09,4.66.63,1.33-.32,1.32-2.37,2.4-3.2,1.16-.89,3.18-.6,4.09-2.34.57-1.11,1.14-2.38.23-3.72,1.21-.11,3.05.96,4.26.71Z"/>
      <path class="cls-2" d="M14.68,59.87c-.38,6.03,3.25,11.07,9.16,12.36-.06.58.37.74.86.73.27,0,.55-.01.82.02,1,3.1,4.01,4.49,7.41,3.21,1.94-.73,3.86-.96,5.44-.21,1.82.85,3.41,2.03,3.4,4.07-2.32,1.63-5.82,1.26-8.62.04,0,0-9.03-5.3-11.13.68-2.03.23-3.89,1.09-5.78,1.82-6.87-1.03-.05-10.42-7.66-7.12-2.66-.56-7.42-1.5-8.33-4.9-2.09-7.76,10.12-9.25,11.69-11.86,1.22-.56,1.86.97,2.75,1.17Z"/>
      <path class="cls-2" d="M110.27,30.91c-.64.42-1.13-.3-1.67-.37,1.75-2.71,1.96-5.55,1.56-8.99-1.13-9.78,5.28-18.23,14.81-21.55,2.35,11.38-.71,20.92-11.27,26.37-1.97,1.01-3.04,2.73-3.43,4.54Z"/>
      <path class="cls-2" d="M106.8,29.98c-3.81.05-6.74-3.03-10-4.24-3.49-7.22-3.61-15.36.02-23.35,10.15,5.92,12.52,16.99,9.98,27.59Z"/>
      <path class="cls-2" d="M125.63,38.5c-3.91-1.68-8.88-2.97-11.99-5.87,2.12-4.88,13.26-6.59,17.81-4.71-1.25,4.5-3.22,7.82-5.83,10.58Z"/>
      <path class="cls-1" d="M16.23,82.58c1.19.57,2.35,1.76,3.44,2.48-.14,1.49-.51,2.92-1.36,4.63-3.06-1.88-8.41,3.53-8,4.66.53,1.46,2.38,2.11,2.5,3.54-6.39-1.17-3.58-22.7-2.84-21.67-.34-.47-1.07-.55-1.4-.77,7.61-3.29.79,6.1,7.66,7.12Z"/>
      <path class="cls-1" d="M14.51,98.75c-.34-.16-.56-.56-.85-.79.34.17.59.52.85.79Z"/>
      <path class="cls-3" d="M42.57,72.36c3.07-.32,5.82,2.62,8.59,3.52,3.15,9.51,13.34,14.55,23.57,14.27,9.11-.25,17.55-4.32,20.99-12.45l5.41-1.97c6.53,1.73,13.91,1.66,20.42-.66.88.21.7,1.35.52,1.9-.63,1.99-3.59.88-5.57,1.35.63,1.89-.52,3.04-1.2,3.98-.81,1.13-2.53,1.19-4.29.86-1.1-.21.13-1.27.02-2.41-2.88,2.23-6.1,2.82-9.5,3.99l-10.47,3.6c2.62,2,4.62-1.41,6.99,1.14-4,3.46-17.02-.25-15.75,1.57.46.66,6.04,1.95,6.83,5.09-1.33.27-2.82,1.75-3.52,3.05-4.37-4.52-5.33,1.99-12.58-6.42-.9-1.04-3.05-1.72-3.57-.88l-1.74,2.77c-.38.6-2.03-.89-2.68-.82-1.31.15-1.51,1.52-2.21,2.18-.65.61-1.93.74-1.86,2.05-.23.08-.54-.06-.75.04l-1.6-.15c-1.05.16-2.11.22-3.17.09l-1.24-.27,3.75-1.71c-3.7-8.44,1.87-3.37-2.36-7.9.72-.38,2.02-.05,2.33-1.7-9.93-.87-10.19-6.25-16.14-6.42.02-2.04-1.58-3.22-3.4-4.07-1.58-.74-3.51-.52-5.44.21-3.4,1.28-6.41-.11-7.41-3.21,5.72.77,11.36-.03,17.05-.63Z"/>
      <path class="cls-7" d="M41.77,80.04c5.95.17,6.21,5.55,16.14,6.42-.31,1.65-1.61,1.31-2.33,1.7,4.24,4.54-1.34-.54,2.36,7.9l-3.75,1.71-.92.97c-8.25,1.15-4.22-4.71-9.65-5.91-3.37-.75-1.89,4.41-4.98,4.28-3.5-.16-3.41-7.45-3.14-9.46-1.67,1.14-3.06.28-4.11.64-.14-4.16,2.31-3.43,1.74-8.22,2.81,1.22,6.3,1.59,8.62-.04ZM39.96,83.79c2.22.62,2.85-.99,3.25-2.15-1.24.91-2.01,1.69-3.25,2.15Z"/>
      <path class="cls-2" d="M85.61,99.18c-.94,1.74-1.47,3.69-2.92,5.15-1.04,1.05-1.73,3.3-3.78,3.3-1.65,0-3.09-.51-4.46-.39-2.72.26-5.33-1.05-6.52-3.52-.88-1.83-1.87-3.58-3.27-5.04-.69-.72-.54-2.38-1.84-2.67.7-.66.9-2.03,2.21-2.18.65-.08,2.31,1.42,2.68.82l1.74-2.77c.52-.83,2.67-.15,3.57.88,7.26,8.41,8.22,1.89,12.58,6.42Z"/>
      <path class="cls-10" d="M33.14,80.08c.57,4.79-1.88,4.06-1.74,8.22-5.18,1.77-5.11.44-8.25-2.69-.18-1.66-.71-3.24-1.14-4.85,2.11-5.98,11.12-.68,11.13-.68Z"/>
      <path class="cls-6" d="M22.01,80.76c.43,1.61.96,3.19,1.14,4.85l-3.47-.55c-1.1-.72-2.26-1.91-3.44-2.48,1.89-.73,3.75-1.59,5.78-1.82Z"/>
      <path class="cls-1" d="M58.67,100.44c-.31,1.54-2.2,2.69-3.42,1.88-1.27-.85-1.75-2.33-1.98-3.58l.92-.97,1.24.27c.17,1.27,1.92,2.34,3.23,2.4Z"/>
      <path class="cls-9" d="M58.6,97.96c-.13.6.48.58.94.5.22-.04.41-.24.66-.35.21-.09.53.04.75-.04.03.91.41,2.12,1.62,2.26.82.1,1.64-.9,2.07-1.64,1.4,1.46,2.38,3.21,3.27,5.04-3.36-.52-5.88-3.13-9.26-3.29-1.31-.06-3.06-1.13-3.23-2.4,1.06.13,2.12.07,3.17-.09Z"/>
      <g>
        <path class="cls-5" d="M96.8,25.74c3.26,1.2,6.19,4.28,10,4.24.5,0,1.25.5,1.81.57s1.02.79,1.67.37c.35,1.57,2.37,1.34,3.38,1.71,3.11,2.9,8.07,4.19,11.99,5.87,2.08.89,3.57,3.17,4.25,4.99l-3.73,4.17-40.14,16.47c-4.15,1.7-8.18,2.19-12.26,2.16-7.38-2.16-14.26-5.58-21.73-8.7l-37.51-15.65c-2.84-1.19-3.57-3.68-2.59-6.12,1.19-.92,1.79-2.28,3.81-2.95l44.96-15.06c6.11-2.05,11.84-1,17.57,1.11l18.53,6.82ZM66.31,22.72l-3.95,1.78,1,2.22,3.95-1.78-1-2.22ZM49.19,28.37l-4.08,1.63.94,2.34,4.08-1.63-.94-2.34ZM78.45,36.28c.45-2.09-5.11-1.38-5.04-4.44-1.49.38-3.1.82-4.23,1.6.06,2.61,2.02,4.37,3.66,4.84,2.15.62,5.08.44,5.6-2.01ZM60.85,32.05l-6.48.9.31,2.2,6.48-.9-.31-2.2ZM84.9,40.87c3.16,1.99,6.3.21,9.4-.33,2.67-.47,5.51-.09,7.36-2.52.72-.94-.13-2.11-.76-2.56-.5-.36-1.38-.87-2.27-.46-7.29,3.35-9.35.46-10.82,5.67-.85-.62-1.26-1.22-1.67-1.41-.57-.27-1.9,1.2-1.25,1.61ZM28.84,38.5c-1.13-1.84-5.11-1.95-4.97-.41.24,2.64,4.43,2.44,4.97.41ZM37.29,42.93c1-.51,1.28-1.73.31-2.15-1.24-.54-4.85-.31-5.19.96-.12,2.13,3.2,2.05,4.87,1.19ZM113.64,43.88c-.4-2.08-4.18-2.98-5.52-1.95-1.7,1.31-2.94,3.15-4.06,4.7,1.28,2.49,4.27,2.34,6.14,1.58,1.26-.51,3.95-1.66,3.43-4.33ZM91.29,46.37c1.82-3.59-12.3-.99-10.9.89,3.25.69,8.33,1.61,10.9-.89ZM84.38,52.66l-4.03,3.43,1.05,1.24,4.03-3.43-1.05-1.24ZM81.66,59.57c-1.78-1.44-3.77-1.3-5.04.39,1.32,1.35,3.85,1.54,5.04-.39Z"/>
        <path class="cls-1" d="M73.76,66.29l2.66,1.95.13,14.32c-1.94.11-3.83-.57-4.38.81-5.6-.52-14.63-5.42-21.02-7.5-2.76-.9-5.52-3.84-8.59-3.52-.47-1.93-3.25-.86-4.42-1.66-6.15-4.14-13.4-6.53-20.3-9.27-1.08-.43-1.97-1.27-3.16-1.55-.89-.2-1.53-1.73-2.75-1.17-1.85-1.68-2.93-3.76-2.91-6.72l.08-11.86c.02-2.65,1.47-3.25,2.83-4.3-.98,2.44-.25,4.94,2.59,6.12l37.51,15.65c7.47,3.12,14.35,6.54,21.73,8.7Z"/>
        <path class="cls-10" d="M127.47,64.07c-.45.43-1.06.7-1.35,1.3-8.53,2.84-16.6,7.3-25,10.36l-5.41,1.97c-9.07,3.3-12.88,6.67-23.54,5.68.55-1.38,2.45-.7,4.38-.81l-.13-14.32-2.66-1.95c4.08.03,8.11-.45,12.26-2.16l40.14-16.47,3.73-4.17c1.95,5.2,1.12,11.48.29,17.29-.23,1.6-1.89,2.54-2.7,3.3Z"/>
        <path class="cls-9" d="M84.9,40.87c-.65-.41.67-1.88,1.25-1.61.4.19.82.79,1.67,1.41,1.47-5.21,3.53-2.32,10.82-5.67.89-.41,1.77.1,2.27.46.63.45,1.47,1.62.76,2.56-1.85,2.43-4.69,2.05-7.36,2.52-3.1.55-6.24,2.32-9.4.33Z"/>
        <path class="cls-6" d="M113.64,43.88c.51,2.67-2.17,3.82-3.43,4.33-1.87.76-4.86.91-6.14-1.58,1.12-1.55,2.35-3.39,4.06-4.7,1.34-1.03,5.12-.13,5.52,1.95Z"/>
        <path class="cls-9" d="M78.45,36.28c-.53,2.44-3.45,2.62-5.6,2.01-1.64-.47-3.6-2.24-3.66-4.84,1.13-.78,2.74-1.23,4.23-1.6-.07,3.06,5.49,2.35,5.04,4.44Z"/>
        <path class="cls-9" d="M91.29,46.37c-2.57,2.5-7.65,1.58-10.9.89-1.4-1.88,12.72-4.47,10.9-.89Z"/>
        <rect class="cls-9" x="54.49" y="32.49" width="6.54" height="2.22" transform="translate(-4.07 8.26) rotate(-7.9)"/>
        <path class="cls-6" d="M37.29,42.93c-1.68.86-4.99.94-4.87-1.19.34-1.28,3.95-1.51,5.19-.96.97.42.69,1.64-.31,2.15Z"/>
        <path class="cls-6" d="M28.84,38.5c-.54,2.03-4.73,2.23-4.97-.41-.14-1.53,3.85-1.43,4.97.41Z"/>
        <rect class="cls-9" x="62.67" y="23.5" width="4.33" height="2.44" transform="translate(-4.43 28.86) rotate(-24.29)"/>
        <rect class="cls-6" x="80.25" y="54.18" width="5.29" height="1.62" transform="translate(-15.89 66.72) rotate(-40.33)"/>
        <path class="cls-9" d="M81.66,59.57c-1.19,1.93-3.72,1.74-5.04.39,1.27-1.69,3.26-1.84,5.04-.39Z"/>
        <rect class="cls-6" x="45.42" y="29.1" width="4.4" height="2.52" transform="translate(-7.86 19.83) rotate(-21.77)"/>
        <path class="cls-4" d="M72.17,83.37c10.66,1,14.47-2.37,23.54-5.68-3.43,8.13-11.88,12.19-20.99,12.45-10.23.28-20.42-4.76-23.57-14.27,6.38,2.08,15.41,6.97,21.02,7.5Z"/>
        <path class="cls-4" d="M17.84,61.42c-2.77,3.35,19.48,11.9,20.3,9.27,1.18.79,3.95-.27,4.42,1.66-5.69.6-11.33,1.4-17.05.63-.27-.04-.55-.03-.82-.02-.23-.25-.5-.65-.86-.73-5.91-1.28-9.54-6.33-9.16-12.36,1.19.27,2.08,1.12,3.16,1.55Z"/>
        <path class="cls-5" d="M38.14,70.7c-.82,2.63-23.07-5.92-20.3-9.27,6.9,2.75,14.15,5.14,20.3,9.27Z"/>
        <path class="cls-9" d="M126.12,65.37c.85,3.12-.94,8.41-4.58,9.7-6.51,2.32-13.9,2.39-20.42.66,8.4-3.06,16.47-7.52,25-10.36Z"/>
      </g>
      <path class="cls-9" d="M89.13,96.13l8.29,2.28c-4.84,2.13-9.62,4.56-14.73,5.93,1.45-1.47,1.98-3.42,2.92-5.15.71-1.3,2.2-2.78,3.52-3.05Z"/>
      <path class="cls-6" d="M114.37,90.33c-1.36,2.75-5.39,3.63-8.3,4.14,1.02-1.53.91-3.54,1.48-5.58l6.82,1.44Z"/>
      <path class="cls-6" d="M125.75,81.69c.91,1.34.34,2.61-.23,3.72-.9,1.74-2.92,1.45-4.09,2.34.68-1.74.67-3.78,1.35-5.87.45-1.39,2.2-.13,2.97-.2Z"/>
      <path class="cls-3" d="M24.7,72.96c-.49.01-.92-.15-.86-.73.37.08.63.48.86.73Z"/>
      <path class="cls-1" d="M62.82,96.02c1.29.29,1.15,1.95,1.84,2.67-.43.73-1.25,1.74-2.07,1.64-1.21-.14-1.59-1.35-1.62-2.26-.08-1.31,1.21-1.43,1.86-2.05Z"/>
      <path class="cls-1" d="M60.21,98.1c-.25.11-.44.31-.66.35-.46.08-1.07.1-.94-.5l1.6.15Z"/>
      <path class="cls-2" d="M130.01,82.4c-1.21.25-3.06-.82-4.26-.71-.77.07-2.52-1.19-2.97.2-.68,2.09-.66,4.13-1.35,5.87-1.08.83-1.06,2.89-2.4,3.2-1.95.46-3.19-.32-4.66-.63l-6.82-1.44c-.57,2.05-.46,4.06-1.48,5.58-.6.9-1,2.78-2.39,3.34-1.57.63-4.66,1.04-6.26.6l-8.29-2.28c-.79-3.14-6.38-4.43-6.83-5.09-1.27-1.82,11.75,1.89,15.75-1.57-2.37-2.55-4.37.86-6.99-1.14l10.47-3.6c3.4-1.17,6.62-1.76,9.5-3.99.1,1.14-1.12,2.2-.02,2.41,1.76.34,3.48.28,4.29-.86.67-.94,1.82-2.09,1.2-3.98,1.98-.47,4.94.64,5.57-1.35.17-.55.36-1.69-.52-1.9,3.64-1.29,5.43-6.58,4.58-9.7.29-.59.9-.87,1.35-1.3,2.38,2.6,14.46,5.73,12.15,13.15-1.29,4.15-6.16,4.46-9.62,5.18Z"/>
      <path class="cls-3" d="M39.96,83.79c1.24-.47,2.01-1.25,3.25-2.15-.4,1.17-1.03,2.78-3.25,2.15Z"/>
    </g>
  </g>
</svg>