<?xml version="1.0" encoding="UTF-8"?>
<svg id="Capa_2" data-name="Capa 2" xmlns="http://www.w3.org/2000/svg" viewBox="0 0 342.14 341.88">
  <defs>
    <style>
      .cls-1 {
        fill: #8a4a24;
      }
    </style>
  </defs>
  <g id="Elementos">
    <g>
      <path class="cls-1" d="M3.87,4.68v-.82h.81c.56,0,1.01-.45,1.01-1.01s-.45-1.01-1.01-1.01h-.81v-.82c0-.56-.45-1.01-1.01-1.01s-1.01.45-1.01,1.01v.82h-.83c-.56,0-1.01.45-1.01,1.01s.45,1.01,1.01,1.01h.83v.82c0,.56.45,1.01,1.01,1.01s1.01-.45,1.01-1.01Z"/>
      <path class="cls-1" d="M60.05,4.68v-.82h.81c.56,0,1.01-.45,1.01-1.01s-.45-1.01-1.01-1.01h-.81v-.82c0-.56-.45-1.01-1.01-1.01s-1.01.45-1.01,1.01v.82h-.83c-.56,0-1.01.45-1.01,1.01s.45,1.01,1.01,1.01h.83v.82c0,.56.45,1.01,1.01,1.01s1.01-.45,1.01-1.01Z"/>
      <path class="cls-1" d="M3.87,60.5v-.82h.81c.56,0,1.01-.45,1.01-1.01s-.45-1.01-1.01-1.01h-.81v-.82c0-.56-.45-1.01-1.01-1.01s-1.01.45-1.01,1.01v.82h-.83c-.56,0-1.01.45-1.01,1.01s.45,1.01,1.01,1.01h.83v.82c0,.56.45,1.01,1.01,1.01s1.01-.45,1.01-1.01Z"/>
      <path class="cls-1" d="M60.05,60.5v-.82h.81c.56,0,1.01-.45,1.01-1.01s-.45-1.01-1.01-1.01h-.81v-.82c0-.56-.45-1.01-1.01-1.01s-1.01.45-1.01,1.01v.82h-.83c-.56,0-1.01.45-1.01,1.01s.45,1.01,1.01,1.01h.83v.82c0,.56.45,1.01,1.01,1.01s1.01-.45,1.01-1.01Z"/>
      <path class="cls-1" d="M116.02,4.68v-.82h.81c.56,0,1.01-.45,1.01-1.01s-.45-1.01-1.01-1.01h-.81v-.82c0-.56-.45-1.01-1.01-1.01s-1.01.45-1.01,1.01v.82h-.83c-.56,0-1.01.45-1.01,1.01s.45,1.01,1.01,1.01h.83v.82c0,.56.45,1.01,1.01,1.01s1.01-.45,1.01-1.01Z"/>
      <path class="cls-1" d="M116.02,60.5v-.82h.81c.56,0,1.01-.45,1.01-1.01s-.45-1.01-1.01-1.01h-.81v-.82c0-.56-.45-1.01-1.01-1.01s-1.01.45-1.01,1.01v.82h-.83c-.56,0-1.01.45-1.01,1.01s.45,1.01,1.01,1.01h.83v.82c0,.56.45,1.01,1.01,1.01s1.01-.45,1.01-1.01Z"/>
      <path class="cls-1" d="M59.27,59.04H2.74V2.5h56.54v56.54ZM3.17,58.6h55.66V2.94H3.17v55.66Z"/>
      <path class="cls-1" d="M115.35,59.04h-56.54V2.5h56.54v56.54ZM59.25,58.6h55.66V2.94h-55.66v55.66Z"/>
      <path class="cls-1" d="M172.1,4.68v-.82h.81c.56,0,1.01-.45,1.01-1.01s-.45-1.01-1.01-1.01h-.81v-.82c0-.56-.45-1.01-1.01-1.01s-1.01.45-1.01,1.01v.82h-.83c-.56,0-1.01.45-1.01,1.01s.45,1.01,1.01,1.01h.83v.82c0,.56.45,1.01,1.01,1.01s1.01-.45,1.01-1.01Z"/>
      <path class="cls-1" d="M172.1,60.5v-.82h.81c.56,0,1.01-.45,1.01-1.01s-.45-1.01-1.01-1.01h-.81v-.82c0-.56-.45-1.01-1.01-1.01s-1.01.45-1.01,1.01v.82h-.83c-.56,0-1.01.45-1.01,1.01s.45,1.01,1.01,1.01h.83v.82c0,.56.45,1.01,1.01,1.01s1.01-.45,1.01-1.01Z"/>
      <path class="cls-1" d="M171.42,59.04h-56.54V2.5h56.54v56.54ZM115.32,58.6h55.66V2.94h-55.66v55.66Z"/>
      <path class="cls-1" d="M228.17,4.68v-.82h.81c.56,0,1.01-.45,1.01-1.01s-.45-1.01-1.01-1.01h-.81v-.82c0-.56-.45-1.01-1.01-1.01s-1.01.45-1.01,1.01v.82h-.83c-.56,0-1.01.45-1.01,1.01s.45,1.01,1.01,1.01h.83v.82c0,.56.45,1.01,1.01,1.01s1.01-.45,1.01-1.01Z"/>
      <path class="cls-1" d="M228.17,60.5v-.82h.81c.56,0,1.01-.45,1.01-1.01s-.45-1.01-1.01-1.01h-.81v-.82c0-.56-.45-1.01-1.01-1.01s-1.01.45-1.01,1.01v.82h-.83c-.56,0-1.01.45-1.01,1.01s.45,1.01,1.01,1.01h.83v.82c0,.56.45,1.01,1.01,1.01s1.01-.45,1.01-1.01Z"/>
      <path class="cls-1" d="M227.49,59.04h-56.54V2.5h56.54v56.54ZM171.39,58.6h55.66V2.94h-55.66v55.66Z"/>
      <path class="cls-1" d="M284.25,4.68v-.82h.81c.56,0,1.01-.45,1.01-1.01s-.45-1.01-1.01-1.01h-.81v-.82c0-.56-.45-1.01-1.01-1.01s-1.01.45-1.01,1.01v.82h-.83c-.56,0-1.01.45-1.01,1.01s.45,1.01,1.01,1.01h.83v.82c0,.56.45,1.01,1.01,1.01s1.01-.45,1.01-1.01Z"/>
      <path class="cls-1" d="M284.25,60.5v-.82h.81c.56,0,1.01-.45,1.01-1.01s-.45-1.01-1.01-1.01h-.81v-.82c0-.56-.45-1.01-1.01-1.01s-1.01.45-1.01,1.01v.82h-.83c-.56,0-1.01.45-1.01,1.01s.45,1.01,1.01,1.01h.83v.82c0,.56.45,1.01,1.01,1.01s1.01-.45,1.01-1.01Z"/>
      <path class="cls-1" d="M283.57,59.04h-56.54V2.5h56.54v56.54ZM227.47,58.6h55.66V2.94h-55.66v55.66Z"/>
      <path class="cls-1" d="M340.32,4.68v-.82h.81c.56,0,1.01-.45,1.01-1.01s-.45-1.01-1.01-1.01h-.81v-.82c0-.56-.45-1.01-1.01-1.01s-1.01.45-1.01,1.01v.82h-.83c-.56,0-1.01.45-1.01,1.01s.45,1.01,1.01,1.01h.83v.82c0,.56.45,1.01,1.01,1.01s1.01-.45,1.01-1.01Z"/>
      <path class="cls-1" d="M340.32,60.5v-.82h.81c.56,0,1.01-.45,1.01-1.01s-.45-1.01-1.01-1.01h-.81v-.82c0-.56-.45-1.01-1.01-1.01s-1.01.45-1.01,1.01v.82h-.83c-.56,0-1.01.45-1.01,1.01s.45,1.01,1.01,1.01h.83v.82c0,.56.45,1.01,1.01,1.01s1.01-.45,1.01-1.01Z"/>
      <path class="cls-1" d="M339.64,59.04h-56.54V2.5h56.54v56.54ZM283.54,58.6h55.66V2.94h-55.66v55.66Z"/>
      <path class="cls-1" d="M3.87,116.58v-.82h.81c.56,0,1.01-.45,1.01-1.01s-.45-1.01-1.01-1.01h-.81v-.82c0-.56-.45-1.01-1.01-1.01s-1.01.45-1.01,1.01v.82h-.83c-.56,0-1.01.45-1.01,1.01s.45,1.01,1.01,1.01h.83v.82c0,.56.45,1.01,1.01,1.01s1.01-.45,1.01-1.01Z"/>
      <path class="cls-1" d="M60.05,116.58v-.82h.81c.56,0,1.01-.45,1.01-1.01s-.45-1.01-1.01-1.01h-.81v-.82c0-.56-.45-1.01-1.01-1.01s-1.01.45-1.01,1.01v.82h-.83c-.56,0-1.01.45-1.01,1.01s.45,1.01,1.01,1.01h.83v.82c0,.56.45,1.01,1.01,1.01s1.01-.45,1.01-1.01Z"/>
      <path class="cls-1" d="M116.02,116.58v-.82h.81c.56,0,1.01-.45,1.01-1.01s-.45-1.01-1.01-1.01h-.81v-.82c0-.56-.45-1.01-1.01-1.01s-1.01.45-1.01,1.01v.82h-.83c-.56,0-1.01.45-1.01,1.01s.45,1.01,1.01,1.01h.83v.82c0,.56.45,1.01,1.01,1.01s1.01-.45,1.01-1.01Z"/>
      <path class="cls-1" d="M59.27,115.11H2.74v-56.54h56.54v56.54ZM3.17,114.67h55.66v-55.66H3.17v55.66Z"/>
      <path class="cls-1" d="M115.35,115.11h-56.54v-56.54h56.54v56.54ZM59.25,114.67h55.66v-55.66h-55.66v55.66Z"/>
      <path class="cls-1" d="M172.1,116.58v-.82h.81c.56,0,1.01-.45,1.01-1.01s-.45-1.01-1.01-1.01h-.81v-.82c0-.56-.45-1.01-1.01-1.01s-1.01.45-1.01,1.01v.82h-.83c-.56,0-1.01.45-1.01,1.01s.45,1.01,1.01,1.01h.83v.82c0,.56.45,1.01,1.01,1.01s1.01-.45,1.01-1.01Z"/>
      <path class="cls-1" d="M171.42,115.11h-56.54v-56.54h56.54v56.54ZM115.32,114.67h55.66v-55.66h-55.66v55.66Z"/>
      <path class="cls-1" d="M228.17,116.58v-.82h.81c.56,0,1.01-.45,1.01-1.01s-.45-1.01-1.01-1.01h-.81v-.82c0-.56-.45-1.01-1.01-1.01s-1.01.45-1.01,1.01v.82h-.83c-.56,0-1.01.45-1.01,1.01s.45,1.01,1.01,1.01h.83v.82c0,.56.45,1.01,1.01,1.01s1.01-.45,1.01-1.01Z"/>
      <path class="cls-1" d="M227.49,115.11h-56.54v-56.54h56.54v56.54ZM171.39,114.67h55.66v-55.66h-55.66v55.66Z"/>
      <path class="cls-1" d="M284.25,116.58v-.82h.81c.56,0,1.01-.45,1.01-1.01s-.45-1.01-1.01-1.01h-.81v-.82c0-.56-.45-1.01-1.01-1.01s-1.01.45-1.01,1.01v.82h-.83c-.56,0-1.01.45-1.01,1.01s.45,1.01,1.01,1.01h.83v.82c0,.56.45,1.01,1.01,1.01s1.01-.45,1.01-1.01Z"/>
      <path class="cls-1" d="M283.57,115.11h-56.54v-56.54h56.54v56.54ZM227.47,114.67h55.66v-55.66h-55.66v55.66Z"/>
      <path class="cls-1" d="M340.32,116.58v-.82h.81c.56,0,1.01-.45,1.01-1.01s-.45-1.01-1.01-1.01h-.81v-.82c0-.56-.45-1.01-1.01-1.01s-1.01.45-1.01,1.01v.82h-.83c-.56,0-1.01.45-1.01,1.01s.45,1.01,1.01,1.01h.83v.82c0,.56.45,1.01,1.01,1.01s1.01-.45,1.01-1.01Z"/>
      <path class="cls-1" d="M339.64,115.11h-56.54v-56.54h56.54v56.54ZM283.54,114.67h55.66v-55.66h-55.66v55.66Z"/>
      <path class="cls-1" d="M3.87,172.65v-.82h.81c.56,0,1.01-.45,1.01-1.01s-.45-1.01-1.01-1.01h-.81v-.82c0-.56-.45-1.01-1.01-1.01s-1.01.45-1.01,1.01v.82h-.83c-.56,0-1.01.45-1.01,1.01s.45,1.01,1.01,1.01h.83v.82c0,.56.45,1.01,1.01,1.01s1.01-.45,1.01-1.01Z"/>
      <path class="cls-1" d="M60.05,172.65v-.82h.81c.56,0,1.01-.45,1.01-1.01s-.45-1.01-1.01-1.01h-.81v-.82c0-.56-.45-1.01-1.01-1.01s-1.01.45-1.01,1.01v.82h-.83c-.56,0-1.01.45-1.01,1.01s.45,1.01,1.01,1.01h.83v.82c0,.56.45,1.01,1.01,1.01s1.01-.45,1.01-1.01Z"/>
      <path class="cls-1" d="M116.02,172.65v-.82h.81c.56,0,1.01-.45,1.01-1.01s-.45-1.01-1.01-1.01h-.81v-.82c0-.56-.45-1.01-1.01-1.01s-1.01.45-1.01,1.01v.82h-.83c-.56,0-1.01.45-1.01,1.01s.45,1.01,1.01,1.01h.83v.82c0,.56.45,1.01,1.01,1.01s1.01-.45,1.01-1.01Z"/>
      <path class="cls-1" d="M59.27,171.18H2.74v-56.54h56.54v56.54ZM3.17,170.75h55.66v-55.66H3.17v55.66Z"/>
      <path class="cls-1" d="M115.35,171.18h-56.54v-56.54h56.54v56.54ZM59.25,170.75h55.66v-55.66h-55.66v55.66Z"/>
      <path class="cls-1" d="M172.1,172.65v-.82h.81c.56,0,1.01-.45,1.01-1.01s-.45-1.01-1.01-1.01h-.81v-.82c0-.56-.45-1.01-1.01-1.01s-1.01.45-1.01,1.01v.82h-.83c-.56,0-1.01.45-1.01,1.01s.45,1.01,1.01,1.01h.83v.82c0,.56.45,1.01,1.01,1.01s1.01-.45,1.01-1.01Z"/>
      <path class="cls-1" d="M171.42,171.18h-56.54v-56.54h56.54v56.54ZM115.32,170.75h55.66v-55.66h-55.66v55.66Z"/>
      <path class="cls-1" d="M228.17,172.65v-.82h.81c.56,0,1.01-.45,1.01-1.01s-.45-1.01-1.01-1.01h-.81v-.82c0-.56-.45-1.01-1.01-1.01s-1.01.45-1.01,1.01v.82h-.83c-.56,0-1.01.45-1.01,1.01s.45,1.01,1.01,1.01h.83v.82c0,.56.45,1.01,1.01,1.01s1.01-.45,1.01-1.01Z"/>
      <path class="cls-1" d="M227.49,171.18h-56.54v-56.54h56.54v56.54ZM171.39,170.75h55.66v-55.66h-55.66v55.66Z"/>
      <path class="cls-1" d="M284.25,172.65v-.82h.81c.56,0,1.01-.45,1.01-1.01s-.45-1.01-1.01-1.01h-.81v-.82c0-.56-.45-1.01-1.01-1.01s-1.01.45-1.01,1.01v.82h-.83c-.56,0-1.01.45-1.01,1.01s.45,1.01,1.01,1.01h.83v.82c0,.56.45,1.01,1.01,1.01s1.01-.45,1.01-1.01Z"/>
      <path class="cls-1" d="M283.57,171.18h-56.54v-56.54h56.54v56.54ZM227.47,170.75h55.66v-55.66h-55.66v55.66Z"/>
      <path class="cls-1" d="M340.32,172.65v-.82h.81c.56,0,1.01-.45,1.01-1.01s-.45-1.01-1.01-1.01h-.81v-.82c0-.56-.45-1.01-1.01-1.01s-1.01.45-1.01,1.01v.82h-.83c-.56,0-1.01.45-1.01,1.01s.45,1.01,1.01,1.01h.83v.82c0,.56.45,1.01,1.01,1.01s1.01-.45,1.01-1.01Z"/>
      <path class="cls-1" d="M339.64,171.18h-56.54v-56.54h56.54v56.54ZM283.54,170.75h55.66v-55.66h-55.66v55.66Z"/>
      <path class="cls-1" d="M3.87,228.72v-.82h.81c.56,0,1.01-.45,1.01-1.01s-.45-1.01-1.01-1.01h-.81v-.82c0-.56-.45-1.01-1.01-1.01s-1.01.45-1.01,1.01v.82h-.83c-.56,0-1.01.45-1.01,1.01s.45,1.01,1.01,1.01h.83v.82c0,.56.45,1.01,1.01,1.01s1.01-.45,1.01-1.01Z"/>
      <path class="cls-1" d="M60.05,228.72v-.82h.81c.56,0,1.01-.45,1.01-1.01s-.45-1.01-1.01-1.01h-.81v-.82c0-.56-.45-1.01-1.01-1.01s-1.01.45-1.01,1.01v.82h-.83c-.56,0-1.01.45-1.01,1.01s.45,1.01,1.01,1.01h.83v.82c0,.56.45,1.01,1.01,1.01s1.01-.45,1.01-1.01Z"/>
      <path class="cls-1" d="M116.02,228.72v-.82h.81c.56,0,1.01-.45,1.01-1.01s-.45-1.01-1.01-1.01h-.81v-.82c0-.56-.45-1.01-1.01-1.01s-1.01.45-1.01,1.01v.82h-.83c-.56,0-1.01.45-1.01,1.01s.45,1.01,1.01,1.01h.83v.82c0,.56.45,1.01,1.01,1.01s1.01-.45,1.01-1.01Z"/>
      <path class="cls-1" d="M59.27,227.26H2.74v-56.54h56.54v56.54ZM3.17,226.82h55.66v-55.66H3.17v55.66Z"/>
      <path class="cls-1" d="M115.35,227.26h-56.54v-56.54h56.54v56.54ZM59.25,226.82h55.66v-55.66h-55.66v55.66Z"/>
      <path class="cls-1" d="M172.1,228.72v-.82h.81c.56,0,1.01-.45,1.01-1.01s-.45-1.01-1.01-1.01h-.81v-.82c0-.56-.45-1.01-1.01-1.01s-1.01.45-1.01,1.01v.82h-.83c-.56,0-1.01.45-1.01,1.01s.45,1.01,1.01,1.01h.83v.82c0,.56.45,1.01,1.01,1.01s1.01-.45,1.01-1.01Z"/>
      <path class="cls-1" d="M171.42,227.26h-56.54v-56.54h56.54v56.54ZM115.32,226.82h55.66v-55.66h-55.66v55.66Z"/>
      <path class="cls-1" d="M228.17,228.72v-.82h.81c.56,0,1.01-.45,1.01-1.01s-.45-1.01-1.01-1.01h-.81v-.82c0-.56-.45-1.01-1.01-1.01s-1.01.45-1.01,1.01v.82h-.83c-.56,0-1.01.45-1.01,1.01s.45,1.01,1.01,1.01h.83v.82c0,.56.45,1.01,1.01,1.01s1.01-.45,1.01-1.01Z"/>
      <path class="cls-1" d="M227.49,227.26h-56.54v-56.54h56.54v56.54ZM171.39,226.82h55.66v-55.66h-55.66v55.66Z"/>
      <path class="cls-1" d="M284.25,228.72v-.82h.81c.56,0,1.01-.45,1.01-1.01s-.45-1.01-1.01-1.01h-.81v-.82c0-.56-.45-1.01-1.01-1.01s-1.01.45-1.01,1.01v.82h-.83c-.56,0-1.01.45-1.01,1.01s.45,1.01,1.01,1.01h.83v.82c0,.56.45,1.01,1.01,1.01s1.01-.45,1.01-1.01Z"/>
      <path class="cls-1" d="M283.57,227.26h-56.54v-56.54h56.54v56.54ZM227.47,226.82h55.66v-55.66h-55.66v55.66Z"/>
      <path class="cls-1" d="M340.32,228.72v-.82h.81c.56,0,1.01-.45,1.01-1.01s-.45-1.01-1.01-1.01h-.81v-.82c0-.56-.45-1.01-1.01-1.01s-1.01.45-1.01,1.01v.82h-.83c-.56,0-1.01.45-1.01,1.01s.45,1.01,1.01,1.01h.83v.82c0,.56.45,1.01,1.01,1.01s1.01-.45,1.01-1.01Z"/>
      <path class="cls-1" d="M339.64,227.26h-56.54v-56.54h56.54v56.54ZM283.54,226.82h55.66v-55.66h-55.66v55.66Z"/>
      <path class="cls-1" d="M3.87,284.8v-.82h.81c.56,0,1.01-.45,1.01-1.01s-.45-1.01-1.01-1.01h-.81v-.82c0-.56-.45-1.01-1.01-1.01s-1.01.45-1.01,1.01v.82h-.83c-.56,0-1.01.45-1.01,1.01s.45,1.01,1.01,1.01h.83v.82c0,.56.45,1.01,1.01,1.01s1.01-.45,1.01-1.01Z"/>
      <path class="cls-1" d="M60.05,284.8v-.82h.81c.56,0,1.01-.45,1.01-1.01s-.45-1.01-1.01-1.01h-.81v-.82c0-.56-.45-1.01-1.01-1.01s-1.01.45-1.01,1.01v.82h-.83c-.56,0-1.01.45-1.01,1.01s.45,1.01,1.01,1.01h.83v.82c0,.56.45,1.01,1.01,1.01s1.01-.45,1.01-1.01Z"/>
      <path class="cls-1" d="M116.02,284.8v-.82h.81c.56,0,1.01-.45,1.01-1.01s-.45-1.01-1.01-1.01h-.81v-.82c0-.56-.45-1.01-1.01-1.01s-1.01.45-1.01,1.01v.82h-.83c-.56,0-1.01.45-1.01,1.01s.45,1.01,1.01,1.01h.83v.82c0,.56.45,1.01,1.01,1.01s1.01-.45,1.01-1.01Z"/>
      <path class="cls-1" d="M59.27,283.33H2.74v-56.54h56.54v56.54ZM3.17,282.9h55.66v-55.66H3.17v55.66Z"/>
      <path class="cls-1" d="M115.35,283.33h-56.54v-56.54h56.54v56.54ZM59.25,282.9h55.66v-55.66h-55.66v55.66Z"/>
      <path class="cls-1" d="M172.1,284.8v-.82h.81c.56,0,1.01-.45,1.01-1.01s-.45-1.01-1.01-1.01h-.81v-.82c0-.56-.45-1.01-1.01-1.01s-1.01.45-1.01,1.01v.82h-.83c-.56,0-1.01.45-1.01,1.01s.45,1.01,1.01,1.01h.83v.82c0,.56.45,1.01,1.01,1.01s1.01-.45,1.01-1.01Z"/>
      <path class="cls-1" d="M171.42,283.33h-56.54v-56.54h56.54v56.54ZM115.32,282.9h55.66v-55.66h-55.66v55.66Z"/>
      <path class="cls-1" d="M228.17,284.8v-.82h.81c.56,0,1.01-.45,1.01-1.01s-.45-1.01-1.01-1.01h-.81v-.82c0-.56-.45-1.01-1.01-1.01s-1.01.45-1.01,1.01v.82h-.83c-.56,0-1.01.45-1.01,1.01s.45,1.01,1.01,1.01h.83v.82c0,.56.45,1.01,1.01,1.01s1.01-.45,1.01-1.01Z"/>
      <path class="cls-1" d="M227.49,283.33h-56.54v-56.54h56.54v56.54ZM171.39,282.9h55.66v-55.66h-55.66v55.66Z"/>
      <path class="cls-1" d="M284.25,284.8v-.82h.81c.56,0,1.01-.45,1.01-1.01s-.45-1.01-1.01-1.01h-.81v-.82c0-.56-.45-1.01-1.01-1.01s-1.01.45-1.01,1.01v.82h-.83c-.56,0-1.01.45-1.01,1.01s.45,1.01,1.01,1.01h.83v.82c0,.56.45,1.01,1.01,1.01s1.01-.45,1.01-1.01Z"/>
      <path class="cls-1" d="M283.57,283.33h-56.54v-56.54h56.54v56.54ZM227.47,282.9h55.66v-55.66h-55.66v55.66Z"/>
      <path class="cls-1" d="M340.32,284.8v-.82h.81c.56,0,1.01-.45,1.01-1.01s-.45-1.01-1.01-1.01h-.81v-.82c0-.56-.45-1.01-1.01-1.01s-1.01.45-1.01,1.01v.82h-.83c-.56,0-1.01.45-1.01,1.01s.45,1.01,1.01,1.01h.83v.82c0,.56.45,1.01,1.01,1.01s1.01-.45,1.01-1.01Z"/>
      <path class="cls-1" d="M339.64,283.33h-56.54v-56.54h56.54v56.54ZM283.54,282.9h55.66v-55.66h-55.66v55.66Z"/>
      <path class="cls-1" d="M3.87,340.87v-.82h.81c.56,0,1.01-.45,1.01-1.01s-.45-1.01-1.01-1.01h-.81v-.82c0-.56-.45-1.01-1.01-1.01s-1.01.45-1.01,1.01v.82h-.83c-.56,0-1.01.45-1.01,1.01s.45,1.01,1.01,1.01h.83v.82c0,.56.45,1.01,1.01,1.01s1.01-.45,1.01-1.01Z"/>
      <path class="cls-1" d="M60.05,340.87v-.82h.81c.56,0,1.01-.45,1.01-1.01s-.45-1.01-1.01-1.01h-.81v-.82c0-.56-.45-1.01-1.01-1.01s-1.01.45-1.01,1.01v.82h-.83c-.56,0-1.01.45-1.01,1.01s.45,1.01,1.01,1.01h.83v.82c0,.56.45,1.01,1.01,1.01s1.01-.45,1.01-1.01Z"/>
      <path class="cls-1" d="M116.02,340.87v-.82h.81c.56,0,1.01-.45,1.01-1.01s-.45-1.01-1.01-1.01h-.81v-.82c0-.56-.45-1.01-1.01-1.01s-1.01.45-1.01,1.01v.82h-.83c-.56,0-1.01.45-1.01,1.01s.45,1.01,1.01,1.01h.83v.82c0,.56.45,1.01,1.01,1.01s1.01-.45,1.01-1.01Z"/>
      <path class="cls-1" d="M59.27,339.41H2.74v-56.54h56.54v56.54ZM3.17,338.97h55.66v-55.66H3.17v55.66Z"/>
      <path class="cls-1" d="M115.35,339.41h-56.54v-56.54h56.54v56.54ZM59.25,338.97h55.66v-55.66h-55.66v55.66Z"/>
      <path class="cls-1" d="M172.1,340.87v-.82h.81c.56,0,1.01-.45,1.01-1.01s-.45-1.01-1.01-1.01h-.81v-.82c0-.56-.45-1.01-1.01-1.01s-1.01.45-1.01,1.01v.82h-.83c-.56,0-1.01.45-1.01,1.01s.45,1.01,1.01,1.01h.83v.82c0,.56.45,1.01,1.01,1.01s1.01-.45,1.01-1.01Z"/>
      <path class="cls-1" d="M171.42,339.41h-56.54v-56.54h56.54v56.54ZM115.32,338.97h55.66v-55.66h-55.66v55.66Z"/>
      <path class="cls-1" d="M228.17,340.87v-.82h.81c.56,0,1.01-.45,1.01-1.01s-.45-1.01-1.01-1.01h-.81v-.82c0-.56-.45-1.01-1.01-1.01s-1.01.45-1.01,1.01v.82h-.83c-.56,0-1.01.45-1.01,1.01s.45,1.01,1.01,1.01h.83v.82c0,.56.45,1.01,1.01,1.01s1.01-.45,1.01-1.01Z"/>
      <path class="cls-1" d="M227.49,339.41h-56.54v-56.54h56.54v56.54ZM171.39,338.97h55.66v-55.66h-55.66v55.66Z"/>
      <path class="cls-1" d="M284.25,340.87v-.82h.81c.56,0,1.01-.45,1.01-1.01s-.45-1.01-1.01-1.01h-.81v-.82c0-.56-.45-1.01-1.01-1.01s-1.01.45-1.01,1.01v.82h-.83c-.56,0-1.01.45-1.01,1.01s.45,1.01,1.01,1.01h.83v.82c0,.56.45,1.01,1.01,1.01s1.01-.45,1.01-1.01Z"/>
      <path class="cls-1" d="M283.57,339.41h-56.54v-56.54h56.54v56.54ZM227.47,338.97h55.66v-55.66h-55.66v55.66Z"/>
      <path class="cls-1" d="M340.32,340.87v-.82h.81c.56,0,1.01-.45,1.01-1.01s-.45-1.01-1.01-1.01h-.81v-.82c0-.56-.45-1.01-1.01-1.01s-1.01.45-1.01,1.01v.82h-.83c-.56,0-1.01.45-1.01,1.01s.45,1.01,1.01,1.01h.83v.82c0,.56.45,1.01,1.01,1.01s1.01-.45,1.01-1.01Z"/>
      <path class="cls-1" d="M339.64,339.41h-56.54v-56.54h56.54v56.54ZM283.54,338.97h55.66v-55.66h-55.66v55.66Z"/>
    </g>
  </g>
</svg>