<?xml version="1.0" encoding="UTF-8"?>
<svg id="Capa_2" data-name="Capa 2" xmlns="http://www.w3.org/2000/svg" viewBox="0 0 135.68 268.84">
  <defs>
    <style>
      .cls-1 {
        fill: #8a4a24;
      }
    </style>
  </defs>
  <g id="Elementos">
    <g>
      <path class="cls-1" d="M55.12,21.55h-9.92v-9.79c0-6.48-5.27-11.76-11.76-11.76s-11.76,5.27-11.76,11.76v9.79h-9.92c-6.48,0-11.76,5.27-11.76,11.76s5.27,11.76,11.76,11.76h9.92v10.06c0,6.48,5.27,11.76,11.76,11.76s11.76-5.27,11.76-11.76v-10.06h9.92c6.48,0,11.76-5.27,11.76-11.76s-5.27-11.76-11.76-11.76Z"/>
      <path class="cls-1" d="M123.92,21.55h-9.92v-9.79c0-6.48-5.27-11.76-11.76-11.76s-11.76,5.27-11.76,11.76v9.79h-9.92c-6.48,0-11.76,5.27-11.76,11.76s5.27,11.76,11.76,11.76h9.92v10.06c0,6.48,5.27,11.76,11.76,11.76s11.76-5.27,11.76-11.76v-10.06h9.92c6.48,0,11.76-5.27,11.76-11.76s-5.27-11.76-11.76-11.76Z"/>
      <path class="cls-1" d="M55.12,88.87h-9.92v-9.79c0-6.48-5.27-11.76-11.76-11.76s-11.76,5.27-11.76,11.76v9.79h-9.92c-6.48,0-11.76,5.27-11.76,11.76s5.27,11.76,11.76,11.76h9.92v10.06c0,6.48,5.27,11.76,11.76,11.76s11.76-5.27,11.76-11.76v-10.06h9.92c6.48,0,11.76-5.27,11.76-11.76s-5.27-11.76-11.76-11.76Z"/>
      <path class="cls-1" d="M123.92,88.87h-9.92v-9.79c0-6.48-5.27-11.76-11.76-11.76s-11.76,5.27-11.76,11.76v9.79h-9.92c-6.48,0-11.76,5.27-11.76,11.76s5.27,11.76,11.76,11.76h9.92v10.06c0,6.48,5.27,11.76,11.76,11.76s11.76-5.27,11.76-11.76v-10.06h9.92c6.48,0,11.76-5.27,11.76-11.76s-5.27-11.76-11.76-11.76Z"/>
      <path class="cls-1" d="M55.12,156.19h-9.92v-9.79c0-6.48-5.27-11.76-11.76-11.76s-11.76,5.27-11.76,11.76v9.79h-9.92c-6.48,0-11.76,5.27-11.76,11.76s5.27,11.76,11.76,11.76h9.92v10.06c0,6.48,5.27,11.76,11.76,11.76s11.76-5.27,11.76-11.76v-10.06h9.92c6.48,0,11.76-5.27,11.76-11.76s-5.27-11.76-11.76-11.76Z"/>
      <path class="cls-1" d="M123.92,156.19h-9.92v-9.79c0-6.48-5.27-11.76-11.76-11.76s-11.76,5.27-11.76,11.76v9.79h-9.92c-6.48,0-11.76,5.27-11.76,11.76s5.27,11.76,11.76,11.76h9.92v10.06c0,6.48,5.27,11.76,11.76,11.76s11.76-5.27,11.76-11.76v-10.06h9.92c6.48,0,11.76-5.27,11.76-11.76s-5.27-11.76-11.76-11.76Z"/>
      <path class="cls-1" d="M55.12,223.51h-9.92v-9.79c0-6.48-5.27-11.76-11.76-11.76s-11.76,5.27-11.76,11.76v9.79h-9.92c-6.48,0-11.76,5.27-11.76,11.76s5.27,11.76,11.76,11.76h9.92v10.06c0,6.48,5.27,11.76,11.76,11.76s11.76-5.27,11.76-11.76v-10.06h9.92c6.48,0,11.76-5.27,11.76-11.76s-5.27-11.76-11.76-11.76Z"/>
      <path class="cls-1" d="M123.92,223.51h-9.92v-9.79c0-6.48-5.27-11.76-11.76-11.76s-11.76,5.27-11.76,11.76v9.79h-9.92c-6.48,0-11.76,5.27-11.76,11.76s5.27,11.76,11.76,11.76h9.92v10.06c0,6.48,5.27,11.76,11.76,11.76s11.76-5.27,11.76-11.76v-10.06h9.92c6.48,0,11.76-5.27,11.76-11.76s-5.27-11.76-11.76-11.76Z"/>
    </g>
  </g>
</svg>