<?xml version="1.0" encoding="UTF-8"?>
<svg id="Capa_2" data-name="Capa 2" xmlns="http://www.w3.org/2000/svg" viewBox="0 0 125.58 558.75">
  <defs>
    <style>
      .cls-1 {
        fill: #b07a3a;
      }
    </style>
  </defs>
  <g id="Elementos">
    <path class="cls-1" d="M125.58,105.98c0-10.52-7.31-19.36-17.12-21.72,9.81-2.36,17.12-11.2,17.12-21.72,0-12.32-10.02-22.34-22.34-22.34h-18.11v-17.87c0-12.32-10.02-22.34-22.34-22.34s-22.34,10.02-22.34,22.34v17.87h-18.11C10.02,40.2,0,50.23,0,62.54c0,10.52,7.31,19.36,17.12,21.72C7.31,86.62,0,95.46,0,105.98s7.31,19.36,17.12,21.72c-9.81,2.36-17.12,11.2-17.12,21.72s7.31,19.36,17.12,21.72c-9.81,2.36-17.12,11.2-17.12,21.72s7.31,19.36,17.12,21.72c-9.81,2.36-17.12,11.2-17.12,21.72s7.31,19.36,17.12,21.72c-9.81,2.36-17.12,11.2-17.12,21.72s7.31,19.36,17.12,21.72c-9.81,2.36-17.12,11.2-17.12,21.72s7.31,19.36,17.12,21.72c-9.81,2.36-17.12,11.2-17.12,21.72s7.31,19.36,17.12,21.72c-9.81,2.36-17.12,11.2-17.12,21.72s7.31,19.36,17.12,21.72c-9.81,2.36-17.12,11.2-17.12,21.72,0,9.79,6.33,18.12,15.11,21.13-8.78,3.01-15.11,11.34-15.11,21.13,0,12.32,10.02,22.34,22.34,22.34h18.11v18.36c0,12.32,10.02,22.34,22.34,22.34s22.34-10.02,22.34-22.34v-18.36h18.11c12.32,0,22.34-10.02,22.34-22.34,0-9.79-6.33-18.12-15.11-21.13,8.78-3.01,15.11-11.34,15.11-21.13,0-10.52-7.31-19.36-17.12-21.72,9.81-2.36,17.12-11.2,17.12-21.72s-7.31-19.36-17.12-21.72c9.81-2.36,17.12-11.2,17.12-21.72s-7.31-19.36-17.12-21.72c9.81-2.36,17.12-11.2,17.12-21.72s-7.31-19.36-17.12-21.72c9.81-2.36,17.12-11.2,17.12-21.72s-7.31-19.36-17.12-21.72c9.81-2.36,17.12-11.2,17.12-21.72s-7.31-19.36-17.12-21.72c9.81-2.36,17.12-11.2,17.12-21.72s-7.31-19.36-17.12-21.72c9.81-2.36,17.12-11.2,17.12-21.72s-7.31-19.36-17.12-21.72c9.81-2.36,17.12-11.2,17.12-21.72Z"/>
  </g>
</svg>