<?xml version="1.0" encoding="UTF-8"?>
<svg id="Capa_2" data-name="Capa 2" xmlns="http://www.w3.org/2000/svg" viewBox="0 0 77.24 61.58">
  <defs>
    <style>
      .cls-1 {
        fill: #b07a3a;
      }
    </style>
  </defs>
  <g id="Elementos">
    <g>
      <path class="cls-1" d="M75.81,15.52c-.17-1.02.05-2.39-.7-3.3-1.69-2.05-3.42-3.45-6.01-3.02-1.32-1.95-4.98-.92-5.75.8-.52,1.21-.88,2.41-1.71,3.41-1.41,1.45-2.91,2.09-4.5,1.94-3.01,1.84-5.88,3.88-8.61,6.12-.11.9-.66,1.77-1.66,2.62-.43.31-.62.98-1.08,1.27l-1.16-.57c-4.5,2.46-9,4.92-13.5,7.4l.02,1.28c-.33.41-.28.55.19.39-4.85,2.35-9.42,5.13-13.54,8.61-1.23-1.3-2.74-.16-3.1,1.36-1.11.48-2.02,1.16-2.88,1.99-.02.02.21.14.51.3l.75.39c-1.57.39-3.09.97-4.55,1.77-2.76-.66-3.75,7.57-.78,6.62.23,2.21,4.12,4.02,6.01,2.91.47,1.79,2.46,2.82,3.98,1.6.45.61,1.32.83,2.58.64.23,1.31,1.72,1.38,2.33.28l7.11-.38c.84,4.1,1.59-.61,6.3-1.27,2.09-.29,3.97-1.31,6.07-1.41.13,0,.33-.15.43-.23,1.08-.15,2.38-.57,3.11-1.23.8.08.71-.21.27-.84-.15-.94-.96-1.66-2.42-2.16-.06-.09-.11-.15-.16-.21.47-.35.55-.77.23-1.39,1.15.37,1.88.2,2.2-.52,2.01.89,4.77,1.64,7.04,2.04.06.01.16-.19.26-.45h1.64c3.5-2.61,6.8-5.44,9.9-8.49l-.13-1.44c1.76.53,3.9-2.27,4.96-3.72,1.77-1.77,2.27-3.32,1.5-4.66.2-.53.84-.92,1.12-1.43,2.64-.77,3.82-5.62,4.41-8.31.42-1.92.98-5.1.6-6.96-.17-.85-.32-1.39-1.3-1.73ZM13.35,46.44c.43-.17.76-.22,1.04-.22-.35.06-.7.14-1.04.22ZM14.5,46.22c.46.04.74.29.79.81l-.79-.81Z"/>
      <path class="cls-1" d="M65.73,4.43C62.63.78,57.43.39,53.07.06c-2.43-.19-4.85.11-7.25.35-1.2.12-2.27.4-3.47.52l-5.42.55-7.62,3.01c-.2.08-.41.18-.62.26-.89.51-2.39,1.52-3.65,3.32-1.51,2.15-1.89,4.29-2,5.32-.3-.25-2.73-2.2-5.92-1.49-.9.2-1.64.56-2.24.96-.07.19-.11.38-.06.57-.14-.15-.28-.2-.41-.22-.73.58-1.18,1.16-1.35,1.4,0,0,0,0,0,0h0s-3.16,3.41-3.16,3.41l-1.3.96L1.44,30.71l.37.79c-.89.44-.57,1.95-.91,2.66-1.08,2.26-1.1,4.86-.55,7.3.26,1.14.96,2.31,2.24,2.78.94.35,2.22-.16,3.25-.59l.54-.22.91-.72c.03-.53.36-1.04.46-1.56.7.82,1.11.66.87-.39l.79-.26c1.13-.16,1.22-.63.13-.86.93-.55,1.63-1.38,2.47-2.04,1.3.74,2.22.5,1.88-1.05.95-.06,1.92-.51,2.42-1.35.41.31.57.23.48-.26,1.94-1.07,4.03-2.06,5.63-3.61.56-.55,1.7-.72,2.14-1.35,1.51.44,2.33-.41,2.45-2.55.53-1.25,1.67-2.35,3.33-3.03l5.56-2.27c11.89-4.87,15.26-11.16,26.59-13.01,1.82-.3,4.87-2.77,3.24-4.69ZM6.04,32.98c-.5.1-1.01.21-1.51.32.58-.22,1.11-.5,1.62-.87-.05.17-.09.35-.11.55ZM8.42,31.13c-.34-.05-.65-.04-.94.03.13-.15.25-.29.38-.46.49-.17,1-.35,1.51-.53-.33.23-.65.54-.94.97ZM17.95,32.45c-.07-.08-.14-.16-.21-.28-1.55,1.46-2.85,1.89-3.91,1.31-.19-.79-1-1.07-1.83-1.02,1.31-1.33.17-2.83-1.35-2.75.22-.08.44-.16.67-.24-.01.02-.02.03-.03.05.74-.15,1.63.4,2.43-.55-.1-.1-.2-.17-.29-.24.36-.13.73-.26,1.1-.39-.64,1.27-1.2,2.61-1.1,3.18.35,1.95,3.2,1.44,4.04-.34.04.07.17.07.41-.01-.03.4-.02.82.03,1.11.01.06.03.11.05.16ZM18.38,32.78c.27,0,.6-.15.84-.28-.32.25-.59.34-.84.28ZM16.22,26l-.54-.98c1.06.54,2.06.39,3.2.12-.86.72-1.58,1.05-2.66.87Z"/>
    </g>
  </g>
</svg>