<?xml version="1.0" encoding="UTF-8"?>
<svg id="Capa_2" data-name="Capa 2" xmlns="http://www.w3.org/2000/svg" viewBox="0 0 129.28 102.61">
  <defs>
    <style>
      .cls-1 {
        fill: #b46a27;
      }

      .cls-2 {
        fill: #4c4b2d;
      }

      .cls-3 {
        fill: #3b3923;
      }

      .cls-4 {
        fill: #6a3e1f;
      }

      .cls-5 {
        fill: #d28a38;
      }

      .cls-6 {
        fill: #6f6536;
      }

      .cls-7 {
        fill: #c47930;
      }

      .cls-8 {
        fill: #944f1d;
      }
    </style>
  </defs>
  <g id="Elementos">
    <g>
      <path class="cls-6" d="M102.89,69.73c-.91-1.84.97-2.75,2.47-3.4.64-.28,1.49-.51,1.65-1.69-1.18.49-1.83,1-2.75,1.16-.66-.06-1.24-.48-1.33-1.16,3.66-9.26,14.4-13.72,24.02-9.64-4.93,10.36-13.3,18.51-24.06,14.73ZM113.01,61.66c1.82.76,2.39-.23,2.4-1.33-.85.82-1.72.81-2.4,1.33ZM112.15,62.51c0-.23-.19-.42-.42-.42s-.42.19-.42.42.19.42.42.42.42-.19.42-.42ZM110.45,63.36c0-.23-.19-.42-.42-.42s-.42.19-.42.42.19.42.42.42.42-.19.42-.42ZM108.76,64.21c0-.23-.19-.42-.42-.42s-.42.19-.42.42.19.42.42.42.42-.19.42-.42Z"/>
      <path class="cls-6" d="M85.64,89.04c-.43-.45-.08-.54.27-.83,2.93-.62,13.96-1.69,15.38-3.05l-12.09.75c.02-1.5,1.34-2.45,1.92-3.64.21.88.65.59,1.34.14,6.86-4.51,15.78-3.85,21.25,2.78-5.58,6.14-14,9.31-21.91,6.33-2.25-.85-4.02-2.37-6.17-2.48Z"/>
      <path class="cls-6" d="M107.96,21.31c-.65,2.17-.47,4.54-1.34,6.56l-5-10.47c-1.85,2.16,5.61,12.35,3.03,14.88-9.22-4.25-11.46-17.11-8-26.59,6.77,3.47,10.2,9.2,11.31,15.62Z"/>
      <path class="cls-6" d="M114.66,24.13c-1.69-1.32.34-2.86-.13-5.32-1.55,1.04-1.15,3.49-3.12,3.47-3.05-8.41.28-18.16,9.39-22.28,3.07,7.15.91,21.92-6.14,24.13Z"/>
      <path class="cls-6" d="M112.08,45.92c.05-2.96,2.84-4.37,5.07-6.76,5.29-5.68-3.83,1.89-3.69,1.88-1.23.07-1.49-.98-1.43-1.93,2.07-7.28,9-13.03,17.25-11.98-.04,9.53-8.19,19.85-17.19,18.79Z"/>
      <path class="cls-2" d="M107.96,21.31c.78,4.56-.78,8.74.92,14.16,1.03-4.22,3.94-9.28,2.52-13.19,1.98.02,1.57-2.43,3.12-3.47.48,2.46-1.56,4.01.13,5.32.01.2-.12.42-.07.61-.78-.37-.72.42-.84.88-1.69,6.41-4.89,12.33-5.31,19.75,2.33-1.51,2.99-4.16,3.58-6.25-.05.95.2,2,1.43,1.93-.14,0,8.97-7.57,3.69-1.88-2.23,2.4-5.01,3.8-5.07,6.76-3.8.05-12.85,18.39-14.27,22.96,2.15-.56,4.39-2.39,5.12-4.25.09.68.67,1.1,1.33,1.16.35.21.72.38,1.1.53-1.5.65-3.39,1.56-2.47,3.4-2.88-1.01-7.28,3.67-8.49,5.9-1.38-.88.24-2.14.96-3.32,1.37-2.25,1.28-4.78,2.34-6.75,1.23-2.3,1.13-5.46,2.61-7.61,3.92-3.05,9.93-21.86,4.35-25.67,2.58-2.53-4.88-12.72-3.03-14.88l5,10.47c.87-2.02.69-4.39,1.34-6.56Z"/>
      <path class="cls-6" d="M113.76,25.62c.12-.46.06-1.26.84-.88.16.61-.22,1.03-.84.88Z"/>
      <g>
        <path class="cls-5" d="M42.61,4.36c-.05,1.38,1.81,1.33,1.7-.04h1.7c-.14.99.82,1.23.85.11,1.55-1.29,3.54,0,5.1-.23-.75,8.75-10.7,6.39-8.29,10.61,1.05,1.84,4.31,4.72,5.28,7.19.95,2.43,4.69,1.43,6.43,1.9,3.73,2.97,4.18,8.19,9.19,8.4-.43,2.39-2.58,4.68-1.22,7.35,3.36,6.56,2.84-7.85,3.92-9.49,2.03-.52,3.36.43,5.66,1.06.55.15,1.57-.8,2.11-.35.4.33.5.99.49,1.53-3.07.22-5.66,2.3-6.83,4.65-1.45,2.91-.85,6.82,1.28,9.04-1.97,1.1-3.91,2.93-4.49,4.88-.71,2.37.37,6.48,2.88,6.75,1.16.12,2.31-1.63,3.37-1.23.75.28,1.72.92,1.81,1.95.14,1.65-6.59,9.99.34,12.78.61.25,2.19-.69,2.8-.54.72.17,2,2.33,1.21,2.55-3.49,1-3.76,3.01-5.44,4.98-.3-4.11-.45-9.16-4.53-11.62-4.28-2.57-9.59.06-11.65,3.66-2.72,4.75-1.04,9.51,3.3,12.35-4.65-1.61-10.43-.43-15.2,3.48-2.03,1.67-6.13,1.26-8.53,2.43,2.64-2.23-2.14-9.58-4.34-9.68-.36-1.88,1.62-2.61,2.7-4.2.49-1.3-2.02-2.25-3.17-2.42-1.25-.18-2.26,1-4.08,2.29-1.92-2.29-1.88-5.14-3.12-7.45,1.8-2.53,2.78-6.07,1.6-8.68-1.26-2.79-4.31-5.11-7.82-4.06-4.34,1.3-7.52,8.31-4.58,11.15l3.35,3.24c-3.13,1.17-5.94,3.18-8.49,5.29l-4.93-2.56c-5.11-14.62-3.85-31.78,5.56-44.18.63.17,1.54.26,1.78-.44s.14-1.43.12-2.06c.13-.3.51-.51.62-.81,2.3-1.24,5.21-2.97,7.74-.81,1.36,1.16,2.37,2.89,4.24,2.44-1.15,2.7-2.35,6.68.24,9.19,3.7,3.57,9.65,2.4,13.11-.84,2.24-2.09,3.39-4.44,2.52-7.6-.53-1.94-2.78-3.76-5.63-4.85.2-.84-.84-1.36-.93-.26-.31-.05-.87-.32-1.78-.24.67-.97,1.8-1.82,1.46-2.64-1.62-3.92-7.39,1.76-9.36,1.11-1.94-.64-1.41-3.51-1.47-4.79,5.14-6.09,13.27-9.45,21.4-10.29ZM53.84,51.56c0-4.19-3.4-7.59-7.59-7.59s-7.59,3.4-7.59,7.59,3.4,7.59,7.59,7.59,7.59-3.4,7.59-7.59Z"/>
        <path class="cls-7" d="M90.06,76.71c-1.26,2.27-2.73,4.46-5.19,5.61-1.29-1.21-4.51-2.83-5.35-.34-.75,2.23-1.22,4.31-2.37,5.9-1.33,1.85-3.85.46-5.63,1.69l-8.31,5.79-13.02,3.72c-2.06.59-6.05-.48-7.82-1.27-2-.89-3.07-2.67-5.5-3.05-13.07-2.07-11.32-8.27-25.52-9.75-.84-.29-1.32-1.34-1.91-1.91.89-8.9.7-1.9-1.54-9.13,2.55-2.11,5.36-4.12,8.49-5.29,1.96-.73,5.93.49,7.45-1.65,1.25,2.31,1.2,5.17,3.12,7.45,1.82-1.29,2.83-2.47,4.08-2.29,1.15.16,3.65,1.12,3.17,2.42-1.08,1.59-3.06,2.32-2.7,4.2-2.12,1.3-5.53.38-7.57,1.86-3.16,2.31,7.25,10.07,11.9,7.82,2.41-1.17,6.51-.76,8.53-2.43,4.76-3.92,10.54-5.1,15.2-3.48,4.7,1.63,9.63-.58,12.88-4.4,1.67-1.96,1.95-3.98,5.44-4.98.79-.23-.48-2.38-1.21-2.55-.61-.14-2.19.79-2.8.54-6.93-2.79-.2-11.12-.34-12.78-.09-1.03-1.06-1.67-1.81-1.95-1.05-.4-2.2,1.36-3.37,1.23-2.51-.27-3.58-4.38-2.88-6.75.58-1.95,2.53-3.78,4.49-4.88,3.04,3.15,7.85,3.43,11.21.86,3.53-2.7,3.05-7.08,1.23-10.98,1.64.25,3.57-.75,4.75,1.01-2.55,1.13-2.25,6.32-2.79,9.73,1.61-.16,2.3-1.46,4.4-1.9,2.42,2.77,1.98,8.4-2.21,9.55-1.71.47-5.35-.21-5.83,1.98.38,2.73,1.8,5.26.94,8.41-.4,1.46,1.65,3.73,2.85,2.88,1.74-1.22,2.32-3.33,4.31-3.89-1.58,5.15-1.06,5.12-2.75,9.83.11,1.78,2.99,2.27,3.95,3.14Z"/>
        <path class="cls-1" d="M100.31,57.95c-1.48,2.14-1.38,5.31-2.61,7.61-.84-.44-.9-1.65-2.6-2.1-3.54,8.78-.61,5.25-5.04,13.25-.96-.86-3.84-1.36-3.95-3.14,1.68-4.71,1.17-4.67,2.75-9.83-2,.55-2.58,2.67-4.31,3.89-1.21.85-3.26-1.42-2.85-2.88.87-3.15-.55-5.68-.94-8.41.48-2.18,4.12-1.51,5.83-1.98,4.18-1.15,4.62-6.78,2.21-9.55-2.1.44-2.79,1.74-4.4,1.9.53-3.4.24-8.59,2.79-9.73-1.18-1.76-3.11-.77-4.75-1.01-1.52-.23-2.48-2.03-3.73-2.72-.16-1.22-2.19-1.84-2.17-3.37.03-1.74,2.02-1.87,3.26-2.15,1.6-.36,1.08-2.21.79-3.27-.81-3.01-6.11.13-9.15-3.23,2.63-4.78,2.11-.66,5-6.71,2.08,4.96,7.06-.86,16.55,14.16,5.64,8.93,6.98,19.13,7.34,29.26Z"/>
        <path class="cls-7" d="M76.42,14.53c-2.89,6.05-2.38,1.93-5,6.71,3.04,3.35,8.34.22,9.15,3.23.28,1.06.81,2.9-.79,3.27-1.24.28-3.24.41-3.26,2.15-.02,1.53,2.01,2.15,2.17,3.37-.96-.53-2.12-.61-3.16-.86,0-.55-.09-1.2-.49-1.53-.54-.45-1.56.5-2.11.35-2.3-.63-3.63-1.58-5.66-1.06-1.4.36-2.37.33-2.7,2.14-5.01-.22-5.46-5.43-9.19-8.4,1.62-1.14,2.13-2.9,2.02-4.39-.22-2.86-2.84-1.35-4.37-2.36-3.1-2.05-5.91-3.35-9.37-2.33-2.41-4.23,7.55-1.86,8.29-10.61,7.49-1.08,21.37,2.97,24.47,10.34Z"/>
        <path class="cls-1" d="M84.87,82.32c-2.4,4.92-10,10.98-10.97,14.63-18.08,9.25-40.74,7.04-56.88-5.75-2.42-1.92-4.69-3.73-5.67-6.19,14.2,1.48,12.44,7.68,25.52,9.75,2.43.38,3.49,2.16,5.5,3.05,1.78.79,5.77,1.86,7.82,1.27l13.02-3.72,8.31-5.79c1.77-1.24,4.29.16,5.63-1.69,1.15-1.6,1.62-3.67,2.37-5.9.84-2.49,4.06-.87,5.35.34Z"/>
        <path class="cls-8" d="M97.69,65.55c-1.05,1.97-.97,4.5-2.34,6.75-.72,1.18-2.34,2.44-.96,3.32l-3.28,6.64c-.59,1.18-1.9,2.13-1.92,3.64-1.3.08-2.45,1.62-3.29,2.3-.35.29-.7.39-.27.83-7.18,4.96-3.57,3.73-11.74,7.91.96-3.65,8.56-9.71,10.97-14.63,2.46-1.14,3.93-3.34,5.19-5.61,4.43-8,1.5-4.47,5.04-13.25,1.7.45,1.76,1.66,2.6,2.1Z"/>
        <path class="cls-7" d="M21.21,14.65c.07,1.28-.47,4.15,1.47,4.79,1.97.65,7.74-5.02,9.36-1.11.34.83-.79,1.68-1.46,2.64-2.79.61-5.59,1.82-7.55,4.59-1.87.45-2.88-1.27-4.24-2.44-2.54-2.17-5.44-.44-7.74.81,1.65-4.6,7.33-5.92,10.17-9.29Z"/>
        <path class="cls-1" d="M7.9,73.97c2.24,7.23,2.43.23,1.54,9.13-3.27-3.13-5-7.45-6.48-11.68l4.93,2.56Z"/>
        <path class="cls-7" d="M8.52,27.24c.61-.8.53-2.31,1.89-2.5.02.62.12,1.35-.12,2.06s-1.14.61-1.78.44Z"/>
        <path class="cls-7" d="M44.31,4.31c.11,1.37-1.74,1.42-1.7.04.56-.06,1.13-.04,1.7-.04Z"/>
        <path class="cls-7" d="M46,4.3c.28,0,.56.11.85.12-.03,1.12-.99.88-.85-.12Z"/>
        <path class="cls-3" d="M72.45,78.19c-3.25,3.81-8.18,6.03-12.88,4.4-4.34-2.84-6.02-7.6-3.3-12.35,2.06-3.6,7.37-6.23,11.65-3.66,4.08,2.45,4.23,7.5,4.53,11.62Z"/>
        <path class="cls-3" d="M30.58,20.97c.91-.08,1.47.18,1.78.24.55.1.81.21.93.26,2.85,1.09,5.09,2.91,5.63,4.85.87,3.15-.29,5.5-2.52,7.6-3.46,3.24-9.42,4.41-13.11.84-2.59-2.51-1.39-6.49-.24-9.19,1.96-2.77,4.76-3.98,7.55-4.59Z"/>
        <path class="cls-3" d="M75.53,32.39c1.04.25,2.2.34,3.16.86,1.26.69,2.22,2.49,3.73,2.72,1.82,3.9,2.3,8.27-1.23,10.98-3.36,2.57-8.17,2.29-11.21-.86-2.13-2.22-2.73-6.13-1.28-9.04,1.17-2.35,3.76-4.44,6.83-4.65Z"/>
        <circle class="cls-3" cx="46.25" cy="51.56" r="7.59"/>
        <path class="cls-3" d="M23.84,67.03c-1.52,2.14-5.48.92-7.45,1.65l-3.35-3.24c-2.94-2.84.24-9.85,4.58-11.15,3.51-1.05,6.56,1.27,7.82,4.06,1.18,2.6.19,6.15-1.6,8.68Z"/>
        <path class="cls-3" d="M31.51,78.82c2.2.1,6.97,7.45,4.34,9.68-4.66,2.26-15.06-5.51-11.9-7.82,2.03-1.49,5.44-.57,7.57-1.86Z"/>
        <path class="cls-4" d="M55.37,23.89c-1.74-.46-5.48.54-6.43-1.9-.97-2.47-4.23-5.35-5.28-7.19,3.45-1.02,6.27.28,9.37,2.33,1.53,1.01,4.15-.5,4.37,2.36.11,1.49-.4,3.25-2.02,4.39Z"/>
        <path class="cls-1" d="M67.26,30.15c-1.08,1.64-.56,16.05-3.92,9.49-1.37-2.67.78-4.96,1.22-7.35.33-1.8,1.3-1.78,2.7-2.14Z"/>
        <path class="cls-7" d="M33.28,21.47c-.11-.04-.38-.16-.93-.26.08-1.11,1.13-.58.93.26Z"/>
      </g>
      <path class="cls-3" d="M113.01,61.66c.68-.52,1.55-.51,2.4-1.33,0,1.1-.58,2.09-2.4,1.33Z"/>
      <path class="cls-3" d="M105.36,66.33c-.38-.15-.75-.32-1.1-.53.92-.16,1.57-.67,2.75-1.16-.16,1.18-1.01,1.42-1.65,1.69Z"/>
      <circle class="cls-3" cx="108.33" cy="64.21" r=".42"/>
      <circle class="cls-3" cx="110.03" cy="63.36" r=".42"/>
      <circle class="cls-3" cx="111.72" cy="62.51" r=".42"/>
      <path class="cls-3" d="M85.91,88.21c.84-.68,1.99-2.22,3.29-2.3l12.09-.75c-1.41,1.37-12.45,2.43-15.38,3.05Z"/>
    </g>
  </g>
</svg>