<?xml version="1.0" encoding="UTF-8"?>
<svg id="Capa_2" data-name="Capa 2" xmlns="http://www.w3.org/2000/svg" viewBox="0 0 143.93 108.19">
  <defs>
    <style>
      .cls-1 {
        fill: #b46a27;
      }

      .cls-2 {
        fill: #4c4b2d;
      }

      .cls-3 {
        fill: #3b3923;
      }

      .cls-4 {
        fill: #e3ba87;
      }

      .cls-5 {
        fill: #d28a38;
      }

      .cls-6 {
        fill: #6f6536;
      }

      .cls-7 {
        fill: #c47930;
      }

      .cls-8 {
        fill: #e2a966;
      }

      .cls-9 {
        fill: #944f1d;
      }
    </style>
  </defs>
  <g id="Elementos">
    <g>
      <path class="cls-5" d="M68.78,12.6c-5.12,2.48-10.44,4.67-15.5,7.52l-1.5-3.22c-5.47-.88-11.4.06-15.84,4.76,5.85-.99,11.1-1.31,16.57-.59-1.72,1.73-3.41,3.89-5.88,4.36-.27.05-.57-.02-.85,0s-.57,0-.85,0c-.35-1.07-1.63-.85-2.54-.85-.26,0-.59.06-.85,0-.03-.32-.47-.92-.85-.86-2.17.35-4.14.25-5.68-2.23-1.74,1.99-.75,2.91-.64,4.04-4.89-.18-8.35,2.2-11.2,6.33s-7.59,7.37-8.16,13.02c3.01.45,4.21-1.99,5.94-2.73,4.1,2.61,8.5-3.95,10.76-1.08.97,1.23.55,3.41,2.08,3.82-1.12,2.24-1.08,6-3.24,7.82-1.86.61-3.67-1.61-5.9-1.34-2.49.31-3.55,6.62-1,7.62,2.17.85,3.63-2.07,4.56-3.8.82.26.75,1.23,1.28,1.72-.78,2.73-.94,5.6-1.51,8.37v1.7c.04.42-.15.96.01,1.27.25.5.85.66,1.25.42.64-.38.78-1.18.48-1.76,1.02-1.73,3.28-3.54,4.32-4.83,2.82.24,6.03,2.75,7.18,5.01-.73,1.94-3.26,2.78-4.97,3.04.62,3.75,4,.23,6.71-.43,1.15-.28,1.85,1.95,3.14,2.12,2.56.33,4.49-3.19,3.82-5.45-.96-3.2-3.67-4.37-5.58-6.5-1.67-1.87-2.72-4.05-4.64-5.46,1.73-2.54,2.9-5.99,6.18-7.24,2.21-.27,6.67-2.11,7.79,1.63.31,1.02-1.35,1.19-1.99,2.09-.91,1.28-.44,5.34,1.06,5.99,2.7-.69,1.91-4.85.54-6.84,4.95-1.38,4.32,5.68,7.32,4.85,1.19-.33.74-3.02,1.63-4.84,1.75-3.59,4.61,2.72,7.3,2.92-1.26.84-1.97.68-2.51,1-1.83,1.06.31,3.28-.81,4.94-2.11,3.15-.57-2.23-2.24-2.72-.95-.28-2.36,1.22-1.94,2.6.53,1.74,3.17,1.13,4.21,2.26-2.14,4.64-5.05,8.81-6.13,14.49,2.24-.9,3.12-2.78,4.3-4.24,3.26-1.04,5.57-3.79,8.36-6.15l13.41-11.34,8.96-9.59c9.37,11.32,5.64,2.71,12.33,10.14-.28-4.49-2.31-8.6-5.55-11.13-1.35-1.05-3.59-.68-3.95-2.36.73-2.36,2.92-4.36,3.09-6.94.85-.26,1.38-.86,1.92-1.61.5-.71-.34-1.21-.32-1.79.09-2.79-2.67,1.13-6.15-7.44l2.48.22c1.08.92,3,.9,4.27,1.36,1.79,1.97,4.26,3.99,6.69,4.95.3.78,1.11,1.65,2.01,1.75.83,1.72,2.05,3.71,4.05,4.27.07,1.92,1.03,3.11,2.59,3.64.02,2.98,3.21,5.44,4.06,8.05.94,4.47,3.13,8.96,3.56,13.51.63,6.65-.38,13.71-3.3,19.69-6.43,1.37-3.3,7.16-11.36,7.58-7.26,12.67-6.28,6.43-17.91,14.19-1.26.84-3.76.13-3.78,2.09l-1.7.16c-.41.04-.84.17-.85.64-22.67,5.89-49.06,3.29-70.08-8.93-1.82-1.06-2.91-3.19-4.39-3.94,1.16-.46,2.33-.56,4.05-1.04-.2-2.14-1.72-4.97-4.17-5.19-1.78-.16-2.92,1.82-3.38,2.97C1.28,81.35-1.35,69.62.63,58.22,5.73,28.95,39.97,7.99,68.78,12.6ZM113.55,47.07c.7-5.39-2.83-10.46-7.4-11.4-1-.21-1.31,1.67-.95,1.92,2.99,2.14,3.79,8.14,8.35,9.47ZM21.57,51.69c.75-2,.82-2.96-.16-3.45-.35,1.52-.52,2.55.16,3.45ZM20.2,49.5c-2.36-1.17-3.68-.16-5.29.17-1.66.46-2.32,1.87-1.85,3.22.3.88,1.62,1.78,3.08,1.35,1.93-.57,3.36-2.2,4.06-4.74ZM96.38,65.14c.59-2.53-2.52-5.74-.98-7.45,1.95-1.88,1.97-2.44.85-4.57-.71-1.36-1.75-2.16-3.3-1.92-1.94.3-7.02,6.69-6.6,5.08-.96,3.66,1.95,8.18,6.3,8,.94-.75.33-2.4.74-3.54,2.61.22,1.77,2.99,2.99,4.4ZM56.92,68.05c1.86-.54,2.8-.99,3.06-1.52.32-.65-.23-1.4-.91-1.82-.92-.56-1.86.38-2.38,1.29-.31.54-.66,2.31.23,2.06ZM35.07,73.35c.14-2.08-2.4-.64-3.3-.11-1.18.69-2.44,3.15-.63,4.18,1.99,1.13,3.74-1.32,3.93-4.07Z"/>
      <path class="cls-7" d="M82.16,15.24c.28.44.72.83.86,1.42-4.37.44-8.24,1.62-10.83,4.49-1.15,1.27-4.24,1.2-4.33,3.65-1.89-.18-4.39.9-4.8,3.09.46.83,1.57,1.95,2.11,2.59l-1.42,1.53c-2.12-1.92-4.83-.42-6.48,1.46-4.11,4.7-8.82,8.44-11.39,13.68-3.28,1.25-4.45,4.7-6.18,7.24-1.67,2.46-4.89,4.67-5.66,7.68-1.05,1.29-3.31,3.1-4.32,4.83-.57.12-1.16.07-1.75.07v-1.7c1.9.15,1.33-1.68,1.69-3.19,2.58-10.6,14.91-28.37,24.51-33.11,1.07-.33,2.41,1,3.19.06-7.74-3.57,11.06-13.34,13.92-14.53,1.46-.6,3.63.6,4.18-1.08,2.18.72,4.45,1.28,6.68,1.8Z"/>
      <path class="cls-6" d="M121.95,37.49c-.39-.63-1.63-.06-2.32-.45-.19-1.79,1.54-2.98,1.71-4.86-1.97-.42-1.6,1.53-3.26,2.84-1.16-2.07-.34-4.09-1.05-5.99.82-11.94,12.42-21.29,23.98-22.79.33,14.23-5.57,27.83-19.06,31.26ZM127.48,22.72c1.92-.61,2.18-2.01,3.02-3.19-1.5.88-2.64,1.65-3.02,3.19ZM126.6,23.93c-2.04,2.01-4.11,4.34-5.5,7.67,2.92-1.42,3.93-3.89,5.5-7.67Z"/>
      <path class="cls-2" d="M103.26,24.65c-1.27-.47-3.19-.45-4.27-1.36-6.67-5.65-15.64-6.85-15.89-8.7-.66-4.76-2.4-9.42-.89-14.58,12.21,2.7,20.46,12.73,21.05,24.65Z"/>
      <path class="cls-9" d="M75.47,13.44c-.54,1.68-2.71.47-4.18,1.08-2.87,1.19-21.66,10.95-13.92,14.53-.78.94-2.12-.39-3.19-.06-9.6,4.74-21.93,22.5-24.51,33.11-.37,1.5.21,3.34-1.69,3.19.58-2.77.74-5.64,1.51-8.37.37-1.31,1.1-2.85,1.07-4.21,2.16-1.81,2.12-5.58,3.24-7.82l11.2-16.87c.38-.57.95-1.01,1.09-1.75.05-.31.47-.54.55-.85,2.47-.47,4.16-2.63,5.88-4.36.26-.26.45-.76.77-.94,5.07-2.85,10.39-5.04,15.5-7.52,2.23.36,4.48.11,6.69.84Z"/>
      <path class="cls-6" d="M126.23,60.82c-.43-4.55-2.62-9.04-3.56-13.51,5-6.1,13.25-7.92,21.26-6.43-2.14,9.77-8.48,17.24-17.7,19.94Z"/>
      <path class="cls-8" d="M98.99,23.28l-2.48-.22c3.48,8.57,6.24,4.65,6.15,7.44-2.67.38-6.21.25-8.51,1.8-2.12-2.28-1.73,3.03-5.46-5.72-.13-.56,1.22-1.48.86-2.06-3.18-5.12-3.86,4.58-9.31,2.05-1.38-.64-2,1.29-3.05,1.51-4.59.95-3.29-8.23-5.01-6.93,2.59-2.87,6.46-4.05,10.83-4.49-.14-.58-.59-.97-.86-1.42.37-.14.69-.36.95-.65.26,1.85,9.22,3.05,15.89,8.7Z"/>
      <path class="cls-7" d="M122.93,80.51c-5.45,11.12-16.29,18.58-28.37,22.24-1.79.54-3.07,1.47-4.68,1.62.02-1.96,2.52-1.25,3.78-2.09,11.63-7.76,10.65-1.52,17.91-14.19,8.06-.42,4.93-6.21,11.36-7.58Z"/>
      <path class="cls-3" d="M121.95,37.49c-.87.74-2.09,1.59-3.34,1.77-1.56-.53-2.52-1.73-2.59-3.64-.09-2.27.86-4.41,1.01-6.6.71,1.9-.11,3.92,1.05,5.99,1.66-1.3,1.29-3.26,3.26-2.84-.17,1.88-1.9,3.08-1.71,4.86.68.39,1.92-.18,2.32.45Z"/>
      <path class="cls-7" d="M12.87,92.3c-1.75-.89-2.18-2-3.5-3.26.46-1.15,1.61-3.13,3.38-2.97,2.45.22,3.97,3.05,4.17,5.19-1.72.48-2.89.57-4.05,1.04Z"/>
      <path class="cls-7" d="M87.33,105.18c.01-.47.44-.6.85-.64-.22.26-.5.55-.85.64Z"/>
      <path class="cls-4" d="M63.76,32.01c.98.88,2.28,2.43,3.25,3.58,2.57,3.05-.95,5.89-3.44,7.38-1.15.69.06,2.45.85,2.62,5.82,1.22,5.06-1.15,7.58.46.84.54,1.32,1.79,1.85,3.01-2.46,4.01-5.63,7.7-7.59,11.97-1.05-1.13-3.68-.52-4.21-2.26-.42-1.38.99-2.88,1.94-2.6,1.67.49.13,5.88,2.24,2.72,1.11-1.66-1.03-3.88.81-4.94.54-.31,1.25-.16,2.51-1-2.68-.2-5.54-6.51-7.3-2.92-.89,1.82-.44,4.51-1.63,4.84-3.01.84-2.37-6.22-7.32-4.85,1.38,1.99,2.16,6.15-.54,6.84-1.5-.65-1.97-4.71-1.06-5.99.64-.9,2.3-1.07,1.99-2.09-1.12-3.74-5.57-1.9-7.79-1.63,2.57-5.23,7.27-8.98,11.39-13.68,1.64-1.88,4.36-3.38,6.48-1.46Z"/>
      <path class="cls-4" d="M34.37,25.52c.15,1.55-1.15,2-2.26,3.35l6.7-2.15c1.91-.61,4.12,1.74,6.18,1.29l-11.2,16.87c-1.53-.41-1.11-2.58-2.08-3.82-2.26-2.87-6.66,3.69-10.76,1.08-1.73.74-2.93,3.18-5.94,2.73.57-5.65,5.24-8.78,8.16-13.02s6.31-6.52,11.2-6.33Z"/>
      <path class="cls-1" d="M101.06,33.91c-.17,2.57-2.37,4.58-3.09,6.94-1.31.39-2.05,2.52-2.82,3.35l-8.96,9.59-13.41,11.34c-2.79,2.36-5.1,5.11-8.36,6.15-.37-1.77.48-3.49,1.79-5.03l10.15-11.92c5.97-7.01,12.51-12.86,19.98-18.26,1.58-1.14,2.72-2.85,4.71-2.16Z"/>
      <path class="cls-4" d="M34.05,62.07c.76-3.01,3.98-5.22,5.66-7.68,1.92,1.41,2.98,3.59,4.64,5.46,1.91,2.14,4.62,3.3,5.58,6.5.68,2.26-1.26,5.78-3.82,5.45-1.29-.17-1.98-2.4-3.14-2.12-2.72.67-6.09,4.18-6.71.43,1.7-.26,4.23-1.1,4.97-3.04-1.14-2.27-4.36-4.77-7.18-5.01Z"/>
      <path class="cls-4" d="M96.38,65.14c-1.23-1.41-.39-4.18-2.99-4.4-.41,1.14.2,2.79-.74,3.54-4.35.18-7.25-4.34-6.3-8-.42,1.61,4.66-4.78,6.6-5.08,1.55-.24,2.58.57,3.3,1.92,1.12,2.13,1.11,2.69-.85,4.57-1.55,1.71,1.57,4.91.98,7.45Z"/>
      <path class="cls-8" d="M95.15,44.19c.77-.83,1.51-2.96,2.82-3.35.36,1.68,2.61,1.31,3.95,2.36,3.24,2.53,5.27,6.64,5.55,11.13-6.69-7.43-2.95,1.18-12.33-10.14Z"/>
      <path class="cls-4" d="M53.28,20.12c-.32.18-.5.68-.77.94-5.47-.72-10.72-.4-16.57.59,4.44-4.7,10.37-5.63,15.84-4.76l1.5,3.22Z"/>
      <path class="cls-4" d="M30.56,52.7c.03,1.36-.7,2.9-1.07,4.21-.53-.49-.46-1.47-1.28-1.72-.92,1.72-2.39,4.65-4.56,3.8-2.55-1-1.49-7.31,1-7.62,2.23-.27,4.04,1.95,5.9,1.34Z"/>
      <path class="cls-8" d="M113.55,47.07c-4.56-1.34-5.37-7.34-8.35-9.47-.36-.26-.05-2.13.95-1.92,4.56.94,8.09,6,7.4,11.4Z"/>
      <path class="cls-8" d="M40.69,23.71c.12.39.43.77.85.86.26.06.58,0,.85,0,.35,1.06,1.63.87,2.54.85.28,0,.57.02.85,0l.3.85c-.13.74-.7,1.17-1.09,1.75-2.06.46-4.27-1.9-6.18-1.29l-6.7,2.15c1.11-1.35,2.41-1.8,2.26-3.35-.11-1.13-1.1-2.04.64-4.04,1.53,2.48,3.5,2.58,5.68,2.23Z"/>
      <path class="cls-4" d="M20.2,49.5c-.69,2.55-2.13,4.17-4.06,4.74-1.46.43-2.78-.47-3.08-1.35-.47-1.36.19-2.76,1.85-3.22,1.61-.32,2.93-1.34,5.29-.17Z"/>
      <path class="cls-8" d="M35.07,73.35c-.19,2.75-1.95,5.2-3.93,4.07-1.81-1.03-.56-3.49.63-4.18.9-.52,3.45-1.96,3.3.11Z"/>
      <path class="cls-4" d="M56.92,68.05c-.89.26-.54-1.52-.23-2.06.52-.91,1.46-1.85,2.38-1.29.68.42,1.23,1.17.91,1.82-.26.53-1.19.98-3.06,1.52Z"/>
      <path class="cls-4" d="M21.57,51.69c-.67-.89-.51-1.93-.16-3.45.98.48.91,1.44.16,3.45Z"/>
      <path class="cls-9" d="M29.72,66.9c.3.58.16,1.39-.48,1.76-.41.24-1,.08-1.25-.42-.16-.31.03-.85-.01-1.27.59,0,1.18.05,1.75-.07Z"/>
      <path class="cls-9" d="M102.66,30.51c-.02.57.82,1.08.32,1.79-.53.75-1.07,1.36-1.92,1.61-1.99-.7-3.13,1.02-4.71,2.16-7.47,5.4-14.01,11.25-19.98,18.26l-10.15,11.92c-1.31,1.54-2.17,3.26-1.79,5.03-1.18,1.45-2.07,3.33-4.3,4.24,1.09-5.67,3.99-9.84,6.13-14.49,1.97-4.26,5.14-7.95,7.59-11.97,1.36-1.7,4.61-3.16,5.11-5.71,1.3-.62,3.73-1.61,4.03-3.53l11.17-7.52c2.3-1.55,5.84-1.42,8.51-1.8Z"/>
      <path class="cls-4" d="M94.15,32.3l-11.17,7.52-9.08-10.2c-1.8-2.02-4.79-2.62-6.04-4.82.08-2.46,3.18-2.39,4.33-3.65,1.72-1.3.42,7.88,5.01,6.93,1.05-.22,1.67-2.15,3.05-1.51,5.45,2.53,6.13-7.16,9.31-2.05.36.58-.99,1.5-.86,2.06,3.73,8.76,3.34,3.45,5.46,5.72Z"/>
      <path class="cls-5" d="M78.95,43.35c-.5,2.55-3.74,4.01-5.11,5.71-.54-1.22-1.01-2.47-1.85-3.01-2.52-1.61-1.76.76-7.58-.46-.79-.16-2-1.93-.85-2.62,2.49-1.49,6.01-4.33,3.44-7.38-.97-1.15-2.27-2.7-3.25-3.58l1.42-1.53c.51.6,2.09.48,2.73,1.49,2.18,3.41,6.22,4.05,8.93,6.53,1.12,1.03.28,4.3,2.12,4.85Z"/>
      <path class="cls-1" d="M67.86,24.8c1.25,2.2,4.24,2.8,6.04,4.82l9.08,10.2c-.31,1.92-2.73,2.9-4.03,3.53-1.84-.55-1-3.83-2.12-4.85-2.71-2.48-6.76-3.12-8.93-6.53-.64-1.01-2.22-.89-2.73-1.49-.54-.64-1.66-1.75-2.11-2.59.42-2.19,2.91-3.27,4.8-3.09Z"/>
      <path class="cls-3" d="M126.6,23.93c-1.56,3.78-2.57,6.26-5.5,7.67,1.38-3.34,3.46-5.66,5.5-7.67Z"/>
      <path class="cls-3" d="M127.48,22.72c.38-1.54,1.52-2.31,3.02-3.19-.84,1.18-1.1,2.58-3.02,3.19Z"/>
      <path class="cls-4" d="M46.08,26.27l-.3-.85c.28-.02.58.05.85,0-.08.31-.49.54-.55.85Z"/>
      <path class="cls-4" d="M44.93,25.42c-.91.02-2.19.21-2.54-.85.91,0,2.19-.22,2.54.85Z"/>
      <path class="cls-4" d="M41.54,24.57c-.42-.09-.73-.47-.85-.86.38-.06.82.53.85.86Z"/>
    </g>
  </g>
</svg>