<?xml version="1.0" encoding="UTF-8"?>
<svg id="Capa_2" data-name="Capa 2" xmlns="http://www.w3.org/2000/svg" viewBox="0 0 144.81 107.22">
  <defs>
    <style>
      .cls-1 {
        fill: #4c4b2d;
      }

      .cls-2 {
        fill: #f0d09f;
      }

      .cls-3 {
        fill: #e3ba87;
      }

      .cls-4 {
        fill: #a4451f;
      }

      .cls-5 {
        fill: #6a3e1f;
      }

      .cls-6 {
        fill: #c47930;
      }

      .cls-7 {
        fill: #bca16f;
      }

      .cls-8 {
        fill: #944f1d;
      }
    </style>
  </defs>
  <g id="Elementos">
    <g>
      <path class="cls-1" d="M26.09,68.3c3.03,2.57,4.39,7.1,6.75,10.17.96,3.32,1.23,7.28,3.18,10.6,1.53,2.6,5.24,2.35,7.59,3.13,1.38.46,3.19,1.47,4.54.73,1.85-1.03,1.19-3.54,1.67-5.13,3.25-10.83,9.43-14.98,20.35-18.23-.13,4.53-2.17,6.84-2.68,9.95-11.85,4.75-5.58,4.93-8.66,7.45-1.67,1.36-3.07,2.7-3.16,4.63-1.71.05-3.63.6-4.96,2.15,12.89-.56,12.15-3.38,23.65,4.49.05,1.09,1.18,1.75,1.75,2.53.82,1.13,1.57,2.42,2.28,4.31-10.76,3.94-20.89,3.08-26.76-7.95-.68-1.28-2.4-1.41-3.24-1.66-.75-.22-2.68.63-2.3,1.64,1.21,3.21.08,4.43-1.29,6.31-2.05.09,1.29-1.8-1.81-6.75.83-.28,1.89-.78,2.66-1.77-3.65-1.11-6.5-1.81-9.96-2.38-10.1,12.3-23.36,10.57-35.68,1.41,5.25-5.44,11.64-9.06,19.2-8.8-7.27-5.78-11.02-14.6-10.34-24.33,6.6,1.74,12.61,3.57,17.23,7.51Z"/>
      <path class="cls-7" d="M119.56,26.33c.26,3.9-1.46,8.3.58,11.8-.04,1.38-1.5,2.54-1.71,4.2-1.02,8.2-2.94,15.59-5.32,24.07,9.16-1.45,17.07-6.93,21.05-15.08,1.93-3.95,2.97-10.34-.4-14.16l1.47-.03c9.74,11.68-6.79,28.43-20.06,32.3-1.64.48-2.72-2.48-5.45,8.22-3.33-.03-9.95,9.74-9.73,8.99-1.24,4.1-2.89,7.22-7.07,8.99-7.97,3.38-14.5,2.73-16.85,5.13-.57-.78-1.7-1.44-1.75-2.53,7.19-3.06,14.19-1.48,21.29-7.58l-3.47-2.93c.45-.58,1.52-1.75,2.12-2.26,16.59-14.09,19.81-31.48,21.63-52.62.19-2.16,1.51-4.34.02-6.91-1.17,2.13-5.29,3.41-5.42.69.92-2.24,5.23-3.8,5.12-6.88-.4-11.09-25.15-15.35-34.36-16.25-15.32-1.5-30.28-.27-44.69,4.99-5.91,2.15-14.39,6.83-11.43,13.71.76,1.76,2.71,2.44,4.42,3.34v.62c-1.78-.84-4.01-1.24-6.48-2.74-1.28,3.34,1.17,5.72,1.13,8.49-.2,16.75,3.5,32.62,12.86,46.66.16.5.26,1.02.37,1.59.16.82-.48,1.29-1.33,1.3-1.03-.6-2.45-1.92-3.29-3.01-2.36-3.07-3.72-7.6-6.75-10.17.24-2.24-.67-4.41-1.36-6.86-3.57-12.63-4.11-25.5-4.68-38.64-.23-5.25,1.19-9.29,5.6-12.27,4.65-3.14,9.61-5.25,15.33-6.74C62.24-1.78,84.77-1.38,105.5,6.13c5.23,1.89,10.32,4.9,12.98,9.52,1.92,3.33.86,7.36,1.08,10.68Z"/>
      <path class="cls-3" d="M142.05,33.65c-.89-.6-.92.41-1.03.96-2.37-5.46-11.66-7.53-15.58-5.56,9.71,5.99,6.17,3.72,9.8,8.07l-1.47.03c-3.24-3.67-10-1.47-13.63.97-2.04-3.5-.32-7.91-.58-11.8,8.83-.91,17.37-2.22,22.5,7.33Z"/>
      <path class="cls-7" d="M115.95,76.14l.11-3.11c9.25-1.35,17.87-7.03,22.63-15.88,3.43-6.39,5.33-15.61,2.34-22.52.11-.56.14-1.56,1.03-.96,9.65,17.97-7.75,39.04-26.1,42.48Z"/>
      <path class="cls-5" d="M42.97,96.66c3.1,4.95-.25,6.84,1.81,6.75-1.79,2.45-5.91,5.14-9.03,2.86-2.09-1.52-.57-5.75.77-7.16,1.66-1.75,4.18-2,6.45-2.45Z"/>
      <path class="cls-3" d="M115.19,69.43c-.2,1.28.01,2.6.87,3.59l-.11,3.11c-2.11.4-3.94,1.53-6.21,1.51,2.73-10.7,3.81-7.74,5.45-8.22Z"/>
      <path class="cls-4" d="M115.9,32.86c-1.81,21.14-5.04,38.53-21.63,52.62-12.44,6.76-21.41,6.9-35.3,5.92,5-2.12,9.84-6.18,8.5-11.88.52-3.11,2.56-5.42,2.68-9.95-10.92,3.25-17.1,7.4-20.35,18.23-4.77-1.92-8.96-5.61-12.72-9.22-9.36-14.04-13.06-29.91-12.86-46.66.87-.55,2.07-2.42,3.49-2.57,21.88,12.55,62.52,12.49,84.51.15l3.68,3.35ZM103.84,41.32l-1.87-4.14c-2.08,2.79-5.8,3.53-6.55,7.76l8.42-3.62ZM42.82,41.58c-1.83-2.63-3.72-3.79-6.25-2.73,1.25,2.92,4.04,3.45,6.25,2.73ZM46.09,59.97c-.64-5.48-1.41-10.62-3.36-15.67-2.14-.99-4.02-2.06-6.48-2.03-.95,2.57,3.65,26.42,7.35,25.34.86-2.73,1.03-5.28,2.49-7.64ZM83.49,58.46c-.74.42-1.47,1.07-2.13,1.25-1.01.28-1.82-1.28-3.01-1.1-2.1.33-5.35,2.15-6.15,4.22-.74,1.91,1.23,3.68,2.38,4.33,2.93,1.65,11.69-2.09,11.85-6.02l8.16-4.93c3.37,1.93,7.23-7.8,6.9-9.75-.2-1.17-1.86-.56-2.84-.37-.82.16-1.28,1.19-1.78,2.73-1.54-.45-4.14-2.19-5.73-.71-4.28,3.97-4.3,8.6-7.63,10.35Z"/>
      <path class="cls-3" d="M94.28,85.47c-.6.51-1.66,1.69-2.12,2.26l3.47,2.93c-7.1,6.09-14.1,4.52-21.29,7.58-11.5-7.88-10.75-5.05-23.65-4.49,1.33-1.55,3.25-2.11,4.96-2.15,1.07-.03,2.28-.28,3.33-.2,13.89.98,22.86.84,35.3-5.92Z"/>
      <path class="cls-3" d="M49.81,87.8c-.48,1.58.18,4.1-1.67,5.13-1.35.75-3.15-.27-4.54-.73-1.94-3.9-6.37-6.51-7.48-10.72.84-.01,1.48-.49,1.33-1.3-.11-.57-.21-1.1-.37-1.59,3.76,3.61,7.95,7.3,12.72,9.22Z"/>
      <path class="cls-5" d="M67.47,79.51c1.34,5.7-3.5,9.76-8.5,11.88-1.05-.07-2.26.17-3.33.2.09-1.93,1.5-3.27,3.16-4.63,3.08-2.52-3.19-2.7,8.66-7.45Z"/>
      <path class="cls-3" d="M115.9,32.86l-3.68-3.35c-21.99,12.34-62.63,12.4-84.51-.15-1.41.14-2.61,2.02-3.49,2.57.03-2.77-2.42-5.16-1.13-8.49,2.46,1.5,4.69,1.9,6.48,2.74,1.79.84,3.28,2.78,5.56,2.52,16.3,9.24,57.77,9.15,74.88-2.03-12.19-9-35.85-11.23-50.08-9.05-.28.04-.61-.18-.89-.14l-1.61.25c-9.63,1.51-18.99,3.76-27.87,7.83-1.72-.9-3.67-1.58-4.42-3.34-2.96-6.88,5.52-11.56,11.43-13.71,14.41-5.26,29.37-6.49,44.69-4.99,9.21.9,33.96,5.17,34.36,16.25.11,3.08-4.2,4.64-5.12,6.88.13,2.72,4.25,1.44,5.42-.69,1.49,2.57.16,4.75-.02,6.91Z"/>
      <path class="cls-2" d="M141.02,34.62c3,6.91,1.09,16.13-2.34,22.52-4.75,8.85-13.37,14.53-22.63,15.88-.86-1-1.08-2.32-.87-3.59,13.27-3.87,29.8-20.62,20.06-32.3-3.63-4.35-.09-2.08-9.8-8.07,3.92-1.97,13.21.1,15.58,5.56Z"/>
      <path class="cls-6" d="M46.09,59.97c-1.46,2.36-1.63,4.9-2.49,7.64-3.7,1.08-8.3-22.77-7.35-25.34,2.46-.03,4.35,1.05,6.48,2.03,1.95,5.05,2.72,10.19,3.36,15.67Z"/>
      <path class="cls-5" d="M86.42,61.14c-1.24-.59-2.89-1.11-2.93-2.68,3.33-1.75,3.35-6.38,7.63-10.35,1.6-1.48,4.19.26,5.73.71.5-1.54.95-2.57,1.78-2.73.98-.19,2.64-.8,2.84.37.34,1.96-3.53,11.68-6.9,9.75l-8.16,4.93Z"/>
      <path class="cls-8" d="M83.49,58.46c.04,1.57,1.69,2.09,2.93,2.68-.16,3.93-8.91,7.68-11.85,6.02-1.15-.65-3.12-2.42-2.38-4.33.8-2.07,4.06-3.9,6.15-4.22,1.19-.18,2,1.37,3.01,1.1.66-.18,1.39-.83,2.13-1.25Z"/>
      <path class="cls-6" d="M103.84,41.32l-8.42,3.62c.75-4.24,4.47-4.98,6.55-7.76l1.87,4.14Z"/>
      <path class="cls-6" d="M42.82,41.58c-2.21.72-5,.19-6.25-2.73,2.53-1.06,4.42.11,6.25,2.73Z"/>
      <path class="cls-4" d="M35.13,28.68c-.43-2.18,15.02-7.12,17.98-7.74,2.06-.43,3.9-1.39,4.32-3.24l1.61-.25c-.17,1.1.83,1.33.89.14,14.23-2.17,37.89.05,50.08,9.05-17.11,11.18-58.58,11.28-74.88,2.03Z"/>
      <path class="cls-8" d="M57.43,17.71c-.42,1.85-2.26,2.8-4.32,3.24-2.96.62-18.41,5.56-17.98,7.74-2.28.26-3.77-1.68-5.56-2.52v-.62c8.87-4.07,18.23-6.33,27.86-7.83Z"/>
      <path class="cls-8" d="M59.04,17.46c.28-.04.61.18.89.14-.06,1.2-1.06.96-.89-.14Z"/>
    </g>
  </g>
</svg>