<?xml version="1.0" encoding="UTF-8"?>
<svg id="Capa_2" data-name="Capa 2" xmlns="http://www.w3.org/2000/svg" viewBox="0 0 145.01 118.22">
  <defs>
    <style>
      .cls-1 {
        fill: #b46a27;
      }

      .cls-2 {
        fill: #4c4b2d;
      }

      .cls-3 {
        fill: #3b3923;
      }

      .cls-4 {
        fill: #f0d09f;
      }

      .cls-5 {
        fill: #e3ba87;
      }

      .cls-6 {
        fill: #a4451f;
      }

      .cls-7 {
        fill: #6a3e1f;
      }

      .cls-8 {
        fill: #d28a38;
      }

      .cls-9 {
        fill: #6f6536;
      }

      .cls-10 {
        fill: #c47930;
      }

      .cls-11 {
        fill: #bca16f;
      }

      .cls-12 {
        fill: #e2a966;
      }

      .cls-13 {
        fill: #944f1d;
      }
    </style>
  </defs>
  <g id="Elementos">
    <g>
      <path class="cls-2" d="M144.01,61.53c-2.22,9.49-5.15,18.81-10.93,27.32-7.83,11.55-18.84,20.61-32.36,24.94-16.88,5.41-34.72,5.85-51.8,1.36C21.94,108.06,4.65,86.47.47,59.84c6.63,11.38,18.86,19.36,31.95,23.55,24.92,7.99,51.66,8.31,76.75.95,12.29-3.61,29.05-11.95,34.57-24.6.75.53.27,1.2.27,1.79Z"/>
      <g>
        <path class="cls-5" d="M121.42,61.33c-.21.42-.09,1.02-.34,1.41-1.29.26-2.66.48-3.96.56l.82-4.22c.55.17,3.42-.22,3.47,2.24Z"/>
        <path class="cls-5" d="M5.95,59.16c2.13,5.24,6.1,8.78,10.92,11.65-2.37-1.41,11.85,9.96,12.92,6.88,10.74,5.01,22.75,7.22,34.57,7.58,6.01.18,11.85.32,17.84-.1,11.42-.8,23.06-2.44,34.34-8.27-2.1-1.15-4.39-1.13-6.78-1.98.57-5.01-2.18-9.18-6.63-11.24-.31-1,.44-2.36.57-3.12l8.63-6.73c.93.74,2.34-.31,3.58.38,1.14.64.73,2.3.96,3.19-1.12.18-2.05.6-2.59,1.21-.76.86-1.29,2.41-.78,3.34.79,1.45,2.3,1.08,3.63,1.37.05,1.69-6.85,4.16-4.5,7.02,4.3-5.76,6.21-4,8.46-7.59.67-.13,1.33-.12,2.29-.25.78-.11,1.61-.65,1.27-1.84,1.43-.73,2.99-1.03,4.34.04,1.86,3.26-1.07,6.29-1.73,10.51,5.29-2.7,14.24-11.99,11.89-17.09,1.6-3.25,3.31-6.69,3.49-10.37,3.04,5.6,2.75,11.89,1.38,17.79,0-.59.47-1.26-.27-1.79-5.52,12.65-22.27,20.99-34.57,24.6-25.09,7.37-51.84,7.05-76.75-.95-13.08-4.2-25.32-12.17-31.95-23.55-.97-6.19-.64-12.43,3.17-17.65.6,1.6,2.14,2.96,3.27,4.82-4.93,3.93-2.67,7.96-.96,12.16Z"/>
        <path class="cls-9" d="M107.87,19.13c-1.63,3.57-3.96,7.01-4.48,10.93-5.92.41-11.9,2.7-15.14,7.74-.44.68-1.19,1.15-1.75,1.71-2.36-2.61,7.5-16.2,8.34-21.85-2.74,3.45-9.17,15.3-9.82,21.9-2.01-.29-1.62-1.63-1.74-2.67,2.32-6.92-2.63-9.38-6.01-13.51.53-3.75.77-7.59.69-11.99-3.92,1.09.68,9.24-3.29,10.16-1.11-1.02-3.13-2.37-4.84-1.95-2.01.5-3.08,2.3-4.67,2.88-.75-.51-1.76-1.43-1.74-2.45,2.35-2.31,2.94-5.72,4.52-8.57,2-3.6,5.07-7.92,10.08-7.69,4.57.2,6.56,4.96,8.77,8.81,3.98-4.21,9.38-9.55,15.73-8.23,4.49.93,3.94,7.67,2.73,10.93,1.41,1.43,2.6,2.33,2.63,3.85Z"/>
        <path class="cls-2" d="M17.76,28.33c8.34,5.49,5.38,7,12.07,10.13-.86,4.26-.91,8.48-.12,12.75-.53.1-1.45-.16-1.9.24-1.33-.66-2.02-2.02-3.86-2.65.43,1.71,1.21,2.91.56,4.23-3.36,1.9-6.06,4.49-8.2,7.74-3.55.29-7.26.3-10.35-1.61-1.71-4.2-3.97-8.23.96-12.16-1.13-1.85-2.67-3.22-3.27-4.82s-.88-3.4-1.74-5.35c-1.77-4.05.18-9.13,4.53-10.26,3.98-1.04,7.85.33,11.33,1.75ZM12.48,35.91l-.82.81,8.88,8.93.82-.81-8.88-8.93Z"/>
        <path class="cls-2" d="M61.15,11.82c.75,2.78,2.3,5.3,2.26,8.23-.02,1.02.99,1.94,1.74,2.45-2.54,4.15-6.75,5.04-8.57,10.23-5.96-3.36-12.63-5.04-19.04-2.57-.58-4.19-2.94-7.95-4.44-11.86-.75-1.77,2.18-2.78,2.26-4.61.22-4.67.39-12.25,6.44-13.54,5.64-1.2,10.17,4.97,11.85,9.42,1.6-1.02,3.52-1.85,4.74-1,.9.63,2.41,1.97,2.76,3.25ZM49.43,25.65c-.72-4.51-2.63-7.43-4.17-10.59-.4,1.68-.21,2.52-.88,3.05-.5.39-1-.68-2.04-.39l7.09,7.93Z"/>
        <path class="cls-9" d="M128.4,30.18c-.69,2.54-1.52,5.08-1.08,7.73-1.41.9-2.94,1.42-4.3,2.39-1.1.79-2.75.9-3.37,2.35-.17-.5-.41-.49-.7-.08-1.71-5.18-5.59-9.26-10.57-11.57.75-3.82.92-7.74.32-11.59,3.14-2.35,14.42-12.6,18.21-4.97,2.02,4.08,1.07,8.26-.37,12.34.18,1.04,2.14,2.3,1.84,3.39Z"/>
        <path class="cls-9" d="M33.09,18.3c1.5,3.91,3.86,7.67,4.44,11.86-1.89.73-2.91,3.24-5.1,3.46-2.19-.52-2.93-7.96-4.48-4.71-.44.92,3.18,4.47,2.64,8.11.15.6-.68,1-.77,1.43-6.69-3.13-3.72-4.64-12.07-10.13,2-2.78-.47-11.27,4.84-12.77s9.37,5.07,10.5,2.74Z"/>
        <path class="cls-2" d="M142.64,43.74c-.19,3.68-1.89,7.12-3.49,10.37-3.01-1.54-6.43-.76-10.07-.1.01-3.73,3.19-5.11,4.17-8.54-3.05,1.61-7.32,9.77-10.76,6.17-.81-.84,5.01-7.2.55-11.35,1.36-.98,2.89-1.49,4.3-2.39,3.4-.02,6.83-.4,10.19-.91,3,.98,5.3,3.52,5.12,6.75Z"/>
        <path class="cls-11" d="M137.51,36.99c-3.36.51-6.78.89-10.19.91-.44-2.64.39-5.18,1.08-7.73,3.7.9,7.25,3.5,9.11,6.81Z"/>
        <path class="cls-3" d="M108.39,31c-1.18-.55-3.73-1.02-5-.94.51-3.92,2.85-7.36,4.48-10.93l.85.28c.6,3.85.43,7.77-.32,11.59Z"/>
        <path class="cls-5" d="M67.93,11.47c-1.59,2.85-2.18,6.26-4.52,8.57.05-2.93-1.51-5.45-2.26-8.23,2.25.49,4.56.17,6.78-.34Z"/>
        <path class="cls-3" d="M86.49,39.52c3.47,3.84,7.62,7.26,9.54,12.13.69,1.76.36,3.92.67,5.76.24,1.39-.09,2.97,2.28,3.05.16-1.01-.18-1.65-.52-2.27,2.15-.69,4.39.23,5.22,2.36-.12.76-.87,2.12-.57,3.12,4.45,2.06,7.2,6.23,6.63,11.24,2.39.85,4.68.84,6.78,1.98-11.28,5.83-22.92,7.47-34.34,8.27.63-3.49,3.88-6.75,3.22-10.79-.7-4.31-4.67-7.71-8.14-9.49-.57-.42-.85-1.54-1.54-1.58-3.8-.21-4.55,3.54-8.89,4.32-1.98-3.05-4.29-6.26-7.07-9-.93-.91-3.3-.5-2.97-2.27,1.17-4.08,4.92-7.66,4.99-12,2.5-.03,5.11-.11,7.93.2,1.13.12,3.26,2.68,4.42,1.39,8.01-8.89,6.46-1.13,9.12-9.06.13,1.04-.27,2.38,1.74,2.67.64-6.6,7.08-18.46,9.82-21.9-.84,5.65-10.7,19.25-8.34,21.85ZM79.16,51.41c.77,1.17,1.74,2.21,2.72,4.25.51-1.75-1.32-8.64-5.59-8.64-1.19,0-2.33,1.03-2.89,1.86-.62.91,2.09,9.15,3.21,9.94,2.45-1.7,2.32-4.77,2.55-7.41Z"/>
        <path class="cls-6" d="M103.39,30.06c1.27-.09,3.82.39,5,.94,4.97,2.31,8.86,6.39,10.57,11.57-.02.41-.32.83-.31,1.24.06,2.08.1,4.24-.86,6.13-2.79-1.1-3.9,2.66-5.47,3.89l-8.63,6.73c-.83-2.13-3.07-3.05-5.22-2.36-.55-.33-1.15-.58-1.76-.78-.32-1.84.02-4-.67-5.76,3.42.44.63-3.06,4.86-6.16,3.18-.19,4.61,2.57,5.49,5.95,1.42-2.58-1.27-4.34-1.21-6.73,2.79-.94,5.54-.28,8.92-.53-1.3-2.28-3.68-1.2-4.1-3.06.46-2.24-1.12-5.27-3.69-5.39-2.69-.13-2.97,2.76-3.71,4.46l-1.58,3.64c-3.64-2.77-11.79-1.59-12.75-6.03,3.24-5.04,9.22-7.33,15.14-7.74Z"/>
        <path class="cls-12" d="M29.71,51.21l12.46,9.53,1.03,4.13c-11.3,4.75-7.89,8.11-9.63,9.71-1.34,1.23-3.13,1.64-3.78,3.11-1.07,3.08-15.29-8.29-12.92-6.88-.41-3.27-2.58-6.98-.57-10.04,2.14-3.25,4.84-5.85,8.2-7.74,1.06-.6,2.36-.75,3.31-1.58.45-.4,1.37-.14,1.9-.24ZM32.67,68.16c.21-1.56-1.11-3.16-1.72-4.26-.9-1.65-2.77-1.41-4.57-1.45.66-1.12.88-2.89-.06-3.6-.59-.45-2.2-1.58-2.55-.87-1.21,2.43.83,3.64,2.13,4.89,1.74,1.66-2.67,3.01,6.77,5.3Z"/>
        <path class="cls-3" d="M43.2,64.87c3.31.88,6.95,2.34,9.54,4.69,1.4,1.27,2.04,3.3,4.9,2.38,1.5.95,1.56,2.64,1.71,4.23.34,3.72,2.56,6.41,5.01,9.1-11.82-.35-23.82-2.57-34.57-7.58.65-1.46,2.44-1.88,3.78-3.11,1.74-1.6-1.67-4.97,9.63-9.71Z"/>
        <path class="cls-12" d="M77.28,64.89c3.47,1.78,7.44,5.18,8.14,9.49.66,4.04-2.6,7.3-3.22,10.79-5.99.42-11.84.28-17.84.1-2.44-2.69-4.67-5.39-5.01-9.1.94.52.75-.56.93-1.04.74,4.24,4.6,4.4,8.86,4.46,1.07-.9,1.26-3.03,2.07-3.87.63-.41,1.27-.81,1.67-1.13.68-.55,2.12.42,1.7.89-.6.67-1.51.59-1.68.93-.27.56.08,1.08.44,1.27.68.36,5.91-4.42,2.96-8.63l-4.98,3.86c-.56.44-1.33.43-1.53,1.08-.15.49.13,1.21.41,1.75-1.33,1.2-3.33,1.69-5.12.82-1.33-.65-2.75-1.74-2.23-4.02,7.08,1.57,5.62-9.42,14.44-7.65Z"/>
        <path class="cls-4" d="M117.79,49.94c2.52,2.6,5.95,4.43,9.39,5.68.07,1.75.91,3.51,1.8,5.08-1.36-1.08-2.91-.77-4.34-.04-.95.48-2.21.39-3.22.68-.06-2.47-2.92-2.08-3.47-2.24-.59-.18-.95-1.19-1.09-1.7-.24-.88.18-2.55-.96-3.19-1.23-.69-2.65.37-3.58-.38,1.57-1.22,2.68-4.99,5.47-3.89Z"/>
        <path class="cls-3" d="M16.3,60.77c-2.01,3.06.16,6.77.57,10.04-4.82-2.86-8.78-6.41-10.92-11.65,3.09,1.91,6.79,1.9,10.35,1.61Z"/>
        <path class="cls-10" d="M116.85,57.39c.14.51.5,1.52,1.09,1.7l-.82,4.22c-1.33-.29-2.84.08-3.63-1.37-.51-.93.03-2.47.78-3.34.54-.62,1.47-1.03,2.59-1.21Z"/>
        <path class="cls-10" d="M124.63,60.65c.34,1.19-.49,1.73-1.27,1.84-.95.13-1.62.12-2.29.25.25-.4.13-1,.34-1.41,1.01-.29,2.26-.2,3.22-.68Z"/>
        <path class="cls-10" d="M121.07,62.74c-2.25,3.59-4.16,1.83-8.46,7.59-2.34-2.87,4.55-5.34,4.5-7.02,1.29-.09,2.67-.31,3.96-.56Z"/>
        <path class="cls-3" d="M123.02,40.3c4.47,4.15-1.35,10.51-.55,11.35,3.44,3.6,7.71-4.55,10.76-6.17-.98,3.43-4.16,4.81-4.17,8.54,3.64-.66,7.06-1.44,10.07.1,2.35,5.1-6.6,14.39-11.89,17.09.66-4.23,3.58-7.25,1.73-10.51-.89-1.56-1.73-3.32-1.8-5.08.63.11,1.16-.34,0,0-3.43-1.25-6.86-3.08-9.39-5.68.96-1.89.92-4.05.86-6.13.28-.4.81-.7,1.01-1.16.62-1.44,2.27-1.56,3.37-2.35Z"/>
        <path class="cls-4" d="M74.66,21.56c.74.68,1.97,1.15,2.6,1.82,3.38,4.13,8.33,6.59,6.01,13.51-2.66,7.93-1.11.17-9.12,9.06-1.16,1.28-3.28-1.27-4.42-1.39-2.82-.31-5.43-.22-7.93-.2.07-3.85-2.98-8.65-5.23-11.64,1.82-5.19,6.03-6.09,8.57-10.23,1.59-.59,2.66-2.39,4.67-2.88,1.71-.42,3.73.93,4.84,1.95ZM72.94,31.77c-1.38-.55-2.96-.61-4.1-.03-1.53.78-1.47,4.04.52,4.84,1.44.58,3.37-2.68,3.58-4.82,2.66-.04,4.52.26,6.74-.7-2.02-2.47-4.37-4.52-7.43-3.55.12,1.76.82,2.99.69,4.25Z"/>
        <path class="cls-13" d="M101,43.84c-.21.48.05,1.15-.11,1.65-4.22,3.09-1.44,6.6-4.86,6.16-1.91-4.87-6.06-8.29-9.54-12.13.57-.56,1.31-1.03,1.75-1.71.96,4.44,9.11,3.27,12.75,6.03Z"/>
        <path class="cls-2" d="M77.26,23.38c-.63-.67-1.86-1.15-2.6-1.82,3.97-.92-.62-9.08,3.29-10.16.08,4.4-.16,8.24-.69,11.99Z"/>
        <path class="cls-6" d="M56.57,32.73c2.26,2.99,5.3,7.78,5.23,11.64-.07,4.34-3.82,7.92-4.99,12-12.89,1.84-4.61,4.76-14.65,4.37l-12.46-9.53c-.79-4.27-.74-8.49.12-12.75.09-.43.92-.83.77-1.43,1.46-.42,1.56-2.29,1.84-3.41,2.18-.22,3.21-2.73,5.1-3.46,6.41-2.47,13.08-.79,19.04,2.57ZM42.36,41.07c-.37,1.89,1.95,5.65,4.47,4.52,1.8-.81.62-3.42-.52-4.39-.88-.75-2.13-1.7-3.64-1.72.29-1.44-.4-4.63-3.21-4.48-1.31.07-.53,3.03-.3,4.11.28,1.29,2.05,1.64,3.2,1.96Z"/>
        <path class="cls-3" d="M27.81,51.45c-.95.83-2.25.98-3.31,1.58.66-1.32-.12-2.51-.56-4.23,1.84.63,2.53,1.98,3.86,2.65Z"/>
        <rect class="cls-3" x="15.93" y="34.48" width="1.15" height="12.59" transform="translate(-23.95 23.51) rotate(-44.84)"/>
        <path class="cls-9" d="M49.43,25.65l-7.09-7.93c1.03-.29,1.54.78,2.04.39.67-.53.48-1.37.88-3.05,1.55,3.16,3.46,6.09,4.17,10.59Z"/>
        <path class="cls-2" d="M118.65,43.8c-.01-.41.29-.83.31-1.24.29-.41.53-.42.7.08-.2.46-.72.76-1.01,1.16Z"/>
        <path class="cls-3" d="M32.44,33.62c-.28,1.12-.38,2.98-1.84,3.41.54-3.64-3.08-7.19-2.64-8.11,1.55-3.25,2.29,4.18,4.48,4.71Z"/>
        <path class="cls-7" d="M66.85,67.63c-1.09,1.08-2.48,2.49-3.98,3.16-1.09-2.49-2.68-5.13-5.19-7.11-2.09,2.19-2.47,5.16-4.95,5.87-2.59-2.35-6.23-3.81-9.54-4.69l-1.03-4.13c10.04.39,1.75-2.53,14.65-4.37-.33,1.77,2.04,1.36,2.97,2.27,2.77,2.73,5.08,5.94,7.07,9Z"/>
        <path class="cls-7" d="M76.28,47.02l2.87,4.38c-.24,2.64-.1,5.71-2.55,7.41-1.12-.79-3.83-9.03-3.21-9.94.57-.83,1.71-1.86,2.89-1.86Z"/>
        <path class="cls-5" d="M77.28,64.89c-8.82-1.77-7.36,9.22-14.44,7.65-.52,2.27.9,3.37,2.23,4.02,1.8.87,3.79.39,5.12-.82l1.01-.04c-.81.84-1,2.97-2.07,3.87-4.26-.05-8.12-.21-8.86-4.46l.89-2.44c1.01-.03,1.19-1.46,1.71-1.89,1.49-.66,2.89-2.08,3.98-3.16,4.34-.78,5.09-4.53,8.89-4.32.7.04.97,1.16,1.54,1.58Z"/>
        <path class="cls-13" d="M79.16,51.41l-2.87-4.38c4.27,0,6.1,6.89,5.59,8.64-.97-2.04-1.95-3.08-2.72-4.25Z"/>
        <path class="cls-7" d="M98.47,58.19c.34.62.68,1.26.52,2.27-2.37-.08-2.05-1.66-2.28-3.05.61.2,1.21.46,1.76.78Z"/>
        <path class="cls-7" d="M109.99,41.13c-2.9.87-2.14,2.93-5.9,2.55-.86-.98-1.21-2.24-1.51-3.48.74-1.7,1.03-4.59,3.71-4.46,2.57.12,4.15,3.15,3.69,5.39Z"/>
        <path class="cls-10" d="M109.99,41.13c.42,1.86,2.81.77,4.1,3.06-3.39.25-6.14-.41-8.92.53-.51-.19-.74-.66-1.07-1.03,3.76.38,2.99-1.68,5.9-2.55Z"/>
        <path class="cls-8" d="M104.09,43.68c.33.38.57.85,1.07,1.03-.06,2.39,2.63,4.15,1.21,6.73-.88-3.38-2.31-6.14-5.49-5.95.16-.51-.1-1.17.11-1.65l1.58-3.64c.3,1.25.65,2.5,1.51,3.48Z"/>
        <path class="cls-1" d="M32.67,68.16c-9.44-2.29-5.03-3.63-6.77-5.3-1.3-1.24-3.34-2.46-2.13-4.89.35-.71,1.96.43,2.55.87.94.7.72,2.47.06,3.6,1.81.05,3.67-.19,4.57,1.45.61,1.11,1.93,2.7,1.72,4.26Z"/>
        <path class="cls-10" d="M62.88,70.79c-.52.42-.71,1.86-1.71,1.89-.77-1.04-2.34-1.13-3.53-.75-2.86.93-3.5-1.11-4.9-2.38,2.48-.7,2.86-3.68,4.95-5.87,2.51,1.98,4.1,4.61,5.19,7.11Z"/>
        <path class="cls-7" d="M61.17,72.68l-.89,2.44c-.18.48.01,1.56-.93,1.04-.14-1.6-.21-3.28-1.71-4.23,1.18-.38,2.75-.29,3.53.75Z"/>
        <path class="cls-10" d="M71.21,75.71l-1.01.04c-.28-.55-.55-1.26-.41-1.75.2-.65.97-.65,1.53-1.08l4.98-3.86c2.95,4.21-2.28,9-2.96,8.63-.36-.19-.71-.71-.44-1.27.17-.35,1.08-.26,1.68-.93.42-.47-1.02-1.44-1.7-.89-.4.32-1.04.72-1.67,1.13Z"/>
        <path class="cls-2" d="M127.18,55.62c.58-.17.74-.15.67-.09s-.36.14-.67.09Z"/>
        <path class="cls-8" d="M72.94,31.77c.13-1.26-.58-2.49-.69-4.25,3.06-.97,5.41,1.08,7.43,3.55-2.22.96-4.08.65-6.74.7Z"/>
        <path class="cls-10" d="M72.94,31.77c-.22,2.14-2.14,5.39-3.58,4.82-1.99-.8-2.04-4.06-.52-4.84,1.14-.58,2.72-.52,4.1.03Z"/>
        <path class="cls-8" d="M42.36,41.07l.31-1.58c1.51.02,2.75.97,3.64,1.72,1.14.97,2.32,3.58.52,4.39-2.52,1.13-4.84-2.63-4.47-4.52Z"/>
        <path class="cls-7" d="M42.67,39.49l-.31,1.58c-1.15-.31-2.93-.67-3.2-1.96-.23-1.07-1-4.03.3-4.11,2.81-.15,3.5,3.03,3.21,4.48Z"/>
      </g>
    </g>
  </g>
</svg>