<?xml version="1.0" encoding="UTF-8"?>
<svg id="Capa_2" data-name="Capa 2" xmlns="http://www.w3.org/2000/svg" viewBox="0 0 117.14 132.93">
  <defs>
    <style>
      .cls-1 {
        fill: #063953;
      }
    </style>
  </defs>
  <g id="Elementos">
    <g>
      <path class="cls-1" d="M64.08,59.68c-6.84,9.95-17.04,17.54-28.53,21.23-11.49,3.69-24.2,3.46-35.55-.65,7.29,1.9,14.9-1.89,20.68-6.73,5.78-4.84,10.62-10.85,17.07-14.76,6.28-3.81,13.89-5.37,21.16-4.35,2.13.3,4.51,1.04,5.39,3l-.21,2.26Z"/>
      <path class="cls-1" d="M46.44,87.53c-6.45,13.89-1.87,30.32-4.53,45.4,3.43-9.99,11.11-17.82,17.41-26.31,6.29-8.49,11.51-19.09,8.86-29.32-1.82-7.01-4.68-9.76-10.2-4.57-4.55,4.29-8.88,9.08-11.53,14.8Z"/>
      <path class="cls-1" d="M78.47,83.4c5.89,4.48,13.2,6.55,20.17,9.03,6.97,2.48,14.09,5.71,18.5,11.64-3.92-10.49-7.99-21.23-15.38-29.64-5.83-6.64-17.4-14.51-26.87-11.91-10.74,2.95-1.75,16.84,3.57,20.88Z"/>
      <path class="cls-1" d="M85.68,31.91c8.78-3.4,18.69-1.89,27.87-3.98-13.25,6.53-20,22.92-33.89,27.97-9.8,3.56-12.12-1.73-8.43-9.98,2.8-6.26,8.02-11.52,14.45-14.01Z"/>
      <path class="cls-1" d="M44.49,36.57c-2.74-6.96-2.7-14.65-2.62-22.12.05-4.82.1-9.63.15-14.45.79,7.2,4,14.11,8.99,19.37,3.03,3.2,6.7,5.79,9.44,9.24,3.18,3.99,9.73,20.63,1.38,22.24-6.99,1.35-15.24-8.93-17.34-14.28Z"/>
    </g>
  </g>
</svg>