<?xml version="1.0" encoding="UTF-8"?>
<svg id="Capa_2" data-name="Capa 2" xmlns="http://www.w3.org/2000/svg" viewBox="0 0 128.95 105.43">
  <defs>
    <style>
      .cls-1 {
        fill: #f0d09f;
      }

      .cls-2 {
        fill: #e3ba87;
      }

      .cls-3 {
        fill: #6f6536;
      }

      .cls-4 {
        fill: #f6eddf;
      }

      .cls-5 {
        fill: #e2a966;
      }

      .cls-6 {
        fill: #96804b;
      }
    </style>
  </defs>
  <g id="Elementos">
    <g>
      <path class="cls-5" d="M91.45,11.94c.71,2.37,2.87,4.12,4.92,5.92,8.18,7.18,9.35,18.9,1.23,26.76-8.79,8.5-21.27,13.22-33.5,12.58-14-.73-26.26-4.71-37.63-12.63-1.37-.96-3.3-2.52-4.45-1.3-7.44-4.87-16.06-14.75-17.76-23.77,1.43-2.81,2.65-4.99,5.47-7.25C17.9,5.7,27.38,2.19,37.96.74c18.82-2.58,37.61,1.74,53.49,11.21ZM69.34,17.68c.5-3.79-2.27-7.15-5.43-7.83-3.42-.73-6.53,1.11-8.09,4.6-3.14-4.61-9.32-7.41-12.44-3.74-.81.95-.99,2.51-.79,4.18.88,7.08,11.27,11.46,15.41,17.24,3.54-6.42,10.37-7.17,11.34-14.45ZM83.86,27.56c.96,4.79-1.44,8.43-4.79,11.03-7.44,5.78-14.32,3.5-19.33,9.63-2.21-2.88-4.97-4.51-8.45-5.65-8.94-2.94-23.58-10.89-22.05-21,.34-2.26,2.23-4.44,4.59-6.9-2.76-1.04-5.5.5-7.31,2.15-2.13,1.95-2.76,4.6-2.77,7.73-.02,13.25,17.93,20.77,28.64,23.81,2.73.77,5.55,2.12,7.35,3.63,7.27-4.48,21.72-2.04,28.63-12.77,5.34-8.28-.86-19.88-9.75-21.47,1.87,3.72,4.46,5.91,5.24,9.8ZM77.89,17.3c0-.23-.19-.42-.42-.42s-.42.19-.42.42.19.42.42.42.42-.19.42-.42ZM75.42,24.96l-10.24,6.49c-2.86,1.81-4.85,4.22-6.25,7.61-6.9-9.91-13.48-9.45-23.24-18.7-3.17,3.08-2.04,6.91.35,9.67,7.36,8.49,18.49,7.45,23.2,14.2,4.42-5.48,19.05-4.16,19.69-14.2.1-1.66-1.2-5.87-3.51-5.07Z"/>
      <path class="cls-6" d="M21.99,43.84c7.65,3.92,14.76,8.78,22.9,11.68-.21,1.51.96,1.35.79-.05,1.18.21,2.32.59,3.38,1.16-.23.56.44.86.85.65,1.65-.87,2.95.68,4.29.92-.25.42.04,1.94-.61,2.34-1.92,1.18-3.88-.49-6.55-.5-1.59,2.97,13.56,7.44,13.15,7.43,11.87.37,8.38,5.41,14.04,3.23,1.16-.45.74-2.69,1.62-3.44,1.96-1.69,4.77.43,6.86.91,2.21.5,3.85.06,3.65,2.57-.53,6.74-6.51.81-8.54,5.84-.87,2.15-.49,3.19.94,5.54,1.28,2.1,1.77,3.04,4.93,2.9,1.07-.05,2.47.96,3.55.48,2.3-1.03,1.46-4.02,4.8-4.84.88-.22,1.79.45,2.16,1.42l-.13,1.98c-.23.04-.49.02-.73.01-.55-.03-1.28.04-.86.82-2.04,1.94-3.73,4.64-5.2,7.25-11.81,8.48-13.92,12.15-29.72,13.16-2.01-3.49-2.92,2.37-11.48-4.05-1.49-1.12-3.33-.97-3.34-3.68-.01-2.36-2.17-4.14-4.64-3.66-5.5,1.07.18-6.14-7.36-9.47-2.99-1.32-4.56-5.75-7.51-6.69-3.57-1.15-5.95-2.02-8.61-5.58l-2.79-3.73c2.26-1.07,4.76-1.73,5.47-3.33,1.51-3.43-1.41-10.79-4.42-14.26l4.19-3.26c1.18-.92,2.92-4.77,4.93-3.74Z"/>
      <path class="cls-3" d="M22.02,43.27l-.03.58c-2.01-1.03-3.75,2.82-4.93,3.74l-4.19,3.26c3.02,3.47,5.93,10.83,4.42,14.26-.7,1.6-3.2,2.26-5.47,3.33l2.79,3.73c2.66,3.56,5.04,4.43,8.61,5.58,2.95.95,4.52,5.37,7.51,6.69,7.53,3.33,1.86,10.54,7.36,9.47,2.46-.48,4.63,1.3,4.64,3.66.01,2.71,1.85,2.56,3.34,3.68,8.56,6.41,9.47.55,11.48,4.05-7,.45-19.78.06-26.2-4.81-3.78-2.86-8.93-5.57-11.88-9.03C5.09,74.56-2.29,52.92.63,30.49c.57-4.38,1.93-7.64,3.64-11,1.7,9.02,10.32,18.9,17.76,23.77Z"/>
      <path class="cls-2" d="M128.52,52.67c-1.12,6.22-3.28,12.04-8.14,17.02-7.12,7.28-16.52,12.68-26.32,14.35l.13-1.98c1.29-.45,6.09-9.23,3.9-9.95-.01-.84,1.36-.84,2.04-.84,4.44.03,8.21-2.98,11.61-6.12,6.76-6.23,12.45-18.05,5.08-24.55,4.95.95,6.7,7.17,5.23,12.04-.55,1.82,2.31,1.99,3.71,2.37,1.32.36,1.48-1.54,2.76-2.34Z"/>
      <path class="cls-2" d="M126.26,38.17c-2.1,4.33-6.97-9.2-13.51-3.89,1.29,1.11,2.73,1.22,3.05,2.02.53,1.33.27,2.47.24,3.58-3.61-.85-6.39,1.38-9.34,3.28.21-1.66-.47-3.99-.58-6.15-3.06,5.47-6.98,12.23-12.94,15.45-11.17,6.03-26.72,7.97-38.97,5.74-1.34-.24-2.64-1.79-4.29-.92-.26-.24-.53-.48-.85-.65-1.06-.57-2.2-.94-3.38-1.16-.24-.04-.56.14-.79.05-8.15-2.9-15.26-7.76-22.9-11.68l.03-.58c1.16-1.22,3.08.35,4.45,1.3,11.37,7.92,23.63,11.89,37.63,12.63,12.23.64,24.71-4.08,33.5-12.58,8.12-7.85,6.95-19.58-1.23-26.76-2.05-1.8-4.2-3.55-4.92-5.92,6.99,4.16,13.94,9.38,14.91,18.99,10.41-1.83,15.57-.25,19.89,7.24Z"/>
      <path class="cls-1" d="M126.26,38.17c2.64,4.56,3.22,9.15,2.26,14.5-1.28.8-1.44,2.7-2.76,2.34-1.4-.38-4.26-.56-3.71-2.37,1.47-4.87-.28-11.09-5.23-12.04-.37-.07-.79-.26-.78-.72.03-1.1.29-2.25-.24-3.58-.32-.81-1.76-.91-3.05-2.02,6.54-5.3,11.42,8.22,13.51,3.89Z"/>
      <path class="cls-3" d="M92.46,84.87c-.41-.78.31-.85.86-.82l-.86.82Z"/>
      <path class="cls-4" d="M83.86,27.56c-.78-3.89-3.37-6.08-5.24-9.8,8.89,1.59,15.09,13.19,9.75,21.47-6.92,10.72-21.36,8.29-28.63,12.77-1.81-1.51-4.62-2.86-7.35-3.63-10.71-3.04-28.65-10.56-28.64-23.81,0-3.13.64-5.78,2.77-7.73,1.81-1.66,4.55-3.2,7.31-2.15-2.36,2.46-4.25,4.64-4.59,6.9-1.52,10.1,13.11,18.06,22.05,21,3.48,1.14,6.24,2.77,8.45,5.65,5.01-6.13,11.89-3.85,19.33-9.63,3.35-2.6,5.74-6.24,4.79-11.03Z"/>
      <path class="cls-4" d="M75.42,24.96c2.31-.79,3.61,3.41,3.51,5.07-.63,10.05-15.27,8.72-19.69,14.2-4.72-6.75-15.85-5.71-23.2-14.2-2.39-2.76-3.52-6.58-.35-9.67,9.76,9.24,16.34,8.79,23.24,18.7,1.4-3.39,3.39-5.8,6.25-7.61l10.24-6.49Z"/>
      <path class="cls-4" d="M69.34,17.68c-.97,7.28-7.79,8.03-11.34,14.45-4.14-5.79-14.53-10.16-15.41-17.24-.21-1.67-.02-3.23.79-4.18,3.12-3.67,9.3-.87,12.44,3.74,1.55-3.49,4.67-5.33,8.09-4.6,3.16.67,5.94,4.04,5.43,7.83Z"/>
      <circle class="cls-4" cx="77.47" cy="17.3" r=".42"/>
      <path class="cls-3" d="M93.18,52.45c1.31-.95,3.83,14.82,3.83,14.87.05,2.2-1.25,4.01,1.08,4.78,2.19.73-2.61,9.5-3.9,9.95-.37-.97-1.28-1.63-2.16-1.42-3.34.82-2.5,3.81-4.8,4.84-1.08.48-2.48-.53-3.55-.48-3.15.14-3.65-.81-4.93-2.9-1.44-2.35-1.81-3.39-.94-5.54,2.03-5.03,8.01.9,8.54-5.84.2-2.51-1.44-2.07-3.65-2.57-2.09-.48-4.9-2.6-6.86-.91-.87.75-.46,2.99-1.62,3.44-5.65,2.18-2.17-2.86-14.04-3.23.41.01-14.74-4.46-13.15-7.43,2.67.01,4.63,1.68,6.55.5.66-.4.36-1.92.61-2.34,12.26,2.23,27.8.29,38.97-5.74Z"/>
      <path class="cls-3" d="M49.91,57.27c-.41.21-1.08-.08-.85-.65.31.17.59.41.85.65Z"/>
      <path class="cls-3" d="M44.89,55.52c.23.08.55-.1.79-.05.17,1.4-1,1.56-.79.05Z"/>
      <path class="cls-6" d="M106.7,43.15c-1.2,9.62-3.22,19.01-6.57,28.11-.67,0-2.05,0-2.04.84-2.33-.77-1.02-2.58-1.08-4.78,0-.05-2.52-15.82-3.83-14.87,5.96-3.21,9.88-9.98,12.94-15.45.11,2.16.79,4.49.58,6.15Z"/>
    </g>
  </g>
</svg>