<?xml version="1.0" encoding="UTF-8"?>
<svg id="Capa_2" data-name="Capa 2" xmlns="http://www.w3.org/2000/svg" viewBox="0 0 98.23 141.96">
  <defs>
    <style>
      .cls-1 {
        fill: #b46a27;
      }

      .cls-2 {
        fill: #3b3923;
      }

      .cls-3 {
        fill: #f0d09f;
      }

      .cls-4 {
        fill: #e3ba87;
      }

      .cls-5 {
        fill: #6a3e1f;
      }

      .cls-6 {
        fill: #d28a38;
      }

      .cls-7 {
        fill: #c47930;
      }

      .cls-8 {
        fill: #f6eddf;
      }

      .cls-9 {
        fill: #e2a966;
      }

      .cls-10 {
        fill: #944f1d;
      }
    </style>
  </defs>
  <g id="Elementos">
    <g>
      <path class="cls-3" d="M64.06,44.11c-10.33-3.97-21.65-6.68-32.09-3.49-1.25-7.16-3.84-14.02-5.98-21.4-.64-2.21-4.29-2.6-5.8-1.95,1.67,8.98,6.25,17.66,6.84,24.86-1.5.46-3.04,2.88-5.11,2.04L8.6,11.46c-1-2.46-.2-4.68,2.19-5.76C26.97-1.56,52.11-1.42,68.95,3.5c2.79.81,5.17,1.91,7.4,4.51-2.08,2.01-4.33,3.68-7.14,4.53-17.1,5.2-42.01,4.74-58.35-2.54-.49-.22-1.25,1.92-.18,1.7.34-.07.95.63,1.49.9,6.48,3.21,13.58,3.19,20.69,4.31,11.98,1.89,33.2.55,44.17-6.26l-12.98,33.47Z"/>
      <path class="cls-4" d="M85.09,125.62c-5.86,8.55-7.1,6.56-14.1,12.17-17.72,5.08-37,5.99-54.71.05C6.4,134.53-.79,126.52.07,116.13c.46-5.56,2.29-10.74,4.3-15.91l16.24-41.61c7.4,7.27,39.13,7.08,44.69-1.32l.65.03,17.33,48.14c2.02,5.6,4.07,11.01,2.35,17.05-.27.94-1.83,2.68-.54,3.11ZM20.34,85.48c-.08.23-.14.5-.17.74-10.81,1.91-9.35,5.6-9.66,6.14-3.74,6.5-5.92,14.1-7.46,21.95-5.32,27.16,51.26,29.47,70.49,18.02,6.49-3.87,10.61-10.89,9.01-18.51-1.71-8.16-4.38-15.87-7.49-23.18-.83-1.95-3.16-2.85-5.44-3.6-13.7-4.51-27.72-3.88-41.66-3.12l2.97-14.63c.23-1.14.11-2.8-.68-3.33-.73-.49-2.72-1.71-3.03-.79l-6.89,20.31Z"/>
      <path class="cls-10" d="M65.95,57.32l-.65-.03c-.28-1.36-1.31-3.3-2.52-3.61-1.54-.4-3.09.29-4.43.45-1.14-1.49-3.23.07-4.83-1.4.86-1.5,1.89-1.57,2.15-2.34,3.98-2.5,5.42-.67,9.32-4.8,6.96.59,1.83,3.51,12.93,1.25,5.04-1.02,9.9-2.49,14.99-2.32,3.82.13,5.6,3.52,5.27,6.64-.34,3.26-3.38,4.98-6.85,4.54l-19.68-2.45c5.9,5.95,11.58,11.22,17.69,16.45,6.55,5.6,2.68,12.68,1.99,12.87-4.98,1.39-8.98-5.18-11.35-9.31-1.56-2.72-10.78-19.79-14.03-15.96ZM64.8,52.8c1.95.03,3.26-.52,3.59-1.87.23-.95.39-2.69-1.03-3.35-1.61-.76-3.06.54-3.47,1.49-.65,1.49-1.09,3.7.91,3.73ZM90.55,50.38c-2.93-2.31-6.4-1.71-9.17.08,3.15.94,6.1,1.8,9.17-.08ZM85.92,71.84l-3.67-3.08c1.21,2.36,1.45,4.56,3.31,5.71.75.46,1.37-.9,1.12-1.26-.16-.22-.09-.82-.76-1.38Z"/>
      <path class="cls-6" d="M65.3,57.29c-5.56,8.4-37.28,8.59-44.69,1.32-.78-1.35.03-3.09-.29-4.44-2.73-.97,17.29.63,13.42.06,8.14,1.19,16.44.86,24.61-.1,1.34-.16,2.89-.85,4.43-.45,1.21.31,2.23,2.24,2.52,3.61Z"/>
      <path class="cls-6" d="M64.06,44.11c.2.56.52,1.05.94,1.47-3.9,4.13-5.35,2.3-9.32,4.8-7.31.68-14.61.41-21.94.49-.05-.29-.16-.59-.16-.88.11,0,.5-.14,1.19-.3-.11-2.09-.44-4.61-2.26-6.31-.66-.62-1.83.48-2.07,1.06-1.11,2.66,3.14,2.74,3.14,5.54-4.29-.45-8.49-1.95-12.46-3.65.59-.41.54-1.61.8-2.19,2.06.84,3.6-1.58,5.11-2.04l4.94-1.51c10.45-3.19,21.76-.48,32.09,3.49Z"/>
      <path class="cls-10" d="M33.58,50c0,.29.11.59.16.88.18,1.11.16,2.23,0,3.34,3.87.57-16.15-1.03-13.42-.06-.63-2.68-1.77-6.01.8-7.81,3.97,1.7,8.17,3.2,12.46,3.65Z"/>
      <path class="cls-8" d="M31.96,40.62l-4.94,1.51c-.59-7.2-5.17-15.88-6.84-24.86,1.51-.65,5.16-.26,5.8,1.95,2.14,7.38,4.73,14.24,5.98,21.4Z"/>
      <path class="cls-2" d="M10.52,92.36c2.19,3.19,6.22,2.29,6.36,5.15l-3.47,13.48c-1.4,5.41.07,13.39,3.74,13.41.86,0,2.38-.45,2.53-1.83.75-6.9,1.87-13.44,3.76-20.19.44-1.56.26-2.98,0-4.16.52.09,1.13-.2,1.64-.08,14.71,3.55,30.47,2.45,45.1-2.36,2.74-.9,4.67-2.68,4.89-5.14,3.12,7.3,5.78,15.01,7.49,23.18,1.6,7.62-2.52,14.65-9.01,18.51-19.23,11.45-75.81,9.14-70.49-18.02,1.54-7.85,3.72-15.45,7.46-21.95Z"/>
      <path class="cls-5" d="M75.07,90.65c-.22,2.47-2.15,4.24-4.89,5.14-14.64,4.81-30.4,5.91-45.1,2.36-1-3.89,2.73-9.79,1.94-13.45l.96-.78c13.95-.76,27.96-1.39,41.66,3.12,2.28.75,4.6,1.65,5.44,3.6Z"/>
      <path class="cls-8" d="M27.97,83.92l-.96.78-6.67.78,6.89-20.31c.31-.92,2.31.3,3.03.79.79.53.91,2.19.68,3.33l-2.97,14.63Z"/>
      <path class="cls-7" d="M27.01,84.7c.79,3.66-2.93,9.56-1.94,13.45-.51-.12-1.12.17-1.64.08-1.91-.33-3.77-1.29-5.72-.88-.3-3.87,1.93-7.34,2.46-11.13.03-.24.09-.51.17-.74l6.67-.78Z"/>
      <path class="cls-5" d="M20.17,86.22c-.53,3.79-2.76,7.26-2.46,11.13-.28.06-.55.15-.84.16-.14-2.86-4.17-1.96-6.36-5.15.31-.54-1.15-4.24,9.66-6.14Z"/>
      <path class="cls-5" d="M55.67,50.39c-.26.77-1.29.84-2.15,2.34,1.59,1.47,3.68-.09,4.83,1.4-8.17.95-16.47,1.29-24.61.1.15-1.11.18-2.23,0-3.34,7.33-.08,14.62.18,21.94-.49Z"/>
      <path class="cls-1" d="M64.8,52.8c-2.01-.03-1.56-2.24-.91-3.73.42-.95,1.87-2.25,3.47-1.49,1.42.67,1.25,2.4,1.03,3.35-.32,1.35-1.64,1.9-3.59,1.87Z"/>
      <path class="cls-3" d="M90.55,50.38c-3.07,1.88-6.03,1.02-9.17.08,2.78-1.79,6.25-2.4,9.17-.08Z"/>
      <path class="cls-3" d="M85.92,71.84c.67.56.6,1.15.76,1.38.25.36-.37,1.72-1.12,1.26-1.86-1.15-2.09-3.35-3.31-5.71l3.67,3.08Z"/>
      <path class="cls-9" d="M33.58,50c0-2.81-4.25-2.88-3.14-5.54.24-.58,1.41-1.68,2.07-1.06,1.82,1.7,2.15,4.23,2.26,6.31-.69.15-1.07.29-1.19.3Z"/>
      <path class="cls-10" d="M23.43,98.23c.27,1.18.44,2.6,0,4.16-1.89,6.75-3.01,13.29-3.76,20.19-.15,1.37-1.67,1.83-2.53,1.83-3.67-.02-5.13-8-3.74-13.41l3.47-13.48c.29-.02.56-.1.84-.16,1.95-.41,3.8.55,5.72.88Z"/>
    </g>
  </g>
</svg>