<?xml version="1.0" encoding="UTF-8"?>
<svg id="Capa_2" data-name="Capa 2" xmlns="http://www.w3.org/2000/svg" viewBox="0 0 144.18 101.68">
  <defs>
    <style>
      .cls-1 {
        fill: #4c4b2d;
      }

      .cls-2 {
        fill: #3b3923;
      }

      .cls-3 {
        fill: #f0d09f;
      }

      .cls-4 {
        fill: #6a3e1f;
      }

      .cls-5 {
        fill: #6f6536;
      }

      .cls-6 {
        fill: #bca16f;
      }

      .cls-7 {
        fill: #96804b;
      }
    </style>
  </defs>
  <g id="Elementos">
    <g>
      <path class="cls-5" d="M98.25,24.62c.51,7.77-.2,15.58-.8,23.79-1.42,19.15-4.53,32.49-19.52,43.95-1.27.97-3.04,1.3-2.64,3.59-14.75,7.48-32.57,7.17-48.34,1.77-2.92-1-3.53-3.78-4.82-5.53C.2,78.79-.06,50.78,0,28.08c1.11-.63.1-2.03,1.18-3.48.27,2.6,1.69,4.34,3.68,6.13,13.68,12.36,39.64,13.99,57.27,12.09,12.02-1.3,30.72-6.97,36.12-18.2ZM64.26,78.82c1.06.1,11.98-3.7,10.47-7.63-.6-1.56-8.83,1.75-12.54-.23,1.59-1.91,3.68-4.28,5.91-4.25l5.42.08c-.06-8.59,3.61-6.29,5.11-17.31-8.15-2.53-9.33,19.6-12.58,15.37,1.09-3.71,2.63-9.51-.59-11.72-2.8-1.92-5.26,3.13-6.8,4.88-3.39,3.85-5.13,8.5-1.78,13.03-3.49,3.21-6.89,4.99-10.34,7.4,3.95,1.57,7.55-.61,11.2-.26l6.54.63ZM35.91,67.98c-.69,1,1.81-7.73-.34-10.43-.85-1.06-1.59-1.6-1.42-3.42-4.49,4.42-4.74,2.19-10.73,1.39.21,4.97,9.68,16.54,12.49,12.46ZM47.72,73.09c1.82-1.08,1.46-3.77.79-4.89-.59-.98-1.66-2.51-3.45-2.36-2.21.19-4.36,1.59-4.93,3.03-.59,1.49-.91,4.88.62,5.43,2.05.74,5.05-.08,6.97-1.22ZM45.62,79.38c0-.23-.19-.42-.42-.42s-.42.19-.42.42.19.42.42.42.42-.19.42-.42ZM43.75,80.27c-1.37-.89-4.5.47-5.67,2.22-.2.93,1.97,1.26,2.82,1.22,1.14-.05,1-1.02,2.85-3.44Z"/>
      <path class="cls-6" d="M98.25,24.62c-5.4,11.22-24.1,16.9-36.12,18.2-17.63,1.9-43.59.27-57.27-12.09-1.99-1.8-3.41-3.54-3.68-6.13-1.08,1.45-.07,2.85-1.18,3.48.01-3.76-.06-8.3,2.88-11.51,4.64-5.05,10.91-8.06,17.66-10.02,20.55-5.97,42.36-5.21,62.52,1.77,4.5,1.56,8.21,4.15,11.57,7.13,2.99,2.65,3.39,5.83,3.61,9.17ZM10.75,30.04c1.39,2.34,4.24,3.45,7.29,4.51,17.8,6.17,37.24,6.87,55.51,2.27,5.49-1.38,10.24-3.38,14.44-6.87,1.93-1.61,4.65-2.17,5.12-5.18s-.47-5.91-3.2-7.96C64.46-2.28,2.64,7.51,5.23,24.05c.4,2.52,2.42,5.11,5.51,5.99Z"/>
      <g>
        <path class="cls-2" d="M112.76,16.27c1.26,1.08,1.25,3.43,2.82,4.52,1.86,1.29,3.63-.83,5.21-1.26,2.08,13.27-4.06,15.03-.87,23.16,9.53-20.04,2.53-14.93,6.16-27.33,1.44.76-.8,5.1.59,5.83,4.75,2.52,4.61-7.02,8.07-8.2-.81,5.84-4.42,9.71-6.04,14.97,1.67.31,2.56-.62,3.68-1.52.52-.06.73.39.55.85l-5.93,3.47-11.27,26.07c-1.29,3-2.36,5.64-4.46,9.08,8-.37,2.19-8.34,15.81-16.44.09,1.3-1.33,1.78-2.16,2.99-.89,1.3,1.14,3.84,2.7,3.66,2.4-.27,3.46-2.76,6.39-2.46-1.1,2.38-3.8,2.09-5.19,4.23.68,2.53,1.61,5.03,3.37,6.53-4.48,2.56-9.76,4.42-15.23,1.87-2.36,1.1-6.38,2.54-8.04,4.62-3.87,4.83-8.31,8.19-11.46,13.74,7.74-5.03,13.88-8.84,21.71-7.3-2.87.59-5.29,2.8-4.25,5.96,1.79,1.13,4.16-.3,5.82,1.87l-16.96.96c-1.8.1-3.57,1-3.26,2.71-8.01-7.02-17.24,9.18-25.24,7.09-.4-2.29,1.37-2.62,2.64-3.59,10.4-3.14,31.8-17.84,27.46-31.62-.53-1.68-3.44-1.5-3.77-3.12,7.97.33,4.64.33,8.25-3.1l-1.32,5.08c-.47,1.8-.71,3.88.2,6,4.31-7.52,10.79-18.1,7.6-26.67-9.75-7.33-15.15-19.25-10.49-30.26,1.28,2.71.41,5.81.75,8.96.17,1.6,2.48,1.87,3.8,1.76,1.41-.11,1.42-2.09,2.38-3.12Z"/>
        <path class="cls-4" d="M100.53,88.86c-.32-1.72,1.46-2.61,3.26-2.71l16.96-.96c-1.66-2.17-4.03-.73-5.82-1.87-1.04-3.16,1.38-5.37,4.25-5.96,5.48,1.08,10.92,2.61,15.01,7.63-10.07,8.84-23.15,13.08-33.66,3.87Z"/>
        <path class="cls-4" d="M132.93,27.3c.18-.46-.02-.92-.55-.85-1.12.9-2.02,1.83-3.68,1.52,1.62-5.26,5.22-9.12,6.04-14.97-3.46,1.18-3.32,10.72-8.07,8.2-1.39-.74.85-5.07-.59-5.83,2.13-7.26,7.23-13.07,15.7-15.36,2.56,10,.1,22.06-8.85,27.3Z"/>
        <path class="cls-4" d="M132.19,64.43c-1.76-1.5-2.69-4-3.37-6.53,1.39-2.14,4.09-1.85,5.19-4.23-2.93-.3-3.99,2.19-6.39,2.46-1.56.18-3.59-2.36-2.7-3.66.83-1.22,2.25-1.7,2.16-2.99,4.85-2.89,10.6-4.46,17.1-2.51-1.51,7.71-5.9,13.99-11.98,17.46Z"/>
        <path class="cls-4" d="M109.85,54.52c-3.61,3.42-.28,3.42-8.25,3.1-.33-1.58-6.42-10.12.57-15.27,2.77-2.04,5.22-.08,6.65,2.26,2.09,3.4,3.03,6.69,1.03,9.91Z"/>
        <path class="cls-5" d="M120.79,19.53c-1.58.43-3.35,2.55-5.21,1.26-1.57-1.09-1.56-3.44-2.82-4.52,1.25-1.59-5.17-12.8-2.52-13.96,5.79,3.85,9.48,10.39,10.55,17.22Z"/>
        <path class="cls-4" d="M110.25,2.3c-2.65,1.16,3.77,12.37,2.52,13.96-.97,1.04-.97,3.01-2.38,3.12-1.32.11-3.63-.16-3.8-1.76-.33-3.14.53-6.25-.75-8.96-.23.54.86-8.36,3.64-7.18.31.13.42.57.78.81Z"/>
      </g>
      <path class="cls-1" d="M64.26,78.82l-6.54-.63c-3.65-.35-7.25,1.83-11.2.26,3.46-2.41,6.86-4.2,10.34-7.4-3.35-4.53-1.6-9.19,1.78-13.03,1.54-1.75,4.01-6.8,6.8-4.88,3.22,2.21,1.68,8.01.59,11.72,3.25,4.23,4.43-17.9,12.58-15.37-1.49,11.02-5.16,8.71-5.11,17.31l-5.42-.08c-2.22-.03-4.31,2.34-5.91,4.25,3.71,1.98,11.94-1.33,12.54.23,1.51,3.93-9.41,7.73-10.47,7.63Z"/>
      <path class="cls-7" d="M35.91,67.98c-2.81,4.08-12.28-7.49-12.49-12.46,6,.8,6.25,3.03,10.73-1.39-.17,1.83.57,2.36,1.42,3.42,2.15,2.7-.35,11.43.34,10.43Z"/>
      <path class="cls-1" d="M47.72,73.09c-1.92,1.14-4.92,1.96-6.97,1.22-1.53-.55-1.21-3.94-.62-5.43.57-1.44,2.73-2.84,4.93-3.03,1.79-.16,2.86,1.38,3.45,2.36.67,1.12,1.03,3.8-.79,4.89Z"/>
      <path class="cls-1" d="M43.75,80.27c-1.84,2.42-1.71,3.39-2.85,3.44-.85.04-3.02-.29-2.82-1.22,1.17-1.75,4.3-3.11,5.67-2.22Z"/>
      <circle class="cls-1" cx="45.19" cy="79.38" r=".42"/>
      <path class="cls-5" d="M87.98,29.95c-17.35-12.57-60.1-13.09-77.23.09-3.09-.88-5.12-3.47-5.51-5.99C2.64,7.51,64.46-2.28,89.9,16.81c2.74,2.05,3.69,4.85,3.2,7.96s-3.19,3.58-5.12,5.18Z"/>
      <path class="cls-3" d="M87.98,29.95c-4.2,3.49-8.95,5.49-14.44,6.87-18.26,4.6-37.71,3.9-55.51-2.27-3.04-1.05-5.9-2.17-7.29-4.51,17.14-13.18,59.88-12.66,77.23-.09Z"/>
    </g>
  </g>
</svg>