<?xml version="1.0" encoding="UTF-8"?>
<svg id="Capa_2" data-name="Capa 2" xmlns="http://www.w3.org/2000/svg" viewBox="0 0 91.47 67.8">
  <defs>
    <style>
      .cls-1 {
        fill: #063953;
      }
    </style>
  </defs>
  <g id="Elementos">
    <g>
      <path class="cls-1" d="M79.68,15.34c-6.76-6.04-15.63-9.08-24.34-11.6C45.29.82,34.5-1.62,24.45,1.35,16.03,3.83,9.07,9.89,3.66,16.79c10.99-9.91,29.98-8.98,39.96,1.95,4.74,5.2,7.4,11.97,11.71,17.53,3.91,5.05,9.24,8.92,15.16,11.29,4.05,1.63,14.86,5.16,18.68,1.71,3.55-3.2,1.51-13.58.46-17.5-1.67-6.27-5.09-12.1-9.94-16.43Z"/>
      <path class="cls-1" d="M54.06,44.84c-4.15-4.33-7.35-9.52-11.61-13.74-7.14-7.08-17.2-11.11-27.25-10.93-5.18.09-10.87,1.63-13.63,6.02-2.48,3.95-1.82,9.26.54,13.28,2.36,4.02,6.17,6.96,10.03,9.56,13.37,8.99,28.68,15.09,44.58,17.74,6.25,1.04,12.69,1.55,18.89.26,5.75-1.2,13.54-4.67,15.85-10.46-14.15,1.45-26.87-.73-37.41-11.74Z"/>
    </g>
  </g>
</svg>