<?xml version="1.0" encoding="UTF-8"?>
<svg id="Capa_2" data-name="Capa 2" xmlns="http://www.w3.org/2000/svg" viewBox="0 0 133.07 97.07">
  <defs>
    <style>
      .cls-1 {
        fill: #b46a27;
      }

      .cls-2 {
        fill: #4c4b2d;
      }

      .cls-3 {
        fill: #3b3923;
      }

      .cls-4 {
        fill: #e3ba87;
      }

      .cls-5 {
        fill: #6a3e1f;
      }

      .cls-6 {
        fill: #d28a38;
      }

      .cls-7 {
        fill: #c47930;
      }

      .cls-8 {
        fill: #e2a966;
      }

      .cls-9 {
        fill: #944f1d;
      }
    </style>
  </defs>
  <g id="Elementos">
    <g>
      <path class="cls-6" d="M11.79,56.23c.54,6.98,1.29,13.84.6,21.27-.1,1.12,1.6,2.44,2.39,2.52,3.79.4.67-8.47,3.64-11.61,1.61-.52,1.45-2.29,2.18-4.68,2.31,1.39,18.56,9.98,19.89,6.99,12.77,2.47,22.43,2.91,33.94-3.4,3.02-1.66,6.52-2.23,8.38-4.97h1.88c2.23,6.17-1.12,14.48,3.6,13.5,3.39-.7,2.5-10.5,3.38-17.74l3.17-1.73c1.14.12,1.27,2.61,2.12,3.12,2.69.08,5.6.31,7.94-.61-.05,1.19.05,2.38.18,3.57l.17,1.58c-.39,1.44-1.28,2.86-1.23,4.34-.94-.52-.49-1.76-1.73-2.87-2.33,3.14-4.42,6.24-5.11,9.89l-1.54,8.24c-6.21,6.43-15.18,9.8-24.14,11.12-1.53-1.28-1.78-3.53-.79-5.21,2.18-3.69,5.72-2.14,6.98-4.98.48-1.08-.26-1.84-.86-2.19-4.06-2.35-3.11,3.1-10.77,3.15-1.24,0-2.44,1.18-2.66,1.95-.87,3.05,3.64,2.35,2.43,8.12-16.57,3.3-34.57,1.02-49.79-6.82C-2.08,79.44-.1,64.1.22,47.13l3.79,1.31c.88.3,1.83-.63,2.6-.2,2.4,1.33-3.38,3.19,5.18,7.99Z"/>
      <path class="cls-4" d="M91.47,13.85c-.5,4.09,2.62,7.94,2.83,12.22.12,2.34-.28,4.42.55,7.01,1.43,4.52-8.1,2.01-7.68,11.26,3.01-.38,5.05-1.71,7.59-1.4-4.26,12.13-2.19,7.91-3.07,15.17-.88,7.24,0,17.03-3.38,17.74-4.72.98-1.37-7.33-3.6-13.51-.76-2.11-1.04-4.5-2.36-5.85-2.23-2.29-4.94-2.42-7.82-1.49l-9.22,2.98c-3.87-2.33-7.63-2.23-11.57-.13-1.92,1.02-4.57.78-5.45,2.77-.14.31-.73.67-1,.88-.57.43-1.06.91-1.02,1.68-1.03,1.02-3.86,2.87-4.86.96-1.54-2.92-3.23-4.44-5.99-5.72l-6.01-2.79c-2.28-1.06-5.3-.54-6.63,1.44-3.84.08-3.8,8.44-4.32,11.33-2.98,3.15.15,12.01-3.64,11.61-.79-.08-2.5-1.4-2.39-2.52.69-7.43-.06-14.29-.6-21.27-.41-5.35-.09-10.08-3.97-14.94-2.09-2.62-1.6-7.1-3.97-9.47-.12-9.66,8.95-19.05,17.44-23.73C43.2-3.96,72.83-2.58,91.47,13.85ZM29.29,10.07c-3.59,1.94-7.24,3.81-10.29,7.07-6.37,6.8-5.39,17.16,1.97,22.36.32.22.56.57.87.81l.99.79c4.62,3.7,10.14,5.39,15.82,6.56,4.66.96,9.78,2.67,14.54,1.25,9.73-.24,20.12-2.49,27.85-8.64,4.25-1.62,7.35-6.39,8.17-10.22,2.52-11.83-7.93-18.41-17.5-22.01-13.69-5.16-29.53-4.94-42.42,2.04Z"/>
      <path class="cls-2" d="M105.1,62.47c-.13-1.18-.23-2.37-.18-3.57.01-.25.04-.5.08-.75,4.04-2.95,1.56-13.53.91-17.89-.44-2.97-1.19-6.27-3.44-8.34.69-3.75-2.12-4.3-1.97-11.19.18-8.11,5.21-15.21,11.66-20.74,6.34,9.17,6.34,19.06,3.5,29.35,5.31-4.19,10.51-7.07,16.63-8.18,1.17,13.9-5.61,26.08-18.66,31.3-6.7,2.68-5.71,5.84-8.55,10ZM108.73,43.6c.84-3.84,1.47-5.64,2.67-8.75-.9.35-2.56.8-2.89,2.17-.59,2.42-.55,4.69.22,6.58Z"/>
      <path class="cls-2" d="M104.18,71.95l-.14-3.56c-.06-1.48.83-2.9,1.23-4.34,3.6-2.26,5.82-6.22,10.12-8.06,5.66-2.42,11.87-2.18,17.68.24-3.18,6.27-7.36,11.23-13.4,13.91-5.1,2.27-10.36,1.61-15.49,1.81Z"/>
      <path class="cls-8" d="M100.51,20.74c-.15,6.89,2.66,7.45,1.97,11.19-.25,1.38-1.62,2.6-1.19,4.27-2.41,2.01-4.39,4.47-6.53,6.75-2.54-.31-4.59,1.02-7.59,1.4-.42-9.25,9.12-6.74,7.68-11.26-.82-2.59-.43-4.67-.55-7.01-.22-4.28-3.34-8.13-2.83-12.22,2.91,2.56,6.74,4.54,7.86,8.76.89-1.04.72-1.56,1.19-1.87Z"/>
      <path class="cls-1" d="M11.79,56.23c-8.56-4.8-2.79-6.67-5.18-7.99-.77-.43-1.73.5-2.6.2l-3.79-1.31c.07-3.96-.21-12.68,3.64-15.31,2.36,2.37,1.88,6.85,3.97,9.47,3.87,4.86,3.56,9.59,3.97,14.94Z"/>
      <path class="cls-7" d="M71.52,94.77c-1.81.27-3.9.49-5.67.85,1.21-5.77-3.3-5.07-2.43-8.12.22-.77,1.42-1.94,2.66-1.95,7.67-.05,6.71-5.5,10.77-3.15.6.35,1.35,1.11.86,2.19-1.26,2.84-4.8,1.29-6.98,4.98-.99,1.68-.74,3.93.79,5.21Z"/>
      <path class="cls-1" d="M104.04,68.4l.14,3.56c-.26,0-.5.11-.74-.07-.29-.9.19-2.01-.67-2.8-1.03,1.35.05,2.2.67,2.8-.15,5.36-4.61,8.48-7.78,11.77l1.54-8.24c.68-3.65,2.77-6.75,5.11-9.89,1.24,1.11.79,2.35,1.73,2.87Z"/>
      <path class="cls-1" d="M82.82,62.36c-1.86,2.74-5.36,3.31-8.38,4.97-11.51,6.31-21.17,5.87-33.94,3.4-3.72-.72-5.78-5.05-5.71-8.27.02-1-.89-1.3-1.09-1.73-.18-.41-.28-1.56.31-1.73.43-.12.89-.28,1.39-.57,2.77,1.28,4.46,2.8,5.99,5.72,1.01,1.91,3.84.06,4.86-.96.49-.48,1.26-.78,1.02-1.68.28-.21.87-.57,1-.88l20.15-.23c4.49-.05,8.52-2.01,12.99-2.71,1.33.34,1.56,3.47,1.4,4.68Z"/>
      <path class="cls-7" d="M105.91,40.27c-1.47,3.09.18,11.21-.91,17.89-.04.24-.07.5-.08.75-2.34.92-5.26.69-7.94.61-.84-.51-.97-3.01-2.12-3.12,3.54-7.16,3.31-2.19,5.31-11.49.65-3.03,1.86-5.83,1.12-8.7-.43-1.67.94-2.9,1.19-4.27,2.25,2.06,3,5.37,3.44,8.34Z"/>
      <path class="cls-7" d="M22.75,57.08c3.33,2.09,7.21,2.58,10.95,3.64.19.43,1.11.73,1.09,1.73-.07,3.22,1.99,7.55,5.71,8.27-1.33,2.99-17.58-5.6-19.89-6.99-.73,2.38-.56,4.16-2.18,4.68.53-2.9.48-11.25,4.32-11.33Z"/>
      <path class="cls-9" d="M94.86,56.39l-3.17,1.73c.88-7.26-1.19-3.04,3.07-15.17,2.15-2.28,4.13-4.74,6.53-6.75.74,2.86-.47,5.67-1.12,8.7-2,9.3-1.77,4.33-5.31,11.49Z"/>
      <path class="cls-9" d="M84.7,62.35h-1.88c.16-1.2-.07-4.33-1.4-4.67-4.47.71-8.5,2.66-12.99,2.71l-20.15.23c.89-2,3.53-1.75,5.45-2.77,3.94-2.09,7.69-2.19,11.57.13l9.22-2.98c2.87-.93,5.59-.79,7.82,1.49,1.32,1.35,1.6,3.74,2.36,5.85Z"/>
      <path class="cls-9" d="M24.73,24.09c-.4,9.59,18.58,16.82,26.8,14.21,10.67.59,24.36-2.48,27.98-13.41.44-.03.84.02,1.06.26,3.16,3.49-2.83,19.92-24.18,22.48-1.56.19-2.29,1-3.21,1.27-4.76,1.43-9.88-.29-14.54-1.25-.7-1.21-2.23-1.78-3.74-2.47-8.7-3.99-14.89-14.84-10.17-21.09Z"/>
      <path class="cls-3" d="M30.14,12.32c1.04.01,2.52.47,3.52.04-3.23,3.59-8.29,5.65-8.93,11.73-4.72,6.25,1.47,17.1,10.17,21.09,1.51.69,3.04,1.26,3.74,2.47-5.68-1.17-11.2-2.86-15.82-6.56l-.99-.79c-.31-.24-.55-.59-.87-.81.01-1.02-.19-2.19-.91-3.28-6.08-9.18,2.82-19.83,10.09-23.9Z"/>
      <path class="cls-3" d="M80.29,16.74c-1.07,3,3.37,9.08,5.33,11.02.25,3.97-1.02,9.67-4.58,12.51-7.73,6.15-18.12,8.4-27.85,8.64.91-.27,1.65-1.08,3.21-1.27,21.35-2.56,27.33-18.99,24.18-22.48-.22-.24-.62-.29-1.06-.26.14-.43,0-.98.06-1.43.97.1.78-.84-.1-1.02-1.14-2.63-2.59-6.6-4.97-8.5l.08-.83c2.35.52,3.8,2.3,5.7,3.63Z"/>
      <path class="cls-5" d="M71.71,8.03c-.52.44-1.2.66-1.53,1.4l4.41,3.68-.08.83c-12.29-8.1-27.48-7.3-40.84-1.58-1.01.43-2.48-.03-3.52-.04-.19-.79-.45-1.55-.86-2.25,12.9-6.99,28.73-7.2,42.42-2.04Z"/>
      <path class="cls-9" d="M81.04,40.26c3.56-2.84,4.83-8.54,4.58-12.51,4.15-3.76-2.45-8.99-5.33-11.02-1.89-1.34-3.35-3.11-5.7-3.63l-4.41-3.68c.33-.73,1.01-.96,1.53-1.4,9.57,3.6,20.02,10.18,17.5,22.01-.82,3.83-3.92,8.6-8.17,10.22Z"/>
      <path class="cls-9" d="M30.14,12.32c-7.26,4.07-16.17,14.72-10.09,23.9.72,1.09.92,2.25.91,3.28-7.36-5.2-8.34-15.56-1.97-22.36,3.05-3.26,6.7-5.12,10.29-7.07.41.7.67,1.46.86,2.25Z"/>
      <path class="cls-9" d="M35.4,58.43c-.5.29-.97.45-1.39.57-.58.17-.49,1.32-.31,1.73-3.74-1.06-7.62-1.55-10.95-3.64,1.33-1.98,4.35-2.5,6.63-1.44l6.01,2.79Z"/>
      <path class="cls-9" d="M46.26,63.19c-.04-.78.46-1.26,1.02-1.68.24.91-.54,1.2-1.02,1.68Z"/>
      <path class="cls-9" d="M22.83,41.1l-.99-.79.99.79Z"/>
      <path class="cls-6" d="M103.45,71.88c-.62-.6-1.69-1.44-.67-2.8.85.78.37,1.9.67,2.8Z"/>
      <path class="cls-4" d="M74.5,13.94c2.39,1.89,3.84,5.86,4.97,8.5-.01.34.15.69.1,1.02-.06.45.08,1-.06,1.43-3.62,10.94-17.31,14-27.98,13.41-8.22,2.61-27.2-4.62-26.8-14.21.65-6.08,5.7-8.15,8.93-11.73,13.36-5.72,28.54-6.52,40.84,1.58ZM42.95,19.87l.03-.74c2.16-.37,3.72-2.13,4.95-4.09-3.97-.9-6.4,1.1-8.58,3.05-1.69,1.51-4.37,2.09-3.62,5.54.41,1.87,1.87,3.54,3.77,4.62,6.21,3.53,14.22,4.08,20.52.87,1.76-.9,2.84-.84,4.39-2.32,2.03-1.94,4.23-3.73,2.09-7.63-1.61-2.93-5.64-5.3-8.98-4.88.09,2.1,1.9,3.27,1.43,4.8-1.28,4.14-6.29,6.51-9.87,4.6,1.91-.33,3.07-.74,1.25-1.39-3.55,1.27-5.91-.06-7.38-2.43Z"/>
      <path class="cls-5" d="M85.62,27.75c-1.96-1.94-6.4-8.02-5.33-11.02,2.88,2.03,9.49,7.26,5.33,11.02Z"/>
      <path class="cls-9" d="M79.58,23.46c.05-.33-.12-.68-.1-1.02.89.18,1.08,1.12.1,1.02Z"/>
      <path class="cls-9" d="M64.42,26.8c.16-2.34.03-4.73-2.44-6.87-.19,3.17-2.13,6.02-1.95,9.19-6.3,3.21-14.31,2.65-20.52-.87-.55-3.08,3.24-3.03,3.45-8.38,1.47,2.37,3.83,3.7,7.38,2.43,1.82.65.66,1.06-1.25,1.39,3.58,1.91,8.6-.46,9.87-4.6.47-1.53-1.34-2.7-1.43-4.8,3.34-.42,7.37,1.95,8.98,4.88,2.14,3.9-.05,5.69-2.09,7.63Z"/>
      <path class="cls-3" d="M39.35,18.09c.18.61-.45.82-.42,1.96,1.34-1.45,2.77-.69,4.06-.91l-.03.74c-.21,5.34-4,5.3-3.45,8.38-1.9-1.08-3.36-2.74-3.77-4.62-.76-3.46,1.93-4.04,3.62-5.54Z"/>
      <path class="cls-3" d="M64.42,26.8c-1.55,1.48-2.63,1.42-4.39,2.32-.18-3.16,1.76-6.02,1.95-9.19,2.47,2.14,2.6,4.54,2.44,6.87Z"/>
      <path class="cls-9" d="M42.98,19.13c-1.29.22-2.71-.54-4.06.91-.03-1.13.6-1.35.42-1.96,2.18-1.95,4.61-3.95,8.58-3.05-1.23,1.96-2.79,3.72-4.95,4.09Z"/>
    </g>
  </g>
</svg>