<?xml version="1.0" encoding="UTF-8"?>
<svg id="Capa_2" data-name="Capa 2" xmlns="http://www.w3.org/2000/svg" viewBox="0 0 143.69 120.09">
  <defs>
    <style>
      .cls-1 {
        fill: #b46a27;
      }

      .cls-2 {
        fill: #4c4b2d;
      }

      .cls-3 {
        fill: #3b3923;
      }

      .cls-4 {
        fill: #f0d09f;
      }

      .cls-5 {
        fill: #e3ba87;
      }

      .cls-6 {
        fill: #6a3e1f;
      }

      .cls-7 {
        fill: #d28a38;
      }

      .cls-8 {
        fill: #c47930;
      }

      .cls-9 {
        fill: #e2a966;
      }

      .cls-10 {
        fill: #944f1d;
      }
    </style>
  </defs>
  <g id="Elementos">
    <g>
      <path class="cls-4" d="M87.36.85c0,1.9,1.02,3.32,2.28,5.54-2.1-.73-5.51.4-4.97,2.89.38,1.75,3.53,1.2,4.73,2.36,2.22,2.14,3.82,8.1.68,9.46-1.02.44-2.61-1.6-3.35-1.49-.96.14-1.82.75-2.3,1.91-1.39,3.4,3.01,3.11,6.97,7.47,1.78-1.97,3.88-2.95,5.31-4.92-2.07-.4-2.9,1.25-3.99.67-3.79-2,1.53-5.03,1.49-12.14,1.75,2.93.55,5.87,1.17,9.28,3.48-2.33.04-9.52,1.18-13.41l4.25-2.11c5.15,1.71,8.84,5.47,12.53,9.11,2.6,2.56,3.36,5.03,4.11,8.1-3.54.46-7,.04-10.82-.47-2.49.57-2.57,5.09-2.61,7.23-.94,1.31-2.82.66-3.79,1.45-1.91,1.91-3.51,3.54-6.48,3.78-.35,11.98,4.33,4.56,1.91,12.75,2.13,1.54,4.68,3,5,6.39-1.2,1.28-3.05.53-4.75.83-.85.15-1.45,1.29-2.18,1.22-.64-.07-1.58-1.5-2.32-1.41-2.27.28-3.81,2-6.32,1.8-.33,3.93-4.78,9.17-2.35,11.23,2.63,2.23.51-4.27,7.94-1.65-.8,1.72-1.43,3.57.19,4.04.54.16,1.22-.45,1.54-.58.51-.2,1.15.98,1.82.98,3.55-.04,2.89-5.39,4.35-7.14,2.48-1.7,6.23-2.46,6.45-7.19,1.95.15,3,.67,4.23.94-.04.61-.07,1.22-.07,1.83-4.98,6.08-15.62,19.33-19.29,25.55-.46.78-.9,1.09-1.65,1.54-.89.54-1.5,1.6-2.64,1.77-.82-.58-1.93-1.19-2.91-.86-2.07.7-1.19,5.38-3.42,4.12-.58-.33-.84-1.09-1.25-1.87l-1-1.9c-.21-.4-1.8-.51-1.9.19-.97,6.23-2.57,12.15-3.93,18.11-3.35,6.56-18.69,13.75-25.31,10.06.64-.38.82-2,1.47-2.27,1.06-.45,2.34.18,2.94.61,3.67,2.59,5.25.3,7.7-1.26,4.29-2.71,8.58-5.2,10.57-9.82.47-1.09,2.08-1.87,1.84-3.39-.04-.27.1-.6.02-.85,3.92-3.11,2.87-23.87-.9-26.33.09-.21,0-.54.02-.77.14-2.92-1.01-6.24-2.79-8.7.11-1.49-.17-3.06-.74-4.78-4.36-13.06-3.86-26.82-12.84-38.4,2.45-2.04,5.2-3.75,7.06-6.05,1.86,1.11,11.1-4,9.56-6.5-.21-.34-.58-.64-1.1-.84,4.79-4.97,11.67-8.68,18.68-6.1ZM71.51,19.92c-2.2-.32-4.71-.28-6.04,1.65,2.15,1.81,4.57.48,6.04-1.65ZM69.44,39.11c-.85.94-1.06,2.24-.96,3.47-.7-.44-2.23,0-2.94-.29-1.1-.46-1.48,2.6-.54,2.9,2.74.88,5.11,1.41,6.87,4.6,2.09-1.88,1.19-3.66,1.61-5.37,1.61.66,2.78,2.49,4.59,2.2,1.58-.25,2.75-1.65,4.41-2.24,1.13,1.93,1.79,4.08,3.11,4.52,1.24.41,4.67,1.11,5.2-.21,2.7-6.71-2.04-14.99-5.2-13.16-.89.52-.92,1.79-1.64,2.91l-2.8-2.36c-1.37.84-2.21,3.86-4.04,3.56-2.37-.39-4.36-2.14-6.63-1.46.43-1.09.01-2.17-.98-3.07-.5-.46-1.99-.87-2.56.67-.62,1.7,1.67,2.49,2.49,3.33ZM76.94,62.83c2.01-1.8,1.25-4.07.46-5.81-.44-.98-1.51-2.23-3.64-1.75.34,2.74,1.22,5.23,3.18,7.56Z"/>
      <path class="cls-2" d="M56.6,56.15c.56.19,1.52.96,1.92,1.39.29,1.12,1.45,1.86,1.59,3.28-2.3,2.62-3.29,5.92-2.6,8.95,2.25-1.91,3.89-3.92,6.1-2.63,1.46.85,1.37,3.1,1.92,4.64,1.42,0,2.78.02,3.99.43-.01.23.07.56-.02.77-1.72,4.01-.77,8.65,1.31,12.67l-2.31,6.99,1.9,6.68c.07.25-.07.58-.02.85-1.04-.18-1.9.46-2.32,1.58-.2.54-.87,1.77.48,1.81-1.99,4.62-6.28,7.11-10.57,9.82-2.46,1.56-4.03,3.85-7.7,1.26-.6-.43-1.88-1.06-2.94-.61-.65.28-.83,1.89-1.47,2.27-3.79,1.8-7.73,4.67-12.4,3.54-2.61-.63-4.14-3.76-5.84-5.58-1.13-1.21-.33-4.57-2.36-5.52-.87-3.13.29-6.14,3.16-8.04l4.42-2.93c3.78,2.93,8.29,3.46,12.9,2.35,1.19,1.85.53,3.96,2.56,6.31,1.65-2.99,3.82-5.17,4.24-7.98,4.67-.47,5.09-4.48,8.88-3.71-.14-5.21.67-9.96,1.75-15.09.64-3.05-6.36.46-8,.33-1.96-.16-4.05-.26-5.76-1.81-4.69-4.26,1.15-9.04,3.28-13.78-2.8-1.64-4.38,1.26-6.26,1.92-2.5.88-3.09,2.72-4.34,6.3-2.05-2.34-1.81-4.82-2.48-7.19,1.75-1.54,2.57-6.98,1.19-8.5-3.6-2-7.68,2.14-9.75,4.34-1.65,1.69-4.82,2.41-5.86,4.99-.39.97-1.05,1.84-1.76,2.6-1.12.02-3.4-.81-4.53.35-2.82,2.9-4.13,6.89-3.79,10.55-.43.27-.16.59-.11.92l.03,3.45c-1.37.65-3.47.3-4.03,2.33,2.05-.25,3.45-1.34,5.04-.65.36.69,1.24,1.08,1.66,1.73.64,6.08-4.94,7.26-5.3,9.32-.97,5.46,8.27-3.02,10.97-.59.62,1.85-1.14,2.58-1.2,3.84-.12,2.28-.31,4.56-.22,6.85-1.37-.49-2.86.86-4.14.92-2.15.1-4.36-.69-6.91-.79-4.43-.17-7.31-4.04-6.24-8.3.4-1.6.27-3.29.47-4.48.16-.97,1.83-2.81,1.11-3.88-11.47-11.68,3.39-14.19-3.78-20.59.57-1.28,1.05-3.76,2.56-4.5,2.33-1.14,4.79-2.21,7.3-2.74,1.39-.29,3.2-6.92,8.73-6.26,2.46.29,3.2-1.37,4.76-2.17,3.36-1.73,7.57.03,11.24-.92,2.58-.67,5.41-2.95,7.96-.75,1.53,1.31,1.29,3.42,2.93,5.65,1.89-3.82,5.74-2.62,8.67-1.99Z"/>
      <path class="cls-5" d="M117.45,23.56c.44,1.79,2.71,3.2,2.44,6.09s-.01,6.07.39,8.78c-2.35,3.63-6.13,17.25-11.03,19.32-1.23-.27-2.27-.79-4.23-.94-.22,4.73-3.97,5.48-6.45,7.19-1.47,1.75-.8,7.1-4.35,7.14-.67,0-1.31-1.17-1.82-.98-.33.13-1.01.74-1.54.58-1.62-.47-.99-2.32-.19-4.04-7.42-2.62-5.3,3.89-7.94,1.65-2.43-2.06,2.02-7.3,2.35-11.23,2.51.2,4.06-1.52,6.32-1.8.74-.09,1.68,1.35,2.32,1.41.73.08,1.33-1.07,2.18-1.22,1.7-.3,3.55.45,4.75-.83-.32-3.39-2.86-4.85-5-6.39,2.42-8.19-2.26-.77-1.91-12.75,2.97-.24,4.56-1.87,6.48-3.78.97-.8,2.86-.15,3.79-1.45.04-2.14.12-6.66,2.61-7.23,3.81.52,7.28.93,10.82.47Z"/>
      <path class="cls-4" d="M45.5,48.49l-15.19,1.43c-4.06.38-22.8,5.9-18.01,12.66-2.51.52-4.97,1.6-7.3,2.74.69-5.74,9.7-12.07,11.87-14.18.72,1.69,2.27-.6,3.42-.84,5.66-1.19,11.01-1.62,16.58-4.23-2.56-1.63-4.61-3.14-4.87-5.85,3.94-1.12,6.63-3.1,9.4-5.51,2.5-2.17,10.81,1.5,10.65-4.47-3.19-2.15-9.98,4.22-11.57,1.27.84-1.38,2.25-3.77,4.26-4.14,4.81-.89,7.54-3.42,9.35.63,2.56,5.75,5.16,11.16,5.86,17.65l-14.43,2.86Z"/>
      <path class="cls-3" d="M129.63,46.78c-6.55,4.51-7.14,6.59-11.49,15.51,2.04-.82,3.73-2.35,4.68-3.72,1.49,1.95,4.07,2.06,6.38.45,1.21-.81,2.8-.44,1.29.89-2.66,1.28-6.24,1.97-7.49,4.77-.74,1.66,2.26,2.27,3.23,2.55l-8.55-.49c-4.84-.28-8.03,6.46-10.87,9.52,2.17-.54,4.04-1.22,5.03-1.73,2.43,4.4,7.66,1.21,10.26,3.32-5.05.92-9.34.1-14.4,1.57l5.78,4.68c-8.51-2.12-6.34-7.22-13.83-2.2-3.5,2.35-6.09,5.14-9.98,7.05-.71-.67-.95-1.63-1.44-2.28.74-.45,1.19-.76,1.65-1.54,7.11-3.35,14.06-8.43,18.78-15.25,2.07-2.98.51-7.27.5-10.3,0-.61.03-1.22.07-1.83,4.9-2.07,8.68-15.7,11.03-19.32,1.02,6.95-1.04,13.77-3.24,20.29,10.81-11.14,3.44-14.59,7.43-23.77,1.73.58-1.31,9.77.51,11.95l8.46-17.51c-.74,6.57-4.84,11.32-6.32,17.12,1.22.69,3.18-1.26,2.52.28ZM114.48,62.91c1.45-.72,1.92-2.2,2.14-3.4-1.38,1.12-2.69,1.65-2.14,3.4ZM116.05,64.11c1.82.76,2.39-.23,2.4-1.33-.85.82-1.72.81-2.4,1.33Z"/>
      <path class="cls-2" d="M129.63,46.78c.67-1.55-1.3.4-2.52-.28,1.49-5.79,5.58-10.54,6.32-17.12l-8.46,17.51c-1.82-2.19,1.21-11.37-.51-11.95.86-1.97.55-4.29,2.37-6.39,3.34-3.88,6.93-7.5,12.31-9.38,1.7,11.79-.07,21.1-9.51,27.61Z"/>
      <path class="cls-2" d="M113.49,84.1l-5.78-4.68c5.05-1.47,9.35-.65,14.4-1.57-2.6-2.11-7.83,1.08-10.26-3.32,5.53-5.08,15.84-3.31,22.64,2.2-5.2,6.08-13.55,9.85-21,7.38Z"/>
      <path class="cls-2" d="M126.23,67.22c-.97-.27-3.96-.89-3.23-2.55,1.25-2.8,4.82-3.49,7.49-4.77,1.5-1.32-.08-1.69-1.29-.89-2.31,1.61-4.89,1.5-6.38-.45,4.47-6.45,13.2-8.32,20.87-5.66-3.4,7.83-9.6,14.76-17.46,14.32ZM133.53,58.18c0-.3-.24-.54-.54-.54s-.54.24-.54.54.24.54.54.54.54-.24.54-.54Z"/>
      <path class="cls-9" d="M53.16,20.33c8.98,11.57,8.48,25.33,12.84,38.4.57,1.71.85,3.28.74,4.78-1.02-1.41-3.91-1.85-4.24-4l-2.15-9.68c-4.12-.47-8.36-.11-12.07.91-.93-.63-3.47-.4-2.77-2.24l14.43-2.86c-.7-6.5-3.29-11.9-5.86-17.65-1.8-4.04-4.53-1.52-9.35-.63l8.42-7.03Z"/>
      <path class="cls-5" d="M16.87,51.14c7.13-6.97,15.47-14.03,23.61-19.64,1.59,2.94,8.37-3.42,11.57-1.27.17,5.97-8.15,2.3-10.65,4.47-2.77,2.41-5.46,4.39-9.4,5.51.26,2.72,2.31,4.23,4.87,5.85-5.57,2.61-10.92,3.04-16.58,4.23-1.15.24-2.7,2.53-3.42.84Z"/>
      <path class="cls-9" d="M96.55,8.46c-1.15,3.89,2.3,11.08-1.18,13.41-.62-3.4.58-6.35-1.17-9.28.04,7.11-5.28,10.14-1.49,12.14,1.1.58,1.92-1.07,3.99-.67-1.43,1.97-3.53,2.95-5.31,4.92-3.95-4.36-8.36-4.07-6.97-7.47.48-1.16,1.34-1.77,2.3-1.91.73-.11,2.33,1.93,3.35,1.49,3.14-1.36,1.54-7.32-.68-9.46-1.2-1.16-4.35-.6-4.73-2.36-.54-2.49,2.87-3.63,4.97-2.89-1.26-2.22-2.28-3.64-2.28-5.54,2.5.92,3.79-1.44,9.19,7.61Z"/>
      <path class="cls-5" d="M85.6,88.44c-4.06,6.42-9.01,12.47-14.42,17.79,1.36-5.96,2.97-11.88,3.93-18.11.11-.7,1.7-.59,1.9-.19l1,1.9c.41.77.67,1.54,1.25,1.87,2.23,1.26,1.35-3.42,3.42-4.12.98-.33,2.09.28,2.91.86Z"/>
      <path class="cls-5" d="M5.12,94.29c.31-2.1-2.28-2.8-3.16-4.58-3.12-6.25-2.17-13.9.49-19.9,7.17,6.4-7.69,8.91,3.78,20.59.72,1.07-.95,2.91-1.11,3.88Z"/>
      <path class="cls-9" d="M21.95,106.94c1.15.41,2.21,1.27,3.32,1.79,2.03.95,1.24,4.32,2.36,5.52-2.83-1.14-9.73-2.91-9.82-6.4,1.28-.06,2.77-1.4,4.14-.92Z"/>
      <path class="cls-9" d="M60.22,14.28c2.43-3,5.86-4.65,8.46-7.34.52.2.89.49,1.1.84,1.55,2.51-7.7,7.61-9.56,6.5Z"/>
      <path class="cls-5" d="M73.48,44.42c-1.67-.68-3.44-.86-4.99-1.84-.11-1.23.11-2.53.96-3.47.29-.33.86-.48,1.04-.93,2.27-.68,4.26,1.07,6.63,1.46,1.82.3,2.67-2.72,4.04-3.56l2.8,2.36c.72-1.12.74-2.39,1.64-2.91,3.16-1.83,7.9,6.45,5.2,13.16-.53,1.32-3.96.62-5.2.21-1.32-.44-1.98-2.59-3.11-4.52-1.66.59-2.84,1.99-4.41,2.24-1.81.29-2.98-1.55-4.59-2.2Z"/>
      <path class="cls-3" d="M62.5,59.5c.33,2.15,3.22,2.59,4.24,4,1.78,2.47,2.92,5.79,2.79,8.7-1.21-.42-2.57-.43-3.99-.43-.55-1.54-.46-3.8-1.92-4.64-2.22-1.29-3.86.72-6.1,2.63-.69-3.02.29-6.32,2.6-8.95-.13-1.41-1.3-2.16-1.59-3.28,1.04,1.11,2.65,1.79,3.98,1.97Z"/>
      <path class="cls-3" d="M70.41,99.31l-1.9-6.68,2.31-6.99c-2.08-4.02-3.03-8.66-1.31-12.67,3.77,2.46,4.82,23.22.9,26.33Z"/>
      <path class="cls-9" d="M68.48,42.58c1.56.98,3.32,1.16,4.99,1.84-.42,1.71.48,3.49-1.61,5.37-1.76-3.19-4.12-3.72-6.87-4.6-.94-.3-.56-3.36.54-2.9.71.3,2.24-.15,2.94.29Z"/>
      <path class="cls-8" d="M76.94,62.83c-1.96-2.33-2.84-4.82-3.18-7.56,2.13-.48,3.2.77,3.64,1.75.78,1.74,1.55,4.01-.46,5.81Z"/>
      <path class="cls-9" d="M71.51,19.92c-1.46,2.13-3.88,3.46-6.04,1.65,1.32-1.93,3.84-1.96,6.04-1.65Z"/>
      <path class="cls-9" d="M70.48,38.18c-.18.45-.75.6-1.04.93-.82-.84-3.11-1.63-2.49-3.33.56-1.54,2.05-1.13,2.56-.67.99.9,1.41,1.98.98,3.07Z"/>
      <path class="cls-3" d="M70.38,100.16c.24,1.52-1.37,2.3-1.84,3.39-1.35-.04-.69-1.27-.48-1.81.42-1.12,1.28-1.76,2.32-1.58Z"/>
      <path class="cls-9" d="M55.14,80.74c-2.04,3.26-1.28,7.41-3.31,10.56l-3.54,5.52c-.53.82-3.06,1.7-2.55,3.28-4.61,1.12-9.12.59-12.9-2.35.16-1.23-.78-2.38-.82-3.54-.08-2.15.84-4.2,1.91-6l11.34-7.77c2.92-2,6.81.21,9.87.3Z"/>
      <path class="cls-9" d="M28.54,74.93c3.86,2.3,6.82-2.11,12.85-.06.26.68.62,1.41.65,2.1.05,1.1-1.35,1.28-2.17,2.02l-12.15,10.97c-2.16-.79-4.73-2.77-5.77-5.08-1.97-4.38,1.34-12.5,1.48-16.05.71-.76,1.37-1.63,1.76-2.6,2.27-1.78-2.34,5.3,3.35,8.69ZM25.17,76.08c.1,1.36.9,1.46,1.4,1.19.46-.25.66-.79.43-1.26s-.95-.94-1.83.07Z"/>
      <path class="cls-10" d="M52.55,98.43l-4.25-1.61,3.54-5.52c2.02-3.16,1.27-7.3,3.31-10.56l.03-.78c1.64.13,8.64-3.38,8-.33-1.07,5.13-1.89,9.88-1.75,15.09-3.79-.78-4.21,3.24-8.88,3.71Z"/>
      <path class="cls-3" d="M45.5,48.49c-.7,1.84,1.84,1.61,2.77,2.24,2.75,1.86,6.17,2.9,8.32,5.41-2.94-.63-6.79-1.83-8.67,1.99-1.64-2.23-1.4-4.34-2.93-5.65-2.55-2.2-5.38.08-7.96.75-3.68.95-7.89-.8-11.24.92-1.55.8-2.3,2.46-4.76,2.17-5.53-.66-7.34,5.97-8.73,6.26-4.79-6.76,13.95-12.28,18.01-12.66l15.19-1.43Z"/>
      <path class="cls-1" d="M55.17,79.97l-.03.78c-3.06-.09-6.96-2.3-9.87-.3l-11.34,7.77c-1.58-1.31-1.47,2.18-4.87,2.79-.6.11-.97-.64-1.34-1.04l12.15-10.97c.82-.74,2.21-.93,2.17-2.02-.03-.7-.39-1.42-.65-2.1,3.13-1.71,4.19-5.23,5.05-8.56,1.88-.66,3.46-3.56,6.26-1.92-2.12,4.74-7.97,9.52-3.28,13.78,1.7,1.55,3.79,1.66,5.76,1.81Z"/>
      <path class="cls-3" d="M27.72,89.96c.37.4.74,1.15,1.34,1.04,3.39-.61,3.29-4.1,4.87-2.79-1.07,1.81-1.99,3.85-1.91,6l-9.85,5.88c.06-1.27,1.82-1.99,1.2-3.84-2.71-2.43-11.94,6.05-10.97.59.37-2.07,5.95-3.24,5.3-9.32,1.83.03,3.26-1.17,4.25-2.63,1.04,2.31,3.61,4.29,5.77,5.08Z"/>
      <path class="cls-6" d="M23.43,68.83c-.14,3.55-3.46,11.67-1.48,16.05-.99,1.46-2.42,2.67-4.25,2.63-.43-.65-1.31-1.04-1.66-1.73-.28-.54-.55-1.3-1.01-1.68l-.03-3.45.11-.92c-.34-3.66.97-7.65,3.79-10.55,1.13-1.16,3.41-.33,4.53-.35Z"/>
      <path class="cls-10" d="M39.6,65.41c-2.44,2.14-5.83,4.2-8.84,3.55-.28-2.6-.22-5.08.28-7.71,2.07-2.2,6.15-6.35,9.75-4.34,1.37,1.52.56,6.96-1.19,8.5Z"/>
      <path class="cls-8" d="M46.43,66.3c-.86,3.33-1.91,6.86-5.05,8.56-6.04-2.04-8.99,2.37-12.85.06,1.24-1.45,2.45-3.91,2.23-5.97,3,.65,6.4-1.4,8.84-3.55.68,2.37.44,4.85,2.48,7.19,1.26-3.58,1.85-5.42,4.34-6.3Z"/>
      <path class="cls-4" d="M62.5,59.5c-1.33-.17-2.94-.85-3.98-1.97-.4-.43-1.36-1.21-1.92-1.39-2.15-2.51-5.57-3.55-8.32-5.41,3.72-1.02,7.95-1.38,12.07-.91l2.15,9.68Z"/>
      <path class="cls-6" d="M32.02,94.22c.04,1.16.98,2.32.82,3.54l-4.42,2.93c-2.87,1.9-4.03,4.91-3.16,8.04-1.11-.52-2.17-1.38-3.32-1.79-.09-2.28.11-4.57.22-6.85l9.85-5.88Z"/>
      <path class="cls-7" d="M31.05,61.24c-.5,2.63-.56,5.11-.28,7.71.22,2.06-1,4.52-2.23,5.97-5.69-3.4-1.07-10.47-3.35-8.69,1.04-2.58,4.21-3.3,5.86-4.99Z"/>
      <path class="cls-6" d="M52.55,98.43c-.41,2.81-2.58,4.99-4.24,7.98-2.04-2.35-1.37-4.45-2.56-6.31-.51-1.58,2.02-2.46,2.55-3.28l4.25,1.61Z"/>
      <path class="cls-3" d="M15.03,84.1c.46.38.73,1.14,1.01,1.68-1.58-.7-2.99.4-5.04.65.56-2.03,2.66-1.68,4.03-2.33Z"/>
      <path class="cls-3" d="M15,80.65c-.05-.34-.32-.65.11-.92l-.11.92Z"/>
      <circle class="cls-3" cx="133" cy="58.18" r=".54"/>
      <path class="cls-7" d="M25.17,76.08c.88-1.01,1.6-.56,1.83-.07s.03,1.02-.43,1.26c-.5.27-1.3.17-1.4-1.19Z"/>
    </g>
  </g>
</svg>