<?xml version="1.0" encoding="UTF-8"?>
<svg id="Capa_2" data-name="Capa 2" xmlns="http://www.w3.org/2000/svg" viewBox="0 0 107.82 120.85">
  <defs>
    <style>
      .cls-1 {
        fill: #4c4b2d;
      }

      .cls-2 {
        fill: #f0d09f;
      }

      .cls-3 {
        fill: #e3ba87;
      }

      .cls-4 {
        fill: #d28a38;
      }

      .cls-5 {
        fill: #c47930;
      }

      .cls-6 {
        fill: #f6eddf;
      }

      .cls-7 {
        fill: #bca16f;
      }

      .cls-8 {
        fill: #e2a966;
      }

      .cls-9 {
        fill: #944f1d;
      }
    </style>
  </defs>
  <g id="Elementos">
    <g>
      <path class="cls-7" d="M72.16,20.73l-.57,15.55c7.64-.79,14.7,2.73,16.9,10.25,2.59,8.86.72,18.98-4.6,26.46-1.21,1.7-2.63,2.72-2.45,4.59-.32-.4-.73-.74-1.03-1.17,4.79-9.31,12.16-25.88,2.36-35.06-2.66-2.49-6.89-3.59-10.81-3.05-1.57.22-1.42,5.43.08,5.39,5.78-.15,10.4,2.25,11.01,8.54.49,5.01-.77,10.99-3.56,15.45-2.77,4.43-7.35,7.11-11.12,10.24-2.23,1.85-.79,5.19-1.27,7.23s-1.39,4.24-1.7,6.84l-2.49,21.01c-.24,1.26-2.18,1.68-1.91,3.07-7.93,2.83-15.53,5.23-24.43,4.72-7.42-.43-14.62-.85-21.27-4.54-2.2-1.22-5.15-2.95-5.47-6.02L1.35,28.87l2.97.28c-.49,6.55,1.71,12.98,2.04,19.47.61,11.92,1.98,23.82,3.87,35.61,1.31,8.19-2.3,19.94,9.74,23.67,10.82,3.36,34.03,5.45,39.97-5.1,2.97-5.28,2.07-12.1,2.94-17.66,1.84-11.85,3.13-23.86,3.92-35.81.45-6.75,1.97-13.44,1.91-20.23,0-.49-.05-1.2.12-1.65.83-2.21.64-4.6,1.1-6.89l2.22.18ZM77.29,46.56c-1.48-.96-6.17-2.18-6.62.34-1.61,9.19-2.39,18.22-2.39,27.37,10.89-2.46,17.2-22.42,9.01-27.71ZM12.79,108.2c-.06,3.52,1.62,5.11,4.01,6.28,12.36,6.02,26.98,6.21,39.44.53,3.54-1.61,5.23-5.1,3.87-8.73-12.83,7.69-26.77,7.21-40.77,2.92-2.17-.66-4.29-.99-6.55-.99Z"/>
      <path class="cls-1" d="M94.32,86.87c1.1.75,2.5.26,4.19.64,7.3,1.66-6.35,1.24-4.24,4.94-7.35-1.59-13.47,6.03-18.04,12.04,2.5.42,5.65-.04,7.03-1.74-.28.72.05,1.33.53,1.55.78.36,1.72-.14,2.81,1.06-.96,1.01-3,1.06-4.25,1.61-3.41.37-7.52-.35-10.45,2.29l-8.6,7.76c-.78.71-1.88-.54-2.3-.96-.27-1.39,1.67-1.81,1.91-3.07,5.08-2.92,10.14-7.13,12.41-12.95.99-2.54,2.61-6.48.6-8.32,1.45-.7,1.46-2.5,2.52-3.82.74,1.32.99,2.67,2.15,3.14-1.49,1.56-2.59,5.1-1.94,7.42,4.17-5.71,11.28-12.53,12.1-20.1-.94-11.88,3.04-23.59,16.68-25.82.88,5.66.32,11.44-2.06,16.52-2.42,5.17-7.32,7.19-11.46,10.65-3.24,2.71-4.45,7.5-6.75,11.18,2.98-.55,5.58-2.14,7.16-4.03Z"/>
      <path class="cls-3" d="M72.16,20.73l-2.22-.18c-.11-.37-.2-.76-.42-1.11-.37-.59-1.03-.26-1.72.11-15.98,8.55-47.83,7.6-64.06-.74-1.2,2.76-.17,8.28,3.11,9.09l.02,1.11c-.37-.29-.81-.54-1.32-.59-.48-.05-.86.61-1.22.72l-2.97-.28C.04,16.26-2.86,8.72,8.06,4.85,25.68-1.38,45.32-1.65,63.02,4.28c3.85,1.29,7.47,3.49,9.16,6.75,1.72,3.31.09,6.69-.02,9.7ZM63.07,18l2.17-.8c1.79-.66,5.01-2.12,4.17-4.71C66.17,2.47,26.33-1.89,6.21,8.77c-1.66.88-2.97,2.21-3.02,3.8-.05,1.81,1.34,3.44,3.2,4.49,14.11,7.99,42.39,8.47,56.68.94Z"/>
      <path class="cls-9" d="M80.42,76.41c.3.42.71.76,1.03,1.17,3.17,3.99,2.51,9.93-.85,13.47-1.17-.47-1.41-1.83-2.15-3.14-1.06,1.32-1.07,3.11-2.52,3.82-2.19-2.01-3.13-5.17-2.82-8.35.22-2.28,1.48-5.24,3.13-6.98,1.24-1.3,3.05.03,4.18.02Z"/>
      <path class="cls-9" d="M94.27,92.45c-2.12-3.7,11.53-3.28,4.24-4.94-1.7-.39-3.09.11-4.19-.64,1.79-2.13,2.45-4.52,5.53-5.21,2.48-.55,6.51-.44,7.73,2.97,1.03,2.87-2.54,5.76-4.48,7.11-2.62,1.81-5.91,1.35-8.83.72Z"/>
      <path class="cls-9" d="M82.35,106.97c1.25-.55,3.29-.6,4.25-1.61-1.09-1.2-2.03-.7-2.81-1.06-.48-.22-.81-.83-.53-1.55,1.66-2.04,3.38-3.39,6.35-3.05,2.3.27,5.29,1.22,5.76,4.36.5,3.36-2.83,5.44-5.22,5.91-3.36.66-6.57-.01-7.8-2.99Z"/>
      <path class="cls-5" d="M66.81,49.33c-.8,11.95-2.08,23.96-3.92,35.81-10.4,4.82-21.58,6.97-32.99,5.93-.59-.05-1.3.06-1.87-.1-2.67-.77-5.25-1.63-7.8-2.69.44-10.61-1.18-19.69-1.53-32.06-.03-1.13-.46-1.98-.77-2.66,18.26,2.99,31.58,3.88,48.88-4.24Z"/>
      <path class="cls-2" d="M6.87,29.02c3.39,2.67,7.69,3.69,12.07,4.87,15.83,4.27,35.7,1.98,49.78-4.8.06,6.79-1.46,13.48-1.91,20.23-17.3,8.11-30.62,7.23-48.88,4.24-.81-.96-2.41-.87-3.45-1.34-2.69-1.22-5.29-2.7-8.11-3.6-.33-6.5-2.53-12.92-2.04-19.47.36-.1.74-.76,1.22-.72.51.05.95.3,1.32.59Z"/>
      <path class="cls-2" d="M17.07,86.86c.76.63,2.2,1.03,3.16,1.43,2.55,1.06,5.13,1.92,7.8,2.69-4.49,8.82-.14,8.51-3.66,12.44-.68.76-.25,2.6.25,3.28,2.36,3.18,6.42-3.69,9.55-4.84,1.13,1.18,2.38,4.6,3.87,3.47l4.06-3.07c.87-2.59-1.18-5.88.37-9.22-1.16-1.66-12.95,1.14-12.57-1.95,11.41,1.04,22.6-1.12,32.99-5.93-.87,5.57.03,12.38-2.94,17.66-5.94,10.55-29.15,8.46-39.97,5.1-12.04-3.74-8.43-15.49-9.74-23.67,2.13.71,4.73,2.26,6.84,2.63Z"/>
      <path class="cls-6" d="M69.94,20.56c-.46,2.29-.27,4.67-1.1,6.89-1.51.87-3.34-.66-5.06-.46-5.96.71-15.7,11.11-42.32,4.54l-14.61-3.61c-3.28-.81-4.31-6.33-3.11-9.09,16.23,8.34,48.09,9.29,64.06.74.7-.37,1.36-.7,1.72-.11.21.34.31.74.42,1.11Z"/>
      <path class="cls-6" d="M12.79,108.2c2.26,0,4.38.33,6.55.99,14,4.29,27.94,4.77,40.77-2.92,1.36,3.63-.33,7.12-3.87,8.73-12.46,5.68-27.08,5.49-39.44-.53-2.39-1.16-4.07-2.76-4.01-6.28Z"/>
      <path class="cls-2" d="M80.42,76.41c-1.13.01-2.95-1.32-4.18-.02-1.66,1.74-2.91,4.7-3.13,6.98-2.02.57-3.88,1.66-6,1.77.48-2.03-.95-5.38,1.27-7.23,3.77-3.13,8.36-5.81,11.12-10.24,2.79-4.46,4.05-10.44,3.56-15.45-.61-6.3-5.23-8.7-11.01-8.54-1.5.04-1.66-5.17-.08-5.39,3.92-.54,8.15.56,10.81,3.05,9.8,9.18,2.44,25.75-2.36,35.06Z"/>
      <path class="cls-5" d="M14.48,52.22c-.43,2.58.02,5.28.28,8.25l2.31,26.39c-2.11-.36-4.7-1.92-6.84-2.63-1.89-11.79-3.26-23.69-3.87-35.61,2.82.9,5.43,2.38,8.11,3.6Z"/>
      <path class="cls-8" d="M68.84,27.44c-.17.46-.12,1.16-.12,1.65-14.08,6.78-33.95,9.07-49.78,4.8-4.38-1.18-8.69-2.21-12.07-4.87l-.02-1.11,14.61,3.61c26.62,6.58,36.36-3.83,42.32-4.54,1.71-.2,3.55,1.33,5.06.46Z"/>
      <path class="cls-6" d="M65.24,17.2c-.85-4.04-27.85-10.95-29.9-7.99l-3.21,4.64c1.45,2.16,3.18.42,5.36.49,1.72.05,1.35-2.51,2.82-3.59,2.48-1.82,21.44,2.91,22.77,7.24-14.29,7.53-42.57,7.05-56.68-.94-1.85-1.05-3.25-2.67-3.2-4.49.04-1.6,1.35-2.92,3.02-3.8,20.12-10.66,59.96-6.3,63.2,3.72.84,2.6-2.38,4.06-4.17,4.71Z"/>
      <path class="cls-2" d="M65.24,17.2l-2.17.8c-1.33-4.33-20.29-9.06-22.77-7.24-1.47,1.08-1.09,3.64-2.82,3.59-2.18-.07-3.91,1.68-5.36-.49l3.21-4.64c2.05-2.97,29.04,3.95,29.9,7.99Z"/>
      <path class="cls-3" d="M29.9,91.08c-.38,3.09,11.41.29,12.57,1.95-1.55,3.34.5,6.63-.37,9.22l-4.06,3.07c-1.49,1.13-2.74-2.29-3.87-3.47-3.14,1.15-7.19,8.02-9.55,4.84-.5-.68-.93-2.51-.25-3.28,3.52-3.93-.83-3.62,3.66-12.44.57.16,1.27.05,1.87.1Z"/>
      <path class="cls-4" d="M17.93,53.57c.31.68.74,1.53.77,2.66.35,12.37,1.97,21.45,1.53,32.06-.95-.4-2.4-.79-3.16-1.43l-2.31-26.39c-.26-2.96-.7-5.67-.28-8.25,1.04.47,2.64.39,3.45,1.34Z"/>
    </g>
  </g>
</svg>