<?xml version="1.0" encoding="UTF-8"?>
<svg id="Capa_2" data-name="Capa 2" xmlns="http://www.w3.org/2000/svg" viewBox="0 0 147.34 113.06">
  <defs>
    <style>
      .cls-1 {
        fill: #4c4b2d;
      }

      .cls-2 {
        fill: #3b3923;
      }

      .cls-3 {
        fill: #e3ba87;
      }

      .cls-4 {
        fill: #d28a38;
      }

      .cls-5 {
        fill: #bca16f;
      }

      .cls-6 {
        fill: #e2a966;
      }

      .cls-7 {
        fill: #96804b;
      }
    </style>
  </defs>
  <g id="Elementos">
    <g>
      <path class="cls-6" d="M119.75,45.66c-.18,3.28,0,6.59-.71,9.89-.43,1.98-.92,3.96-1.22,5.97-.37,2.39-1.62,4.55-1.78,6.92-3.77,6.09-2.79,9.19-7.72,14.37-.41-.54-.91-2.79-2.19-2.21-2.88,1.31-11.63.73-12.02,14.9-.02.81-.24,1.59-1.05,2.22-1.61,1.24-13.18-6.97-17.79-8.13,2.1-2.52,3.94-5.08,3.28-8.34-.32-1.57-2.21-2.25-3.39-2.1s-2.65,1.2-3.26,2.58c-1,2.3,0,4.28.25,6.98-2.53-.45-4.86-1.29-5.29-3.45,1.18-2.69-1.46-8.85-4.42-7.9-3.75,1.2-1.17,5.98.32,7.97-9.18.14-2.98-8.33-21.17-7.51,11.21,17.77,11.71,3.14,29.9,12.93-2.88,1.73-6.24.99-8.22-1.86-3.75.65-7.25,1.72-10.03,5.33,3.01,1.96,6.68,3.26,10.32,3.16,3.99-.11,7.22-2.43,8.34-6.16,5.58,1.79,10.32,4.08,14.6,7.68.87.73,2.3,2.47,3.49,1.66,0,3.1-2.28,6.07-5.57,7.53-14.48,6.41-31.01,6.59-45.67.78-4.21-1.67-6.57-4.69-7.3-9.07C9,87.81,2.21,66.1.09,42.99c1.68-.42,1.29,1.67,1.92,2.88,3.62,6.95,9.87,11.32,16.94,14.71,22.73,10.9,57,10.48,80.78.98,8.52-3.41,14.52-9.09,20.02-15.89Z"/>
      <path class="cls-3" d="M114.58,25.2c1.77,3.66,4.87,6.76,5.8,10.82.73,3.18-.46,6.63-.63,9.65-5.5,6.8-11.49,12.48-20.02,15.89-23.78,9.5-58.05,9.92-80.78-.98-7.07-3.39-13.32-7.76-16.94-14.71-.63-1.21-.24-3.3-1.92-2.88-1.22-13.35,9.62-22.13,21.33-26.82,23.16-9.27,48.41-9.74,72.17-2.21,8.16,2.58,14.37,6.96,20.99,11.24ZM8.01,47.05c4.72,6.64,12.3,10.74,20.59,13.45,21.64,7.07,45.09,6.61,66.44-.99,7.26-2.58,12.92-6.42,17.59-12.23,4.52-5.63,4.43-13.34-1.48-19.02-5.5-5.29-12.37-8.9-20.03-11.29-19.72-6.16-40.91-6.23-60.72-.34-8.35,2.48-15.73,6.24-21.52,12.41-4.81,5.12-5.55,12.81-.87,18.02Z"/>
      <path class="cls-1" d="M62.75,85.32l4.1-.06c.44,2.16,2.77,3,5.29,3.45-.26-2.71-1.25-4.68-.25-6.98.6-1.39,2.05-2.43,3.26-2.58s3.07.53,3.39,2.1c.66,3.26-1.17,5.82-3.28,8.34,4.61,1.16,16.18,9.38,17.79,8.13.81-.63,1.03-1.4,1.05-2.22l1.66.16c.59-.34,1.15-.72,1.7-1.12.81-.32,1.97-.41,2.54-1.16,9-2.79,18.98-.53,24.45,7.98-23.24,14.83-29.18-4.4-34.47-.83-1.2.81-2.63-.93-3.49-1.66-4.28-3.6-9.02-5.89-14.6-7.68-1.12,3.73-4.35,6.05-8.34,6.16-3.64.1-7.31-1.2-10.32-3.16,2.78-3.61,6.28-4.67,10.03-5.33,1.98,2.84,5.35,3.59,8.22,1.86-18.2-9.79-18.7,4.84-29.9-12.93,18.19-.82,12,7.65,21.17,7.51Z"/>
      <path class="cls-1" d="M125.54,52.18c-.47-1.75.51-3.14,1.7-4.82-1.86-.02-2.12,1.48-3.92,2.58-1.64-5.3,3.64-5.46,1.41-6.94,2.09-10.74,11.63-18.27,22.61-19.86.12,14.43-8.75,26.87-21.8,29.04ZM133.99,37.55c1.53-.3,2.12-1.06,2.42-2.17-1.28.53-1.72,1.41-2.42,2.17ZM132.29,39.33l-5.15,6.64.83.64,5.15-6.64-.83-.64Z"/>
      <path class="cls-1" d="M112.89,81.89c4.68-5.62,11.44-8.88,17.69-13.76-5.35.23-5.91,5.39-11.1,2.63-1.8-.95-1.51-2.22-.77-4.09,6.25-6.98,16.68-8.95,25.82-6.73-4.74,14.55-17.21,23.38-31.63,21.95ZM132.96,66.75c0-.4-.33-.73-.73-.73s-.73.33-.73.73.33.73.73.73.73-.33.73-.73Z"/>
      <path class="cls-1" d="M124.31,34.6l-1.45-20.33-1.65,21.75h-.83c-.93-4.05-4.03-7.15-5.8-10.82-.65-9.18,1.76-18.3,9.1-25.2,7.37,12.7,9.54,23.58.63,34.6Z"/>
      <path class="cls-5" d="M108.32,82.81c-.82.86-.74,2.57-2.27,3.56.24.46.62.47.84.58-2.48,1.95-4.97,3.97-6.89,6.45-.58.74-1.73.84-2.54,1.16-.36-.44-.72-.43-.94-.2-.37.39-.7,1-.76,1.31l-1.66-.16c.39-14.18,9.14-13.59,12.02-14.9,1.29-.59,1.78,1.67,2.19,2.21Z"/>
      <path class="cls-2" d="M112.89,81.89c-1.68,2.02-3.98,3.47-6,5.05-.23-.11-.6-.12-.84-.58,1.52-.98,1.44-2.69,2.27-3.56,4.93-5.18,3.95-8.28,7.72-14.37.76-.68,1.98-.99,2.66-1.76-.74,1.87-1.02,3.14.77,4.09,5.19,2.76,5.75-2.41,11.1-2.63-6.25,4.88-13,8.14-17.69,13.76Z"/>
      <path class="cls-2" d="M124.31,34.6c-.41,2.04-1.11,4.95-.4,7.61-.55,1.26.33,2.23.82.8,2.23,1.47-3.06,1.64-1.41,6.94,1.8-1.09,2.05-2.59,3.92-2.58-1.19,1.68-2.17,3.07-1.7,4.82-2.87.48-5.67,8.15-7.72,9.34.31-2,.79-3.99,1.22-5.97,2.7-1.83,2.5-4.77,2.59-7.96.11-3.89.59-8.24-.43-11.58l1.65-21.75,1.45,20.33Z"/>
      <path class="cls-2" d="M66.85,85.26l-4.1.06c-1.49-1.99-4.07-6.77-.32-7.97,2.96-.95,5.59,5.21,4.42,7.9Z"/>
      <path class="cls-4" d="M112.64,47.28c-4.67,5.81-10.33,9.65-17.59,12.23-21.35,7.6-44.8,8.06-66.44.99-8.29-2.71-15.87-6.81-20.59-13.45,2.25-7.72,8.46-12.95,16.3-16.42,23.82-10.51,51.42-9.98,75.08,1.25,4.31,2.05,14.48,10.37,13.26,15.39ZM60.9,53.92c2.86,2.94,10.38,3.18,13.02.67.3-4.61-5.58-8.19-10.42-7.98,1.34-2.63,3.44-1.5,5.29-.44,5.97,3.42,14.34.08,13.49-3.08-.26-.95-2.32-1.36-2.38-2.47-.07-1.23,1.59-2.04,1.09-2.8-2.78-4.21-11.06.47-13.55,3.89,1.35-2.84,2.41-6.81.1-9.4-2.23-2.51-5.16-1.86-7.02-.22-5.64,4.97,3.91,11.5-.73,13.22-2.77-8.04-11.23-11.26-18.72-8.54,1.74,11.82,13.17,6.07,15.68,8.66-4.93.08-12.1.62-12.41,5.82,3.05,2.85,10.26.58,12.94-2.37,1.04-1.15,1.25-2.49,2.41-2.38,1.1.11,2.58.17,3.05,1.54-1.74,1.35-3.95,3.72-1.85,5.87ZM43.4,47.01c0-1.06-.86-1.91-1.91-1.91s-1.91.86-1.91,1.91.86,1.91,1.91,1.91,1.91-.86,1.91-1.91Z"/>
      <path class="cls-7" d="M112.64,47.28c1.22-5.02-8.94-13.34-13.26-15.39-23.66-11.24-51.26-11.77-75.08-1.25-7.84,3.46-14.05,8.69-16.3,16.42-4.68-5.21-3.94-12.89.87-18.02,5.79-6.17,13.17-9.93,21.52-12.41,19.81-5.89,41.01-5.82,60.72.34,7.66,2.4,14.53,6.01,20.03,11.29,5.91,5.68,6,13.39,1.48,19.02Z"/>
      <path class="cls-6" d="M97.47,94.55c-.55.4-1.11.78-1.7,1.12.06-.32.39-.93.76-1.31.22-.23.58-.24.94.2Z"/>
      <rect class="cls-2" x="125.93" y="42.45" width="8.4" height="1.05" transform="translate(16.45 119.51) rotate(-52.22)"/>
      <path class="cls-2" d="M133.99,37.55c.7-.76,1.14-1.64,2.42-2.17-.3,1.11-.89,1.88-2.42,2.17Z"/>
      <circle class="cls-2" cx="132.23" cy="66.75" r=".73"/>
      <path class="cls-1" d="M60.9,53.92c-2.1-2.16.1-4.52,1.85-5.87-.47-1.37-1.95-1.43-3.05-1.54-1.16-.11-1.37,1.23-2.41,2.38-2.68,2.95-9.89,5.21-12.94,2.37.31-5.2,7.48-5.74,12.41-5.82-2.51-2.59-13.94,3.15-15.68-8.66,7.49-2.72,15.95.5,18.72,8.54,4.64-1.72-4.91-8.25.73-13.22,1.85-1.63,4.79-2.29,7.02.22,2.3,2.59,1.24,6.56-.1,9.4,2.49-3.42,10.77-8.11,13.55-3.89.5.76-1.17,1.57-1.09,2.8.07,1.11,2.13,1.52,2.38,2.47.86,3.16-7.52,6.51-13.49,3.08-1.85-1.06-3.94-2.19-5.29.44,4.84-.21,10.72,3.37,10.42,7.98-2.64,2.51-10.15,2.27-13.02-.67Z"/>
      <circle class="cls-6" cx="41.49" cy="47.01" r="1.91"/>
    </g>
  </g>
</svg>