<?xml version="1.0" encoding="UTF-8"?>
<svg id="Capa_2" data-name="Capa 2" xmlns="http://www.w3.org/2000/svg" viewBox="0 0 132.7 125.52">
  <defs>
    <style>
      .cls-1 {
        fill: #4c4b2d;
      }

      .cls-2 {
        fill: #3b3923;
      }

      .cls-3 {
        fill: #f0d09f;
      }

      .cls-4 {
        fill: #e3ba87;
      }

      .cls-5 {
        fill: #a4451f;
      }

      .cls-6 {
        fill: #6f6536;
      }

      .cls-7 {
        fill: #c47930;
      }

      .cls-8 {
        fill: #944f1d;
      }
    </style>
  </defs>
  <g id="Elementos">
    <g>
      <path class="cls-5" d="M60.14,10.17c.36.5,1.38.92,1.45,1.61.08.87-.77,1.88-.57,2.85,1.17,1.64,4.02-2.22,6.2,0,.62.63.89,1.66.26,2.64-.38.6-1.99.42-2.51,1.88,2.61,1.74,4.99-.98,7.71-.34,2.16.51,2.67,3.28,4.25,4.21-.23,1.19.38,2.38.34,3.55-.1,2.91-.02,6.52-2.42,8.95-1.93,1.96-3.53,4.45-5.39,6.02-2.51,2.11-6.32,2.17-9.38,2.51-4.14.47-7.71,2.39-12.01,2.39-3.89,0-6.86-2.17-7.12-6.28-.13-1.98-.13-4.5.37-6.25l4.23-14.83c1.73-6.05,8.72-9.99,14.58-8.93Z"/>
      <path class="cls-1" d="M110.18,73.07c.1-3.61-1.31-8.44.47-11.81,6.33-11.95,20.72-13.3,21.38-12.9,1.18.69.49,1.92.29,3-2.15,11.79-10.62,20.45-22.15,21.71Z"/>
      <path class="cls-6" d="M110.41,47.69c-.56-8.34-3.5-4.72-6.43-9.99,2.09-8.4,8.72-14.64,17.98-16.4,1.22,10.5-2.35,21.63-11.55,26.39Z"/>
      <path class="cls-1" d="M109.53,93.29c.44-4.41.33-8.9.45-13.29,6.28-3.44,13.4-4.52,20.18-.73-4.2,8.3-11.71,13.81-20.63,14.02Z"/>
      <path class="cls-1" d="M100.71,35.06c-11.84-4.73-2.91.27-12.1-.89-2.09-.1-1.63-2.96-1.42-4.65.16-1.29,2.92-2.67,4.37-1.62,1.17.85,2.4,2.56,3.89,1.54.81-.55,2.51-1.06,2.22-2.68-2.27.87-3.4-.31-4.49-2.01-4.84,2.4-10.67,2.49-15.91,1.84.04-1.17-.56-2.36-.34-3.55.93-.97,1.88-1.97,3.12-2.56,1.42.75,3.23.23,4.72-.29,5.58-1.92,13.4-.33,17.1,4.94,2.05,2.92-.54,7.2-1.17,9.92Z"/>
      <path class="cls-6" d="M84.77,20.2c-1.49.51-3.3,1.04-4.72.29.32-1.73-2.28-1.15-2.75-2.14-.08-.77,1.42-1.56,1.58-2.13,1.15-3.95-5.71-.86-7-2.99-.39-.64.27-1.82.22-2.7,1.37-.02,1.56-1.65,2.41-2.74,3.33-4.28,8.15-6.7,13.8-7.77,1.15,9.03-2.46,13.74-3.55,20.2Z"/>
      <path class="cls-2" d="M72.11,10.51c.05.89-.61,2.06-.22,2.7,1.29,2.13,8.16-.96,7,2.99-.17.57-1.67,1.36-1.58,2.13.47.99,3.07.41,2.75,2.14-1.24.58-2.18,1.58-3.12,2.56-1.58-.93-2.09-3.7-4.25-4.21-2.73-.64-5.1,2.08-7.71.34.53-1.46,2.13-1.28,2.51-1.88.63-.98.36-2.01-.26-2.64-2.18-2.22-5.04,1.64-6.2,0-.2-.97.65-1.99.57-2.85-.07-.7-1.09-1.11-1.45-1.61-.27-2-2.56-6.75.2-7.91,2.82-1.18,4.51,3.99,6.4,6.06,1.8-1.45,2.63-4.92,4.88-4.14,1.4,1.3.4,4.58.5,6.33Z"/>
      <path class="cls-2" d="M45.56,19.1l-4.23,14.83-5.23-1.42c.11-2.13,1.32-4.27,3.47-5.63-.84-2.19-2.84-3.38-2.88-5.6,2.67-2.26,5.99-1.88,8.86-2.18Z"/>
      <path class="cls-2" d="M88.61,34.17c-4.11,3.23,1.99,8.77-5.69,7.29l-3.1-.59c-1.18-.23-1.2,1.81-2.2,2.47-2.7,1.79-6.26.28-8.16-1.78,1.86-1.56,3.46-4.06,5.39-6.02,2.39-2.43,2.32-6.05,2.42-8.95,5.24.65,11.07.56,15.91-1.84,1.09,1.7,2.23,2.89,4.49,2.01.29,1.62-1.42,2.13-2.22,2.68-1.49,1.02-2.73-.7-3.89-1.54-1.45-1.05-4.21.32-4.37,1.62-.21,1.69-.67,4.55,1.42,4.65Z"/>
      <g>
        <path class="cls-3" d="M36.1,32.51l5.23,1.42c-.5,1.75-.5,4.27-.37,6.25.26,4.11,3.24,6.27,7.12,6.28,4.3,0,7.87-1.93,12.01-2.39,3.05-.34,6.86-.4,9.38-2.51,1.9,2.07,5.46,3.57,8.16,1.78.99-.66,1.02-2.69,2.2-2.47l3.1.59c7.68,1.47,1.57-4.06,5.69-7.29,9.18,1.16.26-3.85,12.1.89.7,1.1,1.94,2.22,3.27,2.65,2.93,5.26,5.88,1.65,6.43,9.99.3,4.54-.46,9.09.23,13.57-1.78,3.37-.37,8.2-.47,11.81l-.19,6.92c-.12,4.4-.02,8.88-.45,13.29l-.43,4.35c-1.26.4-3.34,1.69-5.24,1.06-3.57-7.94,6.67-7.7,3.4-12.72-1.53-2.35-.77-4.3-.96-6.83-.13-1.74-3.06-3.15-5.06-3.69-.29,3.93-.96,8.06-.13,12.02.67,3.17,2.09,5.83,1.28,9.59-.23,1.07.08,2.86.55,3.66.4.68,2.63.69,2.65,2.02.03,2.59-3.64,2.84-3.93,5.02-.41.04-.84.08-1.25.15l.46-18.44c-33.91,6.88-67,12.69-100.43,17.49-.42-5.15.17-10.21.23-15.25l74.6-12.37c8.92-1.48,17.11-2.45,25.83-4.84l.22-14.01c.03-2.23-2.07-2.86-3.96-2.53-9.08,1.57-17.69,3.78-26.48,4.26,2.79-11.41,6.68-6.51,6.57-9.08-.04-.91-.2-2.18-.68-3.04-.61-1.08-8.01.63-9.31,1.98-1.12,1.17-2.82,4.59-1.84,5.96s3.39,2.3,3.63,4.32c-22.53,5.55-45.85,8.3-68.82,12.34l-.17-13.95,35.84-28.25ZM88.85,89.74c3.56-.06,3.05-4.18,1.78-5.65-2.29.81-3.82,5.45-1.78,5.65Z"/>
        <path class="cls-8" d="M100.41,107.92L3.9,125.46c-6.22,1.13-3.02-13.09-3.46-18.49,33.43-4.8,66.53-10.62,100.43-17.49l-.46,18.44Z"/>
        <path class="cls-7" d="M.67,91.72c.06-5.62-.17-11.33-.24-17.01,22.97-4.04,46.29-6.79,68.82-12.34.5-.12,1.11-.12,1.63-.15,8.79-.48,17.39-2.68,26.48-4.26,1.88-.33,3.99.3,3.96,2.53l-.22,14.01c-8.72,2.39-16.91,3.36-25.83,4.84L.67,91.72Z"/>
        <path class="cls-4" d="M109.1,97.63c-.24,2.4.01,4.81-1.62,7.28-1.07,1.62-3.44,2.63-5.82,2.85.29-2.17,3.96-2.43,3.93-5.02-.01-1.32-2.25-1.34-2.65-2.02-.47-.81-.78-2.6-.55-3.66.81-3.76-.61-6.42-1.28-9.59-.83-3.96-.16-8.09.13-12.02,2,.54,4.93,1.94,5.06,3.69.19,2.53-.57,4.47.96,6.83,3.27,5.03-6.97,4.78-3.4,12.72,1.9.63,3.97-.66,5.24-1.06Z"/>
        <path class="cls-4" d="M70.87,62.22c-.52.03-1.13.03-1.63.15-.25-2.02-2.68-2.99-3.63-4.32s.72-4.79,1.84-5.96c1.3-1.36,8.69-3.07,9.31-1.98.48.86.64,2.13.68,3.04.12,2.57-3.78-2.33-6.57,9.08Z"/>
        <path class="cls-4" d="M88.85,89.74c-2.04-.2-.51-4.85,1.78-5.65,1.27,1.47,1.78,5.59-1.78,5.65Z"/>
      </g>
    </g>
  </g>
</svg>