<?xml version="1.0" encoding="UTF-8"?>
<svg id="Capa_2" data-name="Capa 2" xmlns="http://www.w3.org/2000/svg" viewBox="0 0 450.22 111.83">
  <defs>
    <style>
      .cls-1 {
        fill: #8a4a24;
      }
    </style>
  </defs>
  <g id="Elementos">
    <path class="cls-1" d="M444.04,42.16v-2.45h2.41c2.08,0,3.77-1.69,3.77-3.77s-1.69-3.77-3.77-3.77h-2.41v-2.37c0-2.08-1.69-3.77-3.77-3.77,2.08,0,3.77-1.69,3.77-3.77v-2.45h2.41c2.08,0,3.77-1.69,3.77-3.77s-1.69-3.77-3.77-3.77h-2.41v-1.51c.06-.28.11-.56.11-.86,0-2.08-1.69-3.77-3.77-3.77h-.1s0,0,0,0c0,0,0,0,0,0h-2.3v-2.37c0-2.08-1.69-3.77-3.77-3.77s-3.77,1.69-3.77,3.77v2.37h-2.41c-2.08,0-3.77,1.69-3.77,3.77,0,.01,0,.02,0,.04h0s0-.02,0-.04c0-2.08-1.69-3.77-3.77-3.77h-2.41v-2.37c0-2.08-1.69-3.77-3.77-3.77s-3.77,1.69-3.77,3.77v2.37h-2.41c-2.08,0-3.77,1.69-3.77,3.77,0,.01,0,.02,0,.04h0s0-.02,0-.04c0-2.08-1.69-3.77-3.77-3.77h-2.41v-2.37c0-2.08-1.69-3.77-3.77-3.77s-3.77,1.69-3.77,3.77v2.37h-2.41c-2.08,0-3.77,1.69-3.77,3.77,0,.01,0,.02,0,.04h0s0-.02,0-.04c0-2.08-1.69-3.77-3.77-3.77h-2.41v-2.37c0-2.08-1.69-3.77-3.77-3.77s-3.77,1.69-3.77,3.77v2.37h-2.41c-2.08,0-3.77,1.69-3.77,3.77,0,.01,0,.02,0,.04h0s0-.02,0-.04c0-2.08-1.69-3.77-3.77-3.77h-2.41v-2.37c0-2.08-1.69-3.77-3.77-3.77s-3.77,1.69-3.77,3.77v2.37h-2.41c-2.08,0-3.77,1.69-3.77,3.77,0,.01,0,.02,0,.04h0s0-.02,0-.04c0-2.08-1.69-3.77-3.77-3.77h-2.41v-2.37c0-2.08-1.69-3.77-3.77-3.77s-3.77,1.69-3.77,3.77v2.37h-2.41c-2.08,0-3.77,1.69-3.77,3.77,0,.01,0,.02,0,.04h0s0-.02,0-.04c0-2.08-1.69-3.77-3.77-3.77h-2.41v-2.37c0-2.08-1.69-3.77-3.77-3.77s-3.77,1.69-3.77,3.77v2.37h-2.41c-2.08,0-3.77,1.69-3.77,3.77,0,.01,0,.02,0,.04h0s0-.02,0-.04c0-2.08-1.69-3.77-3.77-3.77h-2.41v-2.37c0-2.08-1.69-3.77-3.77-3.77s-3.77,1.69-3.77,3.77v2.37h-2.41c-2.08,0-3.77,1.69-3.77,3.77,0,.01,0,.02,0,.04h0s0-.02,0-.04c0-2.08-1.69-3.77-3.77-3.77h-2.41v-2.37c0-2.08-1.69-3.77-3.77-3.77s-3.77,1.69-3.77,3.77v2.37h-2.41c-2.08,0-3.77,1.69-3.77,3.77,0,.01,0,.02,0,.04h0s0-.02,0-.04c0-2.08-1.69-3.77-3.77-3.77h-2.41v-2.37c0-2.08-1.69-3.77-3.77-3.77s-3.77,1.69-3.77,3.77v2.37h-2.41c-2.08,0-3.77,1.69-3.77,3.77,0,.01,0,.02,0,.04h0s0-.02,0-.04c0-2.08-1.69-3.77-3.77-3.77h-2.41v-2.37c0-2.08-1.69-3.77-3.77-3.77s-3.77,1.69-3.77,3.77v2.37h-2.41c-2.08,0-3.77,1.69-3.77,3.77,0,.01,0,.02,0,.04h0s0-.02,0-.04c0-2.08-1.69-3.77-3.77-3.77h-2.41v-2.37c0-2.08-1.69-3.77-3.77-3.77s-3.77,1.69-3.77,3.77v2.37h-2.41c-2.08,0-3.77,1.69-3.77,3.77,0,.01,0,.02,0,.04h0s0-.02,0-.04c0-2.08-1.69-3.77-3.77-3.77h-2.41v-2.37c0-2.08-1.69-3.77-3.77-3.77s-3.77,1.69-3.77,3.77v2.37h-2.41c-2.08,0-3.77,1.69-3.77,3.77,0,.01,0,.02,0,.04h0s0-.02,0-.04c0-2.08-1.69-3.77-3.77-3.77h-2.41v-2.37c0-2.08-1.69-3.77-3.77-3.77s-3.77,1.69-3.77,3.77v2.37h-2.41c-2.08,0-3.77,1.69-3.77,3.77,0,.01,0,.02,0,.04h0s0-.02,0-.04c0-2.08-1.69-3.77-3.77-3.77h-2.41v-2.37c0-2.08-1.69-3.77-3.77-3.77s-3.77,1.69-3.77,3.77v2.37h-2.41c-2.08,0-3.77,1.69-3.77,3.77,0,.01,0,.02,0,.04h0s0-.02,0-.04c0-2.08-1.69-3.77-3.77-3.77h-2.41v-2.37c0-2.08-1.69-3.77-3.77-3.77s-3.77,1.69-3.77,3.77v2.37h-2.41c-2.08,0-3.77,1.69-3.77,3.77,0,.01,0,.02,0,.04h0s0-.02,0-.04c0-2.08-1.69-3.77-3.77-3.77h-2.41v-2.37c0-2.08-1.69-3.77-3.77-3.77s-3.77,1.69-3.77,3.77v2.37h-2.41c-2.08,0-3.77,1.69-3.77,3.77,0,.01,0,.02,0,.04h0s0-.02,0-.04c0-2.08-1.69-3.77-3.77-3.77h-2.41v-2.37c0-2.08-1.69-3.77-3.77-3.77s-3.77,1.69-3.77,3.77v2.37h-2.41c-2.08,0-3.77,1.69-3.77,3.77,0,.01,0,.02,0,.04h0s0-.02,0-.04c0-2.08-1.69-3.77-3.77-3.77h-2.41v-2.37c0-2.08-1.69-3.77-3.77-3.77s-3.77,1.69-3.77,3.77v2.37h-2.41c-2.08,0-3.77,1.69-3.77,3.77,0,.01,0,.02,0,.04h0s0-.02,0-.04c0-2.08-1.69-3.77-3.77-3.77h-2.41v-2.37c0-2.08-1.69-3.77-3.77-3.77s-3.77,1.69-3.77,3.77v2.37h-2.41c-2.08,0-3.77,1.69-3.77,3.77,0,.01,0,.02,0,.04h0s0-.02,0-.04c0-2.08-1.69-3.77-3.77-3.77h-2.41v-2.37c0-2.08-1.69-3.77-3.77-3.77s-3.77,1.69-3.77,3.77v2.37h-2.41c-2.08,0-3.77,1.69-3.77,3.77,0,.01,0,.02,0,.04h0s0-.02,0-.04c0-2.08-1.69-3.77-3.77-3.77h-2.41v-2.37c0-2.08-1.69-3.77-3.77-3.77s-3.77,1.69-3.77,3.77v2.37h-2.41s-.08.01-.13.01c-.04,0-.08-.01-.13-.01-2.08,0-3.77,1.69-3.77,3.77v2.37h-2.41c-2.08,0-3.77,1.69-3.77,3.77s1.69,3.77,3.77,3.77h2.41v2.45c0,2.08,1.69,3.77,3.77,3.77h0c-2.08,0-3.77,1.69-3.77,3.77v2.37h-2.41c-2.08,0-3.77,1.69-3.77,3.77s1.69,3.77,3.77,3.77h2.41v2.45c0,2.08,1.69,3.77,3.77,3.77h0c-2.08,0-3.77,1.69-3.77,3.77v2.37h-2.41c-2.08,0-3.77,1.69-3.77,3.77s1.69,3.77,3.77,3.77h2.41v2.45c0,2.08,1.69,3.77,3.77,3.77h0c-2.08,0-3.77,1.69-3.77,3.77v2.37h-2.41c-2.08,0-3.77,1.69-3.77,3.77s1.69,3.77,3.77,3.77h2.41v2.45c0,2.08,1.69,3.77,3.77,3.77h0c-2.08,0-3.77,1.69-3.77,3.77v2.37h-2.41c-2.08,0-3.77,1.69-3.77,3.77s1.69,3.77,3.77,3.77h2.41v2.45c0,2.08,1.69,3.77,3.77,3.77.06,0,.11-.01.16-.02.03,0,.06,0,.09,0h2.41v2.45c0,2.08,1.69,3.77,3.77,3.77s3.77-1.69,3.77-3.77v-2.45h2.41c2.07,0,3.74-1.67,3.77-3.73h0c.02,2.06,1.7,3.73,3.77,3.73h2.41v2.45c0,2.08,1.69,3.77,3.77,3.77s3.77-1.69,3.77-3.77v-2.45h2.41c2.07,0,3.74-1.67,3.77-3.73h0c.02,2.06,1.7,3.73,3.77,3.73h2.41v2.45c0,2.08,1.69,3.77,3.77,3.77s3.77-1.69,3.77-3.77v-2.45h2.41c2.07,0,3.74-1.67,3.77-3.73h0c.02,2.06,1.7,3.73,3.77,3.73h2.41v2.45c0,2.08,1.69,3.77,3.77,3.77s3.77-1.69,3.77-3.77v-2.45h2.41c2.07,0,3.74-1.67,3.77-3.73h0c.02,2.06,1.7,3.73,3.77,3.73h2.41v2.45c0,2.08,1.69,3.77,3.77,3.77s3.77-1.69,3.77-3.77v-2.45h2.41c2.07,0,3.74-1.67,3.77-3.73h0c.02,2.06,1.7,3.73,3.77,3.73h2.41v2.45c0,2.08,1.69,3.77,3.77,3.77s3.77-1.69,3.77-3.77v-2.45h2.41c2.07,0,3.74-1.67,3.77-3.73h0c.02,2.06,1.7,3.73,3.77,3.73h2.41v2.45c0,2.08,1.69,3.77,3.77,3.77s3.77-1.69,3.77-3.77v-2.45h2.41c2.07,0,3.74-1.67,3.77-3.73h0c.02,2.06,1.7,3.73,3.77,3.73h2.41v2.45c0,2.08,1.69,3.77,3.77,3.77s3.77-1.69,3.77-3.77v-2.45h2.41c2.07,0,3.74-1.67,3.77-3.73h0c.02,2.06,1.7,3.73,3.77,3.73h2.41v2.45c0,2.08,1.69,3.77,3.77,3.77s3.77-1.69,3.77-3.77v-2.45h2.41c2.07,0,3.74-1.67,3.77-3.73h0c.02,2.06,1.7,3.73,3.77,3.73h2.41v2.45c0,2.08,1.69,3.77,3.77,3.77s3.77-1.69,3.77-3.77v-2.45h2.41c2.07,0,3.74-1.67,3.77-3.73h0c.02,2.06,1.7,3.73,3.77,3.73h2.41v2.45c0,2.08,1.69,3.77,3.77,3.77s3.77-1.69,3.77-3.77v-2.45h2.41c2.07,0,3.74-1.67,3.77-3.73h0c.02,2.06,1.7,3.73,3.77,3.73h2.41v2.45c0,2.08,1.69,3.77,3.77,3.77s3.77-1.69,3.77-3.77v-2.45h2.41c2.07,0,3.74-1.67,3.77-3.73h0c.02,2.06,1.7,3.73,3.77,3.73h2.41v2.45c0,2.08,1.69,3.77,3.77,3.77s3.77-1.69,3.77-3.77v-2.45h2.41c2.07,0,3.74-1.67,3.77-3.73h0c.02,2.06,1.7,3.73,3.77,3.73h2.41v2.45c0,2.08,1.69,3.77,3.77,3.77s3.77-1.69,3.77-3.77v-2.45h2.41c2.07,0,3.74-1.67,3.77-3.73h0c.02,2.06,1.7,3.73,3.77,3.73h2.41v2.45c0,2.08,1.69,3.77,3.77,3.77s3.77-1.69,3.77-3.77v-2.45h2.41c2.07,0,3.74-1.67,3.77-3.73h0c.02,2.06,1.7,3.73,3.77,3.73h2.41v2.45c0,2.08,1.69,3.77,3.77,3.77s3.77-1.69,3.77-3.77v-2.45h2.41c2.07,0,3.74-1.67,3.77-3.73h0c.02,2.06,1.7,3.73,3.77,3.73h2.41v2.45c0,2.08,1.69,3.77,3.77,3.77s3.77-1.69,3.77-3.77v-2.45h2.41c2.07,0,3.74-1.67,3.77-3.73h0c.02,2.06,1.7,3.73,3.77,3.73h2.41v2.45c0,2.08,1.69,3.77,3.77,3.77s3.77-1.69,3.77-3.77v-2.45h2.41c2.07,0,3.74-1.67,3.77-3.73h0c.02,2.06,1.7,3.73,3.77,3.73h2.41v2.45c0,2.08,1.69,3.77,3.77,3.77s3.77-1.69,3.77-3.77v-2.45h2.41c2.07,0,3.74-1.67,3.77-3.73h0c.02,2.06,1.7,3.73,3.77,3.73h2.41v2.45c0,2.08,1.69,3.77,3.77,3.77s3.77-1.69,3.77-3.77v-2.45h2.41c2.07,0,3.74-1.67,3.77-3.73h0c.02,2.06,1.7,3.73,3.77,3.73h2.41v2.45c0,2.08,1.69,3.77,3.77,3.77s3.77-1.69,3.77-3.77v-2.45h2.41c2.07,0,3.74-1.67,3.77-3.73h0c.02,2.06,1.7,3.73,3.77,3.73h2.41v2.45c0,2.08,1.69,3.77,3.77,3.77s3.77-1.69,3.77-3.77v-2.45h2.23s.05,0,.07,0,.05,0,.07,0h.04c2.08,0,3.77-1.69,3.77-3.77,0-.3-.04-.58-.11-.86v-1.58h2.41c2.08,0,3.77-1.69,3.77-3.77s-1.69-3.77-3.77-3.77h-2.41v-2.37c0-2.08-1.69-3.77-3.77-3.77,2.08,0,3.77-1.69,3.77-3.77v-2.45h2.41c2.08,0,3.77-1.69,3.77-3.77s-1.69-3.77-3.77-3.77h-2.41v-2.37c0-2.08-1.69-3.77-3.77-3.77,2.08,0,3.77-1.69,3.77-3.77v-2.45h2.41c2.08,0,3.77-1.69,3.77-3.77s-1.69-3.77-3.77-3.77h-2.41v-2.37c0-2.08-1.69-3.77-3.77-3.77,2.08,0,3.77-1.69,3.77-3.77Z"/>
  </g>
</svg>