<?xml version="1.0" encoding="UTF-8"?>
<svg id="Capa_2" data-name="Capa 2" xmlns="http://www.w3.org/2000/svg" viewBox="0 0 117.39 116.19">
  <defs>
    <style>
      .cls-1 {
        fill: #b46a27;
      }

      .cls-2 {
        fill: #4c4b2d;
      }

      .cls-3 {
        fill: #3b3923;
      }

      .cls-4 {
        fill: #6a3e1f;
      }

      .cls-5 {
        fill: #d28a38;
      }

      .cls-6 {
        fill: #6f6536;
      }

      .cls-7 {
        fill: #c47930;
      }

      .cls-8 {
        fill: #f6eddf;
      }

      .cls-9 {
        fill: #e2a966;
      }

      .cls-10 {
        fill: #944f1d;
      }
    </style>
  </defs>
  <g id="Elementos">
    <g>
      <path class="cls-9" d="M85.38,65.44l-7.85,38.98c-.56,2.76-3.46,3.89-4.57,6.32-14.84,6.6-31.91,7.4-47.45,1.33-2.33-.91-6.4-2.94-7.11-5.5-3.77-13.53-6.58-26.89-8.92-40.32,2.18-.27,4.4.35,6.02,1.86-.29,5.99,1.63,11.84,2.99,17.98,1.4,6.38,1.46,12.78,4.37,18.59l-5.88-35.3c.53-.25.97-.4,1.07-.49,2.25,1.46,5.49.92,7.2,3.17-.62,2.91-.19,6.14.33,9.49,1.49,9.65,2.03,18.99,4.64,28.14,0-13.12-.96-25.55-3.49-37.7,2.39-2.1,5.88,1.02,8.88.54-.18,4.71-.33,9.62.46,14.63,1.26,7.96-.2,15.9,3.06,23.92,1.09-13.48-.24-26.08-.9-38.72,2.92-.52,6.03.63,9,1.67.06,1.73.05,2.87-.03,4.11-.64,10.95.52,20.46.43,32.21.51-.2,1.68-.87,1.67-1.65l-.4-30.76c-.01-1.14-.39-2.49.32-3.53.49-.71,6.78-2.93,7.81-2.03,1.07.93.96,2.71.83,3.94-1.27,11.46-2.07,23.01-1.98,34.96,1.95-4.05,4.07-32.22,3.86-35.02-.07-.88-.09-3.07.86-3.56,2.69-1.4,5.69-1.78,8.24-1.37-.49,9.53-2.31,18.92-3.36,28.9-.36,3.45-2.22,6.78-.22,10.39l5.19-39.2c2.14-1.37,4.43-2.58,6.92-3.15-.64,9.15-3.13,18.09-4.44,27.6-.39,2.85-1.88,5.65-.19,8.73l6.69-36.61c.69-.12,1.36-.6,2-.87,1.28-.54,2.8-.83,3.95-1.65Z"/>
      <path class="cls-3" d="M110.26,62.96c-.3.24-9.59,13.08-4.39,11.87.08,1.22,1.93,1.58,2.53,2.26-.62,1.26-2.09,2.1-1.59,3.39-2.11-.84-5.61,1.2-7.16,3.09l-13.56,16.61c3.83-1.3,7.84-4.07,10.61-3.4-.75,1.26-2.88.82-3.97,1.92-3.19,3.21-6.33,4.95-4.72,5.38-4.59-3.19-9.5,4.18-15.04,6.64,1.11-2.43,4.01-3.55,4.57-6.32,2.98-.92,4.66-3.91,7.07-6.22,3-2.88,4.14-6.59,3.17-10.94l-1.09-4.9c.22-.07.5-.16.93-.51.49,1.12.85,2.29,1.71,3.44l2.76-7.27c.86,2.04-.2,3.73.73,5.2.65-.34.67-.83,1.05-1.22.15-.15.65-.39.38.33-1.31,1.73-1.55,5.13-2.79,7.73,5.12-3.37,11.85-18.65,13.74-23.75,1.08-2.91,2.2-6.11,4.55-8.25.46,2.3-1.14,4.07.51,4.89ZM104.02,76c0-.3-.24-.54-.54-.54s-.54.24-.54.54.24.54.54.54.54-.24.54-.54Z"/>
      <path class="cls-6" d="M110.26,62.96c-1.65-.83-.04-2.59-.51-4.89-2.35,2.13-3.47,5.34-4.55,8.25.38-2.73-.48-5.5-.69-8.61-.37-5.66,4.23-9.98,9.22-11.38,3,6.31,1.33,12.9-3.48,16.64Z"/>
      <path class="cls-2" d="M94.25,82.33c.27-.72-.23-.48-.38-.33-.39.38-.4.87-1.05,1.22-.93-1.47.13-3.16-.73-5.2l-2.76,7.27c-.86-1.15-1.23-2.32-1.71-3.44-.42.34-.71.44-.93.51-.96-4.34,1.27-10.99,4.91-13.74,4.85,2.46,5.52,9.95,2.66,13.71Z"/>
      <path class="cls-2" d="M106.81,80.48c-.51-1.3.97-2.14,1.59-3.39-.6-.68-2.45-1.04-2.53-2.26.73-2.29,3.4-3.51,5.44-4.39,1.52-.66,5.62.32,6.07,2.11.27,5.29-5.92,9.77-10.57,7.93Z"/>
      <path class="cls-2" d="M88.01,104.09c-1.61-.43,1.52-2.17,4.72-5.38,1.09-1.1,3.23-.66,3.97-1.92,1.74.42,6.38,1.21,5.38,4.14-1.88,5.5-9.85,6.1-14.07,3.16Z"/>
      <path class="cls-1" d="M38.23,72.35c.66,12.63,1.99,25.24.9,38.72-3.26-8.03-1.8-15.96-3.06-23.92-.79-5-.64-9.92-.46-14.63.88.17,1.73,0,2.62-.16Z"/>
      <path class="cls-1" d="M26.73,71.98c2.53,12.15,3.48,24.58,3.49,37.7-2.61-9.15-3.16-18.49-4.64-28.14-.52-3.36-.94-6.59-.33-9.49l1.48-.07Z"/>
      <path class="cls-1" d="M59.75,76.25c.21,2.79-1.92,30.97-3.86,35.02-.1-11.95.71-23.51,1.98-34.96.63-.05,1.26-.07,1.89-.06Z"/>
      <path class="cls-1" d="M70.45,71.41l-5.19,39.2c-1.99-3.6-.14-6.94.22-10.39,1.04-9.98,2.87-19.37,3.36-28.9.53.08,1.07.07,1.61.09Z"/>
      <path class="cls-1" d="M48.9,77.93l.4,30.76c.01.78-1.16,1.45-1.67,1.65.09-11.75-1.07-21.25-.43-32.21l1.7-.2Z"/>
      <path class="cls-1" d="M18.08,67.97l-.03.91c-.1.09-.54.24-1.07.49l5.88,35.3c-2.91-5.8-2.97-12.21-4.37-18.59-1.35-6.15-3.27-12-2.99-17.98.84-.05,1.74-.3,2.58-.13Z"/>
      <path class="cls-1" d="M79.43,67.97l-6.69,36.61c-1.69-3.08-.2-5.88.19-8.73,1.3-9.5,3.79-18.44,4.44-27.6.69-.16,1.38-.18,2.06-.29Z"/>
      <g>
        <path class="cls-5" d="M47.51,6c-1.83.89-1.29,4.27-2.23,5.52-2.67,1.48-5.65,2.37-6.12,5.2-.66,3.98.9,5.93,4.28,7.84,2.61,1.47,5.61,2.52,8.32.85.17,1.39,1.69,2.2,1.61,3.93-1.35,1-2.4,3.21-1.4,4.52,3.12-.41,5.92.7,9.28,2.46-.51-4.95-2.67-8.17-3.28-12.17-.21-1.35,1.55-2.68.42-4.54-.95.25-1.69.84-2.51.84.27-1.06,1.19-1.84,2.66-1.99l6-.59c-.78,1.55,1.07,4.42-1.51,5.61-1.03.47-1.54,1.52-1.6,2.5-.25,4.09,5.7.23,8.31,4.91-1.61.82-3.83,2.38-2.65,4.04.99,1.4,3.53.62,4.92.73-1.6,2.77-2.58,5.69-.8,9.11,1.15,2.21,4.46,5.1,7.86,3.75,1.17-.46,2.01-2.59,3.15-3.55.98,2.05,1.4,3.98,3.84,6.12-6.46,4.26-8.32,1.48-13.32,5.03,1.71,1.38,3.66,4.88,1.16,6.11-2.09,1.04-4.91.37-6.03,2.51-.63.08-1.27.07-1.9-.01-1.22-1.6-2.85-3.2-4.89-4.22-1.04.02-2.13,1.29-3.55,1.49l-2.31-5.04-3.46-1.99c3.41.09,7.38-1.78,8.11-5.88.76-4.27-2.74-9.44-7.24-9.41-3.55.02-6.87,3.76-7.22,6.9-.29,2.54,1.57,4.05,1.96,6-2.62-.13-7.39.29-8.06,3.66-.55,2.77,2.94,5.73,4.85,7.46l5.98-4.76c.73.08,2.24,2.21,1.88,3.2-1.14,3.09-5.32,5.66-8.62,5.2-5.03-.7-6.46-5.89-9.32-8.88-1.64-1.72-3.37-1.84-4.23-4.67-.57-1.87-4.52-3.19-5.47-5.27,1.56-2.82,3.92-5.2,3.39-8.55-.03-.75.65-1.78,1.77-1.75,3.46.11,5.89-1.88,8.83-3,3.5-1.34,7.92.58,11.2-1.07,1.84-.92-.25-3.26-1.17-3.99-4.66-3.68-17.27,3.91-21.02,7.27-1.16-.74-2.3-2.15-3.71-3.43.16-1.81.01-3.7-.83-5.72-.95-1.04-2.17-1.02-3.23-.98.65-.36.89-2.77.41-3.51-.42-.65-2.01.15-2.93.02,4-11.46,19.2-17.39,30.44-17.81ZM37.63,26.34c1.24-1.08,1.46-2.03.86-3.2-.75-1.47-5.66,1.26-5.75,2.1-.16,1.39,1,2.43,1.83,2.65,1.19.33,2.02-.65,3.06-1.56Z"/>
        <path class="cls-7" d="M23.64,33.99c-4.01-.88-7.64,1-9.67,4.75-1.16,2.15-2.19,3.86-1.49,6.14.59,1.93,1.55,3.94,4.01,4.7,2.71.83,5.27.01,7.87-1.07.95,2.08,4.9,3.4,5.47,5.27.86,2.84,2.59,2.95,4.23,4.67,2.86,3,4.29,8.18,9.32,8.88,3.31.46,7.49-2.11,8.62-5.2.36-.99-1.14-3.13-1.88-3.2l-5.98,4.76c-1.91-1.73-5.4-4.69-4.85-7.46.67-3.37,5.44-3.78,8.06-3.66,1.45.71,3,1.59,4.39,2.39l3.46,1.99,2.31,5.04c1.42-.21,2.51-1.47,3.55-1.49,2.04,1.02,3.67,2.62,4.89,4.22-1.96,1.28-3.28,3.92-5.79,4.99-11.84,5.05-20.03.4-29.8-4.44-3.87.59-8.25,3.52-12.3,2.69-.84-.17-1.74.08-2.58.13-1.62-1.51-3.83-2.13-6.02-1.86-.4-2.28-12.48-7.15-8.77-21.27,1.83-6.94,6.33-13.36,12.97-15.2.36.62,2.16,2.24,2.81,1.32,1.11-1.55,1.51-3.28,3.09-3.8,1.05-.05,2.28-.06,3.23.98.84,2.02.99,3.9.83,5.72Z"/>
        <path class="cls-7" d="M85.38,65.44c-1.14.82-2.67,1.11-3.95,1.65-1.53-.82-9.8.35-13.57-2.35,1.12-2.14,3.95-1.48,6.03-2.51,2.49-1.24.55-4.73-1.16-6.11,5-3.55,6.86-.77,13.32-5.03-2.44-2.13-2.86-4.07-3.84-6.12.41-3.32.58-7.02-2.4-9.16-2.59-1.85-5.13-2.48-7.81-.16-1.39-.11-3.93.67-4.92-.73-1.17-1.66,1.05-3.22,2.65-4.04-2.61-4.69-8.56-.82-8.31-4.91.06-.98.57-2.02,1.6-2.5,2.58-1.19.73-4.06,1.51-5.61.96-1.9,2.35-3.65,2.44-5.93,7.53,2.58,12.64,9.31,13.84,17.69,8,3.88,13.62,11.45,13.36,20.38-.2,6.77-3.86,11.85-8.8,15.42Z"/>
        <path class="cls-3" d="M66.98,11.94c-.09,2.29-1.49,4.03-2.44,5.93l-6,.59c-1.47.15-2.39.93-2.66,1.99-.06.23.11.58-.01.78-.6-.28-.59.62-.73.98-1.55.47-2.16,2.46-3.38,3.21-2.72,1.66-5.72.62-8.32-.85-3.37-1.91-4.94-3.85-4.28-7.84.47-2.83,3.45-3.72,6.12-5.2.94-1.25.4-4.64,2.23-5.52.82-.03,1.65-.05,2.48-.03,1.35.02.93-1.62.89-2.53.66-1.2,1.59-2.13,3.03-2.05,2.94.16,3.86,3.82,5.05,3.67,1.32-.17,4.01-6.84,6.81-4.59,3.46,2.76-3.26,9.95,1.21,11.48ZM51.02,13.28c1.76-.5.49-5.21-.86-4.99-1.65.27-1.77,5.73.86,4.99Z"/>
        <path class="cls-1" d="M19.58,27.29c-1.58.52-1.99,2.24-3.09,3.8-.65.91-2.45-.7-2.81-1.32,1.24-1.79,2.67-3.91,3.39-5.96.91.13,2.5-.68,2.93-.02.48.74.24,3.15-.41,3.51Z"/>
        <path class="cls-4" d="M49.99,5.97c-.37-1.11.45-1.74.89-2.53.04.91.46,2.55-.89,2.53Z"/>
        <path class="cls-4" d="M65.96,64.73c.63.09,1.27.09,1.9.01,3.77,2.7,12.04,1.53,13.57,2.35-.64.27-1.31.76-2,.87s-1.38.13-2.06.29c-2.48.57-4.77,1.78-6.92,3.15-.53-.02-1.08,0-1.61-.09-2.55-.4-5.55-.02-8.24,1.37-.94.49-.92,2.68-.86,3.56-.63-.02-1.26,0-1.89.06.14-1.23.24-3.01-.83-3.94-1.03-.89-7.32,1.32-7.81,2.03-.72,1.05-.34,2.4-.32,3.53l-1.7.2c.07-1.24.09-2.38.03-4.11-2.97-1.04-6.07-2.19-9-1.67-.88.16-1.74.33-2.62.16-3,.48-6.49-2.65-8.88-.54l-1.48.07c-1.7-2.25-4.95-1.71-7.2-3.17l.03-.91c4.06.83,8.43-2.1,12.3-2.69,9.77,4.84,17.96,9.49,29.8,4.44,2.51-1.07,3.82-3.71,5.79-4.99Z"/>
        <path class="cls-3" d="M23.64,33.99c1.41,1.28,2.55,2.69,3.71,3.43-.3,1.28.31,1.98.4,2.54.53,3.35-1.83,5.73-3.39,8.55-2.61,1.08-5.16,1.9-7.87,1.07-2.46-.76-3.42-2.77-4.01-4.7-.7-2.28.33-3.99,1.49-6.14,2.03-3.75,5.67-5.62,9.67-4.75Z"/>
        <path class="cls-3" d="M51.75,54.97c-1.39-.8-2.94-1.69-4.39-2.39-.39-1.94-2.25-3.46-1.96-6,.35-3.14,3.67-6.88,7.22-6.9,4.51-.03,8,5.15,7.24,9.41-.73,4.1-4.7,5.97-8.11,5.88Z"/>
        <path class="cls-3" d="M82.22,44.97c-1.15.95-1.99,3.08-3.15,3.55-3.4,1.35-6.71-1.53-7.86-3.75-1.78-3.43-.8-6.34.8-9.11,2.68-2.32,5.22-1.7,7.81.16,2.99,2.14,2.81,5.83,2.4,9.16Z"/>
        <path class="cls-7" d="M27.75,39.96c-.09-.55-.7-1.26-.4-2.54,3.75-3.36,16.36-10.95,21.02-7.27.93.73,3.01,3.07,1.17,3.99-3.28,1.64-7.7-.27-11.2,1.07-2.93,1.12-5.37,3.11-8.83,3-1.12-.04-1.8.99-1.77,1.75Z"/>
        <path class="cls-7" d="M51.75,25.42c1.22-.75,1.83-2.74,3.38-3.21.34-.1.55-.7.73-.98.13-.2-.05-.55.01-.78.82,0,1.55-.59,2.51-.84,1.12,1.85-.63,3.18-.42,4.54.62,4,2.77,7.22,3.28,12.17-3.36-1.75-6.15-2.87-9.28-2.46-1.01-1.31.05-3.52,1.4-4.52.08-1.73-1.43-2.54-1.61-3.93Z"/>
        <path class="cls-10" d="M37.63,26.34c-1.04.91-1.87,1.89-3.06,1.56-.83-.23-1.99-1.27-1.83-2.65.1-.84,5.01-3.57,5.75-2.1.59,1.17.38,2.11-.86,3.2Z"/>
        <path class="cls-4" d="M51.02,13.28c-2.62.74-2.5-4.72-.86-4.99,1.35-.22,2.62,4.49.86,4.99Z"/>
        <path class="cls-5" d="M55.14,22.21c.14-.36.13-1.26.73-.98-.17.27-.39.88-.73.98Z"/>
      </g>
      <circle class="cls-8" cx="103.48" cy="76" r=".54"/>
    </g>
  </g>
</svg>