<?xml version="1.0" encoding="UTF-8"?>
<svg id="Capa_2" data-name="Capa 2" xmlns="http://www.w3.org/2000/svg" viewBox="0 0 110.91 147.68">
  <defs>
    <style>
      .cls-1 {
        fill: #b46a27;
      }

      .cls-2 {
        fill: #4c4b2d;
      }

      .cls-3 {
        fill: #3b3923;
      }

      .cls-4 {
        fill: #f0d09f;
      }

      .cls-5 {
        fill: #e3ba87;
      }

      .cls-6 {
        fill: #6a3e1f;
      }

      .cls-7 {
        fill: #d28a38;
      }

      .cls-8 {
        fill: #6f6536;
      }

      .cls-9 {
        fill: #c47930;
      }

      .cls-10 {
        fill: #f6eddf;
      }

      .cls-11 {
        fill: #bca16f;
      }

      .cls-12 {
        fill: #e2a966;
      }

      .cls-13 {
        fill: #96804b;
      }

      .cls-14 {
        fill: #944f1d;
      }
    </style>
  </defs>
  <g id="Elementos">
    <g>
      <path class="cls-1" d="M75.4,61.21c-1.47,10.4-3.54,20.84-4.15,31.27l-.86,14.58c-.41,7.02-2.48,13.97-3.32,21.04-.73.12-1.08,1-.13.92-.1.48.05,1.03-.11,1.5-.76.6-1.34,1.42-2.15,1.95-14.15,9.38-36.64,9.26-50.88.71.05-.26-.08-.57-.06-.84,1.63-.11,3.31.38,4.95-.56-1.27-2.36-.82-4.5-2.47-6.56-2.38,1.31-2.94,3.43-4.49,4.62-.54-.09-1.05-.3-1.51-.58-.88-4.28-1.61-8.6-1.77-13.01,3.33.11.02,8.25,3.58,5.6.4-.3.47-1.28,1.42-1.65,2.03-.48,6.04-1.97,5.95-4.62,6.06-.41,2.3,8.9,6.84,9.72,1.31-.52,3.43-3.42,3.39-4.82-.06-2.06-1.97-3.36-1.63-5.1-2.41-1.04,6.97,1.87,8.34,1.08,4.85-2.8-1-14.19-7.18-18.6-1.38-.98-3.12.2-4.15.75-2.4-4.02-2.94-9.04-.23-12.93,11.26-5.71,1.12-8.85,7.89-13.57,3.64-2.54-7.31-.71-5.5-2.87,1.51-.23,3.02.11,4.53.12,11.68.03,32.77-.37,42.1-8.23l1.6.11Z"/>
      <path class="cls-4" d="M73.1,42.26c.56,1.77,1.95,3.51,1.36,5.5-2.05,6.99-23.7,10.73-32.99,9.31,1.41-.5,3.33-1.66,3.32-3.16-.01-1.22-1.76-3.86-3.55-3.78-3.93.17-7.9,3.39-9.8,6.6-3.79-.17-7.38.37-11.61-.73-4.31-1.12-8.44-3.52-13.55-2.86,6.76,4.13,14.58,4.77,21.89,6.31,1.26,1.61-6.38,1.15-7.76,8.02-6.14-.25-11.95-2.95-17.05-6.33-.11-2.46-.73-5.01-.42-7.72.16-1,2.04-.5,3.25-1.68-4.2-3.01-3.06-6.7-1.13-10,.52-.3,1.17-.85,1.78-1.11,2.24-.97,4.04.02,5.71,1.88,1.65,1.83,4.75.57,6.78,1.05l5.89,1.37,10.06,1.28c.52.07,11.23,6.51,13.91.6l9.24-1.89c1.61,1.99.86,5.04,4.73,5.17,1.32.04,2.17-1.4,2.74-2.8l3.69-8.99c1.73.59,2.94,2.22,3.49,3.96ZM22.38,48.47c.34-1.77-1.69-2.55-2.69-2.67-1.36-.16-3.36.6-2.95,2.59.35,1.7,1.79,2.25,2.87,1.87.73-.26,2.5-.33,2.78-1.79Z"/>
      <path class="cls-9" d="M3.37,61.14c5.11,3.38,10.91,6.08,17.05,6.33.56.02,1.11.19,1.64.34-.04,1.06.57,1.81,1.29,1.85,1.24.06,2.09-.18,2.97-.31l.85-.13c-1.82,2.16,9.14.33,5.5,2.87-6.78,4.72,3.37,7.86-7.89,13.57.21-9.2-1.21-4.75-3.33-13.87-2.22,1.94-4.71,3.97-4.86,6.46l-.53,9.04c2.02.52,3.52-.32,5.17.71.73,3.28.55,7.66-.67,10.53-.77.52-2.97.11-2.84,1.47-.96.5-10.76-4.18-10.96-4.64-1.4-3.23,1.77-7.02-1.66-6.35l-3.36-28.56c.5.29,1.14.38,1.62.7Z"/>
      <path class="cls-5" d="M56.05,144.84c-9.39,3.63-20.25,3.52-29.89,1.07-.75-3.53-14.28-3.3-12.36-12.73,14.25,8.55,36.73,8.67,50.88-.71-.97,9.26-9.55,9.47-9.04,11.07l.41,1.31Z"/>
      <path class="cls-3" d="M69.61,38.31l-3.69,8.99c-.57,1.39-1.42,2.84-2.74,2.8-3.87-.13-3.12-3.18-4.73-5.17.37-1.02,1.7-1.54,2.35-2.36,2.68-3.41,2.3-8.34,3.94-12.02,4.18-9.38,6.37-19.54,10.12-29.55.53-1.41,2.92-1.02,3.91-.54.84.4,2.57,1.21,2.09,2.73l-11.24,35.14Z"/>
      <path class="cls-2" d="M83.11,120.87c.39-1.89,1.89-3.41,1.78-5.44,1.41-.45,1.43-1.5,2.2-2.48,5.32-6.74,15.49-8.51,23.83-5.09-6.19,11.93-15.32,16.05-27.8,13.01Z"/>
      <path class="cls-3" d="M93.45,102.73c-3.21,2.49-7.46,3.43-8.73,9.33-.23,1.07,1.87,1.41,2.37.89-.77.98-.79,2.03-2.2,2.48-.32-5.61-3.83,2.95-4.01,3.51,2.63-.4,2.49-3.03,4.01-3.51.11,2.02-1.39,3.54-1.78,5.44-5.38,1.16-9.21,7-11.8,11.31,2.28-.92,3.95-1.52,4.98-2.41.55.31.46.88.13,1.31,4.78.1,9.09-1.11,14.21.21-2.54,2.34-12.65-.23-16.78,3.58-3.32-.51-6.02,1.4-8.54,3.59.51-1.83.79-3.71,1.5-5.49,5.13-4.03,11.27-12.15,7.08-19.1.61.01,1.41.07,1.79-.25.6-.49.68-1.46.45-2.39-.33-3.91-1.88-7.78.32-11.84,1.84,1.81-.55,15.4,2.22,15.16l-.32,4.25c6.57-11.12,7.45-9.27,7.25-21.9l2.32,3.74,8.49-14.52-7.24,17.35c1.35-.58,2.93-.8,4.25-.74Z"/>
      <path class="cls-2" d="M78.69,114.54c-2.77.24-.39-13.36-2.22-15.16-2.2,4.07-.66,7.93-.32,11.84.23.93.14,1.89-.45,2.39-.38.32-1.18.26-1.79.25-1.3-2.16-2.96-4.16-3.51-6.8l.86-14.58c2.85-.98,2.1-5.5,5.26-7.21,6.8,8.35,8.32,20.86,2.18,29.27Z"/>
      <path class="cls-4" d="M28.96,18.12c-.21,1.27-.17,2.6.5,3.85,1.41,2.64,7.67,1.39,8.2,3.27.17.85.13,3.73,1.59,3.75,4.36-2.69,7.96-6.38,10.69-10.29.33.12.63.32.87.58-1.77.94,3.02,3.62,2.3,7.28-.95,4.85-12.15,8.64-18,7.18-2.94-.74-4.73-4.1-7.57-5.11-2.79-.99-4.35-2.98-3.85-5.68.76-2.24,2.52-4.39,5.28-4.84Z"/>
      <path class="cls-4" d="M64.73,30.53c-1.64,3.68-1.27,8.61-3.94,12.02-.11-.44-.42-1.67-1.35-1.55-9.95,1.33-3.59-.48-11.8,4.28-6.3-.25-4.3-7.31-13.73-4.7-.12-.46.18-1.12-.02-1.54,5.63.1,3.63-4.22,16-4.97,1.71,1.06,1.94,3.32,3.67,4,1.44.56,2.56-1.17,2.82-2.11.3-1.08-1.01-2.47-1.6-3.61,1.1-2.22,3.07-4.27,2.83-6.88,2.39,1.72,5.33,2.66,7.12,5.06Z"/>
      <path class="cls-6" d="M57.61,25.47c.25,2.62-1.73,4.66-2.83,6.88.59,1.14,1.9,2.53,1.6,3.61-.26.94-1.38,2.67-2.82,2.11-1.74-.68-1.96-2.94-3.67-4-12.37.75-10.36,5.06-16,4.97-1.48-3.19-6.06-10.92-10.91-7.78-1.93,1.25-3.55.6-4.98-.62-.17-1.15-.24-2.32-.23-3.49.09-3.16,3.43-3.92,5.9-4.19-.5,2.69,1.06,4.69,3.85,5.68,2.85,1.01,4.64,4.37,7.57,5.11,5.85,1.47,17.05-2.33,18-7.18.72-3.67-4.07-6.34-2.3-7.28,3.81-.42,6.47,2.52,6.81,6.19Z"/>
      <path class="cls-11" d="M75.4,61.21l-1.6-.11c-.52-2.67.29-5.2.52-8.46-3.81,2.21-7.45,3.77-11.72,4.81l-3.36,4.54c-1.07-.81-.65-2.11-1.16-3.22-5.56-.49-11.08,1.6-16.42,1.42-4.35-.15-9.2.18-13.49-.73-7.32-1.54-15.13-2.18-21.89-6.31,5.1-.66,9.23,1.73,13.55,2.86,4.23,1.1,7.82.56,11.61.73,3.2.14,6.88-.14,10.02.34,9.29,1.42,30.94-2.32,32.99-9.31.58-1.99-.8-3.73-1.36-5.5,2.86.74,4.45,3.7,4,6.93l-1.69,12.02Z"/>
      <path class="cls-9" d="M17.89,103.6c.18,4.04.67,8.05,1.51,11.96.09,2.65-3.92,4.14-5.95,4.62-.95.37-1.02,1.35-1.42,1.65-3.56,2.64-.25-5.49-3.58-5.6-.02-.52.19-1.12.09-1.62.29-.37.57-.86.91-1.1.69-.49,1.55.44,2.51-.1.14-1.91-1.65-1.43-3-2.34-.5-3.21-.93-6.75-.13-9.89,5.12-1.1,5.31,3.15,9.07,2.43Z"/>
      <path class="cls-4" d="M45.01,13.66c.29,3.7-1.37,9.91-5.71,9.86-3.87-.05-6.19-4.62-9.4-5.55,6.38-5.82,3.84.39,9.38-9.48,2.92-.73,5.54,2.68,5.74,5.18Z"/>
      <path class="cls-6" d="M49.94,18.7c-2.74,3.91-6.33,7.59-10.69,10.29-1.46-.02-1.42-2.9-1.59-3.75-.53-1.88-6.78-.63-8.2-3.27-.67-1.25-.71-2.59-.5-3.85l.94-.15c3.21.93,5.53,5.5,9.4,5.55,4.35.05,6.01-6.16,5.71-9.86,2.72.36,4.61,2.32,4.93,5.04Z"/>
      <path class="cls-1" d="M10.84,36.34c.73.6,1.6.98,2.49,1.23.25.38.33,1.16.65,1.48.61.6,1.46.74,2.48.48l6.74-1.71c1.62-.41,2.77.69,3.25,1.89-1.25,1.46-1.98,3.38-1.22,5.22l-5.89-1.37c-2.03-.47-5.13.79-6.78-1.05-1.68-1.86-3.48-2.85-5.71-1.88-.07-2.26,1.9-3.8,3.99-4.28Z"/>
      <path class="cls-1" d="M17.73,99.99l.16,3.61c-3.77.72-3.96-3.53-9.07-2.43-.79,3.14-.37,6.69.13,9.89,1.35.92,3.14.43,3,2.34-.95.54-1.82-.39-2.51.1-.34.24-.62.72-.91,1.1-1.81-8.42-2.42-17.05-3.43-25.6,3.43-.67.26,3.11,1.66,6.35.2.46,10,5.14,10.96,4.64Z"/>
      <path class="cls-11" d="M11.74,129.82c.27,1.1,1.01,1.99,2.01,2.51-.03.27.11.58.06.84-1.91,9.43,11.61,9.2,12.36,12.73-4.78-1.22-10.43-1.53-14.04-6.18-2.32-2.98-1.24-7.26-1.9-10.48.47.28.97.49,1.51.58Z"/>
      <path class="cls-5" d="M5.07,41.74c-1.93,3.3-3.07,7,1.13,10-1.22,1.18-3.09.68-3.25,1.68-.32,2.71.3,5.26.42,7.72-.48-.32-1.12-.41-1.62-.7L.08,49.23c-.54-3.64,1.68-6.82,4.99-7.49Z"/>
      <path class="cls-13" d="M66.82,132.96c-.71,1.78-.99,3.65-1.5,5.49-1.53,5.54-5.26,4.85-9.26,6.39l-.41-1.31c-.51-1.6,8.08-1.8,9.04-11.07.81-.53,1.4-1.36,2.15-1.95-.25.75.07,1.74-.02,2.45Z"/>
      <path class="cls-4" d="M18.01,30.64c-5.99,5.26-1.72,2.03-4.67,6.93-.89-.25-1.77-.62-2.49-1.23.17-6.54,2.52-6.05,6.93-9.19,0,1.17.07,2.33.23,3.49Z"/>
      <path class="cls-4" d="M73.8,61.1c-9.33,7.86-30.42,8.26-42.1,8.23,1.79-4.8,3.92,1.27,8.61-3.64,1.1-1.15,3.25-.87,3.96-2.98-1.27-.74-2.47-1.32-2.6-2.54,5.34.18,10.85-1.9,16.42-1.42.51,1.12.09,2.41,1.16,3.22l3.36-4.54c4.27-1.04,7.91-2.6,11.72-4.81-.23,3.26-1.04,5.79-.52,8.46Z"/>
      <path class="cls-7" d="M24.78,85.66c-2.71,3.89-2.17,8.9.23,12.93-2.9,4.79,3.34,12.66-2.24,13.51,1.71,1.36,3.44,2.51,5.22,3.27-.34,1.74,1.58,3.04,1.63,5.1.04,1.4-2.08,4.3-3.39,4.82-4.53-.82-.78-10.13-6.84-9.72-.84-3.91-1.33-7.92-1.51-11.96l-.16-3.61c-.12-1.36,2.07-.96,2.84-1.47,1.22-2.86,1.4-7.25.67-10.53-1.65-1.03-3.15-.19-5.17-.71l.53-9.04c.15-2.49,2.63-4.52,4.86-6.46,2.12,9.12,3.54,4.67,3.33,13.87Z"/>
      <path class="cls-9" d="M28,115.36c-1.78-.77-3.52-1.91-5.22-3.27,5.58-.85-.66-8.72,2.24-13.51,1.03-.54,2.77-1.73,4.15-.75,6.18,4.42,12.03,15.81,7.18,18.6-1.37.79-10.76-2.12-8.34-1.08Z"/>
      <path class="cls-5" d="M41.67,60.18c.14,1.22,1.33,1.8,2.6,2.54-.71,2.11-2.86,1.83-3.96,2.98-4.68,4.91-6.82-1.15-8.61,3.64-1.5,0-3.01-.34-4.53-.12l-.85.13c-1.01-1.28-2.74-1.36-4.27-1.53-.54-.15-1.08-.32-1.64-.34,1.38-6.87,9.02-6.42,7.76-8.02,4.28.9,9.14.58,13.49.73Z"/>
      <path class="cls-9" d="M13.75,132.34c-1-.52-1.74-1.41-2.01-2.51,1.55-1.19,2.1-3.31,4.49-4.62,1.65,2.06,1.2,4.21,2.47,6.56-1.64.95-3.32.46-4.95.56Z"/>
      <path class="cls-13" d="M66.95,129.02c-.96.09-.6-.79.13-.92-.05.3-.06.62-.13.92Z"/>
      <path class="cls-7" d="M33.91,40.59c9.43-2.61,7.43,4.46,13.73,4.7.32.68.93,1.14,1.56,1.52-2.68,5.91-13.39-.53-13.91-.6l-10.06-1.28c-.77-1.84-.03-3.76,1.22-5.22,2.48.39,4.95.76,7.45.88Z"/>
      <path class="cls-3" d="M41.47,57.07c-3.15-.48-6.83-.2-10.02-.34,1.9-3.2,5.86-6.42,9.8-6.6,1.79-.08,3.54,2.56,3.55,3.78.01,1.5-1.91,2.66-3.32,3.16Z"/>
      <path class="cls-12" d="M60.79,42.55c-.64.82-1.97,1.35-2.35,2.36l-9.24,1.89c-.63-.38-1.24-.84-1.56-1.52,8.21-4.76,1.85-2.96,11.8-4.28.93-.12,1.24,1.11,1.35,1.55Z"/>
      <path class="cls-14" d="M22.38,48.47c-.28,1.45-2.04,1.53-2.78,1.79-1.08.38-2.52-.17-2.87-1.87-.41-1.98,1.59-2.75,2.95-2.59.99.12,3.03.9,2.69,2.67Z"/>
      <path class="cls-1" d="M26.33,69.34c-.88.13-1.73.37-2.97.31-.72-.03-1.33-.78-1.29-1.85,1.52.17,3.26.25,4.27,1.53Z"/>
      <path class="cls-2" d="M93.45,102.73c-1.31-.06-2.89.16-4.25.74l7.24-17.35-8.49,14.52-2.32-3.74c-.16-10.37,6.39-17.1,16.18-21.41,1.82,10.91.04,20.72-8.36,27.24Z"/>
      <path class="cls-8" d="M73.85,134.86c4.14-3.81,14.24-1.23,16.78-3.58-5.12-1.32-9.43-.1-14.21-.21.33-.43.41-1.01-.13-1.31,7.61-6.61,19.13-5.39,26.88,1.29-8.61,8.34-21.22,10.69-29.32,3.81Z"/>
      <path class="cls-10" d="M33.89,39.05c.19.42-.1,1.08.02,1.54-2.5-.12-4.98-.49-7.45-.88-.48-1.19-1.63-2.3-3.25-1.89l-6.74,1.71c-1.02.26-1.87.11-2.48-.48-.33-.32-.41-1.1-.65-1.48,2.95-4.9-1.32-1.68,4.67-6.93,1.43,1.22,3.05,1.87,4.98.62,4.85-3.13,9.43,4.6,10.91,7.78Z"/>
    </g>
  </g>
</svg>