<?xml version="1.0" encoding="UTF-8"?>
<svg id="Capa_2" data-name="Capa 2" xmlns="http://www.w3.org/2000/svg" viewBox="0 0 111.08 133.21">
  <defs>
    <style>
      .cls-1 {
        fill: #4c4b2d;
      }

      .cls-2 {
        fill: #3b3923;
      }

      .cls-3 {
        fill: #f0d09f;
      }

      .cls-4 {
        fill: #e3ba87;
      }

      .cls-5 {
        fill: #d28a38;
      }

      .cls-6 {
        fill: #6f6536;
      }

      .cls-7 {
        fill: #c47930;
      }

      .cls-8 {
        fill: #bca16f;
      }

      .cls-9 {
        fill: #e2a966;
      }

      .cls-10 {
        fill: #96804b;
      }
    </style>
  </defs>
  <g id="Elementos">
    <g>
      <path class="cls-8" d="M49.76,10.53c.19,1.1-1.16,1.75-1.54,2.43-10.51-1.29-34.5-.33-43.23,6.97-8.48,7.08,13.36,14.14,22.69,13.53,5.76-.38,11-.93,16.32-.1,1.21.19,2.18,2.11,3.28.68l3.32-.1c.82-.03,1.73.08,2.55.15,2.66.22,4.75.07,6.66-1.42,1.53-1.19,4.74-.67,6.05-2.52.59-.32,1.77-.21,2.44-.39,2.2-.59,3.21-2.97,4.37-4.81.53-.32,1.08-.61,1.65-.87,1.82.95,1.91,3.12,1.78,5.01l-.12,1.73-.03,1.66c-.02.87.26,1.86.05,2.71-1.26,4.98-1.07,10.21-.9,15.31-.39,1.2-1.04,2.6-.59,4.11.26.86-.07,2.49-.17,3.39l-3.75,34.55c-1.02,9.4-1.65,18.45-2.21,27.46l-2.48,6.96c-2.22.09-3.92,2.01-6.27,2.81-13.95,4.74-29.14,4.75-42.9-.87-2.62-1.07-6.91-3.56-7.23-6.86L0,22.45c4.74-12.73,39.3-13.47,49.76-11.92ZM22.64,36.73c7.6.82,15.17,2.31,22.87,1.73.81,1.9,1.97,3.89,4.16,4.12-.39,4.02,4.42,6.15,6.91,9.73l1.22-2.11c.66,1.74,2.21,2.1,3.8,1.76l.06,1.15c-.87.73-1.81,1.09-3.54,1.66,2.05,3.07,2.41,6.1,2.03,10.02,4.16-3.11,6.99-7.37,7.4-12.59-.47-.42-1.36-.09-1.69-.11,1.43-1.36,3.33-2.02,5.18-3.28,1.16-6,1.67-11.5,1.55-18.58-3.86,1.93-8.2,2.24-11.19,5.01l-5.7.72c-1.9.24-2.53,1.14-3.56,1.83-2.23,1.5-4.4-.9-6.53-.95l-15.27-.36-7.73-.69c-6.72-.6-13.01-3.32-19.33-6.8-.06,5.14.71,9.66,1.35,15.01,3.69-3.65,14.55-7.65,18.04-7.28ZM42.21,53.83c4.07.83,8.34,1.46,12.76-.99-4.05-4.31-9.3-5.59-14.42-5.15-1.91-1.36-3.8-2.68-5.47-4.75-2.34-2.9-5.67-.81-8.03.57-3.88,2.27-7.69,4.01-10.35,8.02l-9.45-2.88c2.57,2.55,5.56,3.05,8.74,4.82-2.8,3.24-2.88,6.24-1.17,9.69,1.11,2.23,3.39,5.5,6.18,4.23,4.16-1.9.41-11.51-1.93-12.57,3.81-.66,6.73,1.2,10.4.76,4.14-.49,8.73-2.55,12.74-1.74ZM45.5,61.09c-.4,1.22-1.94,1.53-3.11,1.64,1.29,3.84-4.29,10.22-2.86,12.82,2.03,3.69,6.31,5.26,10.5,7.02,2.32-3.91,5.65-8.22,6.48-12.97-2.02-1.99-5.69-3.56-6.17-6.67.57-.29,2.37.11,2.76-.7l3.08-6.31c-2.61-1.59-5,.51-7.48.56-2.86.06-6.18-1.5-8.57,1.08,2.53,1.32,5.09,1.23,5.36,3.52ZM59.9,65.98c0-.23-.19-.42-.42-.42s-.42.19-.42.42.19.42.42.42.42-.19.42-.42ZM26.61,80.54l9.27-1.01c1-5.24-2.55-10.27-6.77-12.99l-13.89,12.64c.58,3.36,3.2,5.23,5.29,8.26,1.82-1.95,2.87-6.55,6.1-6.9ZM57.58,100.59c2.74.25,1.32-3.77,1.69-5.04.88-3.02,1.06-5.6-1.48-7.6l-4.91-3.89-10.45,13.64c1.87,2.66,4.05,4.95,7.4,4.43l2.56-5.1c2.4-.48,3.36,3.39,5.18,3.56ZM19.74,114.59c8.75-14,11.87-6.34,14.46-8.95,1.67-1.69,6.93-11.28,5.47-15.47-1.05-3.02-6.24-4.93-8.92-4.12-2.6.78,1.33,4.72-9.68,8.89-3.73-.87-3.71-5.12-5.3-8.2-1.55,9.72-.41,19.3,3.97,27.85ZM40.93,117.61c1.72.88,7.21,1.67,7.16-1.1-.11-5.12-4.24-10.16-7.37-13.91-3.5,1.79-3.15,5.11-4.73,7.76-.54.91-2.19,1.27-2.04,2.31.11.79,1.75,4.66,2.84,5.39.94.63,2.45-1.32,4.14-.45ZM65.75,116.46c-2.99,2.43-4.56,4.68-7.95,4.54-10.78,4.72-37.92,4.1-45.85-5.26-5.18,18.79,43.59,19.31,52.22,8.31,1.54-1.97,1.17-4.9,1.59-7.59Z"/>
      <path class="cls-6" d="M80.16,111.05c.03-1.34.72-2.53,2.23-3.31-.42-.35-.93-.53-1.42-.75,0-.22.13-.45.1-.67.79-.49,1.26-1.42,1.97-2.44.81-.5.57-1.14-.25-.9,5.13-9.91,17.61-13.76,28.28-10.08-6.53,13.86-17.12,21.49-30.92,18.15ZM92.21,102.18c-3.61,0-6.94,1.83-8.92,5,3.49-1.22,6.04-2.58,8.92-5Z"/>
      <path class="cls-1" d="M92.12,88.38c-.41-.22-2.76-.81-2.4-1.57l5.41-11.36c-2.58,1.85-6.47,12.29-8.77,9.75-1.48-12.97,8.2-23.65,21.38-26.1.29,13.06-4.18,23.83-15.62,29.28ZM97.42,72.13c2.35-1.09,3.56-2.12,2.9-4.12-.8,1.82-2.49,2.42-2.9,4.12ZM97.31,74.04c0-.52-.42-.94-.94-.94s-.94.42-.94.94.42.94.94.94.94-.42.94-.94Z"/>
      <path class="cls-10" d="M81.28,97.02c-.71.98-1.08,2.27-2.72,2.42-7.02-7.65-6.53-19.84-.12-28.52,9.16,9.47,3.29,17.97,2.84,26.1Z"/>
      <path class="cls-2" d="M92.12,88.38c-1.23.59-3.03,1.61-4.56,2.18-4.47,6.02-7.92,12.12-10.63,19.12l4.04-2.7c.5.22,1,.41,1.42.75-1.52.78-2.21,1.98-2.23,3.31-6.91,1.97-11.24,15.76-14.27,15.89l2.48-6.96c4.89-5.76,8.55-13.17,10.19-20.55,1.65-.15,2.01-1.44,2.72-2.42,2.55-3.53,5.59-7.36,5.09-11.81,2.3,2.54,6.18-7.9,8.77-9.75l-5.41,11.36c-.36.75,1.99,1.34,2.4,1.57Z"/>
      <path class="cls-2" d="M81.08,106.32c-.15-1.42,1.14-2.23,1.72-3.34.82-.24,1.06.41.25.9-.71,1.02-1.18,1.95-1.97,2.44Z"/>
      <path class="cls-4" d="M19.74,114.59c-4.38-8.55-5.52-18.13-3.97-27.85,1.59,3.08,1.57,7.33,5.3,8.2,11.01-4.18,7.09-8.11,9.68-8.89,2.68-.81,7.86,1.1,8.92,4.12,1.46,4.19-3.8,13.78-5.47,15.47-2.59,2.62-5.71-5.04-14.46,8.95Z"/>
      <path class="cls-3" d="M65.75,116.46c-.41,2.69-.04,5.62-1.59,7.59-8.63,11-57.4,10.48-52.22-8.31,7.93,9.36,35.07,9.98,45.85,5.26,3.39.14,4.95-2.11,7.95-4.54Z"/>
      <path class="cls-4" d="M40.55,47.69c1.89,1.34,3.3,4.53,1.66,6.14-4.01-.81-8.6,1.25-12.74,1.74-3.67.43-6.59-1.42-10.4-.76,2.34,1.06,6.08,10.67,1.93,12.57-2.78,1.27-5.07-1.99-6.18-4.23-1.71-3.45-1.63-6.45,1.17-9.69-3.18-1.77-6.17-2.26-8.74-4.82l9.45,2.88c2.67-4.01,6.47-5.74,10.35-8.02,2.36-1.38,5.68-3.47,8.03-.57,1.68,2.07,3.56,3.4,5.47,4.75Z"/>
      <path class="cls-1" d="M61.39,35.24c.3,1.91.8,3.79,1.83,5.67,2.46-2.34,7.18,3.56,7.71,5.58-2.28,2.83-5.93,4.73-9.33,5.47-1.59.34-3.14-.02-3.8-1.76l-1.22,2.11c-2.49-3.59-7.3-5.71-6.91-9.73l2.46-4.78c1.03-.69,1.66-1.59,3.56-1.83l5.7-.72ZM58.37,49.3l2.36-3.13c-1.42.53-2.78,1.54-2.36,3.13Z"/>
      <path class="cls-1" d="M65.85,52.09c.34.02,1.22-.31,1.69.11-.41,5.22-3.24,9.47-7.4,12.59.38-3.92.02-6.95-2.03-10.02,1.74-.57,2.67-.93,3.54-1.66,1.09-.92,3.03-.64,4.19-1.02Z"/>
      <path class="cls-4" d="M50.35,62.94c.48,3.11,4.14,4.68,6.17,6.67-.83,4.75-4.16,9.06-6.48,12.97-4.2-1.77-8.47-3.34-10.5-7.02-1.43-2.6,4.15-8.98,2.86-12.82,1.17-.11,2.71-.42,3.11-1.64l4.85,1.85Z"/>
      <path class="cls-3" d="M26.61,80.54c-3.23.35-4.27,4.96-6.1,6.9-2.09-3.03-4.71-4.9-5.29-8.26l13.89-12.64c4.21,2.72,7.76,7.74,6.77,12.99l-9.27,1.01Z"/>
      <path class="cls-4" d="M57.58,100.59c-1.82-.17-2.78-4.04-5.18-3.56l-2.56,5.1c-3.35.51-5.53-1.78-7.4-4.43l10.45-13.64,4.91,3.89c2.54,2.01,2.35,4.59,1.48,7.6-.37,1.27,1.05,5.3-1.69,5.04Z"/>
      <path class="cls-4" d="M40.93,117.61c-1.69-.87-3.2,1.08-4.14.45-1.09-.73-2.73-4.6-2.84-5.39-.15-1.05,1.5-1.41,2.04-2.31,1.58-2.65,1.23-5.96,4.73-7.76,3.14,3.75,7.27,8.78,7.37,13.91.06,2.77-5.43,1.98-7.16,1.1Z"/>
      <path class="cls-6" d="M50.35,62.94l-4.85-1.85c-.27-2.29-2.84-2.2-5.36-3.52,2.39-2.58,5.71-1.03,8.57-1.08,2.48-.05,4.87-2.15,7.48-.56l-3.08,6.31c-.39.8-2.19.4-2.76.7Z"/>
      <path class="cls-10" d="M42.21,53.83c1.64-1.61.23-4.8-1.66-6.14,5.12-.43,10.37.85,14.42,5.15-4.42,2.45-8.7,1.81-12.76.99Z"/>
      <path class="cls-3" d="M45.59,36.85c.13.48-.27,1.16-.08,1.61-7.7.59-15.27-.91-22.87-1.73l-.06-.93,7.73.69,15.27.36Z"/>
      <path class="cls-7" d="M52.13,37.8l-2.46,4.78c-2.18-.23-3.34-2.21-4.16-4.12-.19-.45.21-1.13.08-1.61,2.14.05,4.3,2.46,6.53.95Z"/>
      <circle class="cls-1" cx="59.48" cy="65.98" r=".42"/>
      <path class="cls-2" d="M92.21,102.18c-2.87,2.42-5.43,3.78-8.92,5,1.98-3.17,5.3-5,8.92-5Z"/>
      <path class="cls-2" d="M97.42,72.13c.42-1.7,2.11-2.31,2.9-4.12.66,2-.55,3.04-2.9,4.12Z"/>
      <circle class="cls-2" cx="96.37" cy="74.04" r=".94"/>
      <g>
        <path class="cls-5" d="M74.33,57.97c.1-.91.43-2.53.17-3.39,14.67-1.28,24.31-17.61,20.28-31.7-2.79-9.77-11.52-18.61-23.05-18.56-15.73.06-26.46,14.93-24.45,29.72-1.1,1.43-2.07-.49-3.28-.68-1.39-7.16.65-14.11,4.22-20.4.38-.68,1.73-1.33,1.54-2.43C55.4,4.84,62.27-.12,71.03,0c18.33.26,31.21,16.81,28.21,34.74-2.15,12.85-12.23,22.66-24.91,23.23Z"/>
        <path class="cls-3" d="M74.5,54.58c-.45-1.5.2-2.9.59-4.11,2.36.47,4.21-.99,6.7-1.96,2.07-.8,3.9-4.03,2.73-5.96,2.72.77,4.51-.89,5.75-3.7.67-1.52,2.86-5.45.42-6.45-4.64-1.9-10.09-1.37-14.72-1.62l.12-1.73,10.92,1.27c1.77.21,3.64,0,4.53-1.29,1.67-2.46-.12-11.64-6.09-11.63,1.1-2.68-.36-4.41-2.17-5.72-1.53-1.11-5.81-3.41-6.73-1.11-1.8,4.46-1.94,9.25-2.23,13.47-.56.26-1.11.55-1.65.87-1.01-4.06,4.37-12.6,1.32-15.95-1.8-1.97-8.82-1.54-9.87.98-1.53,3.68,2.21,7.88,4.09,11.13.53,1.85-1.94,1.71-1.5-.16-1.91-3.3-3.73-5.91-5.35-9.58.35,2.83-8.92,3.52-7.28,9.14,1.2,4.1,13.82,4.85,14.22,9.23-.67.18-1.86.07-2.44.39,1.65-1.68-10.51-7.37-13.29-5.99-3.16,1.57-1.61,7.06-1.97,9.79l-3.32.1c-2.01-14.79,8.71-29.66,24.45-29.72,11.53-.04,20.26,8.79,23.05,18.56,4.02,14.1-5.61,30.42-20.28,31.7Z"/>
        <path class="cls-3" d="M84.52,42.56l-8.53-7.4c.22-.85-.06-1.84-.05-2.71,2.81,5.36,5.37,5.75,8.58,10.11Z"/>
        <path class="cls-9" d="M72.67,24.93c-1.16,1.84-2.17,4.22-4.37,4.81-.4-4.39-13.02-5.13-14.22-9.23-1.64-5.63,7.63-6.31,7.28-9.14,1.62,3.67,3.44,6.28,5.35,9.58-.44,1.87,2.03,2.01,1.5.16-1.89-3.25-5.62-7.46-4.09-11.13,1.05-2.53,8.07-2.96,9.87-.98,3.05,3.35-2.34,11.88-1.32,15.95ZM61.6,15.1c0-.23-.19-.42-.42-.42s-.42.19-.42.42.19.42.42.42.42-.19.42-.42Z"/>
        <path class="cls-9" d="M76.1,29.06c.14-1.89.04-4.06-1.78-5.01.29-4.22.43-9.01,2.23-13.47.93-2.3,5.21,0,6.73,1.11,1.8,1.31,3.27,3.04,2.17,5.72,5.97-.01,7.77,9.17,6.09,11.63-.88,1.3-2.75,1.5-4.53,1.29l-10.92-1.27ZM79.49,22.82c1.83-.61,2.6-1.68,3.26-3.02-1.6.77-2.3,1.93-3.26,3.02Z"/>
        <path class="cls-9" d="M84.52,42.56c1.17,1.93-.66,5.16-2.73,5.96-2.5.96-4.34,2.42-6.7,1.96-.17-5.11-.36-10.33.9-15.31l8.53,7.4Z"/>
        <path class="cls-9" d="M84.52,42.56c-3.21-4.36-5.77-4.75-8.58-10.11l.03-1.66c4.63.25,10.08-.28,14.72,1.62,2.43,1,.25,4.93-.42,6.45-1.25,2.81-3.03,4.47-5.75,3.7Z"/>
        <path class="cls-9" d="M65.85,52.09c-1.15.38-3.1.1-4.19,1.02l-.06-1.15c3.4-.73,7.05-2.64,9.33-5.47-.53-2.02-5.26-7.91-7.71-5.58-1.03-1.88-1.53-3.77-1.83-5.67,2.99-2.77,7.33-3.08,11.19-5.01.11,7.08-.4,12.57-1.55,18.58-1.85,1.26-3.75,1.92-5.18,3.28Z"/>
        <path class="cls-9" d="M65.86,30.13c-1.31,1.85-4.52,1.33-6.05,2.52-.67-1.19-1.43-2.59-3.17-2.84-2.02.9-3.07,2.52-3.49,4.26-.82-.07-1.73-.17-2.55-.15.36-2.73-1.19-8.22,1.97-9.79,2.78-1.38,14.94,4.31,13.29,5.99Z"/>
        <path class="cls-1" d="M59.81,32.65c-1.91,1.49-4.01,1.64-6.66,1.42.42-1.74,1.47-3.36,3.49-4.26,1.74.24,2.51,1.65,3.17,2.84Z"/>
        <circle class="cls-3" cx="61.17" cy="15.1" r=".42"/>
        <path class="cls-3" d="M79.49,22.82c.96-1.08,1.66-2.24,3.26-3.02-.66,1.34-1.43,2.41-3.26,3.02Z"/>
      </g>
      <path class="cls-8" d="M58.37,49.3c-.42-1.59.95-2.6,2.36-3.13l-2.36,3.13Z"/>
    </g>
  </g>
</svg>