<?xml version="1.0" encoding="UTF-8"?>
<svg id="Capa_2" data-name="Capa 2" xmlns="http://www.w3.org/2000/svg" viewBox="0 0 100.65 134.12">
  <defs>
    <style>
      .cls-1 {
        fill: #4c4b2d;
      }

      .cls-2 {
        fill: #f0d09f;
      }

      .cls-3 {
        fill: #e3ba87;
      }

      .cls-4 {
        fill: #a4451f;
      }

      .cls-5 {
        fill: #6a3e1f;
      }

      .cls-6 {
        fill: #d28a38;
      }

      .cls-7 {
        fill: #6f6536;
      }

      .cls-8 {
        fill: #c47930;
      }

      .cls-9 {
        fill: #f6eddf;
      }

      .cls-10 {
        fill: #bca16f;
      }

      .cls-11 {
        fill: #e2a966;
      }

      .cls-12 {
        fill: #944f1d;
      }
    </style>
  </defs>
  <g id="Elementos">
    <g>
      <path class="cls-10" d="M65.36,16.49c-.03,1.41-2.02,1.59-2.52,2.45-.28-.96-1.32-1.51-2.66-1.74-13.96-2.49-28.16-1.98-41.82,1.87-4.42,1.25-13.03,5.05-13.23,9.6-.05,1.25.5,2.58,1.84,3.11.02.47.07.94-.01,1.4-1.01.06-1.69.87-1.88,1.83-2.4,1.54-3.3,4.85-2.61,7.57-.58,5.91,2.34,11.31,5.99,16.5,18.17,18.52,60.69,17.34,73.56-5.09,1.93-3.36,3.22-6.96,2.82-10.64-.08-.7.61-1.5.43-2.24l1.99-.13c.89,7.62-2.32,15-7.92,20.73-7.03,7.19-16.43,10.29-26.07,12.96-3.68,1.02-4.29,6.5-4.66,9.75-.32,2.88-.16,34.97.66,26.93-.34,3.34,2.22,5.01,2.59,8.3-2.59-.8-4.8-4.29-4.84-7.65l-.41-32.93c-1.88.09-3.62.48-6.13.12.89,5.96,2.89,36.2-3.78,39.1-.17.79-1.26.99-1.01.02,2.29-1.46,2.84-4.41,2.7-7.02,2.28-1.08,1.1-26.4.79-29.33-.53-5.05-3.76-7.53-8.16-8.47C16.02,70.3-.69,59.9.02,42.64c.24-5.7.82-12.03,3.58-17.02,7.03-12.69,49.39-14.1,61.75-9.12Z"/>
      <path class="cls-3" d="M38.38,111.3c.14,2.62-.41,5.56-2.7,7.02-1.33.85-3.51,1.95-2.6,4.13,2.65-.75,3.67-3.32,6.07-3.07,4.34.46,9.06,2.53,12.7.28-.37-3.28-2.93-4.96-2.59-8.3,3.28-.35,6.48.6,9.54,1.74.16.44.06.93-.2,1.15-1.47,1.27-3.47.21-3.62,1.18-.47,3.05,3.02,4.55,5.66,7.02-4.6,4.54-9.85,1.97-8.89,8.65-9.52,2.51-20.17.53-29.5-3.45-2.58-1.1-3.42-4.07-5.89-4.46-.08-8.19,15.96-11.71,22.02-11.89Z"/>
      <path class="cls-2" d="M70.85,123.43c-5.36,4.63-11.97,7.67-19.09,7.67-.97-6.67,4.28-4.11,8.89-8.65-2.64-2.47-6.13-3.97-5.66-7.02.15-.97,2.15.09,3.62-1.18.26-.22.36-.71.2-1.15,5.51,1.2,12.24,3.78,12.04,10.32ZM55.27,128.74c0-.23-.19-.42-.42-.42s-.42.19-.42.42.19.42.42.42.42-.19.42-.42Z"/>
      <path class="cls-4" d="M74.03,18.93c-.66.02-1.25.06-1.53.61s-.55,1.58.51,1.8,2.48-.29,3.06.63c1.2,1.87-13.17,12.68-15.49,12.31-.34-.65-1.03-1.31-.93-2.63l.52-7.37c.13-1.89,1.74-3.7,2.67-5.34.5-.87,2.49-1.05,2.52-2.45.58-.11,1.2-.09,1.78-.23,1.4-.35,2.82-.75,4.39-.48,1.59.27,1.6,2.11,2.5,3.15Z"/>
      <path class="cls-1" d="M84.07,24.93c9.86,3.01,15.48,6.38,16.57,18.03-5.53-.74-10.51-2.65-13.1-7.1-.67-1.14-1.73-2.12-1.96-3.49l-.81-4.87c-.23-1.4-1.27-1.95-2.28-2.08-.32-.34-.63-.7-.9-1.08v-.98c.99.14,1.61,1.3,2.48,1.57Z"/>
      <path class="cls-10" d="M51.76,131.1c7.11,0,13.72-3.04,19.09-7.67-.42,13.58-51.6,14.99-54.48-.24,2.47.38,3.32,3.36,5.89,4.46,9.34,3.98,19.98,5.96,29.5,3.45Z"/>
      <path class="cls-7" d="M84.07,24.93c-.87-.26-1.49-1.43-2.46-1.57-.67-1.04-1.03-2.24-1.09-3.47.8-4.8,11.53-8.97,15.86-9.28-.15,3.87-2.99,6-5.75,8.03-1.35,1-1.23,3.22-2.59,4.07s-3.32.74-3.97,2.21Z"/>
      <path class="cls-5" d="M74.03,18.93c.93,1.08,2.85,1.71,4.16,1.77.79.04,1.6-.58,2.33-.81.06,1.24.43,2.43,1.09,3.47v.98c-2.47-1.49-7.57,3.42-7.57,4.37,0,.67.55,1.14.68,2.08-1.27-.03-2.04-.67-2.69-.46-1.41.47-.76,2.04-3.34,6.44l-5.48-.59c-1.48-.16-2.15-.96-2.64-1.89,2.33.36,16.69-10.45,15.49-12.31-.59-.91-2.01-.41-3.06-.63s-.78-1.26-.51-1.8.87-.59,1.53-.61Z"/>
      <path class="cls-7" d="M78.9,17.25c-.61,0-1.49.08-1.9-.25-.94-.77-.34-1.85-.75-3.2-.7.43-.69,1.03-1.15,1.4-.36.29-.81-.07-.97-.55,1.14-3.97-.66-10.21,6.65-14.65,1.38,6.4-1.17,11.71-1.88,17.25Z"/>
      <path class="cls-1" d="M74.13,14.65c.16.48.61.83.97.55.46-.37.44-.97,1.15-1.4.4,1.35-.19,2.43.75,3.2.41.34,1.29.24,1.9.25-.15,1.16.25,2.48-.71,3.45-1.31-.06-3.24-.69-4.16-1.77s-.91-2.88-2.5-3.15c-1.57-.27-3,.13-4.39.48.2-1.71-1.52-5.64.86-6.68s5.42,2.96,6.13,5.07Z"/>
      <path class="cls-2" d="M85.59,32.37c.23,1.37,1.29,2.35,1.96,3.49-1.28-1.28-.39,4.29-.29,5.14l-1.99.13-3.07-5.34c.23-1.7,1.4-3.42,3.4-3.42Z"/>
      <path class="cls-4" d="M27.28,52.12c10.57,2.3,21.33,2.43,32.06.38,7.99-1.53,16.58-2.67,22.99-8.16.64-.55,1.8-.49,2.5-.98.4,3.68-.89,7.28-2.82,10.64-12.87,22.43-55.4,23.62-73.56,5.09-3.65-5.19-6.57-10.59-5.99-16.5l1.17-.03c5.96,6.86,15.33,7.75,23.65,9.55Z"/>
      <path class="cls-8" d="M60.17,24.29l-.52,7.37c-.09,1.33.59,1.98.93,2.63.49.93,1.16,1.73,2.64,1.89l5.48.59c-.81,1.37-2.31,1.47-3.24,2.74-16.75,5.49-43.71,4.35-58.5-6.32.08-.46.04-.94.01-1.4,15.1-9.24,36.14-9.88,53.2-7.5Z"/>
      <path class="cls-8" d="M82.19,35.79l3.07,5.34c.18.74-.5,1.54-.43,2.24-.7.48-1.85.43-2.5.98-3.73-2.39-7.7-.58-11.34,1.97-.66.46-2.18-1.04-2.84-.92-1.08.2-2.08,1.22-2.76,2.34-2.42,3.95-5.6,1.86-6.05,4.76-10.73,2.06-21.49,1.92-32.06-.38-6.61-3.9-10.67.2-13.57-12.27,21.28,7.25,48.28,6.29,68.47-4.07Z"/>
      <path class="cls-9" d="M62.84,18.95c-.94,1.64-2.54,3.45-2.67,5.34-17.06-2.38-38.1-1.74-53.2,7.5-1.33-.53-1.89-1.86-1.84-3.11.2-4.55,8.81-8.35,13.23-9.6,13.66-3.85,27.86-4.36,41.82-1.87,1.34.24,2.38.79,2.66,1.74Z"/>
      <path class="cls-2" d="M51.85,119.67c-3.64,2.25-8.36.19-12.7-.28-2.4-.26-3.42,2.32-6.07,3.07-.91-2.18,1.27-3.28,2.6-4.13-.25.97.84.77,1.01-.02,6.67-2.9,4.67-33.14,3.78-39.1,2.52.36,4.25-.04,6.13-.12l.41,32.93c.04,3.36,2.24,6.85,4.84,7.65Z"/>
      <path class="cls-3" d="M85.59,32.37c-2,0-3.17,1.72-3.4,3.42-20.19,10.36-47.19,11.31-68.47,4.07-.19-.06-.6-.03-.79.02l-7.85-4.86c.19-.96.88-1.77,1.88-1.83,14.79,10.66,41.75,11.81,58.5,6.32,2.29-.75,19.51-2.8,17.05-14.09,1.01.13,2.04.68,2.28,2.08l.81,4.87Z"/>
      <path class="cls-8" d="M5.07,35.02l7.85,4.86-9.29,2.69-1.17.03c-.68-2.72.21-6.03,2.61-7.57Z"/>
      <circle class="cls-3" cx="54.84" cy="128.74" r=".42"/>
      <path class="cls-12" d="M81.6,24.34c.28.38.58.73.9,1.08,2.46,11.3-14.76,13.34-17.05,14.09.92-1.26,2.43-1.37,3.24-2.74,2.58-4.39,1.93-5.97,3.34-6.44.66-.22,1.42.43,2.69.46-.13-.94-.68-1.41-.68-2.08,0-.95,5.09-5.86,7.55-4.37Z"/>
      <path class="cls-11" d="M12.92,39.88c.19-.06.6-.09.79-.02,2.9,12.47,6.96,8.37,13.57,12.27-8.32-1.81-17.7-2.69-23.65-9.55l9.29-2.69Z"/>
      <path class="cls-6" d="M82.33,44.34c-6.42,5.49-15,6.62-22.99,8.16.44-2.9,3.63-.81,6.05-4.76.68-1.11,1.68-2.14,2.76-2.34.67-.12,2.18,1.38,2.84.92,3.64-2.55,7.61-4.36,11.34-1.97Z"/>
    </g>
  </g>
</svg>