<?xml version="1.0" encoding="UTF-8"?>
<svg id="Capa_2" data-name="Capa 2" xmlns="http://www.w3.org/2000/svg" viewBox="0 0 109.11 60.05">
  <defs>
    <style>
      .cls-1 {
        fill: #d7d9a8;
      }
    </style>
  </defs>
  <g id="Elementos">
    <g>
      <path class="cls-1" d="M12.14,13.92c5.86-5.97,14.13-8.79,22.07-11.41-3.47,6.36-5.21,13.49-7.94,20.2-2.73,6.71-6.78,13.33-13.2,16.67-4.24,2.21-9.28,2.86-13.06,5.79,1.96-1.52,2.7-12.99,3.55-15.65,1.82-5.7,4.34-11.27,8.59-15.59Z"/>
      <path class="cls-1" d="M35.55,13.84c1.35-4.36,2.73-9.16,6.49-11.74C44.71.26,48.12-.08,51.36.01c5.49.16,10.95,1.45,15.94,3.77-4.15.57-7.55,3.67-9.89,7.15-2.35,3.47-3.92,7.42-6.2,10.94-4.34,6.72-19.66,19.09-28.21,14.17,1.89-3.43,5.43-6.2,7.48-9.81,2.2-3.88,3.76-8.13,5.07-12.39Z"/>
      <path class="cls-1" d="M56.48,24.57c2.52-3.81,4.12-8.17,6.8-11.87,2.68-3.69,6.94-6.78,11.46-6.2,3.32.42,6.07,2.69,8.47,5.02,2.18,2.12,4.25,4.36,6.17,6.72-5.07-.64-9.89,2.35-13.75,5.7-3.86,3.35-7.41,7.29-12.14,9.26-2.12.88-15.6,4.2-16.7,1.69-.44-1.01,8.45-8.45,9.68-10.31Z"/>
      <path class="cls-1" d="M91.91,23.35c2.46.73,4.34,2.69,6.09,4.56,2.84,3.05,5.69,6.1,8.53,9.15-1.88-2.01-11.66-1.71-14.27-1.83-3.44-.16-12.05,1.75-14.88.11-7.75-4.47,9.72-13.41,14.53-11.99Z"/>
      <path class="cls-1" d="M.84,50.67c1.81-.93,3.62-1.86,5.43-2.79,2.29-1.17,4.64-2.37,7.2-2.64,4.59-.48,8.9,2.06,12.74,4.63,3.84,2.57,7.9,5.36,12.51,5.45-5.93,2.29-12.16,3.82-18.47,4.53-1.5.17-3.02.29-4.51.07-2.42-.36-4.61-1.61-6.73-2.83-2.76-1.59-5.4-4.83-8.16-6.42Z"/>
      <path class="cls-1" d="M24.54,42.16c5.15,3.75,10.52,7.6,16.76,8.9,7.49,1.56,15.91-.61,22.49,3.28-2.33-1.38-4.38-5.87-6.71-7.79-2.88-2.37-6.2-4.23-9.73-5.45-8.25-2.85-14.69-1.18-22.81,1.06Z"/>
      <path class="cls-1" d="M56.58,39.29c2.09,2.18,4.19,4.37,6.28,6.55.97,1.01,1.95,2.03,3.12,2.81,3.16,2.09,7.23,2.12,11,1.76,3.77-.36,7.63-1.02,11.3-.08-4.96-2.7-8.18-7.91-13.12-10.65-3.51-1.94-14.74-1.77-18.57-.4Z"/>
      <path class="cls-1" d="M82.66,38.91c1.92,2.44,4.21,4.59,6.77,6.35,1.55,1.06,3.25,2,5.11,2.2,1.54.16,3.08-.19,4.57-.6,3.46-.97,6.82-2.33,9.99-4.03-.72.39-10.5-3.59-11.63-3.8-4.88-.91-9.92-.96-14.82-.12Z"/>
    </g>
  </g>
</svg>