<?xml version="1.0" encoding="UTF-8"?>
<svg id="Capa_2" data-name="Capa 2" xmlns="http://www.w3.org/2000/svg" viewBox="0 0 143.95 98.07">
  <defs>
    <style>
      .cls-1 {
        fill: #063953;
      }
    </style>
  </defs>
  <g id="Elementos">
    <g>
      <path class="cls-1" d="M48.36,71.38c-5.91.95-12.14-.11-17.4-2.97-5.26-2.86-9.54-7.51-11.95-12.99,1.82,3.27,5.78,4.7,9.5,5.12,3.72.42,7.54.1,11.15,1.07,3.52.95,6.69,3.15,8.81,6.11.62.87,1.17,1.98.77,2.96l-.88.7Z"/>
      <path class="cls-1" d="M65.73,69.62c4.23,1.99,7.08,6.06,10.98,8.64-6.89-2.52-15.08.67-21.66-2.58-4.64-2.3-3.53-4.94.69-6.45,3.21-1.14,6.88-1.07,9.98.39Z"/>
      <path class="cls-1" d="M49.94,56.43c1.56-3.37,4.33-5.99,7.05-8.52,1.75-1.63,3.49-3.26,5.24-4.9-2.31,2.75-3.7,6.27-3.87,9.86-.11,2.19.21,4.39-.08,6.56-.34,2.51-4.07,10.56-7.51,8.12-2.88-2.05-2.01-8.53-.82-11.12Z"/>
      <path class="cls-1" d="M37.03,55.15c7.13-.54,13.8-5.15,16.83-11.62.81-1.72,1.31-3.91.14-5.4-.8-1.02-2.21-1.41-3.49-1.23s-2.44.85-3.47,1.62c-2.86,2.16-4.96,5.31-5.86,8.78-.42,1.63-.65,3.44-1.88,4.59-.58.55-1.34.88-2.1,1.13-2.22.73-4.35.53-6.6.49.24,1.88,4.92,1.74,6.44,1.63Z"/>
      <path class="cls-1" d="M38.59,47.1c1.37-2.08,1.88-4.61,3.09-6.78,2.07-3.72,6.29-6.13,10.54-6.04-4.06-1.68-8.65.22-12.55,2.24-2.97,1.54-5.92,3.17-8.42,5.39-1.95,1.73-6.3,7.19-2.9,9.18,3.18,1.87,8.56-1.45,10.23-3.99Z"/>
      <path class="cls-1" d="M23.51,48.19c-.65-.68-1.58-1.14-2.51-1.02s-1.76.99-1.66,1.93c.04.36.21.69.39,1,.55.97,1.22,1.87,1.99,2.68.39.4.84.8,1.39.87.29.04.59-.02.86-.11.56-.19,1.09-.55,1.35-1.09.59-1.23-1.02-3.44-1.81-4.26Z"/>
      <path class="cls-1" d="M72.81,42.02c1.35-1.29,3.16-1.97,4.95-2.5,3.9-1.16,8.14-1.85,11.25-4.48-1.26,2-2.62,3.93-4.09,5.78-1.63,2.06-3.49,4.1-5.95,5.04-1.16.45-6.02,1.9-7.09,1.24-1.79-1.1-.21-3.98.93-5.08Z"/>
      <path class="cls-1" d="M77.73,29.88c1.81-1.55,4.33-1.88,6.65-2.45,2.98-.74,5.85-1.97,8.43-3.65-1.17,3.75-2.51,7.74-5.65,10.11-2.01,1.52-4.47,2.11-6.86,2.74-2.13.56-4.95,2.15-6.99,2.2,1.03-2.87,2-6.88,4.42-8.95Z"/>
      <path class="cls-1" d="M85.63,20.35c3.76-2.14,8.36-2.75,11.72-5.49-1.35,3.81-4.16,7.07-7.72,8.98-1.41.75-7.37,3.56-8.85,2.47-1.97-1.45,3.59-5.24,4.86-5.96Z"/>
      <path class="cls-1" d="M98.51,6.32c-.77,1.28-1.12,2.77-1.69,4.15-.54,1.3-6.82,9.62-8.31,6.53-1-2.07,8.49-9.54,10.01-10.68Z"/>
      <path class="cls-1" d="M67.82,50.91c.91-.95,1.41-2.23,1.68-3.52.08-.39.14-.79.1-1.19-.13-1.34-1.56-2.4-2.87-2.13-.9.18-1.62.85-2.21,1.56-1.02,1.22-2.65,3.84-1.79,5.52.99,1.93,3.97.94,5.09-.23Z"/>
      <path class="cls-1" d="M66.07,42.53c.7.23,1.47.11,2.14-.18.34-.15.66-.34.91-.61.38-.41.57-.98.66-1.53.2-1.25-.07-2.56-.74-3.63-.33-.52-.82-1.03-1.44-1.04-.23,0-.45.06-.67.14-.6.21-1.18.54-1.6,1.02-1.25,1.44-1.48,5.13.74,5.84Z"/>
      <path class="cls-1" d="M107.8,76.67c2.22-1.9,3.58-4.6,4.76-7.27,1.37-3.09,2.61-6.43,2.1-9.77-.43-2.8-2.06-5.28-4.03-7.31,2.69,3.94,1.57,9.97-2.35,12.68-1.87,1.29-4.14,1.84-6.11,2.98-1.78,1.03-3.25,2.57-4.26,4.35-.69,1.22-2.29,4.52-1.36,5.89.87,1.27,4.27,1.07,5.57.91,2.07-.26,4.09-1.1,5.68-2.46Z"/>
      <path class="cls-1" d="M99.48,67.21c1.56-1.14,3.36-1.94,4.89-3.11,2.57-1.97,4.3-5.01,4.67-8.23.19-1.66-.05-3.54-1.33-4.61-1.15-.96-2.88-.98-4.27-.4-1.39.58-2.49,1.67-3.49,2.79-3.45,3.88-6.06,8.51-7.6,13.47-.6,1.95-1.05,3.99-.9,6.02.13,1.89.91,4.53,2.65,5.52.15-4.58,1.4-8.55,5.37-11.44Z"/>
      <path class="cls-1" d="M72.65,52.61c4.42-2.34,10.09-2.97,14.31-.28,1.71,1.09,3.19,3.04,2.68,4.99-.48,1.85-2.6,2.87-4.5,2.74-1.9-.13-3.62-1.13-5.25-2.13-1.62-1-3.3-2.05-5.19-2.3-2.57-.35-4.17,1.24-6.34,1.79-.82-1.94,2.84-4.04,4.28-4.8Z"/>
      <path class="cls-1" d="M67.06,59.59c-.28.19-.56.41-.68.73-.12.32-.07.67.02,1,.64,2.39,2.9,4.01,5.19,4.94,3.17,1.28,6.77,1.62,10.05.67,3.29-.95,6.21-3.26,7.66-6.36-.88,1.74-2.99,2.6-4.94,2.49s-3.76-1.01-5.43-2.02c-4.03-2.44-7.42-4.49-11.86-1.44Z"/>
      <path class="cls-1" d="M84.89,84.1c3.79-1.29,7.92-.72,11.88-.13-2.85,1.97-5.13,4.64-7.74,6.92-2.61,2.28-5.76,4.24-9.23,4.29-2.29.03-4.81,1-6.83,2.89.97-4.38,3.96-8.2,4.89-9.15,2-2.05,4.28-3.88,7.02-4.82Z"/>
      <path class="cls-1" d="M63.22,82.93c3.12,2.5,4.86,6.3,6.49,9.95-3.19-1.35-6.67-1.83-9.99-2.81-3.32-.98-6.67-2.59-8.57-5.49-1.25-1.91-1.81-4.28-3.38-5.94.82.86,6.31.66,7.62.94,2.8.59,5.57,1.53,7.83,3.34Z"/>
      <path class="cls-1" d="M84.47,69.32c-1.01.21-1.91.92-2.36,1.85-.38.79-.43,1.7-.36,2.57.08.98.31,1.97.88,2.77.57.8,1.52,1.38,2.5,1.31,1.16-.08,2.12-1.04,2.53-2.13s.4-2.29.35-3.45c-.09-2.02-1.41-3.37-3.54-2.92Z"/>
      <path class="cls-1" d="M105.52,28.7c2.46-.19,4.98.13,7.22,1.17,2.23,1.04,4.15,2.85,5.1,5.12.53,1.27.67,2.94-.37,3.83-.68.58-1.64.65-2.53.65-.91,0-1.83-.05-2.7-.32-1.78-.54-3.18-1.91-4.44-3.28s-2.5-2.83-4.17-3.67c-1.83-.91-3.28-.04-4.96-.33,1.29-2.17,4.47-3,6.84-3.18Z"/>
      <path class="cls-1" d="M97.87,33.78c-.32.07-.64.16-.9.36-.78.62-.5,1.87-.06,2.76,2.33,4.66,7.36,7.71,12.55,8.1,3.15.24,6.77-.73,8.2-3.55-1.2,1.74-3.81,1.96-5.73,1.07-1.92-.89-3.3-2.6-4.61-4.26-2.57-3.23-5.12-5.43-9.45-4.49Z"/>
      <path class="cls-1" d="M131.95,7.81c1.78,3.88,3.87,6.07,4.24,12.21.15,2.54.19,4.1,1.25,6.42.57,1.23,3.88,6.86,5.23,7,2.12.22,1-6.93.8-8.28-.48-3.26-4.61-12.59-11.52-17.35Z"/>
      <path class="cls-1" d="M136.52,31.08c-4.06-1.34-7.79-1.3-12.09.73,2.02,1.17,4.04,2.35,6.06,3.52,1.1.64,2.21,1.28,3.34,1.78,3.66,1.63,7.21,1.52,9.56-.1-1.01-3.17-4.38-5.11-6.86-5.93Z"/>
      <path class="cls-1" d="M132.37,46.43c-1.15,1.87-1.74,4.02-2.52,6.07-.9,2.37-2.06,4.64-3.46,6.76,3.33-2.37,6.62-4.85,9.42-7.83,1.16-1.23,7.52-8.79,5.81-10.4-2.2-2.07-8.31,3.86-9.25,5.39Z"/>
      <path class="cls-1" d="M116.82,57.17c.2-3.28,1.72-6.46,4.14-8.68-.72,1.16-1.15,2.5-1.22,3.86-.13,2.51.91,4.92,1.51,7.36.46,1.89,1.05,7.44-2.09,5.53-2.02-1.23-2.47-6.03-2.34-8.07Z"/>
      <path class="cls-1" d="M121.64,52.43c-.32-3.52,2.06-6.65,4.31-9.38-.11,2.46-.37,14.38-2.96,14.79-.5-1.73-1.18-3.6-1.35-5.41Z"/>
      <path class="cls-1" d="M128.18,43.36c.14-.41.29-.83.55-1.18.36-.48.9-.79,1.42-1.08,1.05-.59,2.11-1.18,3.16-1.78-1.02,1.34-1.45,3.03-2.11,4.58-.42.98-1.85,4.48-3.23,4.32-1.6-.19-.14-3.85.2-4.87Z"/>
      <path class="cls-1" d="M125.97,36.7c-.42-.06-.86.02-1.27.12-.78.19-1.54.46-2.27.81-.55.26-1.09.58-1.48,1.04s-.63,1.1-.48,1.69c.18.76.95,1.27,1.72,1.37.77.1,1.55-.13,2.28-.42.82-.33,1.64-.75,2.21-1.43.9-1.06,1-2.92-.7-3.17Z"/>
      <path class="cls-1" d="M32.11.48c-1.72,1.52-3.43,3.03-5.15,4.55-1.18,1.04-2.37,2.09-3.77,2.86-2,1.1-6.05,2.47-8.87,1.29-4-1.68-1.09-4.3.97-5.56C19.38,1.13,27.9-.98,32.11.48Z"/>
      <path class="cls-1" d="M30.46,3.89c1.01-.92,2.01-1.9,3.26-2.47,1.74-.79,3.81-.71,5.68-.13,1.87.57,3.58,1.6,5.24,2.65-4.81-.29-8.29,4.56-13,5.38-2.23.39-5.27.17-7.42-.46,1.86-1.8,4.28-3.18,6.24-4.96Z"/>
      <path class="cls-1" d="M40.62,7.62c1.2-.47,2.43-.94,3.75-1.03,2.36-.16,4.81.92,6.81,2.47s3.62,3.54,5.21,5.5c-3.85-1.18-17.85-1.94-19.76-5.02,1.02-.95,2.58-1.38,3.99-1.93Z"/>
      <path class="cls-1" d="M21.7,12.35c2.78,1.82,4.45,5.23,7.43,6.6-3.17-.05-6.42-.26-9.5-1.4-1.87-.69-7.83-3.65-6.31-6.22,1.2-2.02,6.77-.03,8.38,1.02Z"/>
      <path class="cls-1" d="M23.36,11.71c.71.72,1.42,1.44,2.13,2.16.49.5.98,1,1.5,1.46,3.2,2.86,7.56,4.39,11.81,4.15-3.26-1.52-4.45-4.93-7.11-7.07-1.16-.93-2.45-1.02-3.97-1.08-.63-.03-4.15.6-4.36.38Z"/>
      <path class="cls-1" d="M37.32,15.8c.8.71,1.64,1.39,2.57,1.84,2.58,1.27,5.27.57,7.66-.15,2.09-.63,4.17-1.26,6.26-1.89-3.03.23-6.23-.19-9.35-1.23-2.54-.84-5.05-2.09-7.63-2.62-.77-.16-2.95-.72-3.13.15-.17.81,3.03,3.37,3.63,3.89Z"/>
      <path class="cls-1" d="M115.71,49.71c.45-.41.8-1.03.63-1.62-.2-.7-1.02-1.03-1.75-1.09-1.12-.09-2.27.22-3.19.87-.26.19-.52.42-.6.73-.05.18-.02.38.03.55.58,1.86,3.73,1.59,4.88.55Z"/>
      <path class="cls-1" d="M77.13,84.28c.45-.41.8-1.03.63-1.62-.2-.7-1.02-1.03-1.75-1.09-1.12-.09-2.27.22-3.19.87-.26.19-.52.42-.6.73-.05.18-.02.38.03.55.58,1.86,3.73,1.59,4.88.55Z"/>
      <path class="cls-1" d="M72.48,35.28c.32-.29.57-.72.48-1.11-.11-.47-.66-.66-1.15-.68-.76-.03-1.54.22-2.19.69-.18.13-.37.3-.43.51-.04.12-.03.25,0,.37.34,1.24,2.48.95,3.28.22Z"/>
      <path class="cls-1" d="M117.6,2.14c-2.37-.35-5.25-.39-7.51.42-2.94,1.05-5.66,2.68-7.36,4.86s-1.89,5.48-.68,7.74c-.39-.85.27-1.82.95-2.6,1.62-1.86,3.74-3.69,6.49-4.16,1.24-.21,2.5-.12,3.75-.1,2.69.05,6.85-.22,8.83-2.05,1.93-1.79-2.78-3.85-4.48-4.1Z"/>
      <path class="cls-1" d="M122.75,7.21c-2.61,2.13-4.25,2.51-6.84,2.83-2.59.32-5.29.37-7.66,1.34-2.12.86-3.76,2.4-4.73,4.11-.21.37-.38.82-.09,1.13.16.17.44.25.7.31,1.44.37,2.99.62,4.51.39,1-.15,1.94-.51,2.86-.88,1.16-.46,2.42-.76,3.55-1.25,1.85-.81,3.56-1.87,5.04-3.07s2.56-2.79,2.58-4.42c0-.17-.1-.4-.31-.35"/>
      <path class="cls-1" d="M125.12,6.04c.73,1.55.14,3.68-.44,5.29-.58,1.61-1.13,2.83-1.54,4.5-.76,3.09.32,6.72,3,8.44,1.93-2.52,2.7-6.48,2.49-9.6-.11-1.59-.32-3.01-.92-4.49s-1.01-2.49-2.59-4.13Z"/>
      <path class="cls-1" d="M118.03,19.79c-2.12-.31-4.37.4-6.43,1.34s-4.05,2.11-6.18,2.82c2.1-.08,4.1.5,6.06,1.05,1.96.55,3.98,1.08,6.09.92,1.35-.11,5.13-1.01,4.99-2.92-.13-1.76-3.07-2.99-4.53-3.21Z"/>
      <path class="cls-1" d="M120,28.49c-.83,1.46-1.19,3.15-1.41,4.81.95-1.32,2.34-2.31,3.9-2.78.67-.2,1.38-.31,2-.66.87-.49,1.45-1.48,1.36-2.47-.38-4.02-4.89-.58-5.84,1.1Z"/>
      <path class="cls-1" d="M97.57,28.87c-.76.26-1.65-.23-1.98-.96-.33-.73-.17-1.63.29-2.3s1.15-1.13,1.89-1.45c.47-.21.99-.36,1.5-.32,1.08.09,1.96,1.18,1.83,2.25-.09.73-.58,1.35-1.17,1.78s-1.29.69-1.97.94c.07-.05.14-.1.2-.15"/>
      <path class="cls-1" d="M131.1,27.29c-.76.26-1.65-.23-1.98-.96s-.17-1.63.29-2.3,1.15-1.13,1.89-1.45c.47-.21.99-.36,1.5-.32,1.08.09,1.96,1.18,1.83,2.25-.09.73-.58,1.35-1.17,1.78s-1.29.69-1.97.94c.07-.05.14-.1.2-.15"/>
      <path class="cls-1" d="M99.45,22.45c.66.06,1.38-.11,1.83-.6.55-.6.58-1.56.22-2.29s-1.05-1.25-1.79-1.6c-.45-.21-.94-.38-1.43-.3-.28.04-.55.17-.79.32-.66.42-1.16,1.12-1.22,1.9-.12,1.65,1.81,2.45,3.17,2.57Z"/>
      <path class="cls-1" d="M20.22,40.35c.31-2.34-.58-4.61-1.6-6.67-1.25-2.53-2.73-4.94-4.42-7.19-1.08-1.44-2.26-2.83-3.79-3.8s-3.46-1.48-5.29-1.01c1.96-.23,3.51,1.33,4.7,2.79,2.1,2.58,4.16,5.63,3.63,9-.54,3.46-3.73,6.36-3.83,9.83-.04,1.53.61,3.29,1.83,4.25,1.18.93,2.07.44,3.43-.31,2.63-1.46,4.95-3.88,5.35-6.88Z"/>
      <path class="cls-1" d="M8.24,39.16c.54-2.01,1.66-3.87,2.07-5.9.83-4.06-1.67-8.34-5.59-9.57-.42-.13-3.55.39-3.86,1.21-1.57,4.18-.79,9.42.63,13.5,1.01,2.91,3.57,7.69,6.72,8.84,2.14.78.33-1.56.01-2.76-.45-1.71-.46-3.55,0-5.31Z"/>
      <path class="cls-1" d="M11.03,15.15c.11-.4.21-.81.15-1.22-.07-.47-.35-.87-.66-1.23-.33-.38-.73-.74-1.21-.89-.69-.22-1.46,0-2.04.42s-.99,1.05-1.33,1.69c-.33.63-.59,1.29-.67,2s.05,1.44.45,2.02c.55.8,1.61,1.2,2.56,1.02,1.81-.34,2.34-2.27,2.74-3.81Z"/>
      <path class="cls-1" d="M19.5,20.17c-.75-.75-1.92-.86-2.98-.82-.59.02-1.2.07-1.74.3s-1.03.68-1.17,1.25c-.25.98.54,1.93,1.42,2.42,1.03.58,2.35.76,3.4.23,1.06-.53,1.7-1.9,1.2-2.98"/>
      <path class="cls-1" d="M20.55,29.74c.18-.87.48-1.71.75-2.55.71-2.21,1.18-4.5,1.4-6.81.22,1.34.45,2.68.88,3.97.4,1.2.97,2.34,1.35,3.55.69,2.16,1.23,7.89-1.02,9.49-2.76,1.96-3.67-6.16-3.37-7.65Z"/>
      <path class="cls-1" d="M28.01,26.81c.53-.74,1.2-1.38,1.88-2,1.5-1.37,3.05-2.68,4.6-3.98-.88,1.77-1.51,3.67-1.86,5.62-.16.89-.26,1.79-.49,2.66-.34,1.26-3.13,6.78-5,4.98-1.53-1.47-.11-5.92.87-7.29Z"/>
      <path class="cls-1" d="M29,36.97c2.51-1.14,5.22-1.78,7.94-2.27-2.75,1.5-5.26,3.44-7.41,5.73-1.64,1.74-3.34,3.83-5.73,4-2.54.18-1.92-1.9-.86-3.05,1.74-1.86,3.73-3.36,6.06-4.41Z"/>
      <path class="cls-1" d="M38.72,25.61c1.58-.55,3.27-.65,4.94-.75-1.85.89-2.93,2.81-4.39,4.25-1.7,1.67-4.02,2.71-6.4,2.86,1.1-2.87,2.82-5.3,5.85-6.36Z"/>
      <path class="cls-1" d="M15.9,48.91c-1.27-.26-2.67.26-3.45,1.3-.35.46-.58,1.05-.5,1.62.05.37.24.72.47,1.02.71.93,1.95,1.45,3.1,1.23,2.72-.51,3.41-4.54.38-5.17Z"/>
      <path class="cls-1" d="M59.91,19.92c-3.1-1.17-6.59-1.26-9.74-.23,2.1.2,3.99,1.34,5.63,2.67,1.64,1.33,3.11,2.87,4.84,4.07,1.03.72,2.18,1.33,3.42,1.48,2.71.33,3.68-1.3,2.14-3.39s-3.89-3.69-6.29-4.6Z"/>
      <path class="cls-1" d="M60.56,30.94c-2.02,1.12-3.75,2.67-5.47,4.21,1.46-.45,3.02.07,4.55.2,2.94.25,5.96-1.08,7.77-3.41,2.98-3.85-5.47-1.75-6.85-.99Z"/>
      <path class="cls-1" d="M50.55,25.12c-2.92.71-5.49,2.45-7.71,4.46,1.65-.46,3.4-.54,5.08-.23,1.55.29,3.03.9,4.6,1.01,1.62.11,7.05-1.18,6.1-3.7-.87-2.31-6.31-1.97-8.07-1.54Z"/>
      <path class="cls-1" d="M91.16,39.96c-.88.61-1.4,1.64-1.55,2.7-.12.88.01,1.84.58,2.52.69.83,1.94,1.07,2.95.68s1.73-1.34,1.99-2.39c.61-2.51-1.31-5.36-3.97-3.52Z"/>
      <path class="cls-1" d="M92.89,48.47c-.84.53-1.63,1.44-1.42,2.41.08.34.27.65.5.91,1.03,1.19,2.83,1.65,4.3,1.08,1.43-.56,3.27-2.85,2.14-4.37s-4.19-.87-5.53-.03Z"/>
    </g>
  </g>
</svg>