<?xml version="1.0" encoding="UTF-8"?>
<svg id="Capa_2" data-name="Capa 2" xmlns="http://www.w3.org/2000/svg" viewBox="0 0 106.16 82.37">
  <defs>
    <style>
      .cls-1 {
        fill: #4c4b2d;
      }

      .cls-2 {
        fill: #3b3923;
      }

      .cls-3 {
        fill: #f0d09f;
      }

      .cls-4 {
        fill: #e3ba87;
      }

      .cls-5 {
        fill: #6f6536;
      }

      .cls-6 {
        fill: #bca16f;
      }

      .cls-7 {
        fill: #96804b;
      }

      .cls-8 {
        fill: #944f1d;
      }
    </style>
  </defs>
  <g id="Elementos">
    <g>
      <path class="cls-2" d="M79.35,19.88c-.4,1.69-.02,3.68-.1,6.09,7.22-1.39,13.72,1.94,15.2,9.09,1.1,5.29-.75,10.09-3.22,14.35-5.74,1.01-9.88,6.05-13.51,10.19l-1.25.31c-2.69.66-5.46,1.23-8.46,1.24-3.46,4.87-7.14,5.28-6.78,9.49-1.26.62-2.24,2.03-3.86,2.61-9.49,3.43-19.67,2.92-28.97-.74-2.57-1.01-3.21-2.86-4.53-5-1.79-2.89-5.19-4.92-7.18-7.32-6.56-12.64-10.29-26.16-11.38-40.35,13.07,17.25,60.83,17.6,74.04.04ZM72.47,52.42c6.73-.86,17.36-8.98,14.25-15.84-.54-1.18-1.89-3.18-4.06-2.73-2.14.45-5.47,2.69-6.12,4.9l-4.06,13.67ZM55.39,49c2.05,1.4,3.79-1.24,4.6-2.37.74-1.03,1-4.36-1.05-4.5-2.84-.2-4.66,5.07-3.55,6.87ZM61.53,51.26l-1.3,4.88,2.2.58,1.3-4.88-2.2-.58ZM57.65,56.57c.1-1.31-.09-2.51-1.29-2.03-1.77.71-5.48,2.84-5.02,5.2,1.4,1.97,6.13-.69,6.31-3.17Z"/>
      <path class="cls-4" d="M79.35,19.88c-13.21,17.56-60.97,17.21-74.04-.04-.45-5.85,1.84-10.63,7.94-13.67C38.21-6.26,83.79.98,79.35,19.88ZM13,19.87c-.59,1.14-.16,2.16.48,2.67,1.24.97,2.67,1.2,3.84,1.47.71.34,1.34,1.51,2.57,1.9,14.2,4.51,29.42,5.24,43.58.47,1.95-.66,3.73-1.34,3.89-3.17,1.52.68,5.57-.49,5.2-2.38-1.9-3.27-6.02-4.97-9.5-6.12-15.38-5.07-33.22-4.25-47.31,2.77,2.06-2.04,2.67-7.17.99-9.35-3.69.17-7.15,3.99-7.34,7.25-.09,1.47.29,2.4.84,3.37.43.76,1.64,1.23,2.76,1.12Z"/>
      <path class="cls-4" d="M16.69,60.19c1.99,2.4,5.39,4.43,7.18,7.32,1.32,2.14,1.96,3.99,4.53,5,9.29,3.66,19.48,4.17,28.97.74,1.62-.59,2.6-1.99,3.86-2.61s2.64-6.93,5.86-5.64c1.29.51,1.34,2.51,1.99,3.2.47.66-.28.76-.72.87-.88.21-1.61.83-1.8,1.73-5.56,4.97-8.93,1.2-15.74,8.55,6.87.63,6.84-5.91,14.82-3.32l.13,1.27c-5.31,4.82-20.35,5.27-28.08,5.02-13.24-.43-25.95-4.47-35.99-12.9-1.09-.92-1.93-2.06-1.67-3.23.81-3.63,12.61-6.74,16.65-6Z"/>
      <path class="cls-5" d="M77.61,65.5l3.72-3.95c-1.5-.81-2.48.57-3.06.21-.51-.32-.21-1.75-.54-2.15,3.62-4.13,7.77-9.18,13.51-10.19,4.66-.82,9.97,1.07,14.92,2.44-5.7,11.11-17.18,15.55-28.55,13.65ZM81.89,61.38c4.38-3.27,17.18-4.62,16.89-6.85-.7-.68-18.87,5.3-16.89,6.85Z"/>
      <path class="cls-5" d="M65.78,77.3l-.13-1.27c5.03-2.24,10.39-.93,16.21-1.16-4.9-3.22-10.09-1.02-15.39-1.7.68-2.08,2.56-3.04,4.34-3.35,7.92-1.41,11-4.62,22.61,6.2-8.53,6.56-18.86,6.45-27.63,1.29Z"/>
      <path class="cls-1" d="M77.61,65.5c-1.82,1.37-8.12,2.93-6.81,4.31-1.77.32-3.66,1.27-4.34,3.35,5.3.68,10.49-1.52,15.39,1.7-5.81.23-11.17-1.08-16.21,1.16-7.98-2.59-7.95,3.96-14.82,3.32,6.8-7.35,10.18-3.58,15.74-8.55.61-.55,1.83-.61,1.8-1.73.44-.11,1.19-.21.72-.87,3.51-1.35,5.68-5.02,7.4-8.29l1.25-.31c.34.4.03,1.83.54,2.15.58.36,1.56-1.02,3.06-.21l-3.72,3.95Z"/>
      <path class="cls-3" d="M76.48,59.91c-1.71,3.27-3.89,6.94-7.4,8.29-.65-.7-.7-2.69-1.99-3.2-3.22-1.28-4.58,5.01-5.86,5.64-.35-4.22,3.32-4.62,6.78-9.49,3.01-.01,5.78-.57,8.46-1.24Z"/>
      <path class="cls-7" d="M55.39,49c-1.11-1.81.71-7.07,3.55-6.87,2.05.14,1.8,3.47,1.05,4.5-.81,1.13-2.55,3.77-4.6,2.37Z"/>
      <path class="cls-1" d="M57.65,56.57c-.18,2.49-4.91,5.15-6.31,3.17-.46-2.36,3.25-4.49,5.02-5.2,1.2-.48,1.39.71,1.29,2.03Z"/>
      <rect class="cls-5" x="59.45" y="52.85" width="5.05" height="2.27" transform="translate(-6.1 100.05) rotate(-75.14)"/>
      <path class="cls-8" d="M67.35,23.2c-.16,1.82-1.93,2.51-3.89,3.17-14.16,4.77-29.38,4.05-43.58-.47-1.22-.39-1.85-1.55-2.57-1.9.16-1.35,1.62-2.2,3.22-2.84,14.07-5.62,34.37-6.14,46.82,2.03Z"/>
      <path class="cls-2" d="M67.35,23.2c-12.45-8.17-32.75-7.66-46.82-2.03-1.6.64-3.06,1.49-3.22,2.84-1.17-.28-2.6-.5-3.84-1.47-.64-.5-1.07-1.52-.48-2.67,1.41.02,2.03-1.7,2.75-2.39,14.09-7.02,31.93-7.84,47.31-2.77,3.48,1.15,7.59,2.85,9.5,6.12.37,1.89-3.68,3.06-5.2,2.38Z"/>
      <path class="cls-6" d="M15.74,17.47c-.71.7-1.34,2.42-2.75,2.39-1.12.1-2.33-.36-2.76-1.12-.55-.98-.93-1.9-.84-3.37.19-3.26,3.66-7.08,7.34-7.25,1.67,2.18,1.06,7.31-.99,9.35Z"/>
      <path class="cls-1" d="M81.89,61.38c-1.98-1.56,16.19-7.54,16.89-6.85.29,2.24-12.51,3.58-16.89,6.85Z"/>
      <path class="cls-3" d="M66.56,70.8c.19-.9.92-1.51,1.8-1.73.02,1.12-1.19,1.18-1.8,1.73Z"/>
    </g>
  </g>
</svg>